<svg xmlns="http://www.w3.org/2000/svg" height="512" viewBox="0 -8 512 511" width="512" class=""><g><path d="m497.324219.503906-108.652344.003906c-5.472656 0-10.484375 3.039063-13.011719 7.890626-10 19.1875-42.449218 66.902343-118.804687 69.480468h-.570313v-.003906h-.570312v.003906h-.570313c-76.355469-2.578125-108.804687-50.292968-118.804687-69.480468-2.527344-4.851563-7.539063-7.890626-13.011719-7.890626l-108.652344-.003906c-8.105469 0-14.675781 6.570313-14.675781 14.675782v71.722656c0 6.828125 4.707031 12.75 11.355469 14.292968l65.96875-3.164062c6.648437 1.546875 11.355469 7.46875 11.355469 14.292969 0 0-32.597657 132.628906-32.597657 227.253906 0 0 2.449219 94.824219 23.648438 140.78125 4.179687 9.054687 13.34375 14.761719 23.320312 14.761719h50.472657c12.011718 0 22.429687-8.285156 25.132812-19.988282l11.257812-48.726562c5.246094-22.695312 25.457032-38.769531 48.75-38.769531h34.671876c23.292968 0 43.503906 16.074219 48.746093 38.769531l11.257813 48.726562c2.703125 11.703126 13.125 19.988282 25.136718 19.988282h50.472657c9.972656 0 19.140625-5.707032 23.320312-14.761719 21.199219-45.957031 23.648438-140.78125 23.648438-140.78125 0-94.625-32.597657-227.253906-32.597657-227.253906 0-6.824219 4.703126-12.746094 11.351563-14.292969l65.972656 3.164062c6.648438-1.542968 11.355469-7.464843 11.355469-14.289062v-71.726562c0-8.105469-6.570312-14.675782-14.675781-14.675782zm0 0" fill="#8bebdb" data-original="#8BEBDB" class="" data-old_color="#8bebdb" style="fill:#91E2E0"></path><path d="m511.996094 15.175781v71.730469c0 6.820312-4.699219 12.746094-11.347656 14.289062l-65.96875-3.160156c-6.65625 1.542969-11.355469 7.46875-11.355469 14.289063 0 0 32.59375 132.628906 32.59375 227.257812 0 0-2.445313 94.820313-23.644531 140.777344-4.175782 9.058594-13.351563 14.769531-23.316407 14.769531h-29.519531c9.964844 0 19.140625-5.707031 23.316406-14.769531 21.199219-45.957031 23.644532-140.777344 23.644532-140.777344 0-52.691406-7.425782-105.53125-15.460938-157.496093-3.347656-21.667969-7.011719-43.285157-10.953125-64.851563-3.265625-17.871094-.742187-29.234375 14.664063-40.3125 17-12.222656 36.902343-4.320313 56.484374-3.445313 6.644532-1.542968 11.34375-7.46875 11.34375-14.296874v-44.003907c0-8.105469-6.5625-14.664062-14.667968-14.664062h29.519531c8.105469 0 14.667969 6.558593 14.667969 14.664062zm0 0" fill="#5ee2c5" data-original="#5EE2C5" class="active-path" data-old_color="#5ee2c5" style="fill:#7EDCC7"></path><path d="m428.433594.503906c-1.878906 4.089844-3.878906 8.117188-5.996094 12.089844-56.015625 105.035156-192.886719 143.089844-286.554688 60.152344-10.308593-9.128906-19.625-19.355469-27.902343-30.347656-6.996094-9.289063-12.097657-18.714844-17.722657-28.8125-2.425781-4.355469-4.847656-8.714844-7.253906-13.082032h40.324219c5.472656 0 10.480469 3.042969 13.007813 7.894532 9.992187 19.1875 42.445312 66.898437 118.8125 69.476562.371093.019531.765624.019531 1.136718 0 76.367188-2.578125 108.808594-50.289062 118.8125-69.476562 2.523438-4.851563 7.535156-7.894532 13.007813-7.894532zm0 0" fill="#f3cc50" data-original="#F3CC50"></path><path d="m428.4375.5c-1.882812 4.09375-3.878906 8.125-5.996094 12.097656-44.28125 83.023438-139.082031 124.207032-223.125 96.835938 79.363282 16.804687 164.402344-24.210938 205.636719-101.527344 1.308594-2.449219 2.5625-4.917969 3.777344-7.40625zm0 0" fill="#eeb900" data-original="#EEB900" class=""></path><path d="m225.917969 182.160156c0 19.855469-16.097657 35.949219-35.953125 35.949219-19.855469 0-35.953125-16.09375-35.953125-35.949219 0-19.855468 16.097656-35.953125 35.953125-35.953125 19.855468 0 35.953125 16.097657 35.953125 35.953125zm0 0" fill="#ac6a51" data-original="#AC6A51" class=""></path><path d="m154.011719 182.160156c0 19.855469 16.097656 35.953125 35.953125 35.953125 6.863281 0 13.277344-1.925781 18.734375-5.257812-2.519531.5625-5.136719.855469-7.824219.855469-19.855469 0-35.953125-16.097657-35.953125-35.953126 0-12.992187 6.890625-24.371093 17.21875-30.695312-16.09375 3.570312-28.128906 17.929688-28.128906 35.097656zm0 0" fill="#87523e" data-original="#87523E"></path><path d="m357.988281 182.160156c0 19.855469-16.097656 35.949219-35.953125 35.949219-19.855468 0-35.953125-16.09375-35.953125-35.949219 0-19.855468 16.097657-35.953125 35.953125-35.953125 19.855469 0 35.953125 16.097657 35.953125 35.953125zm0 0" fill="#ac6a51" data-original="#AC6A51" class=""></path><path d="m357.988281 182.160156c0 19.855469-16.097656 35.953125-35.953125 35.953125-6.863281 0-13.277344-1.925781-18.734375-5.257812 2.519531.5625 5.136719.855469 7.824219.855469 19.855469 0 35.953125-16.097657 35.953125-35.953126 0-12.992187-6.890625-24.371093-17.21875-30.695312 16.09375 3.570312 28.128906 17.929688 28.128906 35.097656zm0 0" fill="#87523e" data-original="#87523E"></path><path d="m350.976562 247.839844c-2.097656-15.101563-7.46875-29.863282-15.898437-42.589844-12.75-19.253906-32.957031-31.722656-55.773437-34.976562-16.164063-2.304688-34.441407-2.289063-50.523438 0-22.816406 3.253906-43.023438 15.722656-55.773438 34.976562-8.429687 12.726562-13.800781 27.488281-15.898437 42.589844-1.078125 7.753906-1.289063 15.636718-.492187 23.425781 2.304687 22.578125 12.277343 38.898437 33.34375 49.113281 9.945312 4.824219 20.851562 7.542969 31.78125 8.980469 21.28125 2.792969 43.328124 2.792969 64.601562 0 10.925781-1.4375 21.832031-4.15625 31.78125-8.980469 20.15625-9.773437 31.09375-27.09375 33.34375-49.109375.796875-7.792969.585938-15.675781-.492188-23.429687zm0 0" fill="#c78e7a" data-original="#C78E7A" class=""></path><path d="m351.46875 271.269531c-2.25 22.011719-13.183594 39.335938-33.339844 49.113281-9.953125 4.820313-20.859375 7.542969-31.785156 8.972657-13.054688 1.714843-26.394531 2.378906-39.671875 1.988281 8.351563-.246094 16.679687-.910156 24.890625-1.988281 10.929688-1.429688 21.835938-4.152344 31.785156-8.972657 20.15625-9.777343 31.097656-27.101562 33.34375-49.113281.796875-7.792969.585938-15.675781-.492187-23.429687-2.097657-15.101563-7.46875-29.863282-15.898438-42.59375-12.75-19.253906-32.957031-31.71875-55.773437-34.972656-5.753906-.820313-11.78125-1.347657-17.878906-1.578126 10.996093-.425781 22.261718.101563 32.652343 1.578126 22.820313 3.253906 43.027344 15.71875 55.773438 34.972656 8.429687 12.730468 13.800781 27.492187 15.902343 42.59375 1.074219 7.753906 1.292969 15.636718.492188 23.429687zm0 0" fill="#bd7c63" data-original="#BD7C63" class=""></path><path d="m258.429688 246.140625c-2.601563-.863281-5.433594-.90625-8.058594-.117187-11.441406 3.433593-21.378906 12.089843-26.386719 22.347656-2.402344 4.917968-3.765625 10.386718-3.210937 15.808594.585937 5.757812 3.4375 11.085937 7.722656 15.253906 14.300781 13.90625 39.035156 12.71875 52.378906-1.597656 15.476562-16.601563-.148438-44.28125-22.445312-51.695313zm0 0" fill="#fff5f5" data-original="#FFF5F5"></path><path d="m280.875 297.835938c-8.71875 9.347656-22.296875 13.101562-34.65625 10.695312 7.480469-1.4375 14.53125-5.042969 19.796875-10.695312 14.75-15.816407 1.265625-41.679688-19.320313-50.507813 1.203126-.496094 2.433594-.933594 3.675782-1.308594 2.625-.785156 5.457031-.742187 8.058594.121094 22.300781 7.414063 37.921874 35.09375 22.445312 51.695313zm0 0" fill="#efe2dd" data-original="#EFE2DD"></path><g fill="#766e6e"><path d="m212.914062 242.71875c-4.261718 0-7.714843-3.453125-7.714843-7.714844v-5.292968c0-4.261719 3.453125-7.714844 7.714843-7.714844 4.257813 0 7.714844 3.453125 7.714844 7.714844v5.292968c0 4.261719-3.457031 7.714844-7.714844 7.714844zm0 0" data-original="#000000"></path><path d="m295.175781 242.71875c-4.261719 0-7.714843-3.453125-7.714843-7.714844v-5.292968c0-4.261719 3.453124-7.714844 7.714843-7.714844s7.714844 3.453125 7.714844 7.714844v5.292968c0 4.261719-3.453125 7.714844-7.714844 7.714844zm0 0" data-original="#000000"></path><path d="m266.765625 236.082031c-5.804687-1.351562-12.710937-1.046875-12.710937-1.046875s-6.90625-.304687-12.707032 1.046875c-4.960937 1.152344-7.425781 6.726563-5.089844 11.246094 2.894532 5.601563 8.464844 13.011719 17.796876 13.511719 9.332031-.5 14.902343-7.910156 17.796874-13.511719 2.339844-4.519531-.128906-10.09375-5.085937-11.246094zm0 0" data-original="#000000"></path></g><path d="m271.851562 247.328125c-2.898437 5.597656-8.464843 13.011719-17.796874 13.507813-1.820313-.097657-3.496094-.453126-5.035157-1.015626 6.367188-2.304687 10.429688-7.988281 12.765625-12.492187 2.332032-4.519531-.132812-10.09375-5.09375-11.25-2.570312-.597656-5.355468-.871094-7.667968-.992187 2.898437-.144532 5.03125-.054688 5.03125-.054688s6.90625-.300781 12.710937 1.046875c4.953125 1.15625 7.425781 6.730469 5.085937 11.25zm0 0" fill="#5b5555" data-original="#5B5555"></path><path d="m254.203125 293.507812c-6.433594 0-12.382813-2.921874-16.320313-8.011718-2.605468-3.367188-1.988281-8.214844 1.378907-10.820313 3.371093-2.609375 8.214843-1.992187 10.824219 1.378907.992187 1.289062 2.496093 2.023437 4.117187 2.023437s3.125-.738281 4.121094-2.023437c2.605469-3.371094 7.449219-3.992188 10.820312-1.382813 3.371094 2.605469 3.988281 7.449219 1.382813 10.820313-3.941406 5.09375-9.890625 8.015624-16.324219 8.015624zm0 0" fill="#766e6e" data-original="#766E6E" class=""></path><path d="m208.261719 260.957031c0 5.707031-4.628907 10.335938-10.335938 10.335938s-10.335937-4.628907-10.335937-10.335938 4.628906-10.335937 10.335937-10.335937 10.335938 4.628906 10.335938 10.335937zm0 0" fill="#f3cc50" data-original="#F3CC50"></path><path d="m320.496094 260.957031c0 5.707031-4.625 10.335938-10.332032 10.335938-5.707031 0-10.335937-4.628907-10.335937-10.335938s4.628906-10.335937 10.335937-10.335937c5.707032 0 10.332032 4.628906 10.332032 10.335937zm0 0" fill="#f3cc50" data-original="#F3CC50"></path></g> </svg>