<?xml version="1.0" encoding="utf-8"?>
<!-- Generator: Adobe Illustrator 19.1.0, SVG Export Plug-In . SVG Version: 6.00 Build 0)  -->
<svg version="1.1" id="Layer_1" xmlns="http://www.w3.org/2000/svg" xmlns:xlink="http://www.w3.org/1999/xlink" x="0px" y="0px"
	 viewBox="0 0 128 128" style="enable-background:new 0 0 128 128;" xml:space="preserve">
<style type="text/css">
	.st0{fill:#303C42;}
	.st1{fill:none;}
	.st2{fill:#FFFFFF;}
</style>
<g>
	<g>
		<path class="st0" d="M64.8,40.6H24.3c-0.6,0-1.2-0.3-1.6-0.7c-0.4-0.5-0.5-1.1-0.4-1.7l4.5-20.5c0.2-0.9,1-1.6,2-1.6h31.5
			c0.9,0,1.8,0.7,2,1.6l3.5,16c0,0,0,0,0,0l1,4.5c0.1,0.6,0,1.2-0.4,1.7C66,40.3,65.4,40.6,64.8,40.6z M26.8,36.6h35.5l-3.6-16.5
			H30.4L26.8,36.6z"/>
	</g>
	<g>
		<path class="st0" d="M44.6,20.1c-5.4,0-9.8-4.4-9.8-9.8s4.4-9.8,9.8-9.8s9.8,4.4,9.8,9.8S50,20.1,44.6,20.1z M44.6,4.5
			c-3.2,0-5.8,2.6-5.8,5.8s2.6,5.8,5.8,5.8s5.8-2.6,5.8-5.8S47.8,4.5,44.6,4.5z"/>
	</g>
	<g>
		<path class="st0" d="M86.1,57.6c-1.1,0-2-0.9-2-2V26H61.6c-1.1,0-2-0.9-2-2s0.9-2,2-2h24.5c1.1,0,2,0.9,2,2v31.6
			C88.1,56.7,87.2,57.6,86.1,57.6z"/>
	</g>
	<g>
		<path class="st0" d="M86.1,127.5H3.1c-1.1,0-2-0.9-2-2V24c0-1.1,0.9-2,2-2h24.5c1.1,0,2,0.9,2,2s-0.9,2-2,2H5.1v97.5h79.1v-42
			c0-1.1,0.9-2,2-2s2,0.9,2,2v44C88.1,126.6,87.2,127.5,86.1,127.5z"/>
	</g>
	<g>
		<path class="st0" d="M76,116.3H13.2c-0.6,0-1-0.4-1-1V34.1c0-0.6,0.4-1,1-1h12.1c0.3,0,0.6,0.1,0.8,0.4c0.2,0.2,0.3,0.5,0.2,0.8
			l-0.7,3.3h38l-0.7-3.3c-0.1-0.3,0-0.6,0.2-0.8c0.2-0.2,0.5-0.4,0.8-0.4H76c0.6,0,1,0.4,1,1v31.6c0,0.3-0.1,0.5-0.3,0.7L61.1,82
			l11.5,11.5l2.6-2.6c0.3-0.3,0.7-0.4,1.1-0.2c0.4,0.2,0.6,0.5,0.6,0.9v23.7C77,115.9,76.5,116.3,76,116.3z M14.2,114.3H75V94
			l-1.6,1.6c-0.4,0.4-1,0.4-1.4,0L59,82.7c-0.4-0.4-0.4-1,0-1.4L75,65.3V35.1h-9.9l0.7,3.3c0.1,0.3,0,0.6-0.2,0.8
			c-0.2,0.2-0.5,0.4-0.8,0.4H24.3c-0.3,0-0.6-0.1-0.8-0.4c-0.2-0.2-0.3-0.5-0.2-0.8l0.7-3.3h-9.9V114.3z"/>
	</g>
	<g>
		<path class="st0" d="M54,101.6c-0.3,0-0.5-0.1-0.7-0.3c-0.3-0.3-0.4-0.6-0.2-1l5.7-18.6c0.1-0.3,0.4-0.6,0.7-0.7
			c0.3-0.1,0.7,0,0.9,0.3l12.9,12.9c0.2,0.2,0.3,0.6,0.3,0.9c-0.1,0.3-0.3,0.6-0.7,0.7l-18.6,5.7C54.2,101.6,54.1,101.6,54,101.6z
			 M60.2,83.9l-4.7,15.2l15.2-4.7L60.2,83.9z"/>
	</g>
	<g>
		<path class="st0" d="M54,102.6c-0.5,0-1-0.2-1.4-0.6c-0.5-0.5-0.7-1.3-0.5-2l5.7-18.4c0.1-0.4,0.2-0.8,0.5-1.1l52.3-52.3
			c0.8-0.8,2-0.8,2.8,0l12.9,12.9c0.4,0.4,0.6,0.9,0.6,1.4s-0.2,1-0.6,1.4L74.1,96.3c-0.3,0.3-0.7,0.5-1.1,0.6l-18.4,5.7
			C54.4,102.6,54.2,102.6,54,102.6z M61.5,83L57,97.6l14.6-4.5l50.5-50.5L112,32.6L61.5,83z"/>
	</g>
</g>
</svg>
