<?xml version="1.0" encoding="utf-8"?>
<!-- Generator: Adobe Illustrator 19.1.0, SVG Export Plug-In . SVG Version: 6.00 Build 0)  -->
<svg version="1.1" id="Layer_1" xmlns="http://www.w3.org/2000/svg" xmlns:xlink="http://www.w3.org/1999/xlink" x="0px" y="0px"
	 viewBox="0 0 128 128" style="enable-background:new 0 0 128 128;" xml:space="preserve">
<style type="text/css">
	.st0{fill:#303C42;}
	.st1{fill:none;stroke:#303C42;stroke-width:4;stroke-linecap:round;stroke-linejoin:round;stroke-miterlimit:10;}
</style>
<g>
	<g>
		<path class="st0" d="M97.8,74.4c-8.7,0-15.8-7.1-15.8-15.7c0-8.7,7.1-15.7,15.8-15.7c8.7,0,15.8,7.1,15.8,15.7
			C113.6,67.3,106.5,74.4,97.8,74.4z M97.8,46.9c-6.5,0-11.8,5.3-11.8,11.7c0,6.5,5.3,11.7,11.8,11.7c6.5,0,11.8-5.3,11.8-11.7
			C109.6,52.2,104.3,46.9,97.8,46.9z"/>
	</g>
	<g>
		<path class="st0" d="M29.7,74.4c-8.7,0-15.8-7.1-15.8-15.7c0-8.7,7.1-15.7,15.8-15.7S45.5,50,45.5,58.6
			C45.5,67.3,38.4,74.4,29.7,74.4z M29.7,46.9c-6.5,0-11.8,5.3-11.8,11.7c0,6.5,5.3,11.7,11.8,11.7c6.5,0,11.8-5.3,11.8-11.7
			C41.5,52.2,36.2,46.9,29.7,46.9z"/>
	</g>
	<g>
		<path class="st0" d="M63.7,80c-8.7,0-15.8-7.1-15.8-15.7c0-8.7,7.1-15.7,15.8-15.7s15.8,7.1,15.8,15.7C79.5,72.9,72.4,80,63.7,80z
			 M63.7,52.5c-6.5,0-11.8,5.3-11.8,11.7c0,6.5,5.3,11.7,11.8,11.7c6.5,0,11.8-5.3,11.8-11.7C75.5,57.7,70.2,52.5,63.7,52.5z"/>
	</g>
	<g>
		<path class="st0" d="M84.4,127.5H43c-4.7,0-8.5-4.4-8.5-9.8c0-15.5,8.7-29.2,21.2-33.4c0.4-0.1,0.9-0.1,1.3,0
			c4.3,1.5,9,1.5,13.3,0c0.4-0.1,0.9-0.2,1.3,0c12.5,4.2,21.2,17.9,21.2,33.4C92.9,123.1,89.1,127.5,84.4,127.5z M56.4,88.3
			c-10.6,3.9-17.9,15.9-17.9,29.4c0,3.2,2,5.8,4.5,5.8h41.4c2.5,0,4.5-2.6,4.5-5.8c0-13.5-7.3-25.5-17.9-29.4
			C66.3,89.9,61.2,89.9,56.4,88.3z"/>
	</g>
	<g>
		<path class="st0" d="M36.6,120.8H9c-4.7,0-8.5-4.4-8.5-9.8c0-15.5,8.7-29.2,21.2-33.4c0.4-0.1,0.9-0.1,1.3,0c4.3,1.5,9,1.5,13.3,0
			c0.4-0.1,0.9-0.2,1.3,0c5.5,1.8,10.4,5.5,14.1,10.7c0.3,0.4,0.4,1,0.4,1.5c-0.1,0.5-0.4,1-0.8,1.3c-7.8,5.5-12.7,15.7-12.7,26.6
			v1.1C38.6,119.9,37.7,120.8,36.6,120.8z M22.4,81.6C11.8,85.5,4.5,97.5,4.5,111c0,3.2,2,5.8,4.5,5.8h25.6
			c0.3-11.1,5-21.5,12.7-27.7c-2.9-3.5-6.4-6-10.3-7.5C32.2,83.1,27.1,83.1,22.4,81.6z"/>
	</g>
	<g>
		<path class="st0" d="M118.5,120.8H90.9c-1.1,0-2-0.9-2-2v-1.1c0-11-4.9-21.2-12.7-26.6c-0.4-0.3-0.7-0.8-0.8-1.3
			c-0.1-0.5,0-1.1,0.4-1.5c3.8-5.1,8.6-8.8,14.1-10.7c0.4-0.1,0.9-0.1,1.3,0c4.3,1.5,9,1.5,13.3,0c0.4-0.1,0.9-0.2,1.3,0
			C118.2,81.8,127,95.5,127,111C127,116.4,123.2,120.8,118.5,120.8z M92.9,116.8h25.6c2.5,0,4.5-2.6,4.5-5.8
			c0-13.5-7.3-25.5-17.9-29.4c-4.8,1.5-9.8,1.5-14.6,0c-3.9,1.4-7.4,4-10.3,7.5C87.9,95.3,92.6,105.7,92.9,116.8z"/>
	</g>
	<g>
		<path class="st0" d="M78.2,46.9c-0.4,0-0.7-0.1-1.1-0.3c-0.7-0.5-1.1-1.3-0.9-2.2l2.2-9.2c-5.7-1.2-10-6.2-10-12.2V12.9
			c0-6.8,5.6-12.4,12.4-12.4h34.1c6.9,0,12.4,5.6,12.4,12.4v10.2c0,6.8-5.6,12.4-12.4,12.4H92.9L79.4,46.4
			C79.1,46.7,78.6,46.9,78.2,46.9z M80.9,4.5c-4.7,0-8.4,3.8-8.4,8.4v10.2c0,4.6,3.8,8.4,8.4,8.4c0.6,0,1.2,0.3,1.6,0.8
			c0.4,0.5,0.5,1.1,0.4,1.7l-1.4,5.6l9.4-7.6c0.4-0.3,0.8-0.4,1.3-0.4h22.9c4.7,0,8.4-3.8,8.4-8.4V12.9c0-4.6-3.8-8.4-8.4-8.4H80.9z
			"/>
	</g>
	<g>
		<g>
			<path class="st0" d="M81.7,23.9c-2.9,0-5.2-2.3-5.2-5.2c0-2.9,2.3-5.2,5.2-5.2c2.9,0,5.2,2.3,5.2,5.2
				C86.9,21.6,84.6,23.9,81.7,23.9z M81.7,15.6c-1.8,0-3.2,1.4-3.2,3.2c0,1.8,1.4,3.2,3.2,3.2c1.8,0,3.2-1.4,3.2-3.2
				C84.9,17,83.5,15.6,81.7,15.6z"/>
		</g>
		<g>
			<path class="st0" d="M98,23.9c-2.9,0-5.2-2.3-5.2-5.2c0-2.9,2.3-5.2,5.2-5.2c2.9,0,5.2,2.3,5.2,5.2
				C103.2,21.6,100.8,23.9,98,23.9z M98,15.6c-1.8,0-3.2,1.4-3.2,3.2c0,1.8,1.4,3.2,3.2,3.2s3.2-1.4,3.2-3.2
				C101.2,17,99.7,15.6,98,15.6z"/>
		</g>
		<g>
			<path class="st0" d="M114.3,23.9c-2.9,0-5.2-2.3-5.2-5.2c0-2.9,2.3-5.2,5.2-5.2c2.9,0,5.2,2.3,5.2,5.2
				C119.4,21.6,117.1,23.9,114.3,23.9z M114.3,15.6c-1.8,0-3.2,1.4-3.2,3.2c0,1.8,1.4,3.2,3.2,3.2c1.8,0,3.2-1.4,3.2-3.2
				C117.4,17,116,15.6,114.3,15.6z"/>
		</g>
	</g>
</g>
</svg>
