<svg xmlns="http://www.w3.org/2000/svg" height="512" viewBox="0 0 512 512" width="512" class=""><g><path d="m512 256c0 39.949219-9.148438 77.761719-25.480469 111.449219-23.007812 47.519531-60.289062 86.851562-106.257812 112.421875-36.800781 20.46875-79.160157 32.128906-124.261719 32.128906-49.421875 0-95.558594-14.011719-134.691406-38.261719-5.238282-3.25-10.359375-6.6875-15.339844-10.296875-34.140625-24.730468-61.929688-57.679687-80.46875-95.941406-16.339844-33.710938-25.5-71.53125-25.5-111.5 0-141.378906 114.621094-256 256-256s256 114.621094 256 256zm0 0" fill="#3d4951" data-original="#3D4951" class=""></path><path d="m456.429688 126.527344-200.429688-43.109375-188.574219 43.109375v166.363281h389.003907zm0 0" fill="#ff931f" data-original="#FF931F"></path><g fill="#52aece"><path d="m405.722656 37.273438c-3.125 10.046874-.976562 31.832031 9.070313 34.957031s24.179687-13.589844 27.304687-23.632813c3.128906-10.046875-2.480468-20.726562-12.527344-23.851562-10.042968-3.125-20.722656 2.484375-23.847656 12.527344zm0 0" data-original="#000000"></path><path d="m416.335938 131.378906c3.125-10.046875.972656-31.832031-9.070313-34.957031-10.046875-3.125-24.179687 13.589844-27.304687 23.632813-3.128907 10.046874 2.480468 20.722656 12.523437 23.851562 10.046875 3.125 20.722656-2.484375 23.851563-12.527344zm0 0" data-original="#000000"></path><path d="m449.121094 56.203125c-10.261719 2.316406-28.050782 15.074219-25.734375 25.335937 2.3125 10.261719 23.855469 14.144532 34.121093 11.828126 10.261719-2.3125 16.703126-12.511719 14.386719-22.773438-2.3125-10.261719-12.507812-16.703125-22.773437-14.390625zm0 0" data-original="#000000"></path><path d="m372.933594 112.445312c10.261718-2.3125 28.054687-15.070312 25.738281-25.332031s-23.859375-14.144531-34.121094-11.828125c-10.261719 2.3125-16.703125 12.511719-14.390625 22.773438 2.316406 10.261718 12.511719 16.703125 22.773438 14.386718zm0 0" data-original="#000000"></path><path d="m454.429688 103.257812c-7.136719-7.730468-27.078126-16.761718-34.808594-9.625-7.730469 7.136719-.320313 27.734376 6.816406 35.464844 7.132812 7.730469 19.1875 8.214844 26.917969 1.078125s8.210937-19.1875 1.074219-26.917969zm0 0" data-original="#000000"></path><path d="m367.628906 65.394531c7.136719 7.730469 27.078125 16.761719 34.808594 9.625 7.726562-7.136719.320312-27.734375-6.816406-35.464843-7.136719-7.730469-19.1875-8.210938-26.917969-1.078126-7.730469 7.136719-8.210937 19.1875-1.074219 26.917969zm0 0" data-original="#000000"></path></g><path d="m420.835938 52.855469c-17.386719-5.414063-35.871094 4.292969-41.28125 21.683593-5.414063 17.386719 4.292968 35.871094 21.683593 41.28125 17.386719 5.414063 35.871094-4.296874 41.28125-21.683593 5.414063-17.386719-4.296875-35.871094-21.683593-41.28125zm0 0" fill="#e86b0f" data-original="#E86B0F" class=""></path><path d="m417.238281 64.417969c-11.003906-3.425781-22.695312 2.71875-26.121093 13.71875-3.425782 11 2.71875 22.695312 13.71875 26.121093 11 3.421876 22.695312-2.71875 26.121093-13.71875 3.425781-11.003906-2.71875-22.699218-13.71875-26.121093zm0 0" fill="#ff8c2e" data-original="#FF8C2E"></path><path d="m444.828125 124.332031c-1.679687 9.785157 3.039063 29.902344 12.824219 31.582031 9.789062 1.675782 20.9375-15.71875 22.617187-25.507812 1.675781-9.785156-4.898437-19.078125-14.683593-20.757812-9.785157-1.679688-19.082032 4.894531-20.757813 14.683593zm0 0" fill="#73c66a" data-original="#73C66A" class=""></path><path d="m466.441406 211.0625c1.675782-9.789062-3.042968-29.90625-12.828125-31.582031-9.789062-1.679688-20.9375 15.71875-22.617187 25.503906-1.675782 9.789063 4.898437 19.082031 14.683594 20.761719 9.789062 1.675781 19.082031-4.898438 20.761718-14.683594zm0 0" fill="#73c66a" data-original="#73C66A" class=""></path><path d="m487.785156 136.65625c-9.3125 3.4375-24.375 17.582031-20.9375 26.898438 3.441406 9.3125 24.082032 10.273437 33.394532 6.832031 9.316406-3.441407 14.078124-13.78125 10.640624-23.09375-3.441406-9.316407-13.78125-14.078125-23.097656-10.636719zm0 0" fill="#73c66a" data-original="#73C66A" class=""></path><path d="m423.480469 198.738281c9.316406-3.441406 24.378906-17.585937 20.9375-26.898437-3.441407-9.316406-24.078125-10.273438-33.394531-6.832032-9.316407 3.4375-14.078126 13.777344-10.636719 23.09375 3.4375 9.3125 13.777343 14.078126 23.09375 10.636719zm0 0" fill="#73c66a" data-original="#73C66A" class=""></path><path d="m498.59375 180.019531c-7.636719-6.347656-27.417969-12.320312-33.765625-4.679687-6.347656 7.636718 3.144531 25.988281 10.78125 32.335937 7.636719 6.347657 18.972656 5.300781 25.320313-2.335937 6.347656-7.636719 5.300781-18.972656-2.335938-25.320313zm0 0" fill="#73c66a" data-original="#73C66A" class=""></path><path d="m412.675781 155.371094c7.636719 6.347656 27.414063 12.320312 33.761719 4.683594 6.347656-7.636719-3.140625-25.992188-10.78125-32.339844-7.636719-6.347656-18.972656-5.300782-25.316406 2.335937-6.347656 7.640625-5.300782 18.976563 2.335937 25.320313zm0 0" fill="#73c66a" data-original="#73C66A" class=""></path><path d="m460.894531 137.03125c-16.941406-2.90625-33.03125 8.472656-35.933593 25.414062-2.90625 16.941407 8.472656 33.03125 25.414062 35.933594 16.941406 2.90625 33.027344-8.472656 35.933594-25.414062s-8.472656-33.03125-25.414063-35.933594zm0 0" fill="#e2d7db" data-original="#E2D7DB" class=""></path><path d="m458.960938 148.296875c-10.71875-1.839844-20.898438 5.363281-22.734376 16.082031-1.839843 10.71875 5.359376 20.898438 16.078126 22.734375 10.71875 1.839844 20.898437-5.359375 22.738281-16.078125 1.835937-10.722656-5.363281-20.898437-16.082031-22.738281zm0 0" fill="#f2f2f2" data-original="#F2F2F2" class=""></path><path d="m307.820312 57.035156c2.984376 9.695313 16.558594 25.855469 26.253907 22.871094 9.695312-2.980469 11.835937-23.980469 8.851562-33.675781-2.984375-9.695313-13.261719-15.132813-22.957031-12.148438s-15.132812 13.261719-12.148438 22.953125zm0 0" fill="#73c66a" data-original="#73C66A" class=""></path><path d="m367.511719 126.125c-2.984375-9.695312-16.558594-25.855469-26.253907-22.871094-9.695312 2.984375-11.835937 23.980469-8.851562 33.675782 2.984375 9.695312 13.261719 15.136718 22.957031 12.152343 9.695313-2.984375 15.132813-13.261719 12.148438-22.957031zm0 0" fill="#73c66a" data-original="#73C66A" class=""></path><path d="m352.65625 48.460938c-6.902344 7.429687-14.109375 27.269531-6.679688 34.171874 7.433594 6.90625 26.6875-1.738281 33.589844-9.167968 6.90625-7.433594 6.480469-19.054688-.953125-25.957032-7.429687-6.90625-19.050781-6.476562-25.957031.953126zm0 0" fill="#73c66a" data-original="#73C66A" class=""></path><path d="m322.675781 134.703125c6.902344-7.433594 14.109375-27.269531 6.679688-34.175781-7.433594-6.902344-26.6875 1.742187-33.589844 9.171875-6.90625 7.433593-6.480469 19.054687.953125 25.957031 7.429688 6.902344 19.050781 6.476562 25.957031-.953125zm0 0" fill="#73c66a" data-original="#73C66A" class=""></path><path d="m382.503906 83.003906c-9.886718-2.261718-30.667968 1.414063-32.933594 11.304688-2.261718 9.886718 14.851563 22.238281 24.738282 24.503906 9.886718 2.261719 19.738281-3.917969 22-13.804688 2.265625-9.890624-3.914063-19.738281-13.804688-22.003906zm0 0" fill="#73c66a" data-original="#73C66A" class=""></path><path d="m292.824219 100.15625c9.890625 2.265625 30.671875-1.414062 32.9375-11.300781 2.261719-9.886719-14.851563-22.242188-24.738281-24.503907-9.890626-2.261718-19.738282 3.917969-22.003907 13.804688-2.261719 9.890625 3.917969 19.738281 13.804688 22zm0 0" fill="#73c66a" data-original="#73C66A" class=""></path><path d="m368.0625 82.246094c-5.164062-16.78125-22.957031-26.199219-39.738281-21.035156-16.78125 5.164062-26.199219 22.953124-21.035157 39.738281 5.164063 16.78125 22.953126 26.199219 39.734376 21.035156 16.785156-5.164063 26.203124-22.953125 21.039062-39.738281zm0 0" fill="#ff931f" data-original="#FF931F"></path><path d="m356.902344 85.683594c-3.269532-10.621094-14.523438-16.578125-25.144532-13.3125-10.617187 3.269531-16.574218 14.523437-13.308593 25.144531 3.265625 10.617187 14.523437 16.574219 25.140625 13.308594 10.621094-3.265625 16.578125-14.523438 13.3125-25.140625zm0 0" fill="#ffbb16" data-original="#FFBB16" class=""></path><path d="m422.300781 211.132812c2.300781 9.179688 14.148438 24.914063 23.332031 22.613282 9.179688-2.300782 12.21875-21.757813 9.917969-30.941406-2.296875-9.179688-11.605469-14.757813-20.785156-12.460938-9.183594 2.296875-14.761719 11.605469-12.464844 20.789062zm0 0" fill="#ff8c2e" data-original="#FF8C2E"></path><path d="m474.496094 278.46875c-2.296875-9.179688-14.148438-24.914062-23.328125-22.613281-9.183594 2.296875-12.21875 21.757812-9.921875 30.941406 2.300781 9.179687 11.605468 14.757813 20.789062 12.460937 9.179688-2.296874 14.761719-11.605468 12.460938-20.789062zm0 0" fill="#ff8c2e" data-original="#FF8C2E"></path><path d="m464.507812 205.363281c-6.800781 6.582031-14.5 24.710938-7.917968 31.511719 6.582031 6.800781 24.953125-.296875 31.753906-6.878906 6.800781-6.582032 6.980469-17.429688.398438-24.234375-6.582032-6.800781-17.429688-6.980469-24.234376-.398438zm0 0" fill="#ff8c2e" data-original="#FF8C2E"></path><path d="m432.289062 284.238281c6.800782-6.582031 14.5-24.710937 7.921876-31.511719-6.582032-6.800781-24.953126.296876-31.757813 6.878907-6.800781 6.582031-6.980469 17.429687-.398437 24.234375 6.582031 6.800781 17.433593 6.976562 24.234374.398437zm0 0" fill="#ff8c2e" data-original="#FF8C2E"></path><path d="m490.605469 239.035156c-9.097657-2.601562-28.648438-.207031-31.25 8.894532-2.597657 9.101562 12.734375 21.460937 21.835937 24.0625 9.101563 2.601562 18.585938-2.671876 21.1875-11.769532 2.597656-9.105468-2.671875-18.589844-11.773437-21.1875zm0 0" fill="#ff8c2e" data-original="#FF8C2E"></path><path d="m406.191406 250.566406c9.101563 2.601563 28.648438.203125 31.25-8.894531 2.597656-9.101563-12.734375-21.460937-21.835937-24.0625-9.101563-2.601563-18.585938 2.667969-21.183594 11.769531-2.601563 9.101563 2.667969 18.589844 11.769531 21.1875zm0 0" fill="#ff8c2e" data-original="#FF8C2E"></path><path d="m477.199219 237.601562c-3.976563-15.894531-20.089844-25.550781-35.984375-21.570312-15.894532 3.976562-25.550782 20.089844-21.574219 35.984375 3.980469 15.894531 20.09375 25.550781 35.988281 21.570313 15.894532-3.976563 25.550782-20.089844 21.570313-35.984376zm0 0" fill="#e21313" data-original="#E21313"></path><path d="m466.628906 240.25c-2.515625-10.058594-12.710937-16.167969-22.765625-13.648438-10.058593 2.515626-16.167969 12.710938-13.652343 22.765626 2.519531 10.058593 12.714843 16.167968 22.769531 13.648437 10.058593-2.515625 16.167969-12.710937 13.648437-22.765625zm0 0" fill="#f73e3e" data-original="#F73E3E"></path><path d="m80.738281 205.800781c0 9.464844-7.671875 27.601563-17.136719 27.601563-9.464843 0-17.136718-18.136719-17.136718-27.601563 0-9.464843 7.671875-17.140625 17.136718-17.140625 9.464844 0 17.136719 7.675782 17.136719 17.140625zm0 0" fill="#ffbb16" data-original="#FFBB16" class=""></path><path d="m46.464844 283.800781c0-9.464843 7.671875-27.605469 17.136718-27.605469 9.464844 0 17.136719 18.140626 17.136719 27.605469 0 9.464844-7.671875 17.136719-17.136719 17.136719-9.464843 0-17.136718-7.671875-17.136718-17.136719zm0 0" fill="#ffbb16" data-original="#FFBB16" class=""></path><path d="m38.394531 210.457031c8.199219 4.734375 20.070313 20.449219 15.335938 28.644531-4.730469 8.199219-24.277344 5.773438-32.472657 1.039063-8.199218-4.730469-11.003906-15.210937-6.273437-23.410156 4.730469-8.195313 15.214844-11.003907 23.410156-6.273438zm0 0" fill="#ffbb16" data-original="#FFBB16" class=""></path><path d="m88.808594 279.144531c-8.199219-4.734375-20.070313-20.449219-15.339844-28.644531 4.734375-8.199219 24.277344-5.773438 32.476562-1.039062 8.195313 4.730468 11.003907 15.210937 6.273438 23.410156-4.734375 8.195312-15.214844 11.003906-23.410156 6.273437zm0 0" fill="#ffbb16" data-original="#FFBB16" class=""></path><path d="m21.257812 249.460938c8.195313-4.734376 27.742188-7.160157 32.472657 1.039062 4.734375 8.195312-7.136719 23.910156-15.335938 28.644531-8.195312 4.730469-18.675781 1.921875-23.410156-6.273437-4.734375-8.199219-1.925781-18.679688 6.273437-23.410156zm0 0" fill="#ffbb16" data-original="#FFBB16" class=""></path><path d="m105.945312 240.140625c-8.199218 4.734375-27.742187 7.160156-32.476562-1.039063-4.730469-8.195312 7.140625-23.910156 15.339844-28.644531 8.195312-4.730469 18.675781-1.921875 23.410156 6.273438 4.730469 8.199219 1.921875 18.679687-6.273438 23.410156zm0 0" fill="#ffbb16" data-original="#FFBB16" class=""></path><path d="m93.265625 244.800781c0 16.382813-13.28125 29.664063-29.664063 29.664063-16.382812 0-29.667968-13.28125-29.667968-29.664063 0-16.386719 13.285156-29.667969 29.667968-29.667969 16.382813 0 29.664063 13.28125 29.664063 29.667969zm0 0" fill="#e86b0f" data-original="#E86B0F" class=""></path><path d="m82.371094 244.800781c0 10.367188-8.402344 18.769531-18.769532 18.769531-10.367187 0-18.769531-8.402343-18.769531-18.769531 0-10.367187 8.402344-18.769531 18.769531-18.769531 10.367188 0 18.769532 8.402344 18.769532 18.769531zm0 0" fill="#ff8c2e" data-original="#FF8C2E"></path><path d="m486.519531 367.449219c-41.429687 85.550781-129.089843 144.550781-230.519531 144.550781-101.410156 0-189.058594-58.980469-230.5-144.5 1.769531-10.789062 4.320312-21.589844 7.679688-32.320312 21.570312-68.839844 72.089843-120.628907 133.96875-146.109376 11.050781-4.558593 22.472656-8.28125 34.152343-11.089843 39.800781-9.640625 82.621094-8.929688 124.519531 4.199219 36.679688 11.5 68.519532 31.199218 94.121094 56.46875 12.609375 12.453124 23.707032 26.261718 33.128906 41.089843 16.851563 26.542969 28.320313 56.382813 33.449219 87.710938zm0 0" fill="#52aece" data-original="#52AECE" class="active-path" data-old_color="#52aece" style="fill:#91E2E0"></path><path d="m372.039062 202.320312c-25.570312-2.269531-50.910156-.242187-75.117187 5.621094-11.683594 2.808594-23.101563 6.527344-34.160156 11.089844-61.871094 25.480469-112.402344 77.269531-133.972657 146.109375-11.390624 36.371094-13.4375 73.429687-7.480468 108.597656-5.238282-3.25-10.359375-6.6875-15.339844-10.296875-34.140625-24.730468-61.929688-57.679687-80.46875-95.941406 1.769531-10.789062 4.320312-21.589844 7.679688-32.320312 21.570312-68.839844 72.089843-120.628907 133.96875-146.109376 11.050781-4.558593 22.472656-8.28125 34.152343-11.089843 39.800781-9.640625 82.621094-8.929688 124.519531 4.199219 16.429688 5.148437 31.871094 11.941406 46.21875 20.140624zm0 0" fill="#2b9bba" data-original="#2B9BBA"></path><path d="m224.160156 329.398438c-29.738281 30.0625-79.269531-16.589844-116.488281 2.871093-37.210937 19.460938-52.472656 2.109375-48.683594 41.902344 2.113281 22.25 48.742188 47.269531 46.980469 89.269531-34.140625-24.730468-61.929688-57.679687-80.46875-95.941406 1.769531-10.789062 4.320312-21.589844 7.679688-32.320312 21.570312-68.839844 72.089843-120.628907 133.96875-146.109376 53.113281 31.140626 86.742187 110.269532 57.011718 140.328126zm0 0" fill="#73c66a" data-original="#73C66A" class=""></path><path d="m218.589844 243.050781c-31.058594 21.488281-57.089844 50.609375-74.960938 85.699219-12.519531-2.199219-24.789062-2.308594-35.957031 3.519531-37.210937 19.460938-52.472656 2.109375-48.683594 41.902344 2.113281 22.25 48.742188 47.269531 46.980469 89.269531-34.140625-24.730468-61.929688-57.679687-80.46875-95.941406 1.769531-10.789062 4.320312-21.589844 7.679688-32.320312 21.570312-68.839844 72.089843-120.628907 133.96875-146.109376 21.171874 12.410157 39.242187 32.460938 51.441406 53.980469zm0 0" fill="#52af45" data-original="#52AF45" class=""></path><path d="m486.519531 367.449219c-23.007812 47.519531-60.289062 86.851562-106.257812 112.421875-17.050781-14.792969-32.453125-27.980469-34.882813-43.03125-6.507812-40.371094 75.3125 4.429687 63.691406-33.289063-11.609374-37.730469-40.75 21.308594-59.398437-14.351562-7.851563-15.019531 2.71875-38.199219 21.847656-59.5 12.96875-14.410157 29.859375-27.96875 47.652344-37.488281 11.199219-6.019532 22.757813-10.441407 33.898437-12.472657 16.851563 26.542969 28.320313 56.382813 33.449219 87.710938zm0 0" fill="#73c66a" data-original="#73C66A" class=""></path><path d="m419.9375 238.648438c-.003906.011718-.015625.007812-.015625.007812-77.792969 16.183594-203.378906-31.550781-218.617187-60.675781 39.796874-9.636719 82.613281-8.929688 124.515624 4.199219 36.683594 11.496093 68.519532 31.203124 94.117188 56.46875zm0 0" fill="#f2f2f2" data-original="#F2F2F2" class=""></path><path d="m413.320312 289.148438c-14.90625-4.671876-32.722656 9.839843-39.792968 32.410156-7.074219 22.570312-.722656 44.652344 14.183594 49.324218 14.902343 4.667969 32.71875-9.84375 39.789062-32.410156 7.074219-22.570312.722656-44.65625-14.179688-49.324218zm0 0" fill="#8dc6db" data-original="#8DC6DB" class=""></path><path d="m325.820312 182.179688c-41.902343-13.128907-84.71875-13.835938-124.515624-4.199219 6.304687 12.050781 31.515624 27.289062 64.40625 39.867187 10.136718-4.015625 20.5625-7.34375 31.207031-9.910156 24.207031-5.859375 49.535156-7.886719 75.09375-5.625-14.347657-8.191406-29.78125-14.988281-46.191407-20.132812zm0 0" fill="#e2d7db" data-original="#E2D7DB" class=""></path><path d="m427.492188 338.496094c-7.070313 22.566406-24.886719 37.085937-39.796876 32.414062-13.109374-4.109375-19.597656-21.683594-16.171874-41.207031 12.964843-14.417969 29.855468-27.96875 47.640624-37.496094 10.589844 7.972657 14.390626 26.953125 8.328126 46.289063zm0 0" fill="#99dd90" data-original="#99DD90" class=""></path><path d="m106.277344 37.273438c3.125 10.046874.976562 31.832031-9.070313 34.957031s-24.179687-13.589844-27.304687-23.632813c-3.128906-10.046875 2.480468-20.726562 12.527344-23.851562 10.042968-3.125 20.722656 2.484375 23.847656 12.527344zm0 0" fill="#ffbb16" data-original="#FFBB16" class=""></path><path d="m95.664062 131.378906c-3.125-10.046875-.972656-31.832031 9.070313-34.957031 10.046875-3.125 24.179687 13.589844 27.304687 23.632813 3.128907 10.046874-2.480468 20.722656-12.523437 23.851562-10.046875 3.125-20.722656-2.484375-23.851563-12.527344zm0 0" fill="#ffbb16" data-original="#FFBB16" class=""></path><path d="m62.878906 56.203125c10.261719 2.316406 28.050782 15.074219 25.734375 25.335937-2.3125 10.261719-23.855469 14.144532-34.121093 11.828126-10.261719-2.3125-16.703126-12.507813-14.386719-22.773438 2.3125-10.261719 12.507812-16.703125 22.773437-14.390625zm0 0" fill="#ffbb16" data-original="#FFBB16" class=""></path><path d="m139.066406 112.445312c-10.261718-2.3125-28.054687-15.070312-25.738281-25.332031s23.859375-14.144531 34.121094-11.828125c10.261719 2.3125 16.703125 12.511719 14.390625 22.773438-2.316406 10.261718-12.511719 16.703125-22.773438 14.386718zm0 0" fill="#ffbb16" data-original="#FFBB16" class=""></path><path d="m57.570312 103.257812c7.136719-7.730468 27.078126-16.761718 34.808594-9.625 7.730469 7.136719.320313 27.734376-6.816406 35.464844-7.132812 7.730469-19.1875 8.214844-26.917969 1.078125s-8.210937-19.1875-1.074219-26.917969zm0 0" fill="#ffbb16" data-original="#FFBB16" class=""></path><path d="m144.371094 65.394531c-7.136719 7.730469-27.078125 16.761719-34.808594 9.625-7.726562-7.136719-.320312-27.734375 6.816406-35.464843 7.136719-7.730469 19.1875-8.210938 26.917969-1.078126 7.730469 7.136719 8.210937 19.1875 1.074219 26.917969zm0 0" fill="#ffbb16" data-original="#FFBB16" class=""></path><path d="m132.453125 74.523438c-5.410156-17.390626-23.894531-27.097657-41.28125-21.683594-17.390625 5.410156-27.097656 23.894531-21.683594 41.28125 5.410157 17.386718 23.894531 27.097656 41.28125 21.683594 17.390625-5.410157 27.097657-23.894532 21.683594-41.28125zm0 0" fill="#e21313" data-original="#E21313"></path><path d="m120.890625 78.121094c-3.425781-11-15.117187-17.144532-26.121094-13.71875-11 3.425781-17.144531 15.117187-13.71875 26.121094 3.425781 11 15.117188 17.144531 26.121094 13.71875 11-3.425782 17.144531-15.121094 13.71875-26.121094zm0 0" fill="#f73e3e" data-original="#F73E3E"></path><path d="m67.171875 124.332031c1.679687 9.785157-3.039063 29.902344-12.824219 31.582031-9.789062 1.675782-20.9375-15.71875-22.617187-25.507812-1.675781-9.785156 4.898437-19.078125 14.683593-20.757812 9.785157-1.679688 19.082032 4.894531 20.757813 14.683593zm0 0" fill="#52aece" data-original="#52AECE" class="active-path" data-old_color="#52aece" style="fill:#91E2E0"></path><path d="m45.558594 211.0625c-1.675782-9.789062 3.042968-29.90625 12.828125-31.582031 9.789062-1.679688 20.9375 15.71875 22.617187 25.503906 1.675782 9.789063-4.898437 19.082031-14.683594 20.761719-9.789062 1.675781-19.082031-4.898438-20.761718-14.683594zm0 0" fill="#52aece" data-original="#52AECE" class="active-path" data-old_color="#52aece" style="fill:#91E2E0"></path><path d="m24.214844 136.65625c9.3125 3.4375 24.375 17.582031 20.9375 26.898438-3.441406 9.3125-24.082032 10.273437-33.394532 6.832031-9.316406-3.441407-14.078124-13.78125-10.640624-23.09375 3.441406-9.316407 13.78125-14.078125 23.097656-10.636719zm0 0" fill="#52aece" data-original="#52AECE" class="active-path" data-old_color="#52aece" style="fill:#91E2E0"></path><path d="m88.519531 198.738281c-9.316406-3.441406-24.378906-17.585937-20.9375-26.898437 3.441407-9.316406 24.078125-10.273438 33.394531-6.832032 9.316407 3.4375 14.078126 13.777344 10.636719 23.09375-3.4375 9.3125-13.777343 14.078126-23.09375 10.636719zm0 0" fill="#52aece" data-original="#52AECE" class="active-path" data-old_color="#52aece" style="fill:#91E2E0"></path><path d="m13.40625 180.019531c7.636719-6.347656 27.417969-12.320312 33.765625-4.679687 6.347656 7.636718-3.144531 25.988281-10.78125 32.335937-7.636719 6.347657-18.972656 5.300781-25.320313-2.335937-6.347656-7.636719-5.300781-18.972656 2.335938-25.320313zm0 0" fill="#52aece" data-original="#52AECE" class="active-path" data-old_color="#52aece" style="fill:#91E2E0"></path><path d="m99.324219 155.371094c-7.636719 6.347656-27.414063 12.320312-33.761719 4.683594-6.347656-7.636719 3.140625-25.992188 10.78125-32.339844 7.636719-6.347656 18.972656-5.300782 25.316406 2.335937 6.347656 7.640625 5.300782 18.976563-2.335937 25.320313zm0 0" fill="#52aece" data-original="#52AECE" class="active-path" data-old_color="#52aece" style="fill:#91E2E0"></path><path d="m87.042969 162.433594c-2.90625-16.941406-18.996094-28.320313-35.9375-25.414063-16.941407 2.902344-28.320313 18.992188-25.414063 35.933594s18.992188 28.320313 35.933594 25.414063 28.320312-18.992188 25.417969-35.933594zm0 0" fill="#e2d7db" data-original="#E2D7DB" class=""></path><path d="m75.773438 164.363281c-1.835938-10.71875-12.015626-17.917969-22.734376-16.078125-10.71875 1.835938-17.917968 12.015625-16.082031 22.734375 1.839844 10.71875 12.019531 17.917969 22.738281 16.082031 10.71875-1.839843 17.917969-12.019531 16.078126-22.738281zm0 0" fill="#f2f2f2" data-original="#F2F2F2" class=""></path><path d="m204.179688 57.035156c-2.984376 9.695313-16.558594 25.855469-26.253907 22.871094-9.695312-2.980469-11.835937-23.980469-8.851562-33.675781 2.984375-9.695313 13.261719-15.132813 22.957031-12.148438s15.132812 13.261719 12.148438 22.953125zm0 0" fill="#73c66a" data-original="#73C66A" class=""></path><path d="m144.488281 126.125c2.984375-9.695312 16.558594-25.855469 26.253907-22.871094 9.695312 2.984375 11.835937 23.980469 8.851562 33.675782-2.984375 9.695312-13.261719 15.136718-22.957031 12.152343-9.691407-2.984375-15.132813-13.261719-12.148438-22.957031zm0 0" fill="#73c66a" data-original="#73C66A" class=""></path><path d="m159.34375 48.460938c6.902344 7.429687 14.109375 27.269531 6.679688 34.171874-7.433594 6.90625-26.6875-1.738281-33.589844-9.167968-6.90625-7.433594-6.480469-19.054688.953125-25.957032 7.429687-6.90625 19.050781-6.476562 25.957031.953126zm0 0" fill="#73c66a" data-original="#73C66A" class=""></path><path d="m189.324219 134.703125c-6.902344-7.433594-14.109375-27.269531-6.679688-34.175781 7.433594-6.902344 26.6875 1.742187 33.589844 9.171875 6.90625 7.433593 6.480469 19.054687-.953125 25.957031-7.429688 6.902344-19.050781 6.476562-25.957031-.953125zm0 0" fill="#73c66a" data-original="#73C66A" class=""></path><path d="m129.496094 83.003906c9.886718-2.261718 30.667968 1.414063 32.933594 11.304688 2.261718 9.886718-14.851563 22.238281-24.738282 24.503906-9.886718 2.261719-19.738281-3.917969-22-13.804688-2.265625-9.890624 3.914063-19.738281 13.804688-22.003906zm0 0" fill="#73c66a" data-original="#73C66A" class=""></path><path d="m219.175781 100.15625c-9.890625 2.265625-30.671875-1.414062-32.9375-11.300781-2.261719-9.886719 14.851563-22.242188 24.738281-24.503907 9.890626-2.261718 19.738282 3.917969 22.003907 13.804688 2.261719 9.890625-3.917969 19.738281-13.804688 22zm0 0" fill="#73c66a" data-original="#73C66A" class=""></path><path d="m183.679688 61.183594c-16.78125-5.164063-34.574219 4.253906-39.734376 21.039062-5.164062 16.78125 4.253907 34.570313 21.035157 39.734375 16.78125 5.164063 34.574219-4.253906 39.738281-21.035156s-4.257812-34.574219-21.039062-39.738281zm0 0" fill="#ff931f" data-original="#FF931F"></path><path d="m180.246094 72.34375c-10.617188-3.265625-21.875 2.691406-25.140625 13.3125-3.269531 10.617188 2.691406 21.875 13.308593 25.140625 10.617188 3.265625 21.875-2.691406 25.140626-13.308594 3.269531-10.621093-2.691407-21.875-13.308594-25.144531zm0 0" fill="#ffbb16" data-original="#FFBB16" class=""></path><path d="m160.109375 113.414062c0 11.355469-9.203125 33.113282-20.558594 33.113282s-20.558593-21.757813-20.558593-33.113282c0-11.355468 9.203124-20.558593 20.558593-20.558593s20.558594 9.203125 20.558594 20.558593zm0 0" fill="#f2f2f2" data-original="#F2F2F2" class=""></path><path d="m118.992188 206.976562c0-11.351562 9.207031-33.109374 20.558593-33.109374 11.355469 0 20.558594 21.757812 20.558594 33.109374 0 11.355469-9.203125 20.558594-20.558594 20.558594-11.351562 0-20.558593-9.203125-20.558593-20.558594zm0 0" fill="#f2f2f2" data-original="#F2F2F2" class=""></path><path d="m109.316406 119c9.832032 5.679688 24.074219 24.527344 18.398438 34.359375-5.679688 9.832031-29.125 6.925781-38.957032 1.246094-9.832031-5.675781-13.199218-18.25-7.523437-28.082031 5.675781-9.832032 18.25-13.199219 28.082031-7.523438zm0 0" fill="#f2f2f2" data-original="#F2F2F2" class=""></path><path d="m169.789062 201.390625c-9.835937-5.675781-24.074218-24.527344-18.398437-34.359375s29.121094-6.921875 38.957031-1.246094c9.832032 5.675782 13.199219 18.25 7.523438 28.082032-5.679688 9.832031-18.25 13.199218-28.082032 7.523437zm0 0" fill="#f2f2f2" data-original="#F2F2F2" class=""></path><path d="m88.757812 165.785156c9.832032-5.679687 33.277344-8.585937 38.957032 1.246094 5.675781 9.832031-8.566406 28.683594-18.398438 34.359375-9.832031 5.675781-22.40625 2.308594-28.082031-7.527344-5.675781-9.832031-2.308594-22.402343 7.523437-28.078125zm0 0" fill="#f2f2f2" data-original="#F2F2F2" class=""></path><path d="m190.34375 154.609375c-9.832031 5.675781-33.277344 8.582031-38.953125-1.25s8.5625-28.679687 18.394531-34.355469c9.835938-5.679687 22.40625-2.308594 28.082032 7.523438 5.679687 9.832031 2.3125 22.402344-7.523438 28.082031zm0 0" fill="#f2f2f2" data-original="#F2F2F2" class=""></path><path d="m175.136719 160.195312c0 19.652344-15.933594 35.585938-35.585938 35.585938-19.652343 0-35.582031-15.933594-35.582031-35.585938 0-19.652343 15.929688-35.585937 35.582031-35.585937 19.652344 0 35.585938 15.933594 35.585938 35.585937zm0 0" fill="#2b9bba" data-original="#2B9BBA"></path><path d="m162.066406 160.195312c0 12.4375-10.078125 22.515626-22.515625 22.515626-12.433593 0-22.515625-10.078126-22.515625-22.515626 0-12.433593 10.082032-22.515624 22.515625-22.515624 12.4375 0 22.515625 10.082031 22.515625 22.515624zm0 0" fill="#52aece" data-original="#52AECE" class="active-path" data-old_color="#52aece" style="fill:#91E2E0"></path><path d="m351.890625 113.414062c0 11.355469 9.203125 33.113282 20.558594 33.113282s20.558593-21.757813 20.558593-33.113282c0-11.355468-9.203124-20.558593-20.558593-20.558593s-20.558594 9.203125-20.558594 20.558593zm0 0" fill="#f73e3e" data-original="#F73E3E"></path><path d="m393.007812 206.976562c0-11.351562-9.207031-33.109374-20.558593-33.109374-11.355469 0-20.558594 21.757812-20.558594 33.109374 0 11.355469 9.203125 20.558594 20.558594 20.558594 11.351562 0 20.558593-9.203125 20.558593-20.558594zm0 0" fill="#f73e3e" data-original="#F73E3E"></path><path d="m402.683594 119c-9.832032 5.679688-24.074219 24.527344-18.398438 34.359375 5.679688 9.832031 29.125 6.925781 38.957032 1.246094 9.832031-5.675781 13.199218-18.25 7.523437-28.082031-5.675781-9.828126-18.25-13.199219-28.082031-7.523438zm0 0" fill="#f73e3e" data-original="#F73E3E"></path><path d="m342.210938 201.390625c9.835937-5.675781 24.074218-24.527344 18.398437-34.359375s-29.121094-6.921875-38.957031-1.246094c-9.832032 5.675782-13.199219 18.25-7.523438 28.082032 5.675782 9.832031 18.25 13.199218 28.082032 7.523437zm0 0" fill="#f73e3e" data-original="#F73E3E"></path><path d="m423.242188 165.785156c-9.832032-5.679687-33.277344-8.585937-38.957032 1.246094-5.675781 9.832031 8.566406 28.683594 18.398438 34.359375 9.832031 5.675781 22.40625 2.308594 28.082031-7.527344 5.675781-9.832031 2.308594-22.402343-7.523437-28.078125zm0 0" fill="#f73e3e" data-original="#F73E3E"></path><path d="m321.65625 154.609375c9.832031 5.675781 33.277344 8.582031 38.953125-1.25s-8.5625-28.679687-18.394531-34.355469c-9.835938-5.679687-22.40625-2.308594-28.082032 7.523438-5.679687 9.832031-2.3125 22.402344 7.523438 28.082031zm0 0" fill="#f73e3e" data-original="#F73E3E"></path><path d="m408.03125 160.195312c0 19.652344-15.929688 35.585938-35.582031 35.585938-19.652344 0-35.585938-15.933594-35.585938-35.585938 0-19.652343 15.933594-35.585937 35.585938-35.585937 19.652343 0 35.582031 15.933594 35.582031 35.585937zm0 0" fill="#ff931f" data-original="#FF931F"></path><path d="m394.964844 160.195312c0 12.4375-10.082032 22.515626-22.515625 22.515626-12.4375 0-22.515625-10.078126-22.515625-22.515626 0-12.433593 10.078125-22.515624 22.515625-22.515624 12.433593 0 22.515625 10.082031 22.515625 22.515624zm0 0" fill="#ffbb16" data-original="#FFBB16" class=""></path><path d="m233.136719 56.429688c0 12.625 10.234375 36.828124 22.863281 36.828124s22.863281-24.203124 22.863281-36.828124c0-12.628907-10.234375-22.867188-22.863281-22.867188s-22.863281 10.238281-22.863281 22.867188zm0 0" fill="#52aece" data-original="#52AECE" class="active-path" data-old_color="#52aece" style="fill:#91E2E0"></path><path d="m278.863281 160.496094c0-12.628906-10.234375-36.832032-22.863281-36.832032s-22.863281 24.203126-22.863281 36.832032c0 12.625 10.234375 22.863281 22.863281 22.863281s22.863281-10.234375 22.863281-22.863281zm0 0" fill="#52aece" data-original="#52AECE" class="active-path" data-old_color="#52aece" style="fill:#91E2E0"></path><path d="m289.628906 62.640625c-10.933594 6.316406-26.773437 27.28125-20.460937 38.21875 6.3125 10.933594 32.390625 7.699219 43.328125 1.386719s14.683594-20.296875 8.367187-31.234375c-6.3125-10.9375-20.296875-14.683594-31.234375-8.371094zm0 0" fill="#52aece" data-original="#52AECE" class="active-path" data-old_color="#52aece" style="fill:#91E2E0"></path><path d="m222.371094 154.28125c10.933594-6.316406 26.773437-27.28125 20.460937-38.21875-6.3125-10.933594-32.390625-7.699219-43.328125-1.386719s-14.683594 20.296875-8.367187 31.234375c6.3125 10.9375 20.296875 14.683594 31.234375 8.371094zm0 0" fill="#52aece" data-original="#52AECE" class="active-path" data-old_color="#52aece" style="fill:#91E2E0"></path><path d="m312.496094 114.675781c-10.9375-6.3125-37.015625-9.546875-43.328125 1.386719-6.316407 10.9375 9.523437 31.902344 20.460937 38.21875 10.9375 6.3125 24.921875 2.566406 31.234375-8.371094 6.316407-10.933594 2.570313-24.917968-8.367187-31.234375zm0 0" fill="#52aece" data-original="#52AECE" class="active-path" data-old_color="#52aece" style="fill:#91E2E0"></path><path d="m199.503906 102.246094c10.9375 6.3125 37.015625 9.550781 43.328125-1.386719 6.316407-10.9375-9.523437-31.902344-20.460937-38.21875-10.9375-6.3125-24.921875-2.566406-31.234375 8.371094-6.316407 10.933593-2.570313 24.921875 8.367187 31.234375zm0 0" fill="#52aece" data-original="#52AECE" class="active-path" data-old_color="#52aece" style="fill:#91E2E0"></path><path d="m295.578125 108.460938c0 21.859374-17.71875 39.578124-39.578125 39.578124s-39.578125-17.71875-39.578125-39.578124c0-21.859376 17.71875-39.578126 39.578125-39.578126s39.578125 17.71875 39.578125 39.578126zm0 0" fill="#e2d7db" data-original="#E2D7DB" class=""></path><path d="m281.042969 108.460938c0 13.832031-11.210938 25.042968-25.042969 25.042968s-25.042969-11.210937-25.042969-25.042968c0-13.832032 11.210938-25.042969 25.042969-25.042969s25.042969 11.210937 25.042969 25.042969zm0 0" fill="#f2f2f2" data-original="#F2F2F2" class=""></path></g> </svg>