<?xml version="1.0"?>
<svg xmlns="http://www.w3.org/2000/svg" height="512px" viewBox="0 -10 366 365" width="512px" class=""><g><path d="m193.601562 332.5h-67.203124v-320h67.601562c88.398438 0 160 71.601562 160 160-.398438 88.398438-72 160-160.398438 160zm0 0" fill="#ba7879" data-original="#BA7879" class=""/><path d="m344.800781 225.300781c4.800781-18-19.199219-28.800781-30-14-29.199219 39.597657-76 65.199219-129.199219 65.199219h-19.601562v56h27.601562c69.597657 0 128.796876-44.398438 150.796876-106.398438 0 0 .402343-.402343.402343-.800781zm0 0" fill="#825559" data-original="#825559" class="" data-old_color="#825559" style="fill:#825559"/><path d="m252 172.5c0-88.367188-53.726562-160-120-160s-120 71.632812-120 160 53.726562 160 120 160 120-71.632812 120-160zm0 0" fill="#bbdfbe" data-original="#BBDFBE" class="active-path" data-old_color="#bbdfbe" style="fill:#91E2E0"/><path d="m132 344.5c-72.800781 0-132-77.199219-132-172s59.199219-172 132-172c6.800781 0 12 5.199219 12 12s-5.199219 12-12 12c-59.601562 0-108 66.398438-108 148s48.398438 148 108 148 108-66.398438 108-148c0-25.199219-4.800781-50-13.601562-72-5.199219-12.800781-11.597657-24.398438-19.597657-34.398438-4-5.203124-2.800781-12.800781 2.398438-16.800781s12.800781-2.800781 16.800781 2.398438c8.800781 12 16.398438 25.199219 22.398438 40 10.402343 24.402343 15.601562 52.402343 15.601562 80.800781 0 94.800781-59.199219 172-132 172zm0 0" fill="#444b54" data-original="#444B54" class=""/><path d="m132 252.5c-14 0-40-30.398438-40-80s26-80 40-80 40 30.398438 40 80-26 80-40 80zm0 0" fill="#fff6d3" data-original="#FFF6D3" class=""/><g fill="#444b54"><path d="m193.601562 344.5h-67.203124c-6.796876 0-12-5.199219-12-12s5.203124-12 12-12h67.601562c81.601562 0 148-66.398438 148-148s-66.398438-148-148-148h-67.601562c-6.796876 0-12-5.199219-12-12s5.203124-12 12-12h67.601562c94.800781 0 172 77.199219 172 172s-77.601562 172-172.398438 172zm0 0" data-original="#000000" class=""/><path d="m80 184.5c-.800781 0-1.601562 0-2.398438-.398438-.800781 0-1.601562-.402343-2.402343-.800781-.800781-.402343-1.199219-.800781-2-1.199219-.800781-.402343-1.199219-.800781-2-1.601562-.398438-.398438-1.199219-1.199219-1.597657-2-.402343-.800781-.800781-1.199219-1.203124-2-.398438-.800781-.398438-1.601562-.796876-2.398438 0-.800781-.402343-1.601562-.402343-2.402343s0-1.597657.402343-2.398438c0-.800781.398438-1.601562.796876-2.402343.402343-.796876.800781-1.199219 1.203124-2 .398438-.796876.796876-1.199219 1.597657-2 .800781-.796876 1.199219-1.199219 1.601562-1.597657.800781-.402343 1.199219-.800781 2-1.199219.800781-.402343 1.597657-.402343 2.398438-.800781 1.601562-.402343 3.199219-.402343 4.800781 0 .800781 0 1.601562.398438 2.398438.800781.800781.398438 1.601562.796876 2 1.199219.800781.398438 1.203124.800781 1.601562 1.597657.398438.402343 1.199219 1.203124 1.601562 2 .398438.800781.796876 1.203124 1.199219 2 .398438.800781.398438 1.601562.800781 2.402343 0 .800781.398438 1.597657.398438 2.398438s0 1.601562-.398438 2.402343c0 .796876-.402343 1.597657-.800781 2.398438-.402343.800781-.800781 1.601562-1.199219 2-.402343.800781-.800781 1.199219-1.601562 2-.398438.398438-1.199219 1.199219-1.601562 1.601562-.796876.398438-1.199219.796876-2 1.199219-.796876.398438-1.597657.398438-2.398438.800781-.398438.398438-1.199219.398438-2 .398438zm0 0" data-original="#000000" class=""/><path d="m84 148.5c-3.199219 0-6.398438-1.199219-8.398438-3.601562-2.402343-2-3.601562-5.199219-3.601562-8.398438 0-.800781 0-1.601562.398438-2.398438 0-.800781.402343-1.601562.800781-2.402343.402343-.800781.800781-1.199219 1.199219-2 .402343-.800781.800781-1.199219 1.601562-2 4.398438-4.398438 12.398438-4.398438 16.800781 0 .398438.402343 1.199219 1.199219 1.597657 2 .402343.800781.800781 1.199219 1.203124 2 .398438.800781.398438 1.601562.796876 2.402343 0 .796876.402343 1.597657.402343 2.398438 0 3.199219-1.199219 6.398438-3.601562 8.398438-2.800781 2.402343-6 3.601562-9.199219 3.601562zm0 0" data-original="#000000" class=""/><path d="m100 112.5c-.800781 0-1.601562 0-2.398438-.398438-.800781 0-1.601562-.402343-2.402343-.800781-.800781-.402343-1.199219-.800781-2-1.199219-.800781-.402343-1.199219-.800781-2-1.601562-.398438-.398438-1.199219-1.199219-1.597657-2-.402343-.800781-.800781-1.199219-1.203124-2-.398438-.800781-.398438-1.601562-.796876-2.398438 0-.800781-.402343-1.601562-.402343-2.402343 0-3.199219 1.199219-6.398438 3.601562-8.398438.398438-.402343 1.199219-1.199219 1.597657-1.601562.800781-.398438 1.203124-.800781 2-1.199219.800781-.398438 1.601562-.398438 2.402343-.800781 1.597657-.398438 3.199219-.398438 4.800781 0 .796876 0 1.597657.402343 2.398438.800781s1.601562.800781 2 1.199219c.800781.402343 1.199219.800781 1.601562 1.601562 2.398438 2.398438 3.597657 5.199219 3.597657 8.398438 0 .800781 0 1.601562-.398438 2.402343 0 .796876-.402343 1.597657-.800781 2.398438s-.800781 1.601562-1.199219 2c-.402343.800781-.800781 1.199219-1.601562 2-.398438.398438-1.199219 1.199219-1.597657 1.601562-.800781.398438-1.203124.796876-2 1.199219-.800781.398438-1.601562.398438-2.402343.800781.402343.398438-.398438.398438-1.199219.398438zm0 0" data-original="#000000" class=""/><path d="m132 92.5c-3.199219 0-6.398438-1.199219-8.398438-3.601562-.402343-.398438-1.203124-1.199219-1.601562-2-.398438-.796876-.800781-1.199219-1.199219-2-.402343-.796876-.402343-1.597657-.800781-2.398438 0-.800781-.398438-1.601562-.398438-2.398438 0-3.203124 1.199219-6.402343 3.597657-8.402343.402343-.398438 1.199219-1.199219 1.601562-1.597657.800781-.402343 1.199219-.800781 2-1.203124.800781-.398438 1.597657-.398438 2.398438-.796876 1.601562-.402343 3.199219-.402343 4.800781 0 .800781 0 1.601562.398438 2.398438.796876.800781.402343 1.601562.800781 2 1.203124.800781.398438 1.203124.796876 2 1.597657 2.402343 2.402343 3.601562 5.199219 3.601562 8.402343 0 .796876 0 1.597657-.398438 2.398438 0 .800781-.402343 1.601562-.800781 2.398438-.402343.800781-.800781 1.601562-1.199219 2-.402343.800781-.800781 1.203124-1.601562 2-1.601562 2.402343-4.800781 3.601562-8 3.601562zm0 0" data-original="#000000" class=""/><path d="m184 184.5c-3.199219 0-6.398438-1.199219-8.398438-3.601562-.402343-.398438-1.203124-1.199219-1.601562-2-.398438-.796876-.800781-1.199219-1.199219-2-.402343-.796876-.402343-1.597657-.800781-2.398438 0-.800781-.398438-1.601562-.398438-2.398438 0-.800781 0-1.601562.398438-2.402343 0-.800781.398438-1.597657.800781-2.398438.398438-.800781.800781-1.199219 1.199219-2s.800781-1.199219 1.601562-2c.796876-.800781 1.199219-1.199219 1.597657-1.601562.800781-.398438 1.199219-.800781 2-1.199219s1.601562-.398438 2.402343-.800781c1.597657-.398438 3.199219-.398438 4.796876 0 .800781 0 1.601562.402343 2.402343.800781s1.597657.800781 2 1.199219c.800781.402343 1.199219.800781 1.597657 1.601562.402343.398438 1.203124 1.199219 1.601562 2s.800781 1.199219 1.199219 2c.402343.800781.402343 1.597657.800781 2.398438 0 .800781.398438 1.601562.398438 2.402343 0 .796876 0 1.597657-.398438 2.398438 0 .800781-.398438 1.601562-.800781 2.398438-.398438.800781-.800781 1.601562-1.199219 2-.398438.800781-.800781 1.203124-1.601562 2-.398438.402343-1.199219 1.203124-1.597657 1.601562-.800781.398438-1.199219.800781-2 1.199219-.800781.402343-1.601562.402343-2.402343.800781-.796876 0-1.597657 0-2.398438 0zm0 0" data-original="#000000" class=""/><path d="m180 148.5c-.800781 0-1.601562 0-2.398438-.398438-.800781 0-1.601562-.402343-2.402343-.800781-.800781-.402343-1.199219-.800781-2-1.199219-.800781-.402343-1.199219-.800781-1.597657-1.601562-2.402343-1.601562-3.601562-4.800781-3.601562-8 0-.800781 0-1.601562.398438-2.398438 0-.800781.402343-1.601562.800781-2.402343.402343-.800781.800781-1.199219 1.199219-2 .402343-.800781.800781-1.199219 1.601562-2s1.199219-1.199219 1.601562-1.597657c.796876-.402343 1.199219-.800781 2-1.203124.796876-.398438 1.597657-.398438 2.398438-.796876 4-.800781 8 .398438 10.800781 3.199219.398438.398438 1.199219 1.199219 1.597657 2 .402343.800781.800781 1.199219 1.203124 2 .398438.800781.398438 1.597657.796876 2.398438 0 .800781.402343 1.601562.402343 2.402343 0 .796876 0 1.597657-.402343 2.398438 0 .800781-.398438 1.601562-.796876 2.398438-.402343.800781-.800781 1.601562-1.203124 2-.398438.800781-.796876 1.203124-1.597657 2-2.402343 2.402343-5.601562 3.601562-8.800781 3.601562zm0 0" data-original="#000000" class=""/><path d="m164 112.5c-.800781 0-1.601562 0-2.398438-.398438-.800781 0-1.601562-.402343-2.402343-.800781-.800781-.402343-1.199219-.800781-2-1.199219-.800781-.402343-1.199219-.800781-2-1.601562-.398438-.398438-1.199219-1.199219-1.597657-2-.402343-.800781-.800781-1.199219-1.203124-2-.398438-.800781-.398438-1.601562-.796876-2.398438 0-.800781-.402343-1.601562-.402343-2.402343 0-3.199219 1.199219-6.398438 3.601562-8.398438.398438-.402343 1.199219-1.199219 1.597657-1.601562.800781-.398438 1.203124-.800781 2-1.199219.800781-.398438 1.601562-.398438 2.402343-.800781 1.597657-.398438 3.199219-.398438 4.800781 0 .796876 0 1.597657.402343 2.398438.800781s1.601562.800781 2 1.199219c.800781.402343 1.199219.800781 1.601562 1.601562 2.398438 2.398438 3.597657 5.199219 3.597657 8.398438 0 .800781 0 1.601562-.398438 2.402343 0 .796876-.402343 1.597657-.800781 2.398438s-.800781 1.601562-1.199219 2c-.402343.800781-.800781 1.199219-1.601562 2-.398438.398438-1.199219 1.199219-2 1.601562-.800781.398438-1.199219.796876-2 1.199219-.800781.398438-1.597657.398438-2.398438.800781.800781.398438 0 .398438-.800781.398438zm0 0" data-original="#000000" class=""/><path d="m180 220.5c-.800781 0-1.601562 0-2.398438-.398438-.800781 0-1.601562-.402343-2.402343-.800781-.800781-.402343-1.199219-.800781-2-1.199219-.800781-.402343-1.199219-.800781-1.597657-1.601562-.402343-.398438-1.203124-1.199219-1.601562-2s-.800781-1.199219-1.199219-2c-.402343-.800781-.402343-1.601562-.800781-2.398438 0-.800781-.398438-1.601562-.398438-2.402343 0-3.199219 1.199219-6.398438 3.597657-8.398438l1.601562-1.601562c.800781-.398438 1.199219-.800781 2-1.199219s1.597657-.398438 2.398438-.800781c1.601562-.398438 3.199219-.398438 4.800781 0 .800781 0 1.601562.402343 2.398438.800781.800781.398438 1.601562.800781 2 1.199219.800781.402343 1.203124.800781 1.601562 1.601562 2.398438 2.398438 3.601562 5.199219 3.601562 8.398438 0 .800781 0 1.601562-.402343 2.402343 0 .796876-.398438 1.597657-.800781 2.398438-.398438.800781-.796876 1.601562-1.199219 2-.398438.800781-.800781 1.199219-1.597657 2-.402343.398438-1.203124 1.199219-1.601562 1.601562-.800781.398438-1.199219.796876-2 1.199219-.800781.398438-1.601562.398438-2.398438.800781 0 .398438-.800781.398438-1.601562.398438zm0 0" data-original="#000000" class=""/><path d="m164 256.5c-.800781 0-1.601562 0-2.398438-.398438-.800781 0-1.601562-.402343-2.402343-.800781-.800781-.402343-1.199219-.800781-2-1.199219-.800781-.402343-1.199219-.800781-2-1.601562-.398438-.398438-1.199219-1.199219-1.597657-2-.402343-.800781-.800781-1.199219-1.203124-2-.398438-.800781-.398438-1.601562-.796876-2.398438 0-.800781-.402343-1.601562-.402343-2.402343s0-1.597657.402343-2.398438c0-.800781.398438-1.601562.796876-2.402343.402343-.796876.800781-1.199219 1.203124-2 .398438-.796876.796876-1.199219 1.597657-2 .800781-.796876 1.199219-1.199219 2-1.597657.800781-.402343 1.199219-.800781 2-1.199219.800781-.402343 1.601562-.402343 2.402343-.800781 1.597657-.402343 3.199219-.402343 4.796876 0 .800781 0 1.601562.398438 2.402343.800781.800781.398438 1.597657.796876 2 1.199219.800781.398438 1.199219.800781 1.597657 1.597657.402343.402343 1.203124 1.203124 1.601562 2 .398438.800781.800781 1.203124 1.199219 2 .402343.800781.402343 1.601562.800781 2.402343 0 .800781.398438 1.597657.398438 2.398438s0 1.601562-.398438 2.402343c0 .796876-.398438 1.597657-.800781 2.398438-.398438.800781-.800781 1.601562-1.199219 2-.398438.800781-.800781 1.199219-1.601562 2-.398438.398438-1.199219 1.199219-1.597657 1.601562-.800781.398438-1.199219.796876-2 1.199219-.800781.398438-1.601562.398438-2.402343.800781-.796876.398438-1.597657.398438-2.398438.398438zm0 0" data-original="#000000" class=""/><path d="m132 276.5c-3.199219 0-6.398438-1.199219-8.398438-3.601562-.402343-.398438-1.203124-1.199219-1.601562-2-.398438-.796876-.800781-1.199219-1.199219-2-.402343-.796876-.402343-1.597657-.800781-2.398438 0-.800781-.398438-1.601562-.398438-2.398438 0-3.203124 1.199219-6.402343 3.597657-8.402343 2.800781-2.800781 6.800781-4 10.800781-3.199219.800781 0 1.601562.398438 2.398438.800781.800781.398438 1.601562.800781 2 1.199219.800781.398438 1.203124.800781 1.601562 1.601562 2.398438 2.398438 3.601562 5.199219 3.601562 8.398438 0 .800781 0 1.601562-.402343 2.398438 0 .800781-.398438 1.601562-.800781 2.402343-.398438.800781-.796876 1.597657-1.199219 2-.398438.800781-.800781 1.199219-1.597657 2-.402343.398438-1.203124 1.199219-1.601562 1.597657-.800781.402343-1.199219.800781-2 1.203124-.800781.398438-1.601562.398438-2.398438.796876 0-.398438-.800781-.398438-1.601562-.398438zm0 0" data-original="#000000" class=""/><path d="m84 220.5c-3.199219 0-6.398438-1.199219-8.398438-3.601562-.402343-.398438-1.203124-1.199219-1.601562-2-.398438-.796876-.800781-1.199219-1.199219-2-.402343-.796876-.402343-1.597657-.800781-2.398438 0-.800781-.398438-1.601562-.398438-2.398438 0-3.203124 1.199219-6.402343 3.597657-8.402343.402343-.398438 1.199219-1.199219 1.601562-1.597657.800781-.402343 1.199219-.800781 2-1.203124.800781-.398438 1.597657-.398438 2.398438-.796876 1.601562-.402343 3.199219-.402343 4.800781 0 .800781 0 1.601562.398438 2.398438.796876.800781.402343 1.601562.800781 2 1.203124.800781.398438 1.203124.796876 1.601562 1.597657 2.398438 2.402343 3.601562 5.199219 3.601562 8.402343 0 3.199219-1.203124 6.398438-3.601562 8.398438-.398438.398438-1.199219 1.199219-1.601562 1.601562-.796876.398438-1.199219.796876-2 1.199219-.796876.398438-1.597657.398438-2.398438.800781-.398438.398438-1.199219.398438-2 .398438zm0 0" data-original="#000000" class=""/><path d="m100 256.5c-.800781 0-1.601562 0-2.398438-.398438-.800781 0-1.601562-.402343-2.402343-.800781-.800781-.402343-1.199219-.800781-2-1.199219-.800781-.402343-1.199219-.800781-1.597657-1.601562-.402343-.398438-1.203124-1.199219-1.601562-2s-.800781-1.199219-1.199219-2c-.402343-.800781-.402343-1.601562-.800781-2.398438 0-.800781-.398438-1.601562-.398438-2.402343s0-1.597657.398438-2.398438c0-.800781.398438-1.601562.800781-2.402343.398438-.796876.800781-1.199219 1.199219-2 .398438-.796876.800781-1.199219 1.601562-2l1.597657-1.597657c.800781-.402343 1.199219-.800781 2-1.199219.800781-.402343 1.601562-.402343 2.402343-.800781 4-.800781 8 .398438 10.796876 3.199219.402343.398438 1.203124 1.199219 1.601562 2s.800781 1.199219 1.199219 2c.402343.800781.402343 1.601562.800781 2.398438 0 .800781.398438 1.601562.398438 2.402343s0 1.597657-.398438 2.398438c0 .800781-.398438 1.601562-.800781 2.402343-.398438.796876-.800781 1.597657-1.199219 2-.398438.796876-.800781 1.199219-1.601562 2-2 3.199219-5.199219 4.398438-8.398438 4.398438zm0 0" data-original="#000000" class=""/></g><path d="m66.800781 84.5c-2.402343 0-5.199219-.800781-7.199219-2.398438-5.203124-4-6.402343-11.601562-2.402343-16.800781 20.402343-26.402343 46.800781-40.800781 74.800781-40.800781 6.800781 0 12 5.199219 12 12s-5.199219 12-12 12c-20.398438 0-40 11.199219-55.601562 31.601562-2.398438 2.796876-6 4.398438-9.597657 4.398438zm0 0" fill="#fff" data-original="#FFF" class=""/><path d="m48.398438 118.101562c-1.597657 0-3.199219-.402343-4.398438-.800781-4.800781-2-7.601562-6.402343-7.601562-11.199219 0-1.601562.402343-3.203124.800781-4.402343l.402343-1.597657c2.398438-6 9.597657-9.203124 15.597657-6.402343 4.800781 2 7.601562 6.402343 7.601562 11.199219 0 1.601562-.402343 3.203124-.800781 4.402343l-.398438 1.597657c-2 4.402343-6.402343 7.203124-11.203124 7.203124zm0 0" fill="#fff" data-original="#FFF" class=""/></g> </svg>
