<svg id="Layer_1" enable-background="new 0 0 256 256" height="512" viewBox="0 0 256 256" width="512" xmlns="http://www.w3.org/2000/svg"><path d="m224 246.105h-192c-5.523 0-10-4.477-10-10v-139.334h212v139.333c0 5.523-4.477 10.001-10 10.001z" fill="#e0ebfc"/><path d="m78.315 246.105h-46.315c-5.523 0-10-4.477-10-10v-139.334h56.315z" fill="#e0ebfc"/><path d="m224 246.105h-46.315v-149.334h56.315v139.333c0 5.523-4.477 10.001-10 10.001z" fill="#e0ebfc"/><path d="m90.667 28.105h74.667v212h-74.667z" fill="#e0ebfc" transform="matrix(0 -1 1 0 -6.105 262.105)"/><path d="m120.2 12.776-98.2 83.995h106 106l-98.2-83.995c-4.491-3.841-11.109-3.841-15.6 0z" fill="#e0ebfc"/><path d="m120.201 12.776-98.201 83.995h106v-86.875c-2.777 0-5.554.96-7.799 2.88z" fill="#e0ebfc"/><path d="m234 96.771-98.2-83.995c-2.245-1.92-5.022-2.88-7.799-2.88v86.875z" fill="#e0ebfc"/><g fill="#3762cc"><path d="m224 248.104h-192c-6.617 0-12-5.383-12-12v-139.333c0-1.104.896-2 2-2h212c1.104 0 2 .896 2 2v139.333c0 6.618-5.383 12-12 12zm-200-149.333v137.333c0 4.411 3.589 8 8 8h192c4.411 0 8-3.589 8-8v-137.333z"/><path d="m78.315 248.104h-46.315c-6.617 0-12-5.383-12-12v-139.333c0-1.104.896-2 2-2h56.315c1.104 0 2 .896 2 2v149.333c0 1.105-.896 2-2 2zm-54.315-149.333v137.333c0 4.411 3.589 8 8 8h44.315v-145.333z"/><path d="m224 248.104h-46.315c-1.104 0-2-.896-2-2v-149.333c0-1.104.896-2 2-2h56.315c1.104 0 2 .896 2 2v139.333c0 6.618-5.383 12-12 12zm-44.315-4h44.315c4.411 0 8-3.589 8-8v-137.333h-52.315z"/><path d="m234 98.771h-212c-.837 0-1.586-.521-1.876-1.307s-.061-1.669.576-2.213l98.2-83.995c5.272-4.511 12.928-4.512 18.199 0l98.2 83.995c.637.544.866 1.427.576 2.213-.289.786-1.038 1.307-1.875 1.307zm-206.585-4h201.17l-94.085-80.475c-3.768-3.221-9.233-3.221-13 0zm92.785-81.995h.01z"/><path d="m128 98.771h-106c-.837 0-1.586-.521-1.876-1.307s-.061-1.669.576-2.213l98.201-83.996c2.534-2.167 5.765-3.36 9.099-3.36 1.104 0 2 .896 2 2v86.876c0 1.105-.896 2-2 2zm-100.585-4h98.585v-82.673c-1.651.338-3.203 1.089-4.5 2.197z"/><path d="m234 98.771h-106c-1.104 0-2-.896-2-2v-86.875c0-1.104.896-2 2-2 3.334 0 6.566 1.193 9.1 3.36l98.2 83.996c.637.544.866 1.427.576 2.213-.29.785-1.039 1.306-1.876 1.306zm-104-4h98.585l-94.085-80.476c-1.296-1.108-2.849-1.859-4.5-2.197z"/><path d="m128 98.771c-.502 0-1.004-.188-1.392-.564l-46.293-44.88v43.444c0 1.104-.896 2-2 2s-2-.896-2-2v-48.168c0-.804.48-1.528 1.22-1.842.74-.313 1.595-.152 2.172.406l48.293 46.819 48.292-46.819c.577-.561 1.436-.72 2.172-.406.74.313 1.221 1.038 1.221 1.842v48.169c0 1.104-.896 2-2 2s-2-.896-2-2v-43.445l-46.292 44.88c-.389.376-.891.564-1.393.564z"/><path d="m234 173.438h-212c-1.104 0-2-.896-2-2s.896-2 2-2h212c1.104 0 2 .896 2 2s-.896 2-2 2z"/></g><circle cx="128" cy="152.105" fill="#a4c9ff" r="73.293"/><path d="m139.103 117.829-3.339 3.794c-.498.566-.773 1.295-.773 2.05v7.82c0 .415.083.826.245 1.209l.986 2.331c.698 1.649 2.643 2.367 4.245 1.566l4.921-2.46c1.486-.743 2.123-2.525 1.445-4.042l-2.347-5.246c-.218-.488-.307-1.024-.257-1.557l.293-3.125c.171-1.82-1.261-3.392-3.089-3.392-.893-.001-1.741.383-2.33 1.052z" fill="#6bdddd"/><path d="m178.309 100.531-11.867 2.782c-.496.116-.948.376-1.298.747l-3.093 3.275c-.175.185-.322.395-.436.623l-1.75 3.5c-.24.479-.622.873-1.094 1.127l-.004.002c-1.248.672-1.729 2.22-1.08 3.481l1.617 3.143c.712 1.385 2.474 1.838 3.766.969l3.209-2.159c1.065-.717 2.494-.55 3.365.394l1.797 1.946c.793.859.916 2.141.3 3.134l-4.151 6.706c-.474.766-1.311 1.232-2.212 1.232h-8.323c-1.023 0-1.95.599-2.371 1.531l-2.285 5.059c-.152.337-.231.702-.231 1.071v1.699c0 .612.216 1.205.609 1.673l7.102 8.456c.612.728 1.572 1.065 2.505.878l10.637-2.136c.444-.089.856-.292 1.197-.59l5.188-4.522c.222-.193.474-.347.748-.456l3.285-1.307c.909-.362 1.945-.183 2.68.463l5.476 4.812c.562.494.884 1.206.884 1.954v5.259c0 .971-.54 1.861-1.402 2.308l-9.67 5.028c-.252.131-.524.22-.805.263l-14.267 2.195c-.131.02-.263.03-.396.03h-6.737c-.949 0-1.823.517-2.28 1.348l-1.778 3.233-2.736 5.262c-.159.306-.378.578-.643.798l-2.464 2.054c-.769.641-1.104 1.66-.858 2.631.425 1.68 1.056 4.154 1.205 4.601.161.483 1.23 3.008 1.849 4.462.282.663.825 1.174 1.502 1.421l5.156 1.875c.835.304 1.458 1.013 1.651 1.881l.506 2.277c.067.3.08.609.039.913l-1.052 7.784c-.021.153-.028.308-.021.463l.351 7.978c.086 1.946 2.189 3.091 3.891 2.146 22.526-12.505 37.771-36.534 37.771-64.124 0-19.754-7.817-37.681-20.524-50.861-.631-.656-1.57-.92-2.458-.712z" fill="#6bdddd"/><path d="m111.717 223.579-1.43-4.29-3.054-3.933-4.002-4.292c-.59-.633-.919-1.467-.919-2.333v-3.877c0-1.568-1.066-2.935-2.586-3.317l-3.076-.773c-.273-.069-.553-.103-.834-.103h-4.878c-.907 0-1.777-.36-2.419-1.002l-2.835-2.835c-.485-.485-.813-1.105-.941-1.779l-.783-4.11c-.156-.818-.605-1.551-1.262-2.062l-1.622-1.259c-1.301-1.01-3.136-.949-4.367.143l-.003.003c-1.242 1.102-3.097 1.153-4.397.12l-2.347-1.864c-.392-.311-.711-.705-.934-1.153l-2.44-4.898c-.548-1.099-.464-2.408.22-3.428l2.231-3.331c.411-.614 1.011-1.079 1.709-1.324l2.842-.998c.819-.288 1.499-.876 1.9-1.647l3.04-5.834 3.232-4.956c.474-.727.654-1.606.504-2.461l-.682-3.883-.779-6.265c-.109-.879.126-1.765.658-2.474l2.183-2.911c.926-1.235 2.564-1.697 3.999-1.127l1.577.626c.402.159.83.241 1.262.241h6.372c1.144 0 2.212-.572 2.846-1.523l3.907-5.861c.375-.562.574-1.222.574-1.897v-7.121c0-.844-.312-1.658-.876-2.285l-5.351-5.958c-.346-.386-.776-.687-1.256-.883l-5.507-2.24c-2.301-.936-3.806-3.173-3.806-5.657v-3.681c0-1.058-.489-2.056-1.326-2.704l-3.187-2.469c-1.314-1.018-3.176-.952-4.4.171-14.605 13.398-23.764 32.637-23.764 54.019-.003 34.882 24.366 64.07 57.007 71.475z" fill="#6bdddd"/><path d="m81.581 172.681 8.829 1.856c.611.128 1.16.459 1.559.939l2.025 2.438c.46.554 1.119.907 1.835.983l5.585.594c.583.062 1.131.308 1.566.701l3.649 3.308c.579.524.909 1.269.909 2.05v.002c0 1.686-1.496 2.981-3.165 2.738l-9.057-1.317c-.495-.072-.962-.277-1.35-.593l-4.748-3.868c-.402-.327-.703-.761-.871-1.251l-.631-1.849c-.382-1.12-1.435-1.873-2.618-1.873h-2.278c-1.528 0-2.767-1.239-2.767-2.767v-2.093h1.528z" fill="#6bdddd"/><path d="m128 227.397c-41.517 0-75.292-33.776-75.292-75.293s33.775-75.292 75.292-75.292 75.293 33.776 75.293 75.293-33.776 75.292-75.293 75.292zm0-146.585c-39.311 0-71.292 31.981-71.292 71.293s31.981 71.292 71.292 71.292c39.312 0 71.293-31.981 71.293-71.293s-31.981-71.292-71.293-71.292z" fill="#3762cc"/><path d="m128 227.397c-41.517 0-75.292-33.776-75.292-75.293s33.775-75.292 75.292-75.292 75.293 33.776 75.293 75.293-33.776 75.292-75.293 75.292zm0-146.585c-39.311 0-71.292 31.981-71.292 71.293s31.981 71.292 71.292 71.292c39.312 0 71.293-31.981 71.293-71.293s-31.981-71.292-71.293-71.292z" fill="#3762cc"/><path d="m139.077 138.925c-.597 0-1.195-.104-1.764-.313-1.316-.486-2.386-1.507-2.934-2.8l-.986-2.331c-.269-.637-.403-1.305-.403-1.988v-7.819c0-1.241.451-2.438 1.271-3.37l3.339-3.794c.968-1.101 2.364-1.732 3.831-1.732 1.433 0 2.808.607 3.772 1.667.965 1.059 1.442 2.484 1.309 3.91l-.293 3.126c-.018.189.014.38.091.553l2.347 5.247c1.12 2.501.076 5.422-2.375 6.647l-4.921 2.461c-.714.355-1.498.536-2.284.536zm2.355-20.149c-.317 0-.618.136-.827.373 0 0 0 .001-.001.001l-3.339 3.794c-.177.201-.274.46-.274.729v7.819c0 .147.029.294.089.433l.984 2.328c.162.383.467.543.635.605.167.062.503.136.874-.049l4.921-2.461c.529-.265.755-.896.514-1.436l-2.347-5.247c-.36-.802-.506-1.688-.423-2.563l.293-3.121c.039-.422-.16-.71-.283-.845-.123-.134-.393-.36-.816-.36zm-2.329-.947h.01z" fill="#3762cc"/><path d="m162.232 218.567c-.776 0-1.552-.197-2.258-.592-1.396-.781-2.272-2.203-2.343-3.805l-.352-7.979c-.012-.268.001-.543.037-.816l1.052-7.786c.01-.07.007-.144-.008-.211l-.506-2.277c-.045-.201-.188-.364-.384-.436l-5.155-1.874c-1.191-.433-2.161-1.35-2.658-2.515-1.697-3.984-1.855-4.459-1.907-4.614-.135-.405-.554-2.001-1.246-4.744-.431-1.701.164-3.53 1.519-4.657l2.463-2.053c.062-.052.11-.113.147-.185l2.737-5.263 1.801-3.274c.809-1.471 2.354-2.384 4.032-2.384h6.736l14.359-2.202c.065-.011.128-.03.187-.061l9.669-5.028c.2-.104.324-.309.324-.534v-5.26c0-.173-.074-.337-.205-.451l-5.476-4.813c-.171-.149-.408-.188-.621-.106l-3.284 1.308c-.064.025-.122.061-.173.104l-5.188 4.523c-.602.523-1.332.884-2.114 1.042l-10.641 2.137c-1.65.334-3.348-.265-4.431-1.554l-7.102-8.455c-.695-.828-1.078-1.879-1.078-2.959v-1.699c0-.649.142-1.305.41-1.896l2.282-5.056c.743-1.645 2.389-2.708 4.194-2.708h8.323c.21 0 .4-.106.512-.285l4.151-6.706c.142-.229.113-.526-.069-.724l-1.798-1.947c-.202-.22-.53-.257-.778-.092l-3.209 2.159c-1.089.732-2.441.964-3.715.64-1.271-.327-2.346-1.186-2.946-2.354l-1.616-3.142c-1.139-2.214-.282-4.976 1.909-6.157.009-.004.017-.009.025-.014.101-.059.181-.146.234-.251l1.749-3.499c.203-.404.462-.773.769-1.1l3.095-3.277c.624-.659 1.417-1.114 2.296-1.32l11.867-2.782c1.572-.364 3.242.118 4.354 1.271 13.597 14.104 21.085 32.66 21.085 52.25 0 27.346-14.867 52.586-38.801 65.873-.705.393-1.481.59-2.256.59zm-3.028-51.463c-.22 0-.422.119-.527.312l-1.778 3.233-2.715 5.221c-.283.546-.667 1.022-1.139 1.414l-2.462 2.052c-.18.15-.257.381-.2.604.741 2.935 1.09 4.237 1.163 4.461.027.081.245.678 1.791 4.31.064.15.188.266.346.323l5.157 1.875c1.485.542 2.576 1.784 2.92 3.325l.506 2.279c.118.53.141 1.073.068 1.613l-1.052 7.784c-.005.034-.008.07-.006.106l.352 7.979c.012.272.17.416.3.489.114.063.348.149.623-.005 22.663-12.581 36.742-36.482 36.742-62.375 0-18.549-7.09-36.119-19.964-49.474-.139-.143-.354-.205-.563-.152 0 0 0 0-.001 0l-11.867 2.782c-.115.027-.22.087-.302.174l-3.091 3.273c-.04.042-.074.093-.103.147l-1.748 3.497c-.429.854-1.097 1.543-1.935 1.994-.008.005-.016.009-.023.013-.272.16-.377.512-.231.795l1.617 3.143c.108.21.288.283.385.309.099.025.29.048.485-.084l3.21-2.159c1.895-1.277 4.399-.984 5.95.697l1.797 1.946c1.397 1.513 1.616 3.792.531 5.544l-4.151 6.705c-.845 1.365-2.308 2.18-3.912 2.18h-8.323c-.236 0-.451.139-.548.354l-2.284 5.06c-.036.079-.055.163-.055.247v1.699c0 .141.05.278.141.387l7.103 8.456c.142.169.364.25.579.203l10.638-2.136c.101-.021.198-.068.277-.137l5.187-4.522c.394-.343.84-.615 1.325-.808l3.283-1.307c1.614-.641 3.432-.328 4.738.818l5.477 4.813c.994.873 1.564 2.133 1.564 3.456v5.26c0 1.723-.949 3.287-2.479 4.083l-9.67 5.028c-.448.232-.927.389-1.425.465l-14.267 2.195c-.228.036-.463.054-.699.054h-6.735zm19.106-66.573h.01z" fill="#3762cc"/><path d="m111.717 225.579c-.147 0-.295-.017-.442-.05-16.375-3.715-31.241-12.993-41.858-26.126-10.775-13.329-16.709-30.126-16.709-47.299 0-21.035 8.898-41.261 24.412-55.492 1.947-1.786 4.88-1.902 6.978-.278l3.187 2.469c1.315 1.019 2.101 2.62 2.101 4.284v3.682c0 1.679 1.005 3.172 2.56 3.805l5.507 2.24c.757.308 1.445.792 1.99 1.399l5.351 5.957c.895.997 1.388 2.283 1.388 3.623v7.12c0 1.074-.315 2.114-.91 3.007l-3.907 5.861c-1.008 1.511-2.693 2.413-4.51 2.413h-6.372c-.687 0-1.359-.129-1.999-.382l-1.579-.626c-.595-.237-1.277-.044-1.661.468l-2.182 2.911c-.222.296-.319.66-.273 1.027l.773 6.215.673 3.834c.239 1.358-.044 2.744-.799 3.899l-3.179 4.874-2.995 5.747c-.639 1.226-1.708 2.151-3.01 2.609l-2.842.998c-.288.102-.54.297-.709.549l-2.231 3.332c-.283.423-.318.968-.091 1.424l2.44 4.897c.092.185.227.351.388.479l2.347 1.864c.542.432 1.31.411 1.826-.05.014-.012.027-.023.041-.035 1.952-1.698 4.837-1.783 6.884-.194l1.622 1.261c1.043.81 1.754 1.97 2.001 3.267l.783 4.109c.053.281.188.536.389.736l2.836 2.837c.268.269.625.416 1.004.416h4.878c.45 0 .896.056 1.327.165l3.07.771c2.414.607 4.099 2.77 4.099 5.257v3.878c0 .36.135.704.381.968l4.003 4.292c.041.044.08.09.117.138l3.054 3.933c.139.179.246.38.318.595l1.43 4.29c.228.685.069 1.439-.415 1.975-.386.424-.927.657-1.485.657zm-30.949-126.386c-.341 0-.679.123-.945.366-14.69 13.476-23.115 32.628-23.115 52.545 0 32.318 21.187 60.048 51.957 68.641l-.167-.499-2.789-3.592-3.941-4.226c-.939-1.007-1.456-2.319-1.456-3.696v-3.878c0-.652-.442-1.219-1.074-1.378l-3.075-.772c-.115-.029-.229-.043-.347-.043h-4.878c-1.448 0-2.809-.563-3.833-1.588l-2.835-2.835c-.771-.77-1.287-1.744-1.492-2.818l-.783-4.109c-.064-.34-.251-.644-.524-.855l-1.622-1.261c-.54-.416-1.302-.394-1.813.061-.013.012-.027.023-.041.034-1.974 1.719-4.88 1.787-6.931.157l-2.347-1.863c-.618-.491-1.13-1.123-1.481-1.828l-2.439-4.897c-.866-1.738-.732-3.82.348-5.434l2.231-3.331c.646-.966 1.608-1.711 2.707-2.097l2.842-.998c.341-.12.622-.363.789-.685l3.04-5.833c.03-.058.063-.114.098-.169l3.232-4.956c.198-.303.272-.666.209-1.021l-.682-3.884c-.006-.032-.011-.065-.015-.099l-.779-6.266c-.173-1.4.197-2.793 1.043-3.92l2.182-2.911c1.464-1.952 4.069-2.687 6.337-1.787l1.578.626c.167.066.344.101.524.101h6.372c.476 0 .918-.236 1.182-.632l3.907-5.861c.156-.234.238-.506.238-.788v-7.12c0-.352-.129-.688-.363-.95l-5.352-5.957c-.144-.16-.323-.287-.521-.367l-5.507-2.24c-3.07-1.249-5.053-4.197-5.053-7.51v-3.682c0-.436-.206-.855-.55-1.122l-3.187-2.469c-.262-.203-.572-.304-.879-.304z" fill="#3762cc"/><path d="m104.773 190.32c-.228 0-.457-.017-.686-.05l-9.058-1.316c-.854-.125-1.658-.479-2.326-1.023l-4.747-3.866c-.693-.564-1.211-1.31-1.5-2.155l-.631-1.849c-.106-.311-.397-.52-.726-.52h-2.278c-2.628 0-4.767-2.139-4.767-4.767v-2.094c0-1.104.896-2 2-2h1.527c.138 0 .276.015.412.043l8.829 1.856c1.047.219 2.001.794 2.686 1.619l2.025 2.437c.128.154.309.252.508.272l5.585.594c1.013.109 1.945.526 2.697 1.209l3.649 3.309c.995.901 1.565 2.188 1.565 3.531 0 1.386-.601 2.7-1.648 3.606-.87.756-1.978 1.164-3.116 1.164zm-18.201-14.547c1.401.455 2.544 1.547 3.039 2.994l.631 1.849c.046.137.13.256.242.348l4.747 3.866c.108.089.238.146.375.165l9.056 1.316c.3.043.513-.094.612-.179.099-.086.265-.275.265-.58 0-.217-.092-.425-.252-.57l-3.649-3.309c-.121-.109-.271-.177-.436-.194l-5.583-.593c-1.241-.133-2.363-.733-3.162-1.694l-2.026-2.438c-.11-.133-.263-.226-.431-.26zm-4.516-.949c.026.399.359.717.766.717h2.278c.162 0 .322.008.48.024z" fill="#3762cc"/></svg>