<svg id="Layer_1" data-name="Layer 1" xmlns="http://www.w3.org/2000/svg" viewBox="0 0 94 94"><defs><style>.cls-1{fill:#fff;}.cls-2{fill:#181818;}.cls-3{fill:#ffbe00;}.cls-4{fill:#fe8f68;}.cls-5{fill:#11161a;}</style></defs><title>Artboard 1 copy 2</title><path class="cls-1" d="M84.59,19.93s3.18-2.14,5.23.1c0,0,3.05.45,2.85,2.59l-.2.86s1.28,1.78-1.18,1.61"/><path class="cls-2" d="M91.59,25.5h-.33l0-.79c.68,0,1-.08,1.06-.21s-.1-.6-.23-.78l-.1-.15.24-1c.16-1.68-2.49-2.1-2.52-2.1l-.14,0-.1-.11c-1.79-2-4.67-.05-4.7,0l-.45-.66c1.18-.79,3.84-1.78,5.64.06,1.22.22,3.24,1.08,3.06,3l-.17.74a1.58,1.58,0,0,1,.17,1.48C92.84,25.3,92.35,25.5,91.59,25.5Z"/><path class="cls-3" d="M70.61,42.73a23.88,23.88,0,1,1-.4-4.37A23.37,23.37,0,0,1,70.61,42.73Z"/><path class="cls-2" d="M46.71,67A24.35,24.35,0,1,1,71,42.73,24.33,24.33,0,0,1,46.71,67Zm0-47.81A23.47,23.47,0,1,0,69.82,38.44,23.53,23.53,0,0,0,46.71,19.23Z"/><path class="cls-2" d="M34.87,43.07s.28-.19.8-.51c2.76-1.64,12.18-6.68,22.11-5.32,0,0,4.5,12.81-2.87,19.43a9.62,9.62,0,0,1-7.71,2.38C42.86,58.45,36.3,55.45,34.87,43.07Z"/><path class="cls-2" d="M48.51,59.54a8.89,8.89,0,0,1-1.36-.1C43.05,58.88,36,56,34.47,43.11l0-.24.2-.14s.29-.19.83-.51c2.7-1.61,12.28-6.76,22.36-5.38l.24,0,.08.24c.19.53,4.51,13.13-3,19.86A10,10,0,0,1,48.51,59.54ZM35.29,43.27c1.42,11.53,7.28,14.73,12,15.38a9.17,9.17,0,0,0,7.39-2.27c6.55-5.9,3.38-17,2.83-18.78-9.74-1.23-19,3.74-21.6,5.31Z"/><path class="cls-4" d="M42.7,56.72l-1.59-1a1.46,1.46,0,0,1-.65-1.52c.41-2,1.89-6,7.1-4.58v.85s.6-2.79,6.37-1.82,2.32,5.77,2.32,5.77S46.65,59.34,42.7,56.72Z"/><path class="cls-2" d="M45.79,57.89a6,6,0,0,1-3.31-.83l-1.59-1a1.86,1.86,0,0,1-.82-1.94,6.9,6.9,0,0,1,2.76-4.49,6,6,0,0,1,4.83-.39l.18.05c.8-.8,2.51-1.64,6.16-1,1.83.31,3,1,3.46,2.15.78,1.9-.82,4.15-.89,4.24l-.14.13C56.12,54.92,50.28,57.89,45.79,57.89Zm-.28-8.19a4.3,4.3,0,0,0-2.26.59,6.07,6.07,0,0,0-2.39,4,1.05,1.05,0,0,0,.47,1.11l1.59,1c3.52,2.33,12.08-1.82,13-2.3.25-.38,1.29-2.08.75-3.4-.35-.84-1.31-1.4-2.85-1.66C48.59,48.14,48,50.52,48,50.54l-.79,3.22V49.91A7.17,7.17,0,0,0,45.51,49.7Z"/><path class="cls-1" d="M57.23,37.7c1.45.21-.58,3.59-.58,3.59-6.07-.7-19.67,4-19.67,4l-1.32-2.18S46.81,36.19,57.23,37.7Z"/><path class="cls-1" d="M42.14,56s6.6,1.92,14.77-2.68c0,0-2.68,3.9-5.84,4.79S43,57.28,42.14,56Z"/><path d="M49.48,32.52A6.17,6.17,0,0,1,51,29.9a4.71,4.71,0,0,1,2.76-1.45,5.57,5.57,0,0,1,3,.57,13.79,13.79,0,0,1,1.28.8c.37.35.75.67,1.1,1-.46-.21-.88-.46-1.31-.68s-.88-.4-1.32-.56a6,6,0,0,0-2.69-.35,4.77,4.77,0,0,0-2.45,1.11A9.88,9.88,0,0,0,49.48,32.52Z"/><path d="M41,34.81a13.53,13.53,0,0,0-2.87-.93,6.94,6.94,0,0,0-2.87,0,5.39,5.39,0,0,0-2.51,1.31,9.52,9.52,0,0,0-1,1.07c-.33.38-.59.82-.92,1.22.17-.48.37-1,.59-1.44a6.88,6.88,0,0,1,.92-1.29A5.17,5.17,0,0,1,35.1,33.1a6.09,6.09,0,0,1,3.2.18A7.46,7.46,0,0,1,41,34.81Z"/><path class="cls-3" d="M78.34,26.79s-6.54,6.38-8.13,11.57L68.55,33s5.9-7.94,7.36-8.62C75.91,24.39,76.7,26.94,78.34,26.79Z"/><path class="cls-2" d="M70.22,39.72l-2.11-6.79.12-.16c.61-.82,6-8,7.51-8.74l.42-.19.13.43s.73,2.22,2,2.13l1.11-.1-.8.78c-.06.06-6.49,6.37-8,11.4ZM69,33.08l1.25,4C72,33,76,28.6,77.51,27.07A3.82,3.82,0,0,1,75.72,25C74.38,26.12,71.12,30.23,69,33.08Z"/><path class="cls-1" d="M80,19.94s1.37-2.76,4.1-.63,2.22,3,7,4.43c0,0,1.52,3.46-3.94,1.15,0,0-5.77.45-7.29-.64,0,0,3.25,1.92,0,2.77,0,0-4.62.4-4.22-3.86.24-2.6,2.67,0,2.67,0a2.52,2.52,0,0,1-.94-2.76c.64-1.58,2-2.46,1.31-4.77s-.79-4.19,1.63-3.09.67,3.94.76,4.58,1,1.34,1,1.34"/><path class="cls-2" d="M79.56,27.42a4.81,4.81,0,0,1-3.35-1.18,3.72,3.72,0,0,1-.94-3.12c.08-.8.36-1.29.85-1.46a1.33,1.33,0,0,1,.79,0A2.32,2.32,0,0,1,77,20.25,8.58,8.58,0,0,1,77.71,19a3.43,3.43,0,0,0,.61-3.22c-.6-2-.59-3.11,0-3.65s1.18-.38,2.18.07c2.16,1,1.5,3.11,1.15,4.27a4.4,4.4,0,0,0-.16.63,2.45,2.45,0,0,0,.78,1,3.7,3.7,0,0,1,2,.88,17.68,17.68,0,0,1,1.84,1.65c1.06,1.06,1.77,1.76,5,2.71l.18.06.08.17c.06.13.56,1.35-.15,2.08s-2,.55-4.23-.36a28.69,28.69,0,0,1-5.6-.11,1.36,1.36,0,0,1,.23.89c-.09.61-.65,1-1.71,1.32A3,3,0,0,1,79.56,27.42Zm-3.08-5-.1,0c-.16,0-.27.34-.31.78a3,3,0,0,0,.7,2.48,4.41,4.41,0,0,0,3.09.94c.6-.17,1-.41,1-.65s-.58-.93-1.1-1.28a.71.71,0,0,1-.18-.12l.43-.67.19.12c1.34.72,5.36.59,6.86.47h.1l.09,0c2.55,1.08,3.26.76,3.44.57s.13-.74.05-1c-3.31-1-4.11-1.78-5.2-2.87a18.3,18.3,0,0,0-1.76-1.58,2.51,2.51,0,0,0-2.07-.68,2.42,2.42,0,0,0-1.42,1.18l-.72-.35a3.37,3.37,0,0,1,1.66-1.52,2.23,2.23,0,0,1-.57-1.07,2.47,2.47,0,0,1,.19-1c.42-1.38.68-2.67-.72-3.3-.65-.29-1.13-.36-1.32-.19s-.42.66.23,2.81a4.18,4.18,0,0,1-.7,3.87,8,8,0,0,0-.62,1.16,1.87,1.87,0,0,0,.42,1.92,3.77,3.77,0,0,1,.44.42l-.53.59a3.68,3.68,0,0,1-.47-.44A2.41,2.41,0,0,0,76.48,22.4Z"/><path class="cls-1" d="M85.74,20.78A6.47,6.47,0,0,1,89.82,20"/><path class="cls-2" d="M86,21.12l-.42-.68a6.74,6.74,0,0,1,4.35-.8l-.13.79A6,6,0,0,0,86,21.12Z"/><path class="cls-1" d="M92.49,23.36a9.2,9.2,0,0,0-5-1.06"/><path class="cls-2" d="M92.29,23.7a9,9,0,0,0-4.75-1l-.05-.8A9.5,9.5,0,0,1,92.7,23Z"/><path class="cls-1" d="M9.41,29.83s-3.18-2.15-5.23.1c0,0-3,.44-2.85,2.59l.2.85S.25,35.15,2.71,35"/><path class="cls-2" d="M2.41,35.4a1.55,1.55,0,0,1-1.48-.62A1.58,1.58,0,0,1,1.1,33.3l-.16-.69c-.19-2,1.83-2.84,3.05-3.05,1.8-1.85,4.46-.86,5.64-.06l-.45.66c-.12-.08-2.92-1.92-4.7,0l-.1.1-.14,0s-2.68.41-2.51,2.15l.23,1-.1.15c-.16.22-.33.62-.23.79s.38.24,1.06.2l.05.8Z"/><path class="cls-3" d="M15.66,36.69s6.54,6.38,8.13,11.57l-.51-6.92S19.55,35,18.09,34.29C18.09,34.29,17.3,36.83,15.66,36.69Z"/><path class="cls-2" d="M24.45,51.79,23.4,48.37c-1.54-5-8-11.33-8-11.39l-.8-.79,1.11.1c1.29.1,2-2.1,2-2.12l.13-.44.42.2c1.52.7,5,6.55,5.36,7.21l.05.17ZM16.49,37a42.17,42.17,0,0,1,6.72,8.86l-.33-4.35a37.61,37.61,0,0,0-4.6-6.56A3.85,3.85,0,0,1,16.49,37Z"/><path class="cls-1" d="M14,29.84s-1.37-2.76-4.1-.64-2.22,3-7,4.43c0,0-1.52,3.46,3.94,1.16,0,0,5.77.44,7.29-.65,0,0-3.25,1.92,0,2.77,0,0,4.62.4,4.22-3.85-.24-2.6-2.67,0-2.67,0a2.54,2.54,0,0,0,.94-2.77c-.64-1.58-2-2.46-1.31-4.76s.79-4.19-1.63-3.1S13,26.38,12.9,27s-1,1.34-1,1.34"/><path class="cls-2" d="M14.43,37.32h-.36c-1.13-.29-1.69-.73-1.78-1.34a1.38,1.38,0,0,1,.23-.89,27.9,27.9,0,0,1-5.6.11c-2.18.91-3.57,1-4.23.36s-.21-1.94-.15-2.08l.08-.17.18,0c3.27-1,4-1.66,5-2.72a18.9,18.9,0,0,1,1.84-1.65,3.77,3.77,0,0,1,2-.88,2.39,2.39,0,0,0,.78-1,4.4,4.4,0,0,0-.16-.63c-.35-1.15-1-3.29,1.15-4.26,1-.45,1.71-.48,2.18-.07s.61,1.66,0,3.64a3.45,3.45,0,0,0,.61,3.23A8.46,8.46,0,0,1,17,30.14a2.32,2.32,0,0,1,.12,1.43,1.26,1.26,0,0,1,.79,0c.49.16.77.65.85,1.46a3.72,3.72,0,0,1-.94,3.12A4.86,4.86,0,0,1,14.43,37.32Zm-.22-.8a4.33,4.33,0,0,0,3-1,3,3,0,0,0,.7-2.48c0-.43-.15-.72-.31-.78s-.8.24-1.25.63a3.68,3.68,0,0,1-.47.44l-.53-.6a4.88,4.88,0,0,1,.44-.42,1.86,1.86,0,0,0,.42-1.92,9.17,9.17,0,0,0-.62-1.16,4.17,4.17,0,0,1-.7-3.87c.65-2.14.38-2.68.23-2.81s-.67-.1-1.32.19c-1.4.63-1.14,1.93-.72,3.31a2.43,2.43,0,0,1,.19,1,2.23,2.23,0,0,1-.57,1.07,3.37,3.37,0,0,1,1.66,1.52l-.72.36a2.38,2.38,0,0,0-1.42-1.18,2.49,2.49,0,0,0-2.07.68A16,16,0,0,0,8.41,31.1C7.32,32.18,6.52,33,3.21,34c-.09.3-.18.8,0,1s.89.5,3.44-.57l.09,0h.1c1.49.11,5.52.24,6.86-.47l.19-.12.43.67-.18.12c-.52.34-1.15.91-1.1,1.27s.45.49,1.12.67Z"/><path class="cls-1" d="M8.26,30.68a6.39,6.39,0,0,0-4.08-.75"/><path class="cls-2" d="M8.05,31a6.08,6.08,0,0,0-3.8-.7l-.13-.78a6.74,6.74,0,0,1,4.35.8Z"/><path class="cls-1" d="M1.51,33.26a9.2,9.2,0,0,1,5-1.06"/><path class="cls-2" d="M1.71,33.6l-.41-.68A9.33,9.33,0,0,1,6.51,31.8l0,.8A9,9,0,0,0,1.71,33.6Z"/><path class="cls-3" d="M41.9,7.05c2.65,1.25-4.09,2.18-5,10.56C36.85,17.61,33.49,3.11,41.9,7.05Z"/><path class="cls-2" d="M37,20l-.52-2.26c-.08-.36-2-8.7,1-11.09,1.09-.88,2.65-.85,4.63.08h0c.33.15.77.41.84.86s-.42,1-1.18,1.72a12.33,12.33,0,0,0-4.48,8.38ZM39.36,6.77a2.21,2.21,0,0,0-1.42.47c-1.64,1.32-1.48,5.34-1.08,8.16a13.26,13.26,0,0,1,4.33-6.72c.41-.38.92-.85.93-1h0a1.06,1.06,0,0,0-.39-.25h0A5.74,5.74,0,0,0,39.36,6.77Z"/><path class="cls-3" d="M28,18.1c-.35,1.21,1.87-.72,4.87,1.34C32.82,19.44,29.05,14.23,28,18.1Z"/><path class="cls-2" d="M34.51,21.08,32.6,19.77a5.18,5.18,0,0,0-3.86-.88c-.48.06-.85.1-1.09-.18a.78.78,0,0,1-.09-.72h0c.29-1,.78-1.58,1.47-1.7,1.75-.3,3.88,2.59,4.12,2.92Zm-4.83-3a5.64,5.64,0,0,1,1.58.22c-.73-.71-1.54-1.26-2.09-1.17-.35.06-.62.41-.82,1.05l.3,0A9.1,9.1,0,0,1,29.68,18Z"/><path class="cls-3" d="M26.48,10.3c-1.51,1.73,3.64.27,7,6C33.46,16.3,31.29,4.8,26.48,10.3Z"/><path class="cls-2" d="M34.28,18.51l-1.17-2a9.6,9.6,0,0,0-5.83-4.58c-.79-.27-1.32-.45-1.44-.92a1.05,1.05,0,0,1,.34-1h0c1.16-1.33,2.3-1.85,3.4-1.55,2.93.8,4.22,7.45,4.27,7.74Zm-7.49-8a.94.94,0,0,0-.18.26,9.84,9.84,0,0,0,.93.34,10.68,10.68,0,0,1,5,3.19c-.62-2.09-1.72-4.69-3.19-5.09-.77-.21-1.64.23-2.58,1.3Z"/><path class="cls-5" d="M41.33,81.58l-.59-3.14-5.36-5.27c-.16-.19.28-1.54,2.21-1.91a2.11,2.11,0,0,1,2,1l2.46,2.85,1.33-3.57c.38-1.09.94-1.56,1.56-1.68,1.73-.32,2.71.82,2.62,1l-3,6.84.59,3.15a1.56,1.56,0,0,1-1.34,2.07l-.53.1C42.23,83.24,41.55,82.74,41.33,81.58Z"/><path class="cls-5" d="M53.14,75.32l.4-.07a1.7,1.7,0,0,0-.1-.32,1.26,1.26,0,0,0-1.63-.85,1.83,1.83,0,0,0-1.67,1.47c0,.06-2.34.8-2.64-.83a1.77,1.77,0,0,1,.25-1.38c.5-.86,1.74-1.49,3.78-1.87,3.37-.64,5.11.47,5.62,3.16l1,5.26c0,.21-.64.56-1.35.69A1.93,1.93,0,0,1,54.84,80a2.3,2.3,0,0,1-.35-.59,3.65,3.65,0,0,1-2.86,2.19c-1.9.35-3.31-.48-3.61-2.11C47.63,77.44,49.49,76,53.14,75.32Zm.69,1.46-.51.12c-1.42.28-2.19.76-2,1.56.1.57.6.83,1.25.71a1.55,1.55,0,0,0,1.41-1.76Z"/><path class="cls-5" d="M61.89,82.09l.92-3.52a1.22,1.22,0,0,1-1.05-.51l-4.44-6.52c-.12-.18.77-1.22,1.84-1.45a2,2,0,0,1,2.19,1.32l2.17,3.85.54-4.36c.14-1.34.82-1.88,1.56-2,1-.19,2.23.47,2.17.69L65.65,80.74c-.24,1.32-.85,1.84-1.62,2C63,82.93,61.83,82.3,61.89,82.09Z"/><path class="cls-5" d="M69.92,72.52,68,67.76a1.74,1.74,0,0,1,1.39-2.65l.47-.09c1.46-.27,2.43.51,2.33,2l-.06,5.12c-.05.8-.24,1.23-.73,1.32l-.38.07C70.58,73.58,70.27,73.24,69.92,72.52Zm.06,4-.06-.32a1.37,1.37,0,0,1,1.26-1.82l.42-.08a1.38,1.38,0,0,1,1.88,1.23l.06.33a1.39,1.39,0,0,1-1.31,1.83l-.41.08A1.38,1.38,0,0,1,70,76.49Z"/><path class="cls-1" d="M65.28,50.79a.47.47,0,0,1-.17,0,.4.4,0,0,1-.19-.54,17,17,0,0,0,1.72-7.89.39.39,0,0,1,.38-.41.38.38,0,0,1,.42.38,17.71,17.71,0,0,1-1.8,8.27A.4.4,0,0,1,65.28,50.79Z"/><path class="cls-1" d="M66.53,40.32a.41.41,0,0,1-.4-.35,11,11,0,0,0-1.19-3.84.39.39,0,0,1,.13-.55.4.4,0,0,1,.55.13,11.9,11.9,0,0,1,1.31,4.15.4.4,0,0,1-.34.45Z"/></svg>