<svg width="168" height="168" viewBox="0 0 168 168" fill="none" xmlns="http://www.w3.org/2000/svg">
<g clip-path="url(#clip0)">
<path d="M70.8854 53.8904C70.1991 53.8904 69.5175 53.9057 68.8389 53.9378L69.0177 57.8459C69.6382 57.8183 70.2587 57.8031 70.8839 57.8031V53.8904H70.8854Z" fill="#122436"/>
<path d="M91.7144 57.8031C92.341 57.8031 92.963 57.8183 93.582 57.8459L93.7608 53.9378C93.0823 53.9057 92.4006 53.8904 91.7144 53.8904V57.8031Z" fill="#122436"/>
<path d="M39.5152 67.0757C38.5325 68.0798 37.5971 69.1298 36.7122 70.2226L39.7567 72.6818C40.5607 71.6853 41.4135 70.7285 42.3091 69.813L39.5152 67.0757Z" fill="#122436"/>
<path d="M43.2537 63.6721L45.7174 66.7121C46.7109 65.9066 47.7441 65.1485 48.8139 64.4393L46.6513 61.1777C45.479 61.9557 44.3449 62.7887 43.2537 63.6721Z" fill="#122436"/>
<path d="M33.7668 74.3311C33.0164 75.5156 32.3209 76.7383 31.6836 77.9961L35.1744 79.763C35.7552 78.6182 36.388 77.504 37.0712 76.4265L33.7668 74.3311Z" fill="#122436"/>
<path d="M26.9746 109.597H30.8873V113.626H26.9746V109.597Z" fill="#122436"/>
<path d="M26.9746 100.731H30.8873V104.761H26.9746V100.731Z" fill="#122436"/>
<path d="M27.4073 91.6125C27.2131 92.9927 27.0817 94.3912 27.019 95.808L30.9271 95.9822C30.9852 94.6907 31.1044 93.4161 31.2817 92.1597L27.4073 91.6125Z" fill="#122436"/>
<path d="M28.4021 86.6529L32.1879 87.6448C32.5135 86.3991 32.8971 85.178 33.3373 83.9828L29.6661 82.6301C29.1831 83.943 28.7613 85.2849 28.4021 86.6529Z" fill="#122436"/>
<path d="M132.935 82.6301L129.262 83.9828C129.703 85.178 130.086 86.3991 130.413 87.6448L134.198 86.6529C133.84 85.2849 133.417 83.943 132.935 82.6301Z" fill="#122436"/>
<path d="M130.916 77.9961C130.279 76.7383 129.585 75.5156 128.834 74.3311L125.529 76.4265C126.212 77.5055 126.846 78.6182 127.425 79.763L130.916 77.9961Z" fill="#122436"/>
<path d="M135.193 91.6125L131.318 92.1597C131.495 93.416 131.615 94.6923 131.673 95.9837L135.581 95.8095C135.518 94.3927 135.388 92.9927 135.193 91.6125Z" fill="#122436"/>
<path d="M131.714 109.597H135.627V113.626H131.714V109.597Z" fill="#122436"/>
<path d="M131.714 100.731H135.627V104.761H131.714V100.731Z" fill="#122436"/>
<path d="M125.888 70.2226C125.003 69.1298 124.069 68.0798 123.085 67.0757L120.291 69.8146C121.186 70.7285 122.038 71.6853 122.843 72.6834L125.888 70.2226Z" fill="#122436"/>
<path d="M113.786 64.4393C114.856 65.1485 115.889 65.9066 116.882 66.7121L119.346 63.6721C118.255 62.7887 117.122 61.9557 115.949 61.1777L113.786 64.4393Z" fill="#122436"/>
<path d="M146.642 120.455V92.3752C146.64 62.57 122.482 38.4107 92.6772 38.4092H68.6188C38.8151 38.4107 14.6558 62.57 14.6543 92.3752V120.455H18.567V92.3752C18.567 78.5463 24.1655 66.0456 33.2273 56.9822C42.2907 47.9204 54.7914 42.3234 68.6188 42.3219H92.6772C106.505 42.3234 119.005 47.9204 128.069 56.9822C137.131 66.0456 142.729 78.5463 142.729 92.3752V120.455H146.642Z" fill="#122436"/>
<path d="M146.642 130.709H142.729V155.992L94.525 118.904L92.1392 122.005L141.54 160.014H125.657V163.927H146.606V163.912L146.642 163.939V130.709Z" fill="#122436"/>
<path d="M65.9043 160.014H69.7834V163.927H65.9043V160.014Z" fill="#122436"/>
<path d="M57.3667 160.014H61.2473V163.927H57.3667V160.014Z" fill="#122436"/>
<path d="M40.2947 160.014H44.1753V163.927H40.2947V160.014Z" fill="#122436"/>
<path d="M48.8306 160.014H52.7112V163.927H48.8306V160.014Z" fill="#122436"/>
<path d="M74.4404 160.014H78.3195V163.927H74.4404V160.014Z" fill="#122436"/>
<path d="M117.121 160.014H121.001V163.927H117.121V160.014Z" fill="#122436"/>
<path d="M108.585 160.014H112.465V163.927H108.585V160.014Z" fill="#122436"/>
<path d="M100.049 160.014H103.928V163.927H100.049V160.014Z" fill="#122436"/>
<path d="M91.5127 160.014H95.3917V163.927H91.5127V160.014Z" fill="#122436"/>
<path d="M82.9751 160.014H86.8557V163.927H82.9751V160.014Z" fill="#122436"/>
<path d="M68.2566 124.347L65.9365 121.199L18.567 156.094V130.709H14.6543V163.927H35.6391V160.014H19.8417L68.2566 124.347Z" fill="#122436"/>
<path d="M1.95483 115.98L16.6106 107.517L31.2648 115.98V132.901L16.6106 141.36L1.95483 132.901V115.98Z" fill="#4EA3DA"/>
<path d="M16.6106 105.258L0 114.849V134.029L16.6106 143.619L33.2211 134.029V114.849L16.6106 105.258ZM29.3085 131.77L16.6106 139.101L3.91116 131.77V117.108L16.6106 109.776L29.3085 117.108V131.77Z" fill="#122436"/>
<path d="M14.3332 132.051L8.08203 125.8L10.905 122.977L14.3332 126.405L22.1524 118.587L24.9738 121.409L14.3332 132.051Z" fill="white"/>
<path d="M144.753 109.55C143.872 109.545 143.01 109.619 142.173 109.761L138.407 105.312C137.834 104.633 136.858 104.46 136.087 104.902L132.221 107.11C131.449 107.551 131.101 108.48 131.394 109.317L133.317 114.823C132.208 116.133 131.321 117.635 130.714 119.276L124.983 120.31C124.109 120.469 123.47 121.228 123.467 122.116L123.447 126.568C123.442 127.458 124.073 128.222 124.946 128.387L130.668 129.474C131.26 131.12 132.134 132.632 133.232 133.951L131.258 139.439C130.957 140.275 131.297 141.206 132.064 141.654L135.911 143.897C136.677 144.345 137.655 144.182 138.236 143.508L142.04 139.094C142.876 139.242 143.738 139.324 144.618 139.327C145.497 139.332 146.359 139.259 147.198 139.115L150.962 143.566C151.536 144.243 152.512 144.415 153.284 143.974L157.149 141.765C157.921 141.325 158.268 140.396 157.976 139.558L156.054 134.053C157.162 132.743 158.05 131.241 158.655 129.601L164.388 128.566C165.262 128.409 165.899 127.649 165.904 126.759L165.922 122.307C165.927 121.419 165.297 120.655 164.425 120.488L158.701 119.402C158.109 117.756 157.237 116.246 156.139 114.925L158.111 109.438C158.412 108.602 158.073 107.67 157.305 107.222L153.46 104.978C152.693 104.532 151.716 104.696 151.135 105.368L147.331 109.784C146.493 109.634 145.633 109.554 144.753 109.55V109.55ZM152.13 124.471C152.113 128.584 148.765 131.902 144.652 131.884C140.54 131.866 137.222 128.517 137.241 124.406C137.259 120.294 140.608 116.976 144.719 116.995C148.83 117.013 152.148 120.36 152.13 124.471Z" fill="#FFCC34"/>
<path d="M152.13 124.471C152.113 128.584 148.765 131.902 144.652 131.884C140.54 131.866 137.222 128.517 137.241 124.406C137.259 120.294 140.608 116.976 144.719 116.994C148.83 117.013 152.148 120.36 152.13 124.471V124.471Z" fill="white"/>
<path d="M154.087 124.467V124.438C154.088 121.858 153.038 119.503 151.349 117.808C149.671 116.119 147.334 115.06 144.768 115.038H144.754C144.747 115.038 144.736 115.038 144.728 115.038L144.685 115.037C142.104 115.037 139.747 116.085 138.054 117.776C136.365 119.452 135.306 121.788 135.284 124.354V124.372V124.396L135.283 124.439C135.283 127.019 136.331 129.376 138.022 131.069C139.707 132.768 142.06 133.83 144.643 133.839H144.685C147.267 133.84 149.622 132.79 151.317 131.102C153.015 129.416 154.076 127.064 154.087 124.479V124.467ZM148.558 128.329C147.559 129.321 146.202 129.926 144.685 129.928H144.661C143.143 129.92 141.789 129.307 140.796 128.311C139.804 127.311 139.198 125.955 139.197 124.439V124.415C139.205 122.897 139.817 121.543 140.814 120.55C141.814 119.558 143.169 118.952 144.685 118.951H144.71C146.228 118.958 147.582 119.571 148.575 120.568C149.566 121.567 150.172 122.923 150.172 124.439V124.464C150.166 125.981 149.553 127.336 148.558 128.329V128.329Z" fill="#122436"/>
<path d="M167.88 122.274C167.868 120.459 166.575 118.906 164.791 118.567L160.121 117.681C159.638 116.579 159.04 115.539 158.345 114.577L159.952 110.1C160.104 109.68 160.177 109.244 160.177 108.815C160.177 107.494 159.485 106.232 158.293 105.533L154.446 103.289C153.851 102.942 153.186 102.771 152.534 102.773C151.461 102.771 150.395 103.23 149.653 104.092L146.548 107.696C145.96 107.63 145.364 107.596 144.76 107.593H144.766L144.675 107.592C144.1 107.592 143.533 107.622 142.973 107.679L139.901 104.047C139.159 103.17 138.083 102.699 136.999 102.701C136.359 102.701 135.703 102.864 135.114 103.202L131.251 105.411C130.04 106.103 129.334 107.378 129.336 108.711C129.336 109.126 129.404 109.553 129.548 109.964L131.116 114.454C130.412 115.41 129.805 116.444 129.311 117.542L124.634 118.385C122.832 118.711 121.518 120.274 121.51 122.108L121.492 126.561V126.579C121.492 128.404 122.788 129.967 124.581 130.31L129.252 131.196C129.735 132.298 130.332 133.338 131.028 134.3L129.42 138.777V138.774C129.268 139.194 129.195 139.63 129.195 140.061C129.194 141.381 129.887 142.644 131.08 143.342L134.927 145.586C135.521 145.933 136.186 146.104 136.839 146.104C137.911 146.106 138.975 145.644 139.718 144.785L142.824 141.181C143.411 141.245 144.007 141.281 144.61 141.284H144.685C145.263 141.284 145.833 141.253 146.397 141.197L149.471 144.826C150.212 145.704 151.286 146.173 152.372 146.173C153.013 146.173 153.666 146.008 154.253 145.673L154.255 145.672L158.12 143.463C159.33 142.771 160.036 141.496 160.035 140.165C160.035 139.748 159.966 139.323 159.822 138.915L158.254 134.421C158.959 133.464 159.566 132.431 160.058 131.334L164.736 130.489C166.54 130.163 167.851 128.6 167.86 126.767L167.88 122.315V122.274ZM152.396 142.23L147.971 137.001L146.871 137.189C146.16 137.31 145.431 137.373 144.685 137.373H144.629C143.863 137.369 143.114 137.299 142.387 137.168L141.288 136.972L136.817 142.161L133.135 140.012L135.452 133.561L134.737 132.7C133.783 131.554 133.025 130.241 132.512 128.814L132.134 127.762L125.405 126.486L125.423 122.22L132.163 121.003L132.551 119.955C133.076 118.532 133.847 117.227 134.81 116.088L135.533 115.234L133.273 108.763L136.975 106.647L141.401 111.877L142.501 111.689C143.209 111.569 143.933 111.506 144.675 111.506H144.745C145.511 111.509 146.26 111.579 146.984 111.709L148.084 111.908L152.555 106.718L156.238 108.865L153.92 115.316L154.635 116.177C155.589 117.325 156.348 118.637 156.86 120.065L157.24 121.117L163.967 122.393L163.949 126.657L157.209 127.875L156.822 128.924C156.296 130.345 155.526 131.652 154.562 132.79L153.84 133.643L156.099 140.114L152.396 142.23Z" fill="#122436"/>
<path d="M92.723 117.777H67.0964V129.125C67.0964 136.202 72.834 141.939 79.9105 141.939C86.9869 141.939 92.723 136.202 92.723 129.125V117.777Z" fill="white"/>
<path d="M67.0964 126.179H92.723V130.091H67.0964V126.179Z" fill="#FDC24A"/>
<path d="M115.527 59.5101C115.527 39.5539 99.1133 23.4309 79.0501 23.9032C59.7526 24.3586 44.189 40.4037 44.2945 59.7073C44.3464 69.1803 48.0956 77.7775 54.174 84.128C60.6162 90.859 64.3562 99.7222 64.3562 109.039H95.4635C95.4635 99.7436 99.1638 90.8774 105.601 84.1738C111.749 77.7744 115.527 69.084 115.527 59.5101Z" fill="#FFCC34"/>
<path d="M79.0501 30.9461C97.9196 30.5013 113.56 44.7368 115.354 63.0347C115.469 61.8746 115.527 60.6993 115.527 59.5102C115.527 39.554 99.1133 23.4294 79.0516 23.9032C59.7526 24.3587 44.1905 40.4038 44.2945 59.7074C44.3006 60.8338 44.3602 61.948 44.4687 63.0484C46.2187 45.4352 60.9998 31.3725 79.0501 30.9461V30.9461Z" fill="white"/>
<path d="M79.9088 21.936C79.6093 21.936 79.3066 21.9391 79.0025 21.9483C68.854 22.1867 59.6806 26.5151 53.0596 33.3057C46.4355 40.0949 42.3379 49.3722 42.3379 59.5131V59.7225C42.3944 69.7105 46.353 78.7876 52.7615 85.4805C58.8736 91.8676 62.4011 100.249 62.4011 109.039V110.995H97.4212V109.039C97.4212 100.266 100.912 91.8829 107.013 85.5294C113.494 78.7846 117.484 69.6035 117.484 59.51C117.481 38.7575 100.661 21.9376 79.9088 21.936ZM104.19 82.818C97.8674 89.4023 94.0419 97.9843 93.5604 107.081L66.2603 107.083C65.7743 97.9613 61.9105 89.3794 55.5875 82.7752C49.8408 76.7671 46.301 68.6544 46.2506 59.695V59.5131C46.2506 50.436 49.9126 42.1368 55.8611 36.037C61.8096 29.9402 70.014 26.0719 79.0973 25.8594C79.3693 25.8518 79.6398 25.8487 79.9104 25.8487C89.2122 25.8487 97.6137 29.6132 103.712 35.7068C109.806 41.8051 113.57 50.2067 113.572 59.5085C113.569 68.5642 110.001 76.7641 104.19 82.818V82.818Z" fill="#122436"/>
<path d="M65.1401 115.821V129.125C65.1417 137.284 71.752 143.894 79.9105 143.896C88.0691 143.894 94.6778 137.284 94.6794 129.125V115.821H65.1401ZM87.5876 136.803C85.616 138.771 82.9138 139.982 79.9105 139.983C76.9057 139.982 74.2035 138.771 72.2334 136.803C70.2664 134.831 69.0543 132.13 69.0528 129.125V119.733H90.7667V129.125C90.7652 132.13 89.5547 134.831 87.5876 136.803V136.803Z" fill="#122436"/>
<path d="M78.1925 44.4876C77.2281 44.5365 76.2881 44.671 75.3772 44.8788L70.977 40.2371C70.3075 39.5295 69.227 39.4011 68.4093 39.9314L64.3101 42.5908C63.4924 43.1212 63.17 44.1605 63.5429 45.0607L65.9898 50.9741C64.8573 52.4765 63.9769 54.1791 63.4145 56.0147L57.197 57.5034C56.2494 57.7296 55.5983 58.6008 55.6487 59.5743L55.9024 64.4545C55.9529 65.4281 56.6911 66.2274 57.657 66.3543L63.9968 67.1903C64.7457 68.9571 65.7973 70.5589 67.0811 71.936L65.2608 78.071C64.9842 79.0063 65.4121 80.0059 66.2802 80.4476L70.6346 82.6684C71.5027 83.1116 72.5635 82.8716 73.158 82.0983L77.0523 77.0255C77.9801 77.1371 78.9277 77.1723 79.8921 77.1233C80.8565 77.0729 81.7965 76.9384 82.7059 76.7306L87.1061 81.3723C87.7771 82.0799 88.8576 82.2083 89.6753 81.6795L93.7745 79.0186C94.5922 78.4882 94.9162 77.4489 94.5417 76.5487L92.0948 70.6368C93.2288 69.1329 94.1077 67.4303 94.6701 65.5947L100.888 64.1076C101.835 63.8798 102.486 63.0086 102.436 62.0351L102.182 57.1549C102.133 56.1813 101.394 55.382 100.428 55.2551L94.0893 54.4191C93.3389 52.6523 92.2874 51.0505 91.005 49.6719L92.8238 43.5384C93.102 42.6031 92.674 41.6035 91.8044 41.1603L87.4515 38.941C86.5834 38.4978 85.5212 38.7378 84.9281 39.5111L81.0323 44.5839C80.1045 44.4723 79.1569 44.4371 78.1925 44.4876V44.4876ZM87.2009 60.3813C87.4347 64.8886 83.9714 68.7325 79.4657 68.9663C74.9584 69.2002 71.1161 65.7384 70.8807 61.2311C70.6468 56.7239 74.1102 52.8815 78.6174 52.6461C83.1231 52.4123 86.967 55.8756 87.2009 60.3813Z" fill="white"/>
<path d="M77.0845 3.93774H80.9972V14.8933H77.0845V3.93774Z" fill="#122436"/>
<path d="M39.0994 21.2928L41.8658 18.5264L49.6132 26.2738L46.8468 29.0402L39.0994 21.2928Z" fill="#122436"/>
<path d="M108.467 90.6617L111.233 87.8938L118.981 95.6412L116.213 98.4076L108.467 90.6617Z" fill="#122436"/>
<path d="M108.467 26.2738L116.214 18.5264L118.981 21.2943L111.235 29.0402L108.467 26.2738Z" fill="#122436"/>
<path d="M39.0994 95.6397L46.8453 87.8938L49.6132 90.6602L41.8658 98.4076L39.0994 95.6397Z" fill="#122436"/>
</g>
<defs>
<clipPath id="clip0">
<rect width="167.88" height="167.88" fill="white"/>
</clipPath>
</defs>
</svg>
