<svg width="60" height="60" viewBox="0 0 60 60" fill="none" xmlns="http://www.w3.org/2000/svg">
<path d="M30 60C46.5685 60 60 46.5685 60 30C60 13.4315 46.5685 0 30 0C13.4315 0 0 13.4315 0 30C0 46.5685 13.4315 60 30 60Z" fill="url(#paint0_linear)"/>
<path d="M38.5936 48.75H21.4064C15.8063 48.75 11.25 44.1942 11.25 38.5936V21.4064C11.25 15.8058 15.8063 11.25 21.4064 11.25H38.5936C44.1942 11.25 48.75 15.8058 48.75 21.4064V38.5941C48.75 44.1942 44.1942 48.75 38.5936 48.75ZM21.4064 14.3752C17.5294 14.3752 14.3752 17.5294 14.3752 21.4064V38.5941C14.3752 42.4711 17.5294 45.6253 21.4064 45.6253H38.5936C42.4706 45.6253 45.6248 42.4711 45.6248 38.5941V21.4064C45.6248 17.5294 42.4706 14.3752 38.5936 14.3752H21.4064Z" fill="white"/>
<path d="M30 39.375C24.8306 39.375 20.625 35.1689 20.625 30C20.625 24.8302 24.8306 20.625 30 20.625C35.1694 20.625 39.375 24.8302 39.375 30C39.375 35.1689 35.1694 39.375 30 39.375ZM30 23.7502C26.5538 23.7502 23.7502 26.5538 23.7502 30C23.7502 33.4467 26.5538 36.2498 30 36.2498C33.4462 36.2498 36.2498 33.4467 36.2498 30C36.2498 26.5538 33.4467 23.7502 30 23.7502Z" fill="white"/>
<path d="M39.961 22.1873C41.1475 22.1873 42.1093 21.2255 42.1093 20.039C42.1093 18.8526 41.1475 17.8907 39.961 17.8907C38.7746 17.8907 37.8127 18.8526 37.8127 20.039C37.8127 21.2255 38.7746 22.1873 39.961 22.1873Z" fill="white"/>
<defs>
<linearGradient id="paint0_linear" x1="12.7915" y1="54.5769" x2="47.209" y2="5.42363" gradientUnits="userSpaceOnUse">
<stop stop-color="#FFB900"/>
<stop offset="1" stop-color="#9100EB"/>
</linearGradient>
</defs>
</svg>
