<?xml version="1.0" encoding="utf-8"?>
<!-- Generator: Adobe Illustrator 19.1.0, SVG Export Plug-In . SVG Version: 6.00 Build 0)  -->
<svg version="1.1" id="Layer_1" xmlns="http://www.w3.org/2000/svg" xmlns:xlink="http://www.w3.org/1999/xlink" x="0px" y="0px"
	 viewBox="0 0 128 128" style="enable-background:new 0 0 128 128;" xml:space="preserve">
<style type="text/css">
	.st0{fill:#303C42;}
	.st1{fill:none;stroke:#303C42;stroke-width:4;stroke-linecap:round;stroke-linejoin:round;stroke-miterlimit:10;}
</style>
<g>
	<g>
		<g>
			<path class="st0" d="M119.5,88.7c-4.5,0-8-6.3-8-14.5s3.4-14.5,8-14.5s8,6.3,8,14.5S124.1,88.7,119.5,88.7z M119.5,63.6
				c-1.6,0-4,4.2-4,10.5c0,6.3,2.4,10.5,4,10.5s4-4.2,4-10.5C123.5,67.8,121.1,63.6,119.5,63.6z"/>
		</g>
		<g>
			<path class="st0" d="M8.5,88.7c-4.5,0-8-6.3-8-14.5s3.4-14.5,8-14.5s8,6.3,8,14.5S13,88.7,8.5,88.7z M8.5,63.6
				c-1.6,0-4,4.2-4,10.5c0,6.3,2.4,10.5,4,10.5s4-4.2,4-10.5C12.4,67.8,10,63.6,8.5,63.6z"/>
		</g>
		<g>
			<path class="st0" d="M64,127.5c-0.5,0-0.9-0.2-1.3-0.4c-0.5-0.4-0.7-1-0.7-1.6V45.9c0-0.9,0.7-1.8,1.6-2l55.5-12.1
				c0.6-0.1,1.2,0,1.7,0.4c0.5,0.4,0.7,1,0.7,1.6v27.8c0,1.1-0.9,2-2,2c-1.6,0-4,4.2-4,10.5c0,6.3,2.4,10.5,4,10.5c1.1,0,2,0.9,2,2
				v26.7c0,0.9-0.7,1.8-1.6,2l-55.5,12.1C64.3,127.5,64.1,127.5,64,127.5z M66,47.5V123l51.5-11.3V88.3c-3.5-1.5-6-7.1-6-14.1
				c0-7,2.5-12.6,6-14.1V36.3L66,47.5z"/>
		</g>
		<g>
			<path class="st0" d="M64,127.5c-0.1,0-0.3,0-0.4,0L8,115.3c-0.9-0.2-1.6-1-1.6-2V86.7c0-1.1,0.9-2,2-2c1.6,0,4-4.2,4-10.5
				c0-6.3-2.4-10.5-4-10.5c-1.1,0-2-0.9-2-2V33.8c0-0.6,0.3-1.2,0.7-1.6c0.5-0.4,1.1-0.5,1.7-0.4L64.4,44c0.9,0.2,1.6,1,1.6,2v79.6
				c0,0.6-0.3,1.2-0.7,1.6C64.9,127.3,64.5,127.5,64,127.5z M10.5,111.8L62,123V47.5L10.5,36.3V60c3.5,1.5,6,7.1,6,14.1
				c0,7-2.5,12.6-6,14.1V111.8z"/>
		</g>
		<g>
			<path class="st0" d="M64,47.9c-0.1,0-0.3,0-0.4,0L32.1,41c-0.8-0.2-1.3-0.7-1.5-1.5c-0.5-2.3-0.8-4.6-0.8-6.9
				C29.8,14.9,45.1,0.5,64,0.5c18.9,0,34.2,14.4,34.2,32.1c0,2.3-0.3,4.7-0.8,6.9c-0.2,0.8-0.8,1.3-1.5,1.5l-31.5,6.9
				C64.3,47.9,64.1,47.9,64,47.9z M34.2,37.4L64,43.9l29.8-6.5c0.3-1.6,0.4-3.2,0.4-4.8C94.2,17.1,80.7,4.5,64,4.5
				c-16.7,0-30.2,12.6-30.2,28.1C33.8,34.2,33.9,35.8,34.2,37.4z"/>
		</g>
	</g>
	<g>
		<g>
			<path class="st0" d="M49.6,90.1c-0.1,0-0.1,0-0.2,0l-26.7-5.2c-0.5-0.1-0.8-0.5-0.8-1V62.2c0-0.3,0.1-0.6,0.4-0.8
				c0.2-0.2,0.5-0.3,0.8-0.2l26.7,5.2c0.5,0.1,0.8,0.5,0.8,1v21.7c0,0.3-0.1,0.6-0.4,0.8C50.1,90,49.8,90.1,49.6,90.1z M23.9,83
				l24.7,4.8V68.2l-24.7-4.8V83z"/>
		</g>
		<g>
			<g>
				<path class="st0" d="M42.7,74.5c-0.1,0-0.1,0-0.2,0l-13-2.5c-0.5-0.1-0.9-0.6-0.8-1.2c0.1-0.5,0.6-0.9,1.2-0.8l13,2.5
					c0.5,0.1,0.9,0.6,0.8,1.2C43.6,74.2,43.2,74.5,42.7,74.5z"/>
			</g>
			<g>
				<path class="st0" d="M42.7,81.3c-0.1,0-0.1,0-0.2,0l-13-2.5c-0.5-0.1-0.9-0.6-0.8-1.2c0.1-0.5,0.6-0.9,1.2-0.8l13,2.5
					c0.5,0.1,0.9,0.6,0.8,1.2C43.6,81,43.2,81.3,42.7,81.3z"/>
			</g>
		</g>
	</g>
</g>
</svg>
