<svg width="47" height="41" viewBox="0 0 47 41" fill="none" xmlns="http://www.w3.org/2000/svg">
<path d="M44.5857 0.34537L1.28967 20.7644C-0.491343 21.6039 -0.418276 22.8344 1.45042 23.4998L6.97795 25.4646C8.84299 26.1283 11.6707 25.7685 13.2563 24.653L37.2625 7.62815C38.8407 6.50936 39.0106 6.67529 37.6388 7.99614L18.6596 26.2696C17.2841 27.5855 17.6933 29.1988 19.5638 29.8543L20.2104 30.0827C22.0809 30.7333 25.1388 31.8274 27.0002 32.5108L33.1305 34.755C34.9938 35.4367 36.5172 36.0019 36.5172 36.0117C36.5172 36.0216 36.5282 36.0528 36.5373 36.0545C36.5464 36.0577 36.9867 34.635 37.5127 32.8903L46.8617 1.99315C47.3878 0.246799 46.3667 -0.492486 44.5857 0.34537Z" fill="black"/>
<path d="M18.8588 31.9261L14.6172 30.3654C12.7576 29.6803 11.8662 30.4837 12.6371 32.1544C12.6389 32.1544 16.5754 40.6874 16.4658 40.9881C16.3525 41.2871 20.2434 35.9248 20.2434 35.9248C21.343 34.4101 20.7183 32.6112 18.8588 31.9261Z" fill="black"/>
</svg>
