<svg version="1.1" xmlns="http://www.w3.org/2000/svg" xmlns:xlink="http://www.w3.org/1999/xlink" preserveAspectRatio="xMidYMid meet" viewBox="0 0 640 640" id="el_geMZfpFoT"><style>@-webkit-keyframes kf_el_2vjZ9at271_an_Q4A_J865y{0%{-webkit-transform: translate(260.9500198364258px, 170.97999572753906px) rotate(0deg) translate(-260.9500198364258px, -170.97999572753906px);transform: translate(260.9500198364258px, 170.97999572753906px) rotate(0deg) translate(-260.9500198364258px, -170.97999572753906px);}25%{-webkit-transform: translate(260.9500198364258px, 170.97999572753906px) rotate(10deg) translate(-260.9500198364258px, -170.97999572753906px);transform: translate(260.9500198364258px, 170.97999572753906px) rotate(10deg) translate(-260.9500198364258px, -170.97999572753906px);}50%{-webkit-transform: translate(260.9500198364258px, 170.97999572753906px) rotate(0deg) translate(-260.9500198364258px, -170.97999572753906px);transform: translate(260.9500198364258px, 170.97999572753906px) rotate(0deg) translate(-260.9500198364258px, -170.97999572753906px);}75%{-webkit-transform: translate(260.9500198364258px, 170.97999572753906px) rotate(10deg) translate(-260.9500198364258px, -170.97999572753906px);transform: translate(260.9500198364258px, 170.97999572753906px) rotate(10deg) translate(-260.9500198364258px, -170.97999572753906px);}100%{-webkit-transform: translate(260.9500198364258px, 170.97999572753906px) rotate(0deg) translate(-260.9500198364258px, -170.97999572753906px);transform: translate(260.9500198364258px, 170.97999572753906px) rotate(0deg) translate(-260.9500198364258px, -170.97999572753906px);}}@keyframes kf_el_2vjZ9at271_an_Q4A_J865y{0%{-webkit-transform: translate(260.9500198364258px, 170.97999572753906px) rotate(0deg) translate(-260.9500198364258px, -170.97999572753906px);transform: translate(260.9500198364258px, 170.97999572753906px) rotate(0deg) translate(-260.9500198364258px, -170.97999572753906px);}25%{-webkit-transform: translate(260.9500198364258px, 170.97999572753906px) rotate(10deg) translate(-260.9500198364258px, -170.97999572753906px);transform: translate(260.9500198364258px, 170.97999572753906px) rotate(10deg) translate(-260.9500198364258px, -170.97999572753906px);}50%{-webkit-transform: translate(260.9500198364258px, 170.97999572753906px) rotate(0deg) translate(-260.9500198364258px, -170.97999572753906px);transform: translate(260.9500198364258px, 170.97999572753906px) rotate(0deg) translate(-260.9500198364258px, -170.97999572753906px);}75%{-webkit-transform: translate(260.9500198364258px, 170.97999572753906px) rotate(10deg) translate(-260.9500198364258px, -170.97999572753906px);transform: translate(260.9500198364258px, 170.97999572753906px) rotate(10deg) translate(-260.9500198364258px, -170.97999572753906px);}100%{-webkit-transform: translate(260.9500198364258px, 170.97999572753906px) rotate(0deg) translate(-260.9500198364258px, -170.97999572753906px);transform: translate(260.9500198364258px, 170.97999572753906px) rotate(0deg) translate(-260.9500198364258px, -170.97999572753906px);}}@-webkit-keyframes kf_el_bjd1SfmADpx_an_8d3UvBPqw{0%{-webkit-transform: translate(345.26499938964844px, 102.94500541687012px) scale(1, 1) translate(-345.26499938964844px, -102.94500541687012px);transform: translate(345.26499938964844px, 102.94500541687012px) scale(1, 1) translate(-345.26499938964844px, -102.94500541687012px);}50%{-webkit-transform: translate(345.26499938964844px, 102.94500541687012px) scale(0.8, 0.8) translate(-345.26499938964844px, -102.94500541687012px);transform: translate(345.26499938964844px, 102.94500541687012px) scale(0.8, 0.8) translate(-345.26499938964844px, -102.94500541687012px);}100%{-webkit-transform: translate(345.26499938964844px, 102.94500541687012px) scale(1, 1) translate(-345.26499938964844px, -102.94500541687012px);transform: translate(345.26499938964844px, 102.94500541687012px) scale(1, 1) translate(-345.26499938964844px, -102.94500541687012px);}}@keyframes kf_el_bjd1SfmADpx_an_8d3UvBPqw{0%{-webkit-transform: translate(345.26499938964844px, 102.94500541687012px) scale(1, 1) translate(-345.26499938964844px, -102.94500541687012px);transform: translate(345.26499938964844px, 102.94500541687012px) scale(1, 1) translate(-345.26499938964844px, -102.94500541687012px);}50%{-webkit-transform: translate(345.26499938964844px, 102.94500541687012px) scale(0.8, 0.8) translate(-345.26499938964844px, -102.94500541687012px);transform: translate(345.26499938964844px, 102.94500541687012px) scale(0.8, 0.8) translate(-345.26499938964844px, -102.94500541687012px);}100%{-webkit-transform: translate(345.26499938964844px, 102.94500541687012px) scale(1, 1) translate(-345.26499938964844px, -102.94500541687012px);transform: translate(345.26499938964844px, 102.94500541687012px) scale(1, 1) translate(-345.26499938964844px, -102.94500541687012px);}}@-webkit-keyframes kf_el_2d_SAJSHAm6_an_K8ok_erJy{0%{-webkit-transform: translate(325.2200012207031px, 478.3399963378906px) scale(1, 1) translate(-325.2200012207031px, -478.3399963378906px);transform: translate(325.2200012207031px, 478.3399963378906px) scale(1, 1) translate(-325.2200012207031px, -478.3399963378906px);}39.17%{-webkit-transform: translate(325.2200012207031px, 478.3399963378906px) scale(1, 1) translate(-325.2200012207031px, -478.3399963378906px);transform: translate(325.2200012207031px, 478.3399963378906px) scale(1, 1) translate(-325.2200012207031px, -478.3399963378906px);}41.67%{-webkit-transform: translate(325.2200012207031px, 478.3399963378906px) scale(1, 0.4) translate(-325.2200012207031px, -478.3399963378906px);transform: translate(325.2200012207031px, 478.3399963378906px) scale(1, 0.4) translate(-325.2200012207031px, -478.3399963378906px);}44.17%{-webkit-transform: translate(325.2200012207031px, 478.3399963378906px) scale(1, 1) translate(-325.2200012207031px, -478.3399963378906px);transform: translate(325.2200012207031px, 478.3399963378906px) scale(1, 1) translate(-325.2200012207031px, -478.3399963378906px);}100%{-webkit-transform: translate(325.2200012207031px, 478.3399963378906px) scale(1, 1) translate(-325.2200012207031px, -478.3399963378906px);transform: translate(325.2200012207031px, 478.3399963378906px) scale(1, 1) translate(-325.2200012207031px, -478.3399963378906px);}}@keyframes kf_el_2d_SAJSHAm6_an_K8ok_erJy{0%{-webkit-transform: translate(325.2200012207031px, 478.3399963378906px) scale(1, 1) translate(-325.2200012207031px, -478.3399963378906px);transform: translate(325.2200012207031px, 478.3399963378906px) scale(1, 1) translate(-325.2200012207031px, -478.3399963378906px);}39.17%{-webkit-transform: translate(325.2200012207031px, 478.3399963378906px) scale(1, 1) translate(-325.2200012207031px, -478.3399963378906px);transform: translate(325.2200012207031px, 478.3399963378906px) scale(1, 1) translate(-325.2200012207031px, -478.3399963378906px);}41.67%{-webkit-transform: translate(325.2200012207031px, 478.3399963378906px) scale(1, 0.4) translate(-325.2200012207031px, -478.3399963378906px);transform: translate(325.2200012207031px, 478.3399963378906px) scale(1, 0.4) translate(-325.2200012207031px, -478.3399963378906px);}44.17%{-webkit-transform: translate(325.2200012207031px, 478.3399963378906px) scale(1, 1) translate(-325.2200012207031px, -478.3399963378906px);transform: translate(325.2200012207031px, 478.3399963378906px) scale(1, 1) translate(-325.2200012207031px, -478.3399963378906px);}100%{-webkit-transform: translate(325.2200012207031px, 478.3399963378906px) scale(1, 1) translate(-325.2200012207031px, -478.3399963378906px);transform: translate(325.2200012207031px, 478.3399963378906px) scale(1, 1) translate(-325.2200012207031px, -478.3399963378906px);}}@-webkit-keyframes kf_el_Tf68JMn0cl_an_yrB9mDlbu{0%{-webkit-transform: translate(325.2150192260742px, 635.7100276947021px) rotate(0deg) translate(-325.2150192260742px, -635.7100276947021px);transform: translate(325.2150192260742px, 635.7100276947021px) rotate(0deg) translate(-325.2150192260742px, -635.7100276947021px);}25%{-webkit-transform: translate(325.2150192260742px, 635.7100276947021px) rotate(3deg) translate(-325.2150192260742px, -635.7100276947021px);transform: translate(325.2150192260742px, 635.7100276947021px) rotate(3deg) translate(-325.2150192260742px, -635.7100276947021px);}50%{-webkit-transform: translate(325.2150192260742px, 635.7100276947021px) rotate(0deg) translate(-325.2150192260742px, -635.7100276947021px);transform: translate(325.2150192260742px, 635.7100276947021px) rotate(0deg) translate(-325.2150192260742px, -635.7100276947021px);}75%{-webkit-transform: translate(325.2150192260742px, 635.7100276947021px) rotate(-3deg) translate(-325.2150192260742px, -635.7100276947021px);transform: translate(325.2150192260742px, 635.7100276947021px) rotate(-3deg) translate(-325.2150192260742px, -635.7100276947021px);}100%{-webkit-transform: translate(325.2150192260742px, 635.7100276947021px) rotate(0deg) translate(-325.2150192260742px, -635.7100276947021px);transform: translate(325.2150192260742px, 635.7100276947021px) rotate(0deg) translate(-325.2150192260742px, -635.7100276947021px);}}@keyframes kf_el_Tf68JMn0cl_an_yrB9mDlbu{0%{-webkit-transform: translate(325.2150192260742px, 635.7100276947021px) rotate(0deg) translate(-325.2150192260742px, -635.7100276947021px);transform: translate(325.2150192260742px, 635.7100276947021px) rotate(0deg) translate(-325.2150192260742px, -635.7100276947021px);}25%{-webkit-transform: translate(325.2150192260742px, 635.7100276947021px) rotate(3deg) translate(-325.2150192260742px, -635.7100276947021px);transform: translate(325.2150192260742px, 635.7100276947021px) rotate(3deg) translate(-325.2150192260742px, -635.7100276947021px);}50%{-webkit-transform: translate(325.2150192260742px, 635.7100276947021px) rotate(0deg) translate(-325.2150192260742px, -635.7100276947021px);transform: translate(325.2150192260742px, 635.7100276947021px) rotate(0deg) translate(-325.2150192260742px, -635.7100276947021px);}75%{-webkit-transform: translate(325.2150192260742px, 635.7100276947021px) rotate(-3deg) translate(-325.2150192260742px, -635.7100276947021px);transform: translate(325.2150192260742px, 635.7100276947021px) rotate(-3deg) translate(-325.2150192260742px, -635.7100276947021px);}100%{-webkit-transform: translate(325.2150192260742px, 635.7100276947021px) rotate(0deg) translate(-325.2150192260742px, -635.7100276947021px);transform: translate(325.2150192260742px, 635.7100276947021px) rotate(0deg) translate(-325.2150192260742px, -635.7100276947021px);}}#el_geMZfpFoT *{-webkit-animation-duration: 4s;animation-duration: 4s;-webkit-animation-iteration-count: infinite;animation-iteration-count: infinite;-webkit-animation-timing-function: cubic-bezier(0, 0, 1, 1);animation-timing-function: cubic-bezier(0, 0, 1, 1);}#el_XFJIbLv7XE{opacity: 1;fill: #00c655;fill-opacity: 1;}#el_SikWLS6HGz{opacity: 1;fill-opacity: 0;stroke: #000000;stroke-width: 1;stroke-opacity: 0;}#el_WshE5Hkldn{opacity: 1;fill: #00a42c;fill-opacity: 1;}#el_a_ABSat0h6{opacity: 1;fill-opacity: 0;stroke: #000000;stroke-width: 1;stroke-opacity: 0;}#el_aH_ksAoxjz{opacity: 1;fill: #73d98b;fill-opacity: 1;}#el_yxQk2wdagF{opacity: 1;fill-opacity: 0;stroke: #000000;stroke-width: 1;stroke-opacity: 0;}#el_7KgFFhByWiF{opacity: 1;fill: #e1966d;fill-opacity: 1;}#el_a_cjPYqBqMR{opacity: 1;fill-opacity: 0;stroke: #000000;stroke-width: 1;stroke-opacity: 0;}#el_cE_QaVfbmh9{opacity: 1;fill: #d77c40;fill-opacity: 1;}#el_7-gEolmHWf7{opacity: 1;fill-opacity: 0;stroke: #000000;stroke-width: 1;stroke-opacity: 0;}#el_VkbT2EeJ_lT{opacity: 1;fill: #73d98b;fill-opacity: 1;}#el_W9_ZZ1Ixlal{opacity: 1;fill-opacity: 0;stroke: #000000;stroke-width: 1;stroke-opacity: 0;}#el_CrrIdk9hYVg{opacity: 1;fill: #29ce69;fill-opacity: 1;}#el_-whBRSknfHN{opacity: 1;fill-opacity: 0;stroke: #000000;stroke-width: 1;stroke-opacity: 0;}#el_RQc9JJQjAnH{opacity: 1;fill: #333941;fill-opacity: 1;}#el_Rr1jRYSngYg{opacity: 1;fill-opacity: 0;stroke: #000000;stroke-width: 1;stroke-opacity: 0;}#el_tMU9U3kMSod{opacity: 1;fill: #333941;fill-opacity: 1;}#el_AxIh-9NnICO{opacity: 1;fill-opacity: 0;stroke: #000000;stroke-width: 1;stroke-opacity: 0;}#el_3793QKgDutD{opacity: 1;fill: #333941;fill-opacity: 1;}#el_gbDt_dCBeSJ{opacity: 1;fill-opacity: 0;stroke: #000000;stroke-width: 1;stroke-opacity: 0;}#el_Tf68JMn0cl_an_yrB9mDlbu{-webkit-animation-fill-mode: backwards;animation-fill-mode: backwards;-webkit-transform: translate(325.2150192260742px, 635.7100276947021px) rotate(0deg) translate(-325.2150192260742px, -635.7100276947021px);transform: translate(325.2150192260742px, 635.7100276947021px) rotate(0deg) translate(-325.2150192260742px, -635.7100276947021px);-webkit-animation-name: kf_el_Tf68JMn0cl_an_yrB9mDlbu;animation-name: kf_el_Tf68JMn0cl_an_yrB9mDlbu;-webkit-animation-timing-function: cubic-bezier(0, 0, 1, 1);animation-timing-function: cubic-bezier(0, 0, 1, 1);}#el_2d_SAJSHAm6_an_K8ok_erJy{-webkit-animation-fill-mode: backwards;animation-fill-mode: backwards;-webkit-transform: translate(325.2200012207031px, 478.3399963378906px) scale(1, 1) translate(-325.2200012207031px, -478.3399963378906px);transform: translate(325.2200012207031px, 478.3399963378906px) scale(1, 1) translate(-325.2200012207031px, -478.3399963378906px);-webkit-animation-name: kf_el_2d_SAJSHAm6_an_K8ok_erJy;animation-name: kf_el_2d_SAJSHAm6_an_K8ok_erJy;-webkit-animation-timing-function: cubic-bezier(0, 0, 1, 1);animation-timing-function: cubic-bezier(0, 0, 1, 1);}#el_bjd1SfmADpx_an_8d3UvBPqw{-webkit-animation-fill-mode: backwards;animation-fill-mode: backwards;-webkit-transform: translate(345.26499938964844px, 102.94500541687012px) scale(1, 1) translate(-345.26499938964844px, -102.94500541687012px);transform: translate(345.26499938964844px, 102.94500541687012px) scale(1, 1) translate(-345.26499938964844px, -102.94500541687012px);-webkit-animation-name: kf_el_bjd1SfmADpx_an_8d3UvBPqw;animation-name: kf_el_bjd1SfmADpx_an_8d3UvBPqw;-webkit-animation-timing-function: cubic-bezier(0, 0, 1, 1);animation-timing-function: cubic-bezier(0, 0, 1, 1);}#el_2vjZ9at271_an_Q4A_J865y{-webkit-animation-fill-mode: backwards;animation-fill-mode: backwards;-webkit-transform: translate(260.9500198364258px, 170.97999572753906px) rotate(0deg) translate(-260.9500198364258px, -170.97999572753906px);transform: translate(260.9500198364258px, 170.97999572753906px) rotate(0deg) translate(-260.9500198364258px, -170.97999572753906px);-webkit-animation-name: kf_el_2vjZ9at271_an_Q4A_J865y;animation-name: kf_el_2vjZ9at271_an_Q4A_J865y;-webkit-animation-timing-function: cubic-bezier(0, 0, 1, 1);animation-timing-function: cubic-bezier(0, 0, 1, 1);}</style><defs><path d="M165.46 35L167.77 35.12L170.08 35.3L172.39 35.53L174.69 35.82L176.99 36.16L179.27 36.56L181.55 37.02L183.82 37.53L186.08 38.1L188.33 38.72L190.57 39.4L192.79 40.13L194.99 40.92L197.18 41.77L199.36 42.67L201.51 43.63L203.65 44.65L205.76 45.72L207.86 46.84L209.93 48.02L211.97 49.26L214 50.55L215.99 51.9L217.96 53.3L219.9 54.76L221.82 56.28L223.7 57.85L225.55 59.48L227.36 61.16L229.15 62.9L231.12 64.93L233.02 67L234.85 69.12L236.6 71.27L238.28 73.46L239.89 75.69L241.43 77.96L242.9 80.25L244.3 82.58L245.62 84.94L246.87 87.33L248.05 89.75L249.16 92.19L250.19 94.65L251.15 97.14L252.05 99.65L252.87 102.17L253.61 104.72L254.29 107.28L254.89 109.85L255.42 112.44L255.88 115.04L256.27 117.65L256.58 120.26L256.83 122.88L257 125.51L257.1 128.14L257.13 130.77L257.08 133.4L256.96 136.03L256.78 138.66L256.52 141.28L256.18 143.89L255.78 146.49L255.3 149.09L254.75 151.67L254.13 154.25L253.44 156.8L252.67 159.34L251.84 161.86L249.32 162.7L246.78 163.47L244.22 164.16L241.65 164.78L239.06 165.33L236.47 165.8L233.86 166.21L231.25 166.54L228.63 166.8L226.01 166.99L223.38 167.11L220.75 167.15L218.12 167.12L215.49 167.02L212.86 166.85L210.24 166.61L207.62 166.29L205.02 165.91L202.42 165.45L199.83 164.92L197.26 164.31L194.69 163.64L192.15 162.89L189.62 162.07L187.12 161.18L184.63 160.22L182.16 159.18L179.72 158.07L177.31 156.89L174.92 155.64L172.56 154.32L170.23 152.92L167.93 151.46L165.67 149.92L163.44 148.31L161.25 146.62L159.09 144.87L156.98 143.04L154.91 141.14L152.88 139.17L151.14 137.39L149.45 135.57L147.83 133.72L146.26 131.84L144.74 129.93L143.28 127.98L141.88 126.02L140.53 124.02L139.23 122L138 119.95L136.82 117.88L135.69 115.79L134.62 113.67L133.61 111.54L132.65 109.38L131.75 107.21L130.9 105.02L130.11 102.81L129.38 100.59L128.7 98.35L128.07 96.11L127.51 93.85L126.99 91.58L126.54 89.3L126.14 87.01L125.79 84.71L125.51 82.41L125.27 80.11L125.1 77.79L124.97 75.48L124.91 73.17L124.9 70.85L124.95 68.53L125.05 66.22L125.21 63.91L125.42 61.6L125.69 59.3L126.02 57L126.4 54.71L126.83 52.43L126.96 51.84L127.11 51.26L127.27 50.69L127.45 50.13L127.64 49.57L127.85 49.02L128.07 48.48L128.31 47.95L128.57 47.42L128.84 46.91L129.12 46.4L129.42 45.9L129.73 45.42L130.06 44.94L130.39 44.47L130.75 44.02L131.11 43.57L131.49 43.13L131.87 42.71L132.28 42.3L132.69 41.9L133.11 41.51L133.55 41.13L133.99 40.77L134.45 40.42L134.92 40.08L135.39 39.75L135.88 39.44L136.38 39.14L136.88 38.86L137.4 38.59L137.92 38.34L138.46 38.1L139 37.87L139.55 37.66L140.1 37.47L140.67 37.29L141.24 37.13L141.82 36.98L142.41 36.85L144.69 36.42L146.98 36.04L149.28 35.71L151.58 35.44L153.89 35.23L156.2 35.07L158.51 34.97L160.83 34.92L163.14 34.93L165.46 35Z" id="bYxTnx851"/><path d="M137.17 42.68L137.09 44.73L137.06 46.78L137.07 48.83L137.12 50.88L137.22 52.94L137.36 54.98L137.55 57.03L137.78 59.07L138.05 61.11L138.37 63.14L138.73 65.17L139.13 67.19L139.58 69.2L140.07 71.2L140.61 73.2L141.19 75.18L141.81 77.16L142.48 79.12L143.19 81.08L143.94 83.02L144.74 84.94L145.59 86.85L146.47 88.75L147.4 90.63L148.38 92.49L149.39 94.34L150.46 96.17L151.56 97.98L152.71 99.77L153.9 101.54L155.14 103.29L156.42 105.01L157.75 106.72L159.12 108.4L160.53 110.06L161.98 111.69L163.48 113.29L165.03 114.87L166.91 116.7L168.83 118.47L170.78 120.18L172.77 121.83L174.79 123.41L176.85 124.93L178.94 126.39L181.05 127.79L183.19 129.12L185.36 130.4L187.56 131.61L189.78 132.76L192.03 133.84L194.29 134.87L196.58 135.83L198.88 136.73L201.21 137.57L203.55 138.35L205.9 139.06L208.27 139.72L210.66 140.31L213.05 140.84L215.45 141.31L217.87 141.71L220.29 142.05L222.72 142.34L225.15 142.56L227.59 142.71L230.03 142.81L232.47 142.84L234.91 142.81L237.35 142.72L239.79 142.57L242.22 142.36L244.65 142.08L247.07 141.74L249.48 141.34L251.89 140.88L254.29 140.36L256.67 139.77L256.61 140.33L256.55 140.89L256.49 141.45L256.42 142.01L256.35 142.57L256.28 143.13L256.2 143.69L256.12 144.25L256.04 144.81L255.96 145.37L255.87 145.93L255.77 146.49L255.68 147.04L255.58 147.6L255.48 148.16L255.37 148.71L255.26 149.27L255.15 149.82L255.03 150.38L254.91 150.93L254.79 151.49L254.67 152.04L254.54 152.59L254.4 153.14L254.27 153.69L254.13 154.24L253.99 154.79L253.84 155.34L253.69 155.89L253.54 156.43L253.39 156.98L253.23 157.53L253.07 158.07L252.9 158.62L252.73 159.16L252.56 159.7L252.38 160.24L252.2 160.78L252.02 161.32L251.84 161.86L249.31 162.7L246.77 163.47L244.22 164.16L241.65 164.78L239.06 165.33L236.47 165.8L233.86 166.21L231.25 166.54L228.63 166.8L226.01 166.99L223.38 167.11L220.75 167.15L218.12 167.12L215.49 167.02L212.86 166.85L210.24 166.61L207.62 166.29L205.02 165.91L202.42 165.45L199.83 164.92L197.26 164.31L194.69 163.64L192.15 162.89L189.62 162.07L187.12 161.18L184.63 160.22L182.16 159.18L179.72 158.07L177.31 156.89L174.92 155.64L172.56 154.32L170.23 152.92L167.93 151.46L165.67 149.92L163.44 148.31L161.24 146.62L159.09 144.87L156.98 143.04L154.9 141.14L152.87 139.17L151.14 137.39L149.45 135.57L147.83 133.72L146.25 131.84L144.74 129.93L143.28 127.98L141.87 126.02L140.53 124.02L139.23 122L138 119.95L136.82 117.88L135.69 115.79L134.62 113.67L133.61 111.54L132.65 109.38L131.75 107.21L130.9 105.02L130.11 102.81L129.38 100.59L128.7 98.35L128.07 96.11L127.51 93.85L126.99 91.58L126.54 89.3L126.14 87.01L125.79 84.71L125.51 82.41L125.27 80.11L125.1 77.79L124.97 75.48L124.91 73.17L124.9 70.85L124.95 68.53L125.05 66.22L125.21 63.91L125.42 61.6L125.69 59.3L126.01 57L126.4 54.71L126.83 52.43L126.93 51.97L127.04 51.52L127.16 51.07L127.29 50.63L127.43 50.19L127.57 49.76L127.73 49.33L127.9 48.9L128.07 48.48L128.26 48.07L128.45 47.66L128.66 47.26L128.87 46.86L129.09 46.46L129.32 46.08L129.56 45.7L129.8 45.32L130.06 44.95L130.32 44.59L130.59 44.23L130.86 43.88L131.15 43.53L131.44 43.2L131.74 42.87L132.05 42.54L132.37 42.22L132.69 41.91L133.02 41.61L133.35 41.31L133.69 41.03L134.04 40.75L134.4 40.47L134.76 40.21L135.13 39.95L135.5 39.7L135.88 39.46L136.27 39.23L136.66 39L137.05 38.79L137.46 38.58L137.29 40.63L137.17 42.68Z" id="d4wXfCiTbv"/><path d="M181.51 81.75L181.86 81.78L182.21 81.83L182.55 81.89L182.9 81.96L183.24 82.05L183.58 82.15L183.91 82.26L184.24 82.39L184.57 82.53L184.89 82.68L185.21 82.85L185.52 83.03L185.83 83.23L186.13 83.43L186.42 83.65L186.71 83.89L186.99 84.13L187.26 84.39L258.28 155.42L258.54 155.69L258.79 155.97L259.02 156.25L259.24 156.55L259.45 156.85L259.64 157.15L259.82 157.47L259.99 157.78L260.14 158.11L260.28 158.43L260.41 158.76L260.52 159.1L260.62 159.44L260.71 159.78L260.78 160.12L260.84 160.47L260.89 160.81L260.92 161.16L260.94 161.51L260.95 161.86L260.94 162.21L260.92 162.56L260.89 162.91L260.84 163.26L260.78 163.6L260.71 163.95L260.62 164.29L260.52 164.62L260.41 164.96L260.28 165.29L260.14 165.62L259.99 165.94L259.82 166.26L259.64 166.57L259.45 166.88L259.24 167.18L259.02 167.47L258.79 167.75L258.54 168.03L258.28 168.3L258.15 168.44L258.01 168.56L257.87 168.69L257.73 168.81L257.59 168.93L257.45 169.05L257.3 169.16L257.15 169.27L257 169.37L256.85 169.47L256.7 169.57L256.55 169.67L256.39 169.76L256.23 169.85L256.08 169.93L255.92 170.01L255.76 170.09L255.59 170.17L255.43 170.24L255.27 170.31L255.1 170.37L254.94 170.44L254.77 170.49L254.6 170.55L254.43 170.6L254.26 170.65L254.09 170.69L253.92 170.74L253.75 170.77L253.58 170.81L253.41 170.84L253.23 170.87L253.06 170.89L252.89 170.92L252.71 170.93L252.54 170.95L252.36 170.96L252.19 170.97L252.01 170.97L251.84 170.98L251.66 170.97L251.49 170.97L251.31 170.96L251.14 170.95L250.96 170.93L250.79 170.92L250.62 170.89L250.44 170.87L250.27 170.84L250.1 170.81L249.92 170.77L249.75 170.74L249.58 170.69L249.41 170.65L249.24 170.6L249.07 170.55L248.91 170.49L248.74 170.44L248.57 170.37L248.41 170.31L248.24 170.24L248.08 170.17L247.92 170.09L247.76 170.01L247.6 169.93L247.44 169.85L247.29 169.76L247.13 169.67L246.98 169.57L246.82 169.47L246.67 169.37L246.52 169.27L246.38 169.16L246.23 169.05L246.09 168.93L245.95 168.81L245.8 168.69L245.67 168.56L245.53 168.44L245.4 168.3L174.37 97.28L174.11 97.01L173.86 96.73L173.63 96.44L173.41 96.15L173.2 95.85L173.01 95.54L172.83 95.23L172.66 94.91L172.51 94.59L172.37 94.27L172.24 93.93L172.13 93.6L172.03 93.26L171.94 92.92L171.87 92.58L171.81 92.23L171.76 91.88L171.73 91.54L171.71 91.19L171.7 90.84L171.71 90.49L171.73 90.14L171.76 89.79L171.81 89.44L171.87 89.1L171.94 88.75L172.03 88.41L172.13 88.07L172.24 87.74L172.37 87.41L172.51 87.08L172.66 86.76L172.83 86.44L173.01 86.13L173.2 85.82L173.41 85.52L173.63 85.23L173.86 84.94L174.11 84.66L174.37 84.39L174.64 84.13L174.92 83.89L175.21 83.65L175.5 83.43L175.8 83.23L176.11 83.03L176.42 82.85L176.74 82.68L177.06 82.53L177.38 82.39L177.72 82.26L178.05 82.15L178.39 82.05L178.73 81.96L179.07 81.89L179.42 81.83L179.77 81.78L180.11 81.75L180.46 81.73L180.81 81.72L181.16 81.73L181.51 81.75Z" id="eaM1mOGYs"/><path d="M363.17 31.92L363.73 31.97L364.3 32.05L364.86 32.15L365.42 32.27L365.97 32.42L366.52 32.59L367.06 32.78L367.6 32.99L368.12 33.23L368.64 33.49L369.16 33.77L369.66 34.08L370.15 34.41L370.63 34.76L371.1 35.14L371.55 35.54L371.99 35.96L372.42 36.4L385.49 50.6L385.85 51L386.19 51.42L386.51 51.84L386.82 52.28L387.11 52.72L387.38 53.17L387.63 53.63L387.86 54.1L388.08 54.57L388.27 55.05L388.45 55.53L388.61 56.02L388.75 56.52L388.88 57.01L388.98 57.51L389.07 58.02L389.14 58.52L389.19 59.03L389.22 59.54L389.24 60.05L389.23 60.56L389.21 61.07L389.17 61.57L389.11 62.08L389.03 62.58L388.94 63.09L388.82 63.58L388.69 64.08L388.54 64.57L388.37 65.05L388.18 65.53L387.97 66.01L387.75 66.47L387.5 66.94L387.24 67.39L386.96 67.83L386.66 68.27L386.34 68.7L386 69.11L385.64 69.52L382.63 72.94L379.79 76.38L377.11 79.85L374.58 83.33L372.21 86.83L369.98 90.32L367.9 93.82L365.96 97.3L364.15 100.78L362.47 104.23L360.92 107.66L359.48 111.06L358.16 114.42L356.95 117.74L355.84 121L354.84 124.22L353.93 127.37L353.11 130.46L352.38 133.47L351.74 136.41L351.17 139.26L350.67 142.02L350.24 144.69L349.87 147.26L349.57 149.71L349.31 152.06L349.11 154.28L348.95 156.39L348.83 158.36L348.75 160.19L348.7 161.88L348.67 163.42L348.66 164.81L348.67 166.04L348.7 167.1L348.73 167.99L348.76 168.7L348.79 169.23L348.81 169.56L348.82 169.71L301.61 174.02L301.58 173.65L301.53 173.02L301.47 172.14L301.42 171.02L301.36 169.67L301.32 168.09L301.29 166.3L301.29 164.3L301.32 162.09L301.38 159.7L301.49 157.11L301.64 154.36L301.85 151.43L302.12 148.33L302.46 145.09L302.88 141.7L303.37 138.16L303.95 134.5L304.63 130.71L305.4 126.81L306.28 122.8L307.27 118.69L308.38 114.49L309.62 110.2L310.99 105.84L312.5 101.41L314.15 96.91L315.95 92.37L317.91 87.77L320.03 83.14L322.32 78.48L324.79 73.8L327.44 69.1L330.27 64.39L333.31 59.69L336.54 55L339.99 50.32L343.65 45.66L347.52 41.04L351.63 36.46L352.06 36.01L352.5 35.59L352.96 35.19L353.43 34.82L353.91 34.46L354.4 34.13L354.9 33.82L355.41 33.54L355.93 33.27L356.46 33.03L357 32.82L357.54 32.62L358.09 32.45L358.64 32.3L359.2 32.17L359.76 32.07L360.33 31.98L360.89 31.92L361.46 31.89L362.03 31.87L362.6 31.88L363.17 31.92Z" id="cgdAAEM1"/><path d="M327.1 100.97L328.04 100.99L328.98 101.01L329.92 101.03L330.86 101.06L331.8 101.1L332.74 101.14L333.68 101.18L334.61 101.23L335.54 101.29L336.48 101.35L337.41 101.42L338.34 101.49L339.27 101.57L340.19 101.65L341.12 101.74L342.05 101.83L342.97 101.93L343.89 102.03L344.81 102.14L345.73 102.26L346.65 102.38L347.57 102.5L348.48 102.63L349.4 102.77L350.31 102.91L351.22 103.05L352.13 103.21L353.04 103.36L353.94 103.52L354.85 103.69L355.75 103.86L356.65 104.04L357.55 104.22L358.45 104.41L359.35 104.6L360.24 104.8L361.13 105L362.02 105.21L360.88 107.75L359.8 110.28L358.79 112.78L357.84 115.27L356.95 117.73L356.12 120.16L355.35 122.57L354.63 124.94L353.96 127.28L353.34 129.58L352.77 131.84L352.25 134.06L351.78 136.24L351.34 138.37L350.95 140.45L350.59 142.49L350.28 144.46L350 146.39L349.75 148.25L349.53 150.05L349.34 151.8L349.18 153.47L349.05 155.08L348.94 156.62L348.85 158.08L348.78 159.47L348.73 160.78L348.69 162.02L348.67 163.17L348.66 164.23L348.67 165.21L348.68 166.1L348.69 166.9L348.71 167.6L348.74 168.21L348.76 168.72L348.78 169.12L348.8 169.42L348.82 169.62L348.82 169.71L301.61 174.02L301.59 173.81L301.56 173.49L301.53 173.05L301.5 172.52L301.46 171.88L301.42 171.14L301.38 170.3L301.35 169.37L301.32 168.34L301.3 167.22L301.29 166.02L301.29 164.72L301.3 163.34L301.32 161.87L301.36 160.32L301.42 158.7L301.49 156.99L301.59 155.22L301.71 153.36L301.85 151.44L302.02 149.45L302.22 147.4L302.44 145.28L302.7 143.09L302.99 140.85L303.32 138.55L303.68 136.19L304.08 133.78L304.52 131.32L305 128.81L305.52 126.25L306.09 123.65L306.71 121L307.37 118.32L308.09 115.59L308.85 112.83L309.68 110.03L310.55 107.21L311.49 104.35L312.48 101.46L312.79 101.44L313.11 101.41L313.42 101.39L313.74 101.37L314.06 101.35L314.37 101.33L314.69 101.31L315 101.29L315.32 101.27L315.64 101.25L315.95 101.23L316.27 101.21L316.59 101.2L316.9 101.18L317.22 101.16L317.54 101.15L317.85 101.13L318.17 101.12L318.49 101.11L318.81 101.09L319.13 101.08L319.45 101.07L319.76 101.06L320.08 101.05L320.4 101.04L320.72 101.03L321.04 101.02L321.36 101.01L321.68 101L322 101L322.32 100.99L322.64 100.98L322.96 100.98L323.28 100.98L323.6 100.97L323.93 100.97L324.25 100.97L324.57 100.96L324.89 100.96L325.21 100.96L326.16 100.97L327.1 100.97Z" id="dMn3lskbP"/><path d="M331.78 137.58L335.02 137.78L338.23 138.06L341.41 138.43L344.55 138.87L347.67 139.39L350.76 139.99L353.81 140.67L356.82 141.43L359.8 142.27L362.75 143.18L365.66 144.17L368.53 145.23L371.36 146.37L374.15 147.59L376.9 148.88L379.61 150.25L382.27 151.69L384.89 153.2L387.47 154.79L390.01 156.45L392.49 158.18L394.93 159.98L397.33 161.86L399.67 163.8L401.96 165.82L404.21 167.91L406.4 170.06L408.54 172.29L410.62 174.58L412.66 176.95L414.63 179.38L416.56 181.88L418.42 184.44L420.23 187.08L421.98 189.78L423.67 192.54L425.3 195.37L426.87 198.27L428.22 200.97L429.48 203.71L430.67 206.5L431.77 209.34L432.8 212.22L433.76 215.13L434.66 218.08L435.5 221.07L436.29 224.08L437.03 227.11L437.73 230.17L438.4 233.25L439.03 236.34L439.64 239.44L440.23 242.56L440.81 245.68L441.37 248.81L441.93 251.93L442.5 255.05L443.07 258.17L443.65 261.28L444.25 264.37L444.87 267.45L445.52 270.51L446.21 273.55L446.93 276.57L447.7 279.55L448.52 282.51L449.39 285.43L450.32 288.32L451.32 291.16L452.39 293.96L453.53 296.71L454.76 299.42L456.07 302.07L457.48 304.66L458.98 307.2L460.58 309.67L462.3 312.08L464.13 314.42L465.84 316.54L467.61 318.78L469.44 321.13L471.3 323.6L473.22 326.19L475.16 328.89L477.14 331.7L479.14 334.63L481.16 337.67L483.2 340.82L485.25 344.08L487.3 347.45L489.35 350.93L491.39 354.52L493.43 358.21L495.45 362.01L497.44 365.91L499.41 369.92L501.35 374.03L503.25 378.24L505.11 382.55L506.93 386.96L508.69 391.47L510.39 396.08L512.03 400.79L513.6 405.59L515.1 410.48L516.51 415.48L517.85 420.56L519.1 425.74L520.25 431.01L521.3 436.37L522.25 441.82L523.09 447.36L523.81 452.98L524.42 458.7L524.9 464.5L525.25 470.38L525.46 476.35L525.53 482.4L525.32 491.25L524.7 499.78L523.67 507.99L522.26 515.88L520.47 523.48L518.33 530.77L515.83 537.77L513 544.47L509.86 550.89L506.4 557.03L502.65 562.9L498.62 568.49L494.32 573.82L489.76 578.89L484.96 583.7L479.94 588.26L474.7 592.58L469.26 596.65L463.63 600.49L457.82 604.1L451.85 607.49L445.73 610.65L439.48 613.6L433.11 616.34L426.62 618.88L420.04 621.21L413.37 623.35L406.64 625.3L399.85 627.06L393.02 628.65L386.15 630.06L379.27 631.3L372.39 632.37L365.51 633.29L358.66 634.05L351.85 634.66L345.08 635.13L338.38 635.46L331.75 635.65L325.21 635.71L318.68 635.65L312.05 635.46L305.35 635.13L298.58 634.66L291.76 634.05L284.91 633.29L278.04 632.37L271.16 631.3L264.28 630.06L257.41 628.65L250.58 627.06L243.79 625.3L237.06 623.35L230.39 621.21L223.81 618.88L217.33 616.34L210.95 613.6L204.7 610.65L198.58 607.49L192.61 604.1L186.8 600.49L181.17 596.65L175.73 592.58L170.49 588.26L165.47 583.7L160.67 578.89L156.11 573.82L151.81 568.49L147.78 562.9L144.03 557.03L140.57 550.89L137.43 544.47L134.6 537.77L132.1 530.77L129.96 523.48L128.17 515.88L126.76 507.99L125.74 499.78L125.11 491.25L124.9 482.4L124.97 476.35L125.18 470.38L125.53 464.5L126.01 458.7L126.62 452.98L127.34 447.36L128.18 441.82L129.13 436.37L130.18 431.01L131.33 425.74L132.58 420.56L133.92 415.47L135.34 410.48L136.83 405.58L138.4 400.78L140.04 396.08L141.75 391.47L143.51 386.96L145.32 382.54L147.18 378.23L149.08 374.02L151.02 369.91L152.99 365.91L154.99 362L157 358.21L159.04 354.51L161.08 350.93L163.13 347.45L165.19 344.08L167.23 340.82L169.27 337.67L171.29 334.63L173.3 331.7L175.27 328.88L177.22 326.18L179.13 323.6L181 321.13L182.82 318.77L184.59 316.53L186.31 314.42L188.32 311.85L190.19 309.22L191.94 306.53L193.57 303.79L195.09 300.99L196.5 298.14L197.82 295.24L199.04 292.3L200.17 289.31L201.22 286.29L202.2 283.23L203.12 280.13L203.97 277.01L204.76 273.86L205.51 270.68L206.22 267.48L206.89 264.26L207.53 261.03L208.14 257.79L208.75 254.53L209.34 251.27L209.92 248L210.51 244.73L211.11 241.46L211.73 238.2L212.37 234.95L213.03 231.7L213.73 228.47L214.47 225.26L215.26 222.07L216.1 218.89L217 215.75L217.97 212.63L219.01 209.54L220.13 206.49L221.34 203.47L222.64 200.49L224.03 197.56L225.53 194.67L227.15 191.83L228.76 189.2L230.42 186.62L232.14 184.12L233.91 181.67L235.73 179.29L237.6 176.97L239.52 174.71L241.49 172.52L243.51 170.4L245.58 168.33L247.7 166.34L249.85 164.4L252.06 162.53L254.31 160.73L256.6 158.99L258.93 157.32L261.3 155.72L263.72 154.18L266.17 152.7L268.66 151.29L271.19 149.95L273.76 148.68L276.36 147.47L279 146.33L281.67 145.26L284.37 144.26L287.11 143.32L289.88 142.45L292.67 141.65L295.5 140.92L298.36 140.25L301.24 139.66L304.15 139.14L307.09 138.68L310.05 138.29L313.04 137.98L316.05 137.73L319.08 137.55L322.14 137.45L325.21 137.41L328.51 137.45L331.78 137.58Z" id="c6F74BmGT"/><path d="M326.47 137.42L327.09 137.43L327.72 137.44L328.34 137.45L328.96 137.47L329.58 137.49L330.2 137.51L330.82 137.53L331.44 137.56L332.06 137.59L332.68 137.63L333.29 137.66L333.91 137.7L334.52 137.74L335.13 137.79L335.74 137.84L336.35 137.89L336.96 137.94L337.57 138L338.18 138.06L338.78 138.12L339.39 138.19L339.99 138.26L340.59 138.33L341.2 138.4L341.8 138.48L342.4 138.56L342.99 138.64L343.59 138.73L344.19 138.82L344.78 138.91L345.37 139L345.97 139.1L346.56 139.2L347.15 139.3L347.74 139.41L348.32 139.51L348.91 139.63L349.5 139.74L347.2 140.21L344.92 140.73L342.65 141.3L340.41 141.9L338.19 142.55L335.98 143.24L333.79 143.98L331.63 144.76L329.48 145.58L327.36 146.44L325.26 147.35L323.18 148.3L321.12 149.29L319.09 150.33L317.07 151.41L315.09 152.53L313.12 153.69L311.19 154.89L309.27 156.14L307.39 157.43L305.53 158.76L303.69 160.13L301.89 161.54L300.11 163L298.35 164.49L296.63 166.03L294.94 167.61L293.27 169.23L291.64 170.89L290.03 172.59L288.46 174.33L286.91 176.12L285.4 177.94L283.92 179.8L282.48 181.71L281.06 183.65L279.68 185.64L278.33 187.66L277.02 189.73L275.74 191.83L274.13 194.67L272.63 197.56L271.23 200.49L269.94 203.47L268.73 206.49L267.61 209.54L266.57 212.63L265.6 215.75L264.7 218.89L263.86 222.07L263.07 225.26L262.33 228.47L261.63 231.7L260.96 234.95L260.33 238.2L259.71 241.46L259.11 244.73L258.52 248L257.94 251.27L257.34 254.53L256.74 257.79L256.12 261.03L255.48 264.26L254.81 267.48L254.11 270.68L253.36 273.86L252.56 277.01L251.71 280.13L250.8 283.23L249.82 286.29L248.77 289.31L247.64 292.3L246.41 295.24L245.1 298.14L243.69 300.99L242.17 303.79L240.54 306.53L238.79 309.22L236.91 311.85L234.91 314.42L233.19 316.53L231.42 318.77L229.6 321.13L227.73 323.6L225.82 326.18L223.87 328.88L221.9 331.7L219.89 334.63L217.87 337.67L215.83 340.82L213.79 344.08L211.74 347.45L209.68 350.93L207.64 354.51L205.6 358.21L203.59 362L201.59 365.91L199.62 369.91L197.68 374.02L195.78 378.23L193.92 382.54L192.11 386.96L190.35 391.47L188.64 396.08L187 400.78L185.43 405.58L183.94 410.48L182.52 415.47L181.18 420.56L179.93 425.74L178.78 431.01L177.73 436.37L176.78 441.82L175.94 447.36L175.22 452.98L174.61 458.7L174.13 464.5L173.78 470.38L173.57 476.35L173.5 482.4L173.67 490.45L174.19 498.24L175.04 505.77L176.21 513.03L177.69 520.05L179.48 526.81L181.56 533.32L183.92 539.6L186.56 545.63L189.46 551.43L192.61 557L196.01 562.34L199.63 567.46L203.48 572.36L207.55 577.04L211.82 581.5L216.28 585.76L220.93 589.82L225.74 593.67L230.73 597.33L235.86 600.79L241.15 604.06L246.56 607.15L252.1 610.06L257.75 612.78L263.51 615.33L269.36 617.71L275.3 619.93L281.31 621.98L287.39 623.87L293.52 625.6L299.69 627.19L305.9 628.62L312.14 629.91L318.39 631.06L324.64 632.08L330.89 632.96L337.13 633.71L343.34 634.33L349.51 634.84L348.9 634.88L348.28 634.92L347.66 634.97L347.04 635.01L346.42 635.05L345.81 635.08L345.19 635.12L344.58 635.16L343.96 635.19L343.35 635.22L342.73 635.26L342.12 635.29L341.51 635.32L340.89 635.35L340.28 635.37L339.67 635.4L339.06 635.43L338.45 635.45L337.84 635.48L337.23 635.5L336.63 635.52L336.02 635.54L335.41 635.56L334.81 635.58L334.2 635.59L333.6 635.61L332.99 635.62L332.39 635.64L331.79 635.65L331.19 635.66L330.59 635.67L329.99 635.68L329.39 635.69L328.79 635.69L328.19 635.7L327.59 635.7L327 635.71L326.4 635.71L325.81 635.71L325.21 635.71L318.68 635.65L312.05 635.46L305.35 635.13L298.58 634.66L291.76 634.05L284.91 633.29L278.04 632.37L271.16 631.3L264.28 630.06L257.41 628.65L250.58 627.06L243.79 625.3L237.06 623.35L230.39 621.21L223.81 618.88L217.33 616.34L210.95 613.6L204.7 610.65L198.58 607.49L192.61 604.1L186.8 600.49L181.17 596.65L175.73 592.58L170.49 588.26L165.47 583.7L160.67 578.89L156.11 573.82L151.81 568.49L147.78 562.9L144.03 557.03L140.57 550.89L137.43 544.47L134.6 537.77L132.1 530.77L129.96 523.48L128.17 515.88L126.76 507.99L125.74 499.78L125.11 491.25L124.9 482.4L124.97 476.35L125.18 470.38L125.53 464.5L126.01 458.7L126.62 452.98L127.34 447.36L128.18 441.82L129.13 436.37L130.18 431.01L131.33 425.74L132.58 420.56L133.92 415.48L135.34 410.48L136.83 405.59L138.4 400.78L140.04 396.08L141.75 391.47L143.51 386.96L145.32 382.55L147.18 378.24L149.08 374.02L151.02 369.92L152.99 365.91L154.99 362.01L157 358.21L159.04 354.52L161.08 350.93L163.13 347.45L165.19 344.08L167.23 340.82L169.27 337.67L171.29 334.63L173.3 331.7L175.27 328.89L177.22 326.19L179.13 323.6L181 321.13L182.82 318.77L184.59 316.54L186.31 314.42L188.32 311.86L190.19 309.23L191.94 306.54L193.57 303.79L195.09 300.99L196.5 298.14L197.82 295.25L199.04 292.3L200.17 289.32L201.22 286.29L202.2 283.23L203.12 280.14L203.97 277.01L204.76 273.86L205.51 270.68L206.22 267.49L206.89 264.27L207.53 261.03L208.14 257.79L208.75 254.53L209.34 251.27L209.92 248L210.51 244.73L211.11 241.47L211.73 238.21L212.37 234.95L213.03 231.71L213.73 228.48L214.47 225.26L215.26 222.07L216.1 218.9L217 215.75L217.97 212.63L219.01 209.54L220.13 206.49L221.34 203.47L222.64 200.5L224.03 197.56L225.53 194.67L227.15 191.84L228.76 189.2L230.42 186.63L232.14 184.12L233.91 181.67L235.73 179.29L237.6 176.97L239.52 174.72L241.49 172.53L243.51 170.4L245.58 168.34L247.7 166.34L249.85 164.41L252.06 162.54L254.31 160.73L256.6 159L258.93 157.32L261.3 155.72L263.72 154.18L266.17 152.7L268.66 151.3L271.19 149.95L273.76 148.68L276.36 147.47L279 146.33L281.67 145.26L284.37 144.26L287.11 143.32L289.88 142.45L292.67 141.65L295.5 140.92L298.36 140.26L301.24 139.66L304.15 139.14L307.09 138.68L310.05 138.29L313.04 137.98L316.05 137.73L319.08 137.55L322.14 137.45L325.21 137.41L325.84 137.42L326.47 137.42Z" id="blFZjM7OM"/><path d="M233.22 443.32L234 443.5L234.76 443.74L235.48 444.05L236.18 444.41L236.83 444.84L237.45 445.31L238.02 445.84L238.55 446.41L239.02 447.03L239.45 447.68L239.81 448.38L240.12 449.1L240.36 449.86L240.54 450.65L240.65 451.45L240.69 452.28L240.69 469.23L240.65 470.06L240.54 470.87L240.36 471.65L240.12 472.41L239.81 473.14L239.45 473.83L239.02 474.49L238.55 475.1L238.02 475.67L237.45 476.2L236.83 476.68L236.18 477.1L235.48 477.47L234.76 477.77L234 478.02L233.22 478.2L232.41 478.31L231.58 478.34L230.75 478.31L229.94 478.2L229.15 478.02L228.4 477.77L227.67 477.47L226.98 477.1L226.32 476.68L225.71 476.2L225.13 475.67L224.61 475.1L224.13 474.49L223.71 473.83L223.34 473.14L223.03 472.41L222.79 471.65L222.61 470.87L222.5 470.06L222.47 469.23L222.47 452.28L222.5 451.45L222.61 450.65L222.79 449.86L223.03 449.1L223.34 448.38L223.71 447.68L224.13 447.03L224.61 446.41L225.13 445.84L225.71 445.31L226.32 444.84L226.98 444.41L227.67 444.05L228.4 443.74L229.15 443.5L229.94 443.32L230.75 443.21L231.58 443.17L232.41 443.21L233.22 443.32Z" id="d4rycXZ8So"/><path d="M420.49 443.32L421.28 443.5L422.03 443.74L422.76 444.05L423.45 444.41L424.11 444.84L424.72 445.31L425.3 445.84L425.82 446.41L426.3 447.03L426.72 447.68L427.09 448.38L427.4 449.1L427.64 449.86L427.82 450.65L427.93 451.45L427.97 452.28L427.97 469.23L427.93 470.06L427.82 470.87L427.64 471.65L427.4 472.41L427.09 473.14L426.72 473.83L426.3 474.49L425.82 475.1L425.3 475.67L424.72 476.2L424.11 476.68L423.45 477.1L422.76 477.47L422.03 477.77L421.28 478.02L420.49 478.2L419.68 478.31L418.85 478.34L418.02 478.31L417.22 478.2L416.43 478.02L415.67 477.77L414.95 477.47L414.26 477.1L413.6 476.68L412.98 476.2L412.41 475.67L411.88 475.1L411.41 474.49L410.99 473.83L410.62 473.14L410.31 472.41L410.07 471.65L409.89 470.87L409.78 470.06L409.74 469.23L409.74 452.28L409.78 451.45L409.89 450.65L410.07 449.86L410.31 449.1L410.62 448.38L410.99 447.68L411.41 447.03L411.88 446.41L412.41 445.84L412.98 445.31L413.6 444.84L414.26 444.41L414.95 444.05L415.67 443.74L416.43 443.5L417.22 443.32L418.02 443.21L418.85 443.17L419.68 443.21L420.49 443.32Z" id="d1fptdPi4D"/><path d="M303.15 459L303.58 459.06L304.01 459.14L304.44 459.24L304.86 459.37L305.28 459.51L305.69 459.67L306.09 459.86L306.49 460.06L306.87 460.28L307.25 460.53L307.62 460.79L307.97 461.08L308.32 461.38L308.65 461.71L308.96 462.05L309.34 462.47L309.73 462.88L310.13 463.27L310.53 463.66L310.95 464.03L311.38 464.39L311.82 464.74L312.27 465.07L312.73 465.39L313.2 465.71L313.67 466L314.16 466.29L314.65 466.56L315.15 466.82L315.66 467.07L316.18 467.3L316.7 467.52L317.23 467.73L317.77 467.92L318.31 468.11L318.86 468.27L319.41 468.42L319.97 468.56L320.54 468.69L321.11 468.8L321.68 468.89L322.26 468.98L322.85 469.04L323.43 469.09L324.02 469.13L324.62 469.16L325.21 469.16L325.81 469.16L326.4 469.13L326.99 469.09L327.58 469.04L328.16 468.98L328.74 468.89L329.32 468.8L329.89 468.69L330.45 468.56L331.01 468.42L331.57 468.27L332.12 468.11L332.66 467.92L333.2 467.73L333.73 467.52L334.25 467.3L334.77 467.07L335.28 466.82L335.78 466.56L336.27 466.29L336.75 466L337.23 465.71L337.7 465.39L338.16 465.07L338.61 464.74L339.05 464.39L339.48 464.03L339.89 463.66L340.3 463.27L340.7 462.88L341.09 462.47L341.47 462.05L341.78 461.71L342.12 461.38L342.46 461.08L342.81 460.79L343.18 460.53L343.56 460.28L343.94 460.06L344.34 459.86L344.74 459.67L345.15 459.51L345.57 459.37L345.99 459.24L346.42 459.14L346.85 459.06L347.28 459L347.72 458.96L348.15 458.94L348.59 458.94L349.03 458.97L349.46 459.01L349.9 459.08L350.33 459.16L350.76 459.27L351.18 459.4L351.6 459.55L352.01 459.72L352.42 459.91L352.82 460.12L353.21 460.36L353.59 460.61L353.96 460.89L354.32 461.19L354.67 461.51L354.99 461.84L355.3 462.19L355.58 462.54L355.85 462.91L356.09 463.28L356.32 463.67L356.52 464.07L356.71 464.47L356.87 464.88L357.01 465.3L357.13 465.72L357.24 466.14L357.32 466.57L357.38 467.01L357.42 467.44L357.44 467.88L357.43 468.32L357.41 468.75L357.37 469.19L357.3 469.62L357.22 470.06L357.11 470.48L356.98 470.91L356.83 471.33L356.66 471.74L356.47 472.15L356.26 472.55L356.02 472.94L355.76 473.32L355.49 473.69L355.19 474.05L354.48 474.83L353.76 475.6L353.01 476.34L352.25 477.06L351.47 477.75L350.67 478.43L349.85 479.08L349.01 479.71L348.16 480.32L347.3 480.9L346.41 481.46L345.52 482L344.6 482.51L343.68 483L342.74 483.46L341.79 483.9L340.82 484.31L339.84 484.7L338.86 485.06L337.86 485.4L336.85 485.72L335.83 486L334.8 486.26L333.76 486.5L332.72 486.7L331.67 486.88L330.61 487.04L329.54 487.16L328.47 487.26L327.39 487.33L326.3 487.37L325.21 487.39L324.12 487.37L323.04 487.33L321.96 487.26L320.89 487.16L319.82 487.04L318.76 486.88L317.71 486.7L316.66 486.5L315.63 486.26L314.6 486L313.58 485.72L312.57 485.4L311.57 485.06L310.58 484.7L309.61 484.31L308.64 483.9L307.69 483.46L306.75 483L305.83 482.51L304.91 482L304.02 481.46L303.13 480.9L302.27 480.32L301.42 479.71L300.58 479.08L299.76 478.43L298.96 477.75L298.18 477.06L297.42 476.34L296.67 475.6L295.95 474.83L295.25 474.05L294.95 473.69L294.67 473.32L294.41 472.94L294.17 472.55L293.96 472.15L293.77 471.74L293.6 471.33L293.45 470.91L293.32 470.48L293.21 470.06L293.13 469.62L293.06 469.19L293.02 468.75L292.99 468.32L292.99 467.88L293.01 467.44L293.05 467.01L293.11 466.57L293.19 466.14L293.29 465.72L293.42 465.3L293.56 464.88L293.72 464.47L293.91 464.07L294.11 463.67L294.34 463.28L294.58 462.91L294.85 462.54L295.13 462.19L295.44 461.84L295.76 461.51L296.11 461.19L296.47 460.89L296.84 460.61L297.22 460.36L297.61 460.12L298.01 459.91L298.42 459.72L298.83 459.55L299.25 459.4L299.67 459.27L300.1 459.16L300.53 459.08L300.97 459.01L301.4 458.97L301.84 458.94L302.28 458.94L302.71 458.96L303.15 459Z" id="g517mv09OX"/></defs><g id="el_Tf68JMn0cl_an_yrB9mDlbu" data-animator-group="true" data-animator-type="1"><g id="el_Tf68JMn0cl"><g id="el_NXkWZnMN5o"><g id="el_2vjZ9at271_an_Q4A_J865y" data-animator-group="true" data-animator-type="1"><g id="el_2vjZ9at271"><g id="el_A8wctWPfTp"><use xlink:href="#bYxTnx851" id="el_XFJIbLv7XE"/><g id="el_VQFFkofFoq"><use xlink:href="#bYxTnx851" id="el_SikWLS6HGz"/></g></g><g id="el_WXTiOemnkq"><use xlink:href="#d4wXfCiTbv" id="el_WshE5Hkldn"/><g id="el_KEA_BBjGMV"><use xlink:href="#d4wXfCiTbv" id="el_a_ABSat0h6"/></g></g><g id="el_VkyDt9wLE-"><use xlink:href="#eaM1mOGYs" id="el_aH_ksAoxjz"/><g id="el_PKewOsg9u6"><use xlink:href="#eaM1mOGYs" id="el_yxQk2wdagF"/></g></g></g></g><g id="el_bjd1SfmADpx_an_8d3UvBPqw" data-animator-group="true" data-animator-type="2"><g id="el_bjd1SfmADpx"><g id="el_5CmjQY5zSxc"><use xlink:href="#cgdAAEM1" id="el_7KgFFhByWiF"/><g id="el_Idcg6HWUecm"><use xlink:href="#cgdAAEM1" id="el_a_cjPYqBqMR"/></g></g><g id="el_wjH0q0zLjlJ"><use xlink:href="#dMn3lskbP" id="el_cE_QaVfbmh9"/><g id="el_WIrK5vA2y60"><use xlink:href="#dMn3lskbP" id="el_7-gEolmHWf7"/></g></g></g></g><g id="el_xCkyGUAFMmX"><g id="el_DwRubM21h2a"><use xlink:href="#c6F74BmGT" id="el_VkbT2EeJ_lT"/><g id="el_iw9_72VmO-f"><use xlink:href="#c6F74BmGT" id="el_W9_ZZ1Ixlal"/></g></g><g id="el__fwmvDp5nj6"><use xlink:href="#blFZjM7OM" id="el_CrrIdk9hYVg"/><g id="el_WRip7T05N6g"><use xlink:href="#blFZjM7OM" id="el_-whBRSknfHN"/></g></g></g><g id="el_2d_SAJSHAm6_an_K8ok_erJy" data-animator-group="true" data-animator-type="2"><g id="el_2d_SAJSHAm6"><g id="el_ZgKmiayYYYy"><use xlink:href="#d4rycXZ8So" id="el_RQc9JJQjAnH"/><g id="el_NN3JqViA31Z"><use xlink:href="#d4rycXZ8So" id="el_Rr1jRYSngYg"/></g></g><g id="el_tnnO1Y9A1w8"><use xlink:href="#d1fptdPi4D" id="el_tMU9U3kMSod"/><g id="el_F4J_6-1BbcB"><use xlink:href="#d1fptdPi4D" id="el_AxIh-9NnICO"/></g></g></g></g><g id="el_udfjwDDRHjo"><use xlink:href="#g517mv09OX" id="el_3793QKgDutD"/><g id="el_iUU1HkILmRh"><use xlink:href="#g517mv09OX" id="el_gbDt_dCBeSJ"/></g></g></g></g></g></svg>