<svg width="168" height="168" viewBox="0 0 168 168" fill="none" xmlns="http://www.w3.org/2000/svg">
<g clip-path="url(#clip0)">
<path d="M58.3646 113.453C88.7875 113.453 113.45 88.7908 113.45 58.3679C113.45 27.9449 88.7875 3.28223 58.3646 3.28223C27.9416 3.28223 3.27893 27.9449 3.27893 58.3679C3.27893 88.7908 27.9416 113.453 58.3646 113.453Z" fill="#ECEEFF"/>
<path d="M161.096 161.099C156.422 165.773 148.844 165.773 144.17 161.099L107.072 124C105.088 122.017 105.088 118.801 107.072 116.817L116.814 107.075C118.797 105.092 122.013 105.092 123.997 107.075L161.096 144.174C165.77 148.848 165.77 156.425 161.096 161.099Z" fill="#9AA9FF"/>
<path d="M132.405 115.483L123.997 107.075C122.013 105.092 118.797 105.092 116.814 107.075L107.071 116.817C105.088 118.801 105.088 122.017 107.071 124L115.48 132.409L132.405 115.483Z" fill="white"/>
<path d="M57.7087 94.4358C77.9907 94.4358 94.4325 77.994 94.4325 57.712C94.4325 37.4301 77.9907 20.9883 57.7087 20.9883C37.4268 20.9883 20.985 37.4301 20.985 57.712C20.985 77.994 37.4268 94.4358 57.7087 94.4358Z" fill="#FFDFAD"/>
<path d="M32.4841 164.608C43.3495 164.608 52.1576 155.8 52.1576 144.934C52.1576 134.069 43.3495 125.261 32.4841 125.261C21.6188 125.261 12.8107 134.069 12.8107 144.934C12.8107 155.8 21.6188 164.608 32.4841 164.608Z" fill="#C8D0FF"/>
<path d="M147.551 37.3829C156.967 37.3829 164.601 29.7492 164.601 20.3325C164.601 10.9159 156.967 3.28223 147.551 3.28223C138.134 3.28223 130.5 10.9159 130.5 20.3325C130.5 29.7492 138.134 37.3829 147.551 37.3829Z" fill="#FE7A77"/>
<path d="M146.896 94.7981L157.71 83.9841L146.896 73.1701L136.082 83.9841L146.896 94.7981Z" fill="#ECEEFF"/>
<path d="M57.7087 17.7097C39.0753 17.7097 23.3773 30.5161 18.9524 47.7894C18.9271 47.8779 18.9042 47.9675 18.8865 48.0589C18.1172 51.1519 17.7061 54.3849 17.7061 57.7124C17.7061 79.7699 35.6512 97.715 57.7087 97.715C79.7662 97.715 97.7114 79.7699 97.7114 57.7124C97.7114 35.6548 79.7662 17.7097 57.7087 17.7097ZM86.6156 74.5168H54.5118C52.7008 74.5168 51.2329 75.9847 51.2329 77.7957C51.2329 79.6066 52.7008 81.0746 54.5118 81.0746H81.6162C75.5397 87.2914 67.068 91.1572 57.7087 91.1572C39.2672 91.1572 24.2639 76.1539 24.2639 57.7124C24.2639 55.7536 24.4347 53.8338 24.7593 51.9664H39.037C39.8029 51.9664 40.2282 52.4222 40.4131 52.694C40.5984 52.9658 40.8673 53.5282 40.5872 54.2413L40.3587 54.823C39.3639 57.3566 39.6849 60.2119 41.2181 62.4609C42.7513 64.7099 45.2915 66.0529 48.0133 66.0529H60.4158C62.2267 66.0529 63.6947 64.585 63.6947 62.774C63.6947 60.9631 62.2267 59.4951 60.4158 59.4951H48.0133C47.2474 59.4951 46.8221 59.0393 46.6368 58.7675C46.4516 58.4957 46.1827 57.9334 46.4627 57.2202L46.6913 56.6385C47.6861 54.1049 47.3651 51.2496 45.8319 49.0006C44.2986 46.7516 41.7585 45.4086 39.0367 45.4086H26.6089C31.5204 33.0373 43.6094 24.2675 57.7087 24.2675C68.5544 24.2675 78.2091 29.458 84.3239 37.4841H64.9236C63.1127 37.4841 61.6447 38.9521 61.6447 40.763C61.6447 42.574 63.1127 44.042 64.9236 44.042H88.2301C90.1079 48.2176 91.1539 52.8452 91.1539 57.7124C91.1536 63.8341 89.4987 69.5758 86.6156 74.5168Z" fill="black"/>
<path d="M146.121 125.92C145.259 125.92 144.413 126.271 143.803 126.881C143.193 127.494 142.842 128.336 142.842 129.199C142.842 130.061 143.193 130.907 143.803 131.52C144.413 132.13 145.259 132.478 146.121 132.478C146.984 132.478 147.829 132.13 148.439 131.52C149.053 130.907 149.4 130.065 149.4 129.199C149.4 128.336 149.053 127.491 148.439 126.881C147.829 126.271 146.984 125.92 146.121 125.92Z" fill="black"/>
<path d="M156.474 134.915C155.193 133.635 153.117 133.635 151.837 134.915C150.556 136.196 150.556 138.272 151.837 139.553L158.777 146.493C160.418 148.134 161.322 150.316 161.322 152.637C161.322 154.958 160.419 157.14 158.777 158.781C155.389 162.169 149.877 162.169 146.489 158.781L120.117 132.409L132.406 120.121L135.606 123.322C136.887 124.602 138.963 124.602 140.244 123.322C141.524 122.041 141.524 119.965 140.244 118.684L126.316 104.756C124.737 103.178 122.638 102.308 120.406 102.308C118.173 102.308 116.075 103.177 114.496 104.756L111.943 107.309L101.867 97.2324C111.103 86.9048 116.729 73.282 116.729 58.3682C116.729 26.1861 90.5467 0.00366211 58.3645 0.00366211C26.1824 0.00366211 0 26.1857 0 58.3682C0 90.5507 26.1824 116.733 58.3645 116.733C73.2783 116.733 86.9012 111.107 97.2294 101.87L107.306 111.947L104.753 114.499C103.175 116.078 102.305 118.177 102.305 120.409C102.305 122.642 103.175 124.74 104.753 126.319L113.159 134.724C113.16 134.725 113.16 134.726 113.161 134.727C113.162 134.728 113.163 134.729 113.164 134.73L141.852 163.418C144.824 166.39 148.729 167.876 152.633 167.876C156.537 167.876 160.441 166.39 163.414 163.418C169.359 157.473 169.359 147.8 163.414 141.855L156.474 134.915ZM6.55781 58.3682C6.55781 29.8017 29.798 6.56147 58.3645 6.56147C86.931 6.56147 110.171 29.8017 110.171 58.3682C110.171 86.9344 86.931 110.175 58.3645 110.175C29.798 110.175 6.55781 86.9344 6.55781 58.3682ZM108.863 120.409C108.863 119.928 109.05 119.476 109.39 119.136L119.132 109.394C119.473 109.054 119.925 108.867 120.405 108.867C120.886 108.867 121.338 109.054 121.678 109.394L127.768 115.484L115.48 127.772L109.39 121.682C109.05 121.342 108.863 120.89 108.863 120.409Z" fill="black"/>
<path d="M53.4183 134.784C53.2852 134.743 53.1517 134.714 53.018 134.69C51.9425 132.53 50.5119 130.503 48.7137 128.705C44.3784 124.37 38.6147 121.982 32.4838 121.982C26.3529 121.982 20.5892 124.37 16.2539 128.705C14.4508 130.508 12.9904 132.561 11.8926 134.782C11.6244 134.798 11.3539 134.844 11.0863 134.93C1.92341 137.874 0 141.996 0 144.935C0 149.733 4.94033 153.115 11.9539 155.208C13.0448 157.383 14.4839 159.394 16.2542 161.164C20.7286 165.639 26.6064 167.876 32.4841 167.876C38.3616 167.876 44.2393 165.639 48.7137 161.164C50.5027 159.375 51.9277 157.36 53.0012 155.212C60.0217 153.119 64.9676 149.735 64.9676 144.935C64.9679 141.93 62.9642 137.73 53.4183 134.784ZM20.8912 133.342C23.9878 130.245 28.1048 128.54 32.4838 128.54C36.8628 128.54 40.9798 130.245 44.0764 133.342C48.4937 137.759 49.8568 144.091 48.1688 149.691C43.6036 150.717 38.175 151.271 32.4838 151.271C26.7926 151.271 21.364 150.717 16.7988 149.691C15.1108 144.091 16.4739 137.759 20.8912 133.342ZM6.55781 144.939C6.59027 144.689 7.28901 143.693 9.65835 142.529C9.57605 143.323 9.53178 144.125 9.53178 144.935C9.53178 145.744 9.57605 146.547 9.65835 147.341C7.28999 146.179 6.59027 145.186 6.55781 144.939ZM21.5618 157.159C25.1145 157.609 28.8318 157.829 32.4838 157.829C36.1362 157.829 39.8531 157.609 43.4062 157.159C37.2044 162.706 27.7635 162.707 21.5618 157.159ZM55.2955 147.348C55.4637 145.743 55.4637 144.125 55.2955 142.521C57.6701 143.684 58.3773 144.679 58.4104 144.93C58.3777 145.184 57.675 146.182 55.2955 147.348Z" fill="black"/>
<path d="M147.551 40.6621C158.76 40.6621 167.88 31.5425 167.88 20.3329C167.88 9.12328 158.76 0.00366211 147.551 0.00366211C136.341 0.00366211 127.222 9.12328 127.222 20.3329C127.222 31.5425 136.341 40.6621 147.551 40.6621ZM147.551 6.56147C155.144 6.56147 161.322 12.7393 161.322 20.3329C161.322 27.9265 155.144 34.1043 147.551 34.1043C139.957 34.1043 133.779 27.9265 133.779 20.3329C133.779 12.7393 139.957 6.56147 147.551 6.56147Z" fill="black"/>
<path d="M160.028 81.6663L149.213 70.8522C147.933 69.5717 145.857 69.5717 144.576 70.8522L133.762 81.6663C132.482 82.9467 132.482 85.0229 133.762 86.3037L144.576 97.1178C145.191 97.7326 146.025 98.0782 146.895 98.0782C147.764 98.0782 148.598 97.7326 149.213 97.1178L160.027 86.3037C161.308 85.0233 161.308 82.9471 160.028 81.6663ZM146.895 90.1623L140.718 83.9852L146.895 77.808L153.072 83.9852L146.895 90.1623Z" fill="black"/>
<path d="M75.4476 60.4566C74.8377 59.8434 73.9917 59.4958 73.1294 59.4958C72.2637 59.4958 71.4178 59.8434 70.8079 60.4566C70.198 61.0664 69.8505 61.9091 69.8505 62.7748C69.8505 63.6371 70.198 64.4831 70.8079 65.0929C71.4211 65.7028 72.2637 66.0537 73.1294 66.0537C73.9917 66.0537 74.8377 65.7028 75.4476 65.0929C76.0574 64.4831 76.4083 63.6371 76.4083 62.7748C76.4083 61.9095 76.0574 61.0668 75.4476 60.4566Z" fill="black"/>
<path d="M91.8094 145.915C90.9471 145.915 90.1011 146.266 89.4912 146.876C88.8814 147.486 88.5305 148.332 88.5305 149.194C88.5305 150.056 88.8814 150.902 89.4912 151.512C90.1011 152.122 90.9471 152.473 91.8094 152.473C92.6718 152.473 93.5177 152.122 94.1276 151.512C94.7375 150.902 95.0883 150.056 95.0883 149.194C95.0883 148.332 94.7375 147.486 94.1276 146.876C93.5177 146.266 92.6718 145.915 91.8094 145.915Z" fill="black"/>
<path d="M139.704 58.0502C140.314 57.4403 140.665 56.5944 140.665 55.732C140.665 54.8697 140.314 54.0237 139.704 53.4106C139.095 52.8007 138.249 52.4531 137.386 52.4531C136.524 52.4531 135.678 52.8007 135.068 53.4106C134.458 54.0237 134.107 54.8697 134.107 55.732C134.107 56.5944 134.458 57.4403 135.068 58.0502C135.678 58.6601 136.524 59.0109 137.386 59.0109C138.249 59.0109 139.095 58.6598 139.704 58.0502Z" fill="black"/>
<path d="M162.657 120.543C163.519 120.543 164.365 120.195 164.975 119.582C165.585 118.972 165.936 118.126 165.936 117.264C165.936 116.401 165.585 115.555 164.975 114.946C164.365 114.336 163.519 113.985 162.657 113.985C161.791 113.985 160.948 114.335 160.335 114.946C159.725 115.555 159.378 116.401 159.378 117.264C159.378 118.129 159.725 118.972 160.335 119.582C160.948 120.195 161.794 120.543 162.657 120.543Z" fill="black"/>
</g>
<defs>
<clipPath id="clip0">
<rect width="167.88" height="167.88" fill="white"/>
</clipPath>
</defs>
</svg>
