<svg width="168" height="168" viewBox="0 0 168 168" fill="none" xmlns="http://www.w3.org/2000/svg">
<g clip-path="url(#clip0)">
<path d="M16.2468 135.388C16.2468 144.348 23.5345 151.634 32.4933 151.634C41.4534 151.634 48.7397 144.348 48.7397 135.388C48.7397 126.427 41.4534 119.141 32.4933 119.141C23.5345 119.141 16.2468 126.427 16.2468 135.388ZM32.4933 124.557C38.4667 124.557 43.3242 129.414 43.3242 135.388C43.3242 141.361 38.4667 146.219 32.4933 146.219C26.5212 146.219 21.6623 141.361 21.6623 135.388C21.6623 129.414 26.5212 124.557 32.4933 124.557Z" fill="black"/>
<path d="M157.048 135.388H129.971C126.985 135.388 124.556 132.959 124.556 129.973V124.389C133.849 123.351 141.775 117.059 144.851 108.175C148.69 107.531 151.633 104.208 151.633 100.188C151.633 98.1 150.819 96.2119 149.522 94.7721C150.821 93.331 151.633 91.4443 151.633 89.3567C151.633 86.9147 150.529 84.7478 148.817 83.2564C160.67 74.6506 167.879 60.7921 167.879 46.0331C167.879 33.3314 162.817 21.501 153.624 12.7273C144.437 3.96025 132.374 -0.529702 119.644 0.0507132C106.402 0.670793 94.4892 7.11486 86.4348 16.8325C81.9039 13.7916 76.142 12.7656 70.8786 14.1949C66.9413 5.60366 58.3607 0.00179415 48.7395 0.00179415C35.3014 0.00179415 24.37 10.9332 24.37 24.3713C24.37 25.351 24.4388 26.3254 24.5551 27.2959C16.7942 28.5135 10.8314 35.226 10.8314 43.3254C10.8314 52.2855 18.119 59.5717 27.0777 59.5717H77.8568C80.7589 69.0104 86.6728 77.3293 94.8766 83.259C93.1684 84.7478 92.0631 86.9174 92.0631 89.3567C92.0631 91.4443 92.8789 93.331 94.1759 94.7721C92.8762 96.2119 92.0631 98.1 92.0631 100.188C92.0631 104.208 95.0075 107.531 98.847 108.175C101.922 117.059 109.848 123.351 119.14 124.389V129.973C119.14 135.946 123.999 140.803 129.971 140.803H157.048C160.035 140.803 162.464 143.232 162.464 146.219C162.464 149.206 160.035 151.634 157.048 151.634H86.6477C83.661 151.634 81.2322 149.206 81.2322 146.219V97.4799C81.2322 91.5065 76.3747 86.649 70.4013 86.649H40.6164C34.6443 86.649 29.7855 91.5065 29.7855 97.4799V102.895H25.0099L23.0651 110.003C22.445 110.236 21.8249 110.496 21.2101 110.778L14.807 107.12L4.2247 117.701L7.88303 124.105C7.60142 124.72 7.34228 125.337 7.10826 125.96L0.000488281 127.903V142.869L7.10826 144.813C7.34228 145.434 7.60142 146.054 7.88303 146.668L4.2247 153.072L14.807 163.654L21.2101 159.996C21.8249 160.277 22.4423 160.538 23.0651 160.77L25.0099 167.881H39.9751L41.92 160.773C42.5387 160.54 43.1588 160.28 43.7736 159.998L50.178 163.656L60.759 153.074L57.102 146.671C57.3836 146.056 57.6428 145.439 57.8755 144.816L64.9859 142.871V127.906L57.8781 125.963C57.6454 125.342 57.3863 124.722 57.1046 124.108L60.763 117.703L50.1806 107.122L43.7762 110.781C43.1628 110.499 42.5453 110.238 41.9226 110.006L39.9778 102.895H35.2009V97.4799C35.2009 94.4932 37.6297 92.0644 40.6164 92.0644H70.4013C73.388 92.0644 75.8168 94.4932 75.8168 97.4799V146.219C75.8168 152.192 80.6756 157.05 86.6477 157.05H157.048C163.022 157.05 167.879 152.192 167.879 146.219C167.879 140.246 163.022 135.388 157.048 135.388V135.388ZM97.4786 89.3567C97.4786 87.8614 98.6923 86.649 100.186 86.649H143.51C145.005 86.649 146.218 87.8614 146.218 89.3567C146.218 90.8507 145.005 92.0644 143.51 92.0644H100.186C98.6923 92.0644 97.4786 90.8507 97.4786 89.3567ZM116.076 32.4945L121.848 23.8372L127.622 32.4945H116.076ZM113.725 37.9099H119.14V48.7408H124.556V37.9099H129.971V81.2335H124.556V54.1563H119.14V81.2335H113.725V37.9099ZM27.0777 54.1563C21.1057 54.1563 16.2468 49.2988 16.2468 43.3254C16.2468 37.352 21.1057 32.4945 27.0777 32.4945C33.0511 32.4945 37.9086 37.352 37.9086 43.3254H43.3241C43.3241 35.3833 37.5926 28.7661 30.0486 27.3633C29.8912 26.377 29.7855 25.3788 29.7855 24.3713C29.7855 13.9225 38.2907 5.41724 48.7395 5.41724C56.942 5.41724 64.1767 10.6595 66.7377 18.4574L67.6698 21.2868L70.3987 20.0929C74.5766 18.2657 79.4857 18.7602 83.2471 21.2114C78.9965 27.748 76.3152 35.3701 75.8829 43.5303C75.6898 47.1463 75.9424 50.7016 76.5598 54.1589H27.0777V54.1563ZM81.2917 43.8159C82.3838 23.2713 99.3414 6.42206 119.899 5.46352C131.125 4.90558 141.778 8.90767 149.884 16.6487C157.999 24.3872 162.464 34.8228 162.464 46.0331C162.464 60.4483 154.682 73.9116 142.153 81.1714L142.045 81.2335H135.387V34.3812L121.848 14.0732L108.309 34.3812V81.2335H101.651L101.543 81.1714C88.2382 73.462 80.4773 59.1486 81.2917 43.8159ZM100.186 97.4799H143.51C145.005 97.4799 146.218 98.6923 146.218 100.188C146.218 101.682 145.005 102.895 143.51 102.895H100.186C98.6923 102.895 97.4786 101.682 97.4786 100.188C97.4786 98.6923 98.6923 97.4799 100.186 97.4799ZM104.777 108.311H138.921C135.831 114.82 129.257 119.142 121.848 119.142C114.44 119.142 107.863 114.82 104.777 108.311ZM37.4684 114.248L38.887 114.685C40.1377 115.072 41.3858 115.592 42.5969 116.233L43.9098 116.932L49.271 113.872L54.0043 118.605L50.9435 123.966L51.6429 125.28C52.2842 126.49 52.8077 127.738 53.1911 128.989L53.6274 130.409L59.5704 132.04V138.737L53.6327 140.365L53.1964 141.783C52.8104 143.034 52.2894 144.283 51.6482 145.493L50.9501 146.806L54.0095 152.167L49.2763 156.9L43.9151 153.841L42.6022 154.539C41.3911 155.182 40.143 155.704 38.8923 156.089L37.4736 156.525L35.8408 162.465H29.1442L27.5167 156.528L26.098 156.091C24.8473 155.704 23.5992 155.184 22.3881 154.542L21.0753 153.844L15.714 156.903L10.9808 152.17L14.0402 146.809L13.3421 145.496C12.7009 144.286 12.1773 143.037 11.7926 141.786L11.3576 140.367L5.41594 138.734V132.038L11.3549 130.412L11.7899 128.992C12.1773 127.741 12.6969 126.493 13.3395 125.283L14.0376 123.969L10.9781 118.608L15.7114 113.874L21.0726 116.935L22.3855 116.236C23.5966 115.594 24.8447 115.072 26.0954 114.687L27.514 114.251L29.1469 108.311H35.8435L37.4684 114.248Z" fill="black"/>
<path d="M146.739 70.9221C160.461 57.1996 160.461 34.866 146.739 21.1409L142.91 24.9685C154.523 36.5821 154.523 55.4795 142.91 67.0932L146.739 70.9221Z" fill="black"/>
</g>
<defs>
<clipPath id="clip0">
<rect width="167.88" height="167.88" fill="white"/>
</clipPath>
</defs>
</svg>
