<svg width="60" height="60" viewBox="0 0 60 60" fill="none" xmlns="http://www.w3.org/2000/svg">
<path d="M29.9999 0C46.5694 0 60 13.4325 60 30.0001C60 46.5677 46.5694 60 29.9999 60C13.4304 60 0 46.5675 0 30.0001C0 13.4327 13.4306 0 29.9999 0Z" fill="#C4302B"/>
<path d="M29.2762 24.3768C30.2249 24.3768 30.9676 24.0748 31.5113 23.6456C32.0513 23.2143 32.3213 22.6276 32.3213 21.8737V17.3249C32.3213 16.6555 32.0458 16.1023 31.4963 15.6768C30.943 15.2511 30.2362 15.0394 29.3699 15.0394C28.4231 15.0394 27.6656 15.24 27.105 15.643C26.5425 16.048 26.2612 16.588 26.2612 17.2724V21.8361C26.2612 22.586 26.5349 23.1785 27.0823 23.623C27.6298 24.0674 28.3632 24.3768 29.2762 24.3768ZM28.2845 17.4938C28.2845 17.3212 28.3745 17.1826 28.5527 17.072C28.7327 16.9651 28.9652 16.9126 29.2503 16.9126C29.5615 16.9126 29.8127 16.9651 30.0022 17.072C30.1936 17.1826 30.2873 17.3214 30.2873 17.4938V21.8175C30.2873 22.0313 30.1936 22.2 30.0059 22.3219C29.8185 22.442 29.5672 22.5038 29.2503 22.5038C28.9409 22.5038 28.701 22.4457 28.5339 22.3238C28.369 22.2055 28.2845 22.0369 28.2845 21.8175V17.4938ZM35.5539 24.3712C35.8875 24.3712 36.2269 24.1799 36.5795 23.9887C36.9359 23.7937 37.2751 23.5087 37.6015 23.1375V24.1482H39.3734V15.0262H37.6015V21.9506C37.4365 22.1475 37.2528 22.3106 37.0559 22.4399C36.8553 22.5674 36.6904 22.6331 36.561 22.6331C36.3942 22.6331 36.2723 22.5862 36.201 22.4869C36.126 22.3913 36.0848 22.2356 36.0848 22.0218V15.0281H34.3167V22.65C34.3167 23.1937 34.4236 23.6007 34.6279 23.8707C34.8357 24.1424 35.1432 24.3712 35.5539 24.3712ZM40.7064 28.1419H19.2938C15.8888 28.1419 13.1306 30.7951 13.1306 34.0633V39.0695C13.1306 42.3396 15.8888 44.9927 19.2938 44.9927H40.7062C44.1092 44.9927 46.8693 42.3396 46.8693 39.0695V34.0633C46.8695 30.7949 44.1094 28.1419 40.7064 28.1419ZM22.4793 33.2232H20.5857V41.0645H18.7539V33.2232H16.8601V31.8863H22.4795C22.4793 31.8863 22.4793 33.2232 22.4793 33.2232ZM28.1307 41.1732H26.1563V40.3595C25.7889 40.6595 25.412 40.89 25.0145 41.0439C24.6226 41.2051 24.2401 41.282 23.8689 41.282C23.4115 41.282 23.0702 41.1714 22.8377 40.9483C22.6089 40.729 22.4909 40.399 22.4909 39.9583V33.7671H24.4652V39.4464C24.4652 39.6227 24.5064 39.7465 24.5853 39.8252C24.6716 39.9057 24.8083 39.9414 24.9923 39.9414C25.1348 39.9414 25.3222 39.8907 25.5434 39.7857C25.7665 39.6825 25.971 39.5513 26.1565 39.3882V33.765H28.1309C28.1307 33.765 28.1307 41.1732 28.1307 41.1732ZM35.6043 39.7632C35.6043 40.2489 35.4505 40.6181 35.145 40.8789C34.8431 41.1394 34.397 41.2669 33.8213 41.2669C33.437 41.2669 33.0957 41.2181 32.7994 41.1188C32.5013 41.0196 32.22 40.8657 31.965 40.6538V41.1788H29.9944V31.8863H31.965V34.8807C32.2313 34.6746 32.5106 34.5133 32.8012 34.4045C33.0992 34.2939 33.3993 34.2414 33.7013 34.2414C34.3181 34.2414 34.7887 34.3858 35.1131 34.6764C35.4412 34.9689 35.6043 35.3983 35.6043 35.9589C35.6043 35.9587 35.6043 39.7632 35.6043 39.7632ZM43.1157 37.6725H39.4782V39.0112C39.4782 39.3844 39.5382 39.6431 39.6638 39.7894C39.7913 39.9337 40.0069 40.005 40.3089 40.005C40.6277 40.005 40.8452 39.9432 40.9727 39.8213C41.0965 39.6975 41.164 39.4293 41.164 39.0094V38.6869H43.1196V39.0506C43.1196 39.778 42.8852 40.3257 42.4014 40.695C41.9252 41.0624 41.2126 41.2461 40.2658 41.2461C39.4127 41.2461 38.7415 41.0511 38.2521 40.6612C37.7646 40.275 37.5171 39.735 37.5171 39.0524V35.8611C37.5171 35.248 37.7871 34.7417 38.3271 34.3537C38.8653 33.9675 39.5553 33.7743 40.4083 33.7743C41.2783 33.7743 41.9477 33.9543 42.4165 34.3125C42.8834 34.6706 43.1159 35.188 43.1159 35.8594C43.1157 35.8594 43.1157 37.6725 43.1157 37.6725ZM21.4182 24.3976H23.6552V18.9468L26.2595 11.2594H23.9851L22.6013 16.5132H22.4587L21.0075 11.2594H18.7519L21.418 19.1926C21.4182 19.1926 21.4182 24.3976 21.4182 24.3976ZM32.7806 35.3287L32.3662 35.3962L31.9632 35.6045V39.8757C32.1207 39.9863 32.2762 40.0707 32.4264 40.1175L32.897 40.1906C33.1369 40.1906 33.3114 40.1436 33.4238 40.0443C33.5344 39.9488 33.5925 39.7912 33.5925 39.5756V36.0337C33.5925 35.7993 33.5268 35.6249 33.3882 35.5068C33.2457 35.3888 33.0451 35.3287 32.7806 35.3287Z" fill="white"/>
<path d="M40.4139 35.0175C40.1101 35.0175 39.8945 35.0813 39.7615 35.2125C39.6303 35.3381 39.5664 35.5519 39.5664 35.8499V36.5662H41.2483V35.8499C41.2483 35.5519 41.1789 35.34 41.0477 35.2125C40.9181 35.0813 40.7027 35.0175 40.4139 35.0175Z" fill="white"/>
</svg>
