<?xml version="1.0" encoding="utf-8"?>
<!-- Generator: Adobe Illustrator 23.0.3, SVG Export Plug-In . SVG Version: 6.00 Build 0)  -->
<svg version="1.1" id="Layer_1" xmlns="http://www.w3.org/2000/svg" xmlns:xlink="http://www.w3.org/1999/xlink" x="0px" y="0px"
	 viewBox="0 0 2000 2000" style="enable-background:new 0 0 2000 2000;" xml:space="preserve">
<style type="text/css">
	.st0{fill:#4ECFB2;}
</style>
<g>
	<path class="st0" d="M717.9,985.9c0.3-3.5,0.5-7.1,0.5-10.8c0-15.1-2.6-28.5-7.4-40.2c-3.6-8.8-8.4-16.5-14.1-23.2
		c-8.5-10-19-17.5-30.2-22.8c-8.2-3.9-16.8-6.6-25.5-8.3c-1.9-9.5-5-18.2-9.1-26.2c-8.2-16-20.3-28.6-34.2-37.3
		c-14-8.7-29.8-13.4-45.8-13.4c-10.6,0-21.2,2.1-31.2,6.6c-6.1,2.7-12,6.4-17.4,10.9c-5.4-4.5-11.3-8.1-17.4-10.9
		c-10-4.5-20.6-6.6-31.2-6.6c-21.3,0-42.5,8.4-59.1,23.4c-8.3,7.5-15.5,16.7-21,27.3c-4.1,8-7.2,16.8-9.1,26.2
		c-7.4,1.4-14.7,3.6-21.7,6.6c-7.6,3.2-14.9,7.4-21.6,12.6c-10,7.8-18.6,18.1-24.6,30.7c-6,12.6-9.3,27.6-9.3,44.5
		c0,2.9,0.1,5.8,0.3,8.6c-9.3-4.1-19.5-5.6-38.5,6.9c50.4-15.1,25.3,130.5,235.2,104.1c0,54.1-7.3,66.4-14.4,94.6
		c7.7,4.5,20.7,6.8,33.8,6.8v0c0.1,0,0.2,0,0.3,0c0.1,0,0.2,0,0.3,0v0c13.1-0.1,26-2.4,33.8-6.8c-7.1-28.2-14.4-40.5-14.4-94.6
		c209.9,26.4,184.8-119.2,235.2-104.1C750.7,985.1,738.8,978.5,717.9,985.9z M576.3,1039.2c37.6-27.2,48.5-71.7,50.9-119
		c0,0-38.6,71.4-122.3,92.8c-83.7-21.4-122.3-92.8-122.3-92.8c2.4,47.3,13.3,91.8,50.9,119c-45.5,12.2-85.8-14.6-116.1-36.7
		c-2.4-7.9-3.8-16.9-3.8-27.4c0-12.2,2.1-22.2,5.5-30.6c2.6-6.3,5.9-11.6,9.9-16.3c6-7,13.4-12.3,21.8-16.3c8.4-4,17.7-6.4,27.2-7.5
		l10.1-1.1l1.1-10.1c1.1-10.2,3.9-19.2,8-27.1c6.1-11.8,14.9-21.1,25.1-27.4c10.1-6.3,21.5-9.6,32.5-9.6c7.3,0,14.3,1.4,20.9,4.4
		c6.6,2.9,12.7,7.4,18.1,13.7l9.6,11.2l9.6-11.3c5.4-6.3,11.5-10.7,18.1-13.7c6.6-2.9,13.6-4.4,20.9-4.4c14.6,0,29.9,5.9,42.1,16.9
		c6.1,5.5,11.4,12.2,15.4,20.1c4,7.9,6.9,16.9,8,27.1l1.1,10.1l10.1,1.1c8.4,0.9,16.8,3,24.4,6.2c5.7,2.4,11.1,5.5,15.8,9.2
		c7.2,5.6,13.1,12.6,17.3,21.6c4.2,9,6.9,20,6.9,33.7c0,11.8-1.8,21.8-4.9,30.5C658.4,1027,619.8,1050.8,576.3,1039.2z"/>
	<g>
		<g>
			<path class="st0" d="M1000.2,1066.1c-2.1,1.3-5.4,3.2-10,5.6c-4.5,2.4-10.2,4.6-16.9,6.8c-6.8,2.1-14.6,4-23.5,5.6
				c-8.9,1.6-18.7,2.4-29.3,2.4c-14.9,0-28.7-2.3-41.6-6.8c-12.9-4.5-24.2-11.2-33.8-20.1c-9.7-8.9-17.3-19.8-22.9-32.7
				c-5.6-12.9-8.4-27.7-8.4-44.4c0-15.9,2.7-30.5,8.2-43.6c5.4-13.1,13-24.4,22.7-33.8c9.7-9.4,21.1-16.7,34.2-21.9
				c13.1-5.2,27.5-7.8,43.2-7.8c13.8,0,26,1.8,36.6,5.4c10.6,3.6,19.6,8.4,26.9,14.3c7.3,6,12.8,12.9,16.5,20.9
				c3.7,8,5.6,16.5,5.6,25.5c0,9.3-1.7,17.7-5.2,25.3c-3.5,7.6-9.6,14.1-18.3,19.5c-8.8,5.4-20.6,9.7-35.4,12.7
				c-14.9,3.1-33.7,4.6-56.5,4.6c-5.3,0-10.3-0.1-14.9-0.2c-4.6-0.1-9.6-0.3-14.9-0.6c2.1,13.5,8.7,24.5,19.7,32.9
				c11,8.4,26.7,12.5,47.2,12.5c6.9,0,13.3-0.5,19.1-1.6c5.8-1.1,11.1-2.4,15.7-4c4.6-1.6,8.6-3.2,11.9-4.8c3.3-1.6,5.8-2.8,7.4-3.6
				L1000.2,1066.1z M860.4,971.8c6.1,0.3,11.9,0.4,17.5,0.4c5.6,0,11.1,0,16.7,0c14.6,0,26.4-0.9,35.4-2.8c9-1.9,16.1-4.2,21.1-7.2
				c5-2.9,8.4-6.2,10-10c1.6-3.7,2.4-7.6,2.4-11.5c0-10.1-4.1-17.7-12.1-22.7c-8.1-5-18.1-7.6-30.1-7.6c-9.8,0-18.5,1.7-25.9,5.2
				c-7.4,3.5-13.7,8-18.7,13.7c-5,5.7-9,12.3-11.7,19.7C862.2,956.5,860.6,964.1,860.4,971.8z"/>
			<path class="st0" d="M1255,1066.5c-3.2,2.1-7.1,4.3-11.7,6.6c-4.6,2.3-10,4.4-15.9,6.4c-6,2-12.7,3.6-20.3,5
				c-7.6,1.3-16.1,2-25.7,2c-14.9,0-28.8-2.3-41.8-6.8c-13-4.5-24.4-11.2-34.2-20.1c-9.8-8.9-17.6-19.8-23.3-32.9
				c-5.7-13-8.6-28-8.6-45c0-17,2.8-32.1,8.4-45.4c5.6-13.3,13.3-24.4,23.1-33.5c9.8-9,21.4-15.9,34.8-20.5c13.4-4.6,27.8-7,43.2-7
				c13,0,24.1,1.1,33.3,3.2c9.2,2.1,16.6,4.8,22.3,8c5.7,3.2,9.8,6.8,12.3,10.8c2.5,4,3.8,8,3.8,11.9c0,5.3-1.8,10.2-5.4,14.7
				c-3.6,4.5-7,8-10.2,10.4c-4.8-4.5-11.7-8.8-20.7-12.9c-9-4.1-20.2-6.2-33.5-6.2c-9,0-17.5,1.3-25.3,4
				c-7.8,2.7-14.6,6.7-20.3,12.1c-5.7,5.4-10.2,12.2-13.5,20.3c-3.3,8.1-5,17.7-5,28.9c0,11.7,1.7,21.6,5.2,29.9
				c3.4,8.2,8.2,15,14.3,20.3c6.1,5.3,13.1,9.2,21.1,11.7c8,2.5,16.6,3.8,25.9,3.8c13.3,0,24-1.8,32.1-5.4
				c8.1-3.6,13.6-6.3,16.5-8.2L1255,1066.5z"/>
			<path class="st0" d="M1307.6,1041.4c8.8-7.4,19-16.5,30.9-27.3c11.8-10.8,23.8-21.7,36-32.9c12.2-11.1,23.9-22,35-32.5
				c11.2-10.5,20.3-19.3,27.5-26.5h-105.5c-8.8,0-14.9-1.7-18.5-5.2c-3.6-3.4-5.4-8.5-5.4-15.1c0-4.5,0.7-8.8,2-12.7
				c1.3-4,2.4-6.8,3.2-8.4h162.1c7.7,0,13.8,1.8,18.3,5.4c4.5,3.6,6.8,9.1,6.8,16.5c0,5-1.2,9.8-3.6,14.1
				c-2.4,4.4-6.9,9.9-13.5,16.5c-4.3,4.2-9.5,9.4-15.7,15.3c-6.2,6-12.9,12.3-20.1,18.9c-7.2,6.6-14.6,13.5-22.3,20.5
				c-7.7,7-15.1,13.8-22.3,20.3c-7.2,6.5-13.9,12.5-20.3,18.1c-6.4,5.6-11.8,10.4-16.3,14.3h134.6v39.8h-192.7V1041.4z"/>
			<path class="st0" d="M1742.4,1066.1c-2.1,1.3-5.4,3.2-10,5.6c-4.5,2.4-10.2,4.6-16.9,6.8c-6.8,2.1-14.6,4-23.5,5.6
				c-8.9,1.6-18.7,2.4-29.3,2.4c-14.9,0-28.7-2.3-41.6-6.8c-12.9-4.5-24.2-11.2-33.8-20.1c-9.7-8.9-17.3-19.8-22.9-32.7
				c-5.6-12.9-8.4-27.7-8.4-44.4c0-15.9,2.7-30.5,8.2-43.6c5.4-13.1,13-24.4,22.7-33.8c9.7-9.4,21.1-16.7,34.2-21.9
				c13.1-5.2,27.5-7.8,43.2-7.8c13.8,0,26,1.8,36.6,5.4c10.6,3.6,19.6,8.4,26.9,14.3c7.3,6,12.8,12.9,16.5,20.9
				c3.7,8,5.6,16.5,5.6,25.5c0,9.3-1.7,17.7-5.2,25.3c-3.5,7.6-9.6,14.1-18.3,19.5c-8.8,5.4-20.6,9.7-35.4,12.7
				c-14.9,3.1-33.7,4.6-56.5,4.6c-5.3,0-10.3-0.1-14.9-0.2c-4.6-0.1-9.6-0.3-14.9-0.6c2.1,13.5,8.7,24.5,19.7,32.9
				c11,8.4,26.7,12.5,47.2,12.5c6.9,0,13.3-0.5,19.1-1.6c5.8-1.1,11.1-2.4,15.7-4c4.6-1.6,8.6-3.2,11.9-4.8c3.3-1.6,5.8-2.8,7.4-3.6
				L1742.4,1066.1z M1602.7,971.8c6.1,0.3,11.9,0.4,17.5,0.4c5.6,0,11.2,0,16.7,0c14.6,0,26.4-0.9,35.4-2.8c9-1.9,16.1-4.2,21.1-7.2
				c5-2.9,8.4-6.2,10-10c1.6-3.7,2.4-7.6,2.4-11.5c0-10.1-4.1-17.7-12.1-22.7c-8.1-5-18.1-7.6-30.1-7.6c-9.8,0-18.5,1.7-25.9,5.2
				c-7.4,3.5-13.7,8-18.7,13.7c-5,5.7-9,12.3-11.7,19.7C1604.4,956.5,1602.9,964.1,1602.7,971.8z"/>
		</g>
	</g>
</g>
</svg>
