<?xml version="1.0" encoding="UTF-8" standalone="no"?>
<!DOCTYPE svg PUBLIC "-//W3C//DTD SVG 1.1//EN" "http://www.w3.org/Graphics/SVG/1.1/DTD/svg11.dtd">
<svg version="1.1" xmlns="http://www.w3.org/2000/svg" xmlns:xlink="http://www.w3.org/1999/xlink" preserveAspectRatio="xMidYMid meet" viewBox="0 0 740 300" width="740" height="300"><defs><path d="M159.43 72.35L159.99 72.37L160.54 72.4L161.1 72.44L161.65 72.48L162.2 72.53L162.75 72.59L163.31 72.66L163.86 72.74L164.4 72.82L164.95 72.92L165.5 73.01L166.04 73.12L166.59 73.24L167.13 73.36L167.67 73.49L168.21 73.63L168.75 73.78L169.28 73.93L169.82 74.09L170.35 74.26L170.88 74.43L171.41 74.62L171.94 74.81L172.46 75.01L172.99 75.21L173.51 75.43L174.02 75.65L174.54 75.88L175.05 76.11L175.56 76.35L176.07 76.6L176.58 76.86L177.08 77.12L177.58 77.39L178.08 77.67L178.57 77.96L179.06 78.25L179.55 78.55L180.03 78.85L180.51 79.17L180.99 79.49L181.46 79.81L181.93 80.14L182.39 80.48L182.85 80.83L183.31 81.18L183.76 81.54L184.21 81.91L184.66 82.28L185.1 82.66L185.54 83.04L185.97 83.44L186.4 83.83L186.82 84.24L187.24 84.65L187.66 85.07L188.07 85.49L188.47 85.92L188.87 86.36L189.27 86.8L189.66 87.25L190.04 87.71L190.42 88.17L190.79 88.64L191.16 89.11L191.52 89.59L191.88 90.08L192.23 90.57L192.58 91.07L192.92 91.58L193.25 92.09L193.58 92.61L193.9 93.13L194.21 93.66L194.52 94.2L194.82 94.74L195.12 95.29L195.41 95.84L195.55 96.12L195.69 96.4L195.83 96.68L195.96 96.96L196.1 97.24L196.23 97.53L196.36 97.82L196.49 98.1L196.62 98.39L196.74 98.68L196.87 98.97L196.99 99.26L197.11 99.56L197.23 99.85L197.34 100.15L197.46 100.45L197.57 100.75L197.68 101.05L197.79 101.35L197.9 101.65L198 101.95L198.11 102.26L198.21 102.57L198.31 102.87L198.4 103.18L198.5 103.49L198.59 103.81L198.68 104.12L198.77 104.43L198.86 104.75L198.95 105.07L199.03 105.39L199.11 105.71L199.19 106.03L199.27 106.35L199.34 106.67L199.42 107L199.49 107.33L199.56 107.65L199.63 107.98L199.93 108.04L200.23 108.11L200.53 108.17L200.83 108.23L201.14 108.3L201.44 108.37L201.74 108.44L202.04 108.51L202.34 108.59L202.64 108.66L202.94 108.74L203.24 108.82L203.54 108.9L203.84 108.99L204.14 109.07L204.43 109.16L204.73 109.25L205.03 109.34L205.33 109.43L205.62 109.53L205.92 109.62L206.21 109.72L206.51 109.82L206.8 109.92L207.1 110.03L207.39 110.13L207.69 110.24L207.98 110.35L208.27 110.46L208.56 110.58L208.85 110.69L209.14 110.81L209.43 110.93L209.72 111.06L210.01 111.18L210.3 111.31L210.59 111.43L210.87 111.56L211.16 111.7L211.45 111.83L211.84 112.02L212.22 112.21L212.61 112.4L212.99 112.6L213.38 112.8L213.76 113.01L214.14 113.22L214.52 113.43L214.89 113.65L215.27 113.87L215.64 114.09L216.02 114.32L216.38 114.55L216.75 114.79L217.12 115.03L217.48 115.28L217.84 115.53L218.2 115.78L218.56 116.04L218.92 116.3L219.27 116.56L219.62 116.83L219.97 117.11L220.31 117.39L220.65 117.67L220.99 117.95L221.33 118.24L221.67 118.54L222 118.84L222.33 119.14L222.65 119.45L222.98 119.76L223.3 120.07L223.61 120.39L223.93 120.72L224.24 121.04L224.54 121.38L224.85 121.71L225.15 122.06L225.45 122.4L225.64 122.63L225.84 122.87L226.03 123.11L226.23 123.35L226.42 123.59L226.61 123.83L226.79 124.07L226.98 124.32L227.16 124.57L227.35 124.82L227.53 125.07L227.71 125.32L227.89 125.58L228.06 125.83L228.24 126.09L228.41 126.35L228.58 126.62L228.75 126.88L228.91 127.15L229.08 127.41L229.24 127.68L229.4 127.95L229.56 128.23L229.72 128.5L229.88 128.78L230.03 129.06L230.18 129.34L230.33 129.62L230.48 129.9L230.63 130.19L230.77 130.48L230.92 130.77L231.06 131.06L231.19 131.35L231.33 131.65L231.47 131.95L231.6 132.25L231.73 132.55L231.86 132.85L231.98 133.16L232.15 133.56L232.31 133.98L232.47 134.39L232.62 134.81L232.77 135.23L232.91 135.65L233.06 136.08L233.19 136.5L233.33 136.94L233.46 137.37L233.58 137.81L233.7 138.25L233.82 138.69L233.94 139.14L234.05 139.59L234.15 140.04L234.25 140.5L234.35 140.96L234.44 141.42L234.53 141.88L234.62 142.35L234.7 142.82L234.77 143.29L234.85 143.77L234.91 144.25L234.98 144.73L235.04 145.22L235.09 145.7L235.14 146.2L235.19 146.69L235.23 147.19L235.27 147.69L235.3 148.19L235.33 148.69L235.36 149.2L235.38 149.71L235.39 150.23L235.4 150.75L235.41 151.27L235.41 151.79L235.41 151.92L235.41 152.05L235.41 152.18L235.41 152.3L235.41 152.43L235.41 152.56L235.4 152.69L235.4 152.81L235.4 152.94L235.4 153.07L235.39 153.2L235.39 153.32L235.39 153.45L235.38 153.58L235.38 153.7L235.37 153.83L235.37 153.95L235.36 154.08L235.36 154.2L235.35 154.33L235.34 154.45L235.34 154.58L235.33 154.7L235.32 154.83L235.32 154.95L235.31 155.08L235.3 155.2L235.29 155.32L235.28 155.45L235.28 155.57L235.27 155.7L235.26 155.82L235.25 155.94L235.24 156.06L235.23 156.19L235.22 156.31L235.21 156.43L235.2 156.55L235.19 156.68L235.18 156.8L235.9 156.55L236.6 156.33L237.29 156.13L237.97 155.96L238.62 155.8L239.27 155.67L239.9 155.56L240.52 155.46L241.12 155.39L241.71 155.33L242.29 155.29L242.86 155.27L243.41 155.27L243.95 155.28L244.48 155.3L245 155.35L245.5 155.4L246 155.47L246.49 155.55L246.96 155.64L247.43 155.74L247.88 155.85L248.33 155.98L248.77 156.11L249.19 156.25L249.61 156.4L250.02 156.55L250.43 156.72L250.82 156.89L251.21 157.06L251.59 157.24L251.97 157.42L252.33 157.6L252.69 157.79L253.05 157.98L253.4 158.17L253.74 158.36L254.08 158.55L254.41 158.74L254.74 158.93L253.05 158.54L251.48 158.42L250.02 158.55L248.64 158.91L247.34 159.5L246.11 160.29L244.92 161.27L243.77 162.44L242.65 163.76L241.53 165.24L240.42 166.85L239.28 168.58L238.11 170.42L236.9 172.34L235.63 174.35L234.29 176.42L232.87 178.53L231.35 180.68L229.71 182.85L227.96 185.02L226.06 187.19L224.01 189.32L221.79 191.43L219.4 193.47L216.81 195.45L214.02 197.35L211 199.15L207.76 200.84L204.27 202.4L200.51 203.83L196.49 205.1L192.17 206.2L187.56 207.11L182.63 207.83L177.38 208.34L171.78 208.62L165.83 208.66L159.51 208.44L152.81 207.96L145.71 207.19L145.72 209.03L145.74 210.81L145.77 212.51L145.81 214.16L145.86 215.74L145.93 217.26L146 218.72L146.09 220.12L146.19 221.48L146.29 222.78L146.41 224.04L146.53 225.25L146.67 226.42L146.81 227.55L146.96 228.64L147.11 229.69L147.28 230.72L147.45 231.71L147.63 232.68L147.82 233.62L148.01 234.54L148.2 235.43L148.41 236.31L148.62 237.18L148.83 238.03L149.05 238.88L149.27 239.71L149.49 240.54L149.72 241.37L149.96 242.2L150.19 243.03L150.43 243.87L150.67 244.71L150.91 245.57L151.16 246.43L151.4 247.31L151.65 248.21L151.89 249.13L152.14 250.07L152.39 251.04L152.11 251.19L151.83 251.34L151.54 251.48L151.23 251.62L150.93 251.76L150.61 251.89L150.28 252.02L149.95 252.15L149.61 252.27L149.27 252.39L148.92 252.5L148.56 252.61L148.19 252.72L147.82 252.82L147.44 252.92L147.06 253.02L146.67 253.11L146.28 253.2L145.88 253.28L145.47 253.36L145.07 253.44L144.65 253.52L144.24 253.59L143.82 253.65L143.39 253.71L142.96 253.77L142.53 253.83L142.1 253.88L141.66 253.92L141.22 253.97L140.78 254.01L140.33 254.04L139.89 254.08L139.44 254.1L138.99 254.13L138.54 254.15L138.08 254.17L137.63 254.18L137.17 254.19L136.72 254.19L136.44 254.19L135.99 254.19L135.53 254.19L135.08 254.18L134.62 254.16L134.17 254.14L133.72 254.12L133.27 254.1L132.82 254.07L132.38 254.03L131.93 253.99L131.49 253.95L131.05 253.91L130.62 253.86L130.18 253.8L129.76 253.75L129.33 253.68L128.91 253.62L128.49 253.55L128.08 253.48L127.67 253.4L127.26 253.32L126.86 253.23L126.47 253.14L126.08 253.05L125.7 252.96L125.32 252.85L124.95 252.75L124.58 252.64L124.22 252.53L123.87 252.41L123.53 252.29L123.19 252.17L122.86 252.04L122.54 251.91L122.22 251.78L121.91 251.64L121.62 251.49L121.33 251.35L121.04 251.2L120.77 251.04L121.02 250.07L121.27 249.13L121.51 248.21L121.76 247.31L122 246.43L122.25 245.57L122.49 244.71L122.73 243.87L122.97 243.03L123.2 242.2L123.44 241.37L123.67 240.54L123.89 239.71L124.11 238.88L124.33 238.03L124.54 237.18L124.75 236.31L124.96 235.43L125.15 234.54L125.34 233.62L125.53 232.68L125.71 231.71L125.88 230.72L126.05 229.69L126.2 228.64L126.35 227.55L126.49 226.42L126.63 225.25L126.75 224.04L126.87 222.78L126.97 221.48L127.07 220.12L127.16 218.72L127.23 217.26L127.3 215.74L127.35 214.16L127.39 212.51L127.42 210.81L127.44 209.03L127.45 207.19L120.35 207.96L113.65 208.44L107.33 208.66L101.38 208.62L95.78 208.34L90.53 207.83L85.6 207.11L80.99 206.2L76.67 205.1L72.65 203.83L68.89 202.4L65.4 200.84L62.16 199.15L59.14 197.35L56.35 195.45L53.76 193.47L51.37 191.43L49.15 189.32L47.1 187.19L45.2 185.02L43.45 182.85L41.81 180.68L40.29 178.53L38.87 176.42L37.53 174.35L36.26 172.34L35.05 170.42L33.88 168.58L32.74 166.85L31.63 165.24L30.51 163.76L29.39 162.44L28.24 161.27L27.05 160.29L25.82 159.5L24.52 158.91L23.14 158.55L21.68 158.42L20.11 158.54L18.42 158.93L19.07 158.51L19.71 158.11L20.33 157.73L20.94 157.38L21.54 157.05L22.12 156.74L22.69 156.46L23.24 156.19L23.78 155.94L24.31 155.72L24.83 155.51L25.34 155.32L25.84 155.16L26.32 155L26.8 154.87L27.26 154.75L27.72 154.65L28.16 154.57L28.6 154.5L29.03 154.45L29.45 154.41L29.86 154.38L30.26 154.37L30.66 154.37L31.04 154.38L31.43 154.41L31.8 154.44L32.17 154.49L32.54 154.55L32.9 154.61L33.25 154.69L33.6 154.78L33.94 154.87L34.28 154.98L34.62 155.09L34.95 155.2L35.29 155.33L35.61 155.46L35.94 155.59L36.26 155.73L36.26 155.63L36.25 155.54L36.24 155.44L36.24 155.34L36.23 155.24L36.23 155.14L36.22 155.05L36.21 154.95L36.21 154.85L36.2 154.75L36.2 154.65L36.19 154.55L36.19 154.45L36.18 154.35L36.18 154.25L36.17 154.15L36.17 154.05L36.17 153.96L36.16 153.86L36.16 153.76L36.16 153.66L36.15 153.56L36.15 153.46L36.15 153.36L36.14 153.25L36.14 153.15L36.14 153.05L36.14 152.95L36.14 152.85L36.13 152.75L36.13 152.65L36.13 152.55L36.13 152.45L36.13 152.35L36.13 152.25L36.13 152.15L36.13 152.05L36.13 151.95L36.12 151.85L36.12 151.74L36.13 151.16L36.14 150.58L36.15 150L36.17 149.42L36.2 148.85L36.23 148.28L36.26 147.71L36.31 147.15L36.35 146.59L36.41 146.04L36.47 145.49L36.53 144.94L36.6 144.39L36.68 143.85L36.76 143.31L36.84 142.78L36.93 142.25L37.03 141.72L37.13 141.2L37.24 140.68L37.35 140.17L37.47 139.66L37.59 139.15L37.72 138.64L37.85 138.14L37.99 137.65L38.13 137.16L38.28 136.67L38.43 136.18L38.59 135.7L38.75 135.22L38.92 134.75L39.09 134.28L39.27 133.82L39.45 133.36L39.64 132.9L39.83 132.45L40.03 132L40.23 131.56L40.44 131.12L40.65 130.68L40.86 130.25L41.08 129.82L41.31 129.4L41.53 128.98L41.77 128.56L42 128.15L42.25 127.74L42.49 127.34L42.74 126.94L42.99 126.54L43.25 126.15L43.51 125.76L43.78 125.38L44.04 125L44.32 124.62L44.59 124.25L44.87 123.89L45.16 123.52L45.44 123.17L45.73 122.81L46.03 122.46L46.32 122.12L46.62 121.77L46.93 121.44L47.23 121.1L47.54 120.77L47.86 120.45L48.17 120.13L48.49 119.81L48.82 119.5L49.14 119.19L49.47 118.89L49.8 118.59L50.13 118.29L50.47 118L50.81 117.72L51.15 117.44L51.49 117.16L51.84 116.88L52.07 116.7L52.31 116.53L52.54 116.35L52.78 116.18L53.02 116L53.26 115.83L53.5 115.66L53.74 115.49L53.98 115.33L54.22 115.16L54.46 115L54.71 114.84L54.95 114.68L55.2 114.52L55.44 114.37L55.69 114.21L55.94 114.06L56.19 113.91L56.44 113.76L56.69 113.62L56.94 113.47L57.19 113.33L57.45 113.19L57.7 113.05L57.96 112.91L58.21 112.77L58.47 112.64L58.72 112.5L58.98 112.37L59.24 112.24L59.5 112.12L59.76 111.99L60.02 111.86L60.28 111.74L60.54 111.62L60.8 111.5L61.06 111.39L61.33 111.27L61.59 111.16L61.85 111.04L62.1 110.94L62.34 110.84L62.59 110.74L62.83 110.64L63.08 110.54L63.32 110.44L63.57 110.35L63.82 110.25L64.06 110.16L64.31 110.07L64.56 109.98L64.81 109.89L65.06 109.81L65.31 109.72L65.56 109.64L65.81 109.55L66.06 109.47L66.31 109.39L66.56 109.31L66.81 109.24L67.07 109.16L67.32 109.09L67.57 109.01L67.82 108.94L68.08 108.87L68.33 108.8L68.59 108.73L68.84 108.67L69.09 108.6L69.35 108.54L69.6 108.48L69.86 108.42L70.12 108.36L70.37 108.3L70.63 108.24L70.88 108.19L71.14 108.14L71.4 108.08L71.66 108.03L71.91 107.98L71.98 107.66L72.05 107.33L72.12 107.01L72.19 106.69L72.27 106.36L72.35 106.04L72.43 105.72L72.51 105.4L72.59 105.09L72.68 104.77L72.76 104.45L72.85 104.14L72.94 103.83L73.04 103.51L73.13 103.2L73.23 102.89L73.33 102.59L73.43 102.28L73.53 101.97L73.64 101.67L73.75 101.36L73.85 101.06L73.97 100.76L74.08 100.46L74.19 100.16L74.31 99.86L74.43 99.57L74.55 99.27L74.67 98.98L74.79 98.69L74.92 98.4L75.05 98.11L75.18 97.82L75.31 97.53L75.44 97.25L75.57 96.96L75.71 96.68L75.85 96.4L75.99 96.12L76.13 95.84L76.32 95.47L76.52 95.11L76.72 94.74L76.92 94.38L77.12 94.03L77.33 93.67L77.54 93.32L77.75 92.97L77.97 92.62L78.19 92.28L78.41 91.93L78.63 91.59L78.86 91.26L79.09 90.92L79.32 90.59L79.55 90.26L79.79 89.94L80.03 89.61L80.27 89.29L80.51 88.97L80.76 88.66L81.01 88.34L81.26 88.03L81.51 87.72L81.77 87.42L82.03 87.12L82.29 86.82L82.55 86.52L82.81 86.23L83.08 85.94L83.35 85.65L83.62 85.36L83.89 85.08L84.17 84.8L84.45 84.52L84.73 84.25L85.01 83.98L85.29 83.71L85.58 83.45L85.87 83.18L86.45 82.67L87.04 82.16L87.63 81.67L88.24 81.19L88.85 80.72L89.47 80.26L90.09 79.82L90.72 79.38L91.36 78.96L92 78.55L92.65 78.16L93.31 77.77L93.97 77.4L94.64 77.04L95.31 76.7L95.99 76.36L96.67 76.04L97.36 75.73L98.05 75.43L98.75 75.15L99.45 74.88L100.15 74.63L100.86 74.38L101.57 74.15L102.28 73.93L103 73.73L103.72 73.54L104.44 73.36L105.17 73.2L105.9 73.05L106.63 72.92L107.36 72.8L108.09 72.69L108.83 72.6L109.57 72.52L110.3 72.45L111.04 72.4L111.78 72.36L112.52 72.34L113.26 72.34L113.63 72.34L114 72.34L114.37 72.35L114.74 72.36L115.1 72.38L115.47 72.4L115.84 72.43L116.21 72.45L116.58 72.48L116.94 72.52L117.31 72.56L117.68 72.6L118.04 72.65L118.41 72.7L118.78 72.75L119.14 72.81L119.51 72.87L119.87 72.94L120.23 73.01L120.6 73.08L120.96 73.16L121.32 73.24L121.69 73.33L122.05 73.42L122.41 73.51L122.77 73.61L123.13 73.71L123.49 73.81L123.84 73.92L124.2 74.04L124.56 74.15L124.91 74.28L125.27 74.4L125.62 74.53L125.98 74.66L126.33 74.8L126.68 74.94L127.03 75.09L127.38 75.24L127.73 75.4L127.94 75.49L128.15 75.59L128.36 75.69L128.57 75.8L128.78 75.9L128.99 76L129.2 76.11L129.41 76.22L129.62 76.33L129.83 76.44L130.03 76.55L130.24 76.66L130.45 76.78L130.66 76.9L130.86 77.01L131.07 77.13L131.27 77.25L131.47 77.38L131.68 77.5L131.88 77.63L132.08 77.75L132.28 77.88L132.49 78.01L132.69 78.14L132.89 78.27L133.08 78.41L133.28 78.54L133.48 78.68L133.68 78.82L133.87 78.96L134.07 79.1L134.26 79.25L134.46 79.39L134.65 79.54L134.84 79.69L135.03 79.83L135.22 79.99L135.41 80.14L135.6 80.29L135.79 80.45L135.98 80.29L136.17 80.14L136.36 79.98L136.55 79.83L136.74 79.68L136.93 79.53L137.13 79.39L137.32 79.24L137.52 79.1L137.71 78.95L137.91 78.81L138.1 78.67L138.3 78.53L138.5 78.4L138.7 78.26L138.9 78.13L139.1 78L139.3 77.87L139.5 77.74L139.7 77.61L139.91 77.48L140.11 77.36L140.31 77.23L140.52 77.11L140.72 76.99L140.93 76.88L141.14 76.76L141.34 76.64L141.55 76.53L141.76 76.42L141.96 76.31L142.17 76.2L142.38 76.09L142.59 75.99L142.8 75.89L143.01 75.78L143.22 75.68L143.43 75.59L143.65 75.49L143.86 75.4L144.21 75.24L144.56 75.09L144.91 74.94L145.26 74.8L145.61 74.66L145.96 74.53L146.32 74.4L146.67 74.28L147.03 74.15L147.38 74.04L147.74 73.92L148.1 73.81L148.46 73.71L148.82 73.61L149.18 73.51L149.54 73.42L149.9 73.33L150.26 73.24L150.62 73.16L150.99 73.08L151.35 73.01L151.71 72.94L152.08 72.87L152.44 72.81L152.81 72.75L153.17 72.7L153.54 72.65L153.91 72.6L154.27 72.56L154.64 72.52L155.01 72.48L155.38 72.45L155.74 72.43L156.11 72.4L156.48 72.38L156.85 72.36L157.22 72.35L157.58 72.34L157.95 72.34L158.32 72.34L158.88 72.34L159.43 72.35ZM157.77 84.07L157.52 84.08L157.26 84.08L157.01 84.1L156.76 84.11L156.51 84.13L156.26 84.15L156.01 84.17L155.76 84.19L155.52 84.22L155.27 84.25L155.02 84.28L154.77 84.32L154.53 84.35L154.28 84.39L154.04 84.44L153.8 84.48L153.55 84.53L153.31 84.58L153.07 84.63L152.83 84.69L152.58 84.74L152.34 84.8L152.1 84.87L151.87 84.93L151.63 85L151.39 85.07L151.15 85.14L150.92 85.22L150.68 85.3L150.44 85.38L150.21 85.46L149.98 85.54L149.74 85.63L149.51 85.72L149.28 85.81L149.05 85.91L148.82 86L148.59 86.1L148.36 86.21L148.13 86.32L147.9 86.43L147.68 86.54L147.45 86.66L147.23 86.77L147 86.89L146.78 87.02L146.56 87.14L146.34 87.27L146.12 87.4L145.9 87.54L145.68 87.67L145.46 87.81L145.25 87.95L145.03 88.1L144.82 88.25L144.61 88.4L144.39 88.55L144.18 88.71L143.97 88.86L143.76 89.03L143.56 89.19L143.35 89.36L143.14 89.53L142.94 89.7L142.74 89.88L142.53 90.06L142.33 90.24L142.13 90.43L141.93 90.61L141.74 90.81L141.54 91L141.34 91.2L141.15 91.4L140.96 91.6L140.76 91.81L140.57 92.02L140.38 92.24L140.2 92.45L135.75 97.69L131.3 92.5L131.11 92.28L130.92 92.07L130.73 91.86L130.53 91.65L130.34 91.44L130.15 91.24L129.95 91.04L129.76 90.85L129.56 90.66L129.36 90.47L129.16 90.28L128.96 90.1L128.76 89.91L128.55 89.74L128.35 89.56L128.14 89.39L127.93 89.22L127.73 89.06L127.52 88.89L127.31 88.73L127.1 88.58L126.89 88.42L126.67 88.27L126.46 88.13L126.24 87.98L126.03 87.84L125.81 87.7L125.59 87.56L125.37 87.43L125.15 87.3L124.93 87.17L124.71 87.05L124.49 86.92L124.27 86.81L124.04 86.69L123.82 86.58L123.59 86.46L123.36 86.36L123.13 86.25L122.9 86.15L122.67 86.05L122.44 85.95L122.21 85.85L121.98 85.75L121.75 85.66L121.52 85.57L121.28 85.49L121.05 85.4L120.81 85.32L120.58 85.24L120.34 85.17L120.1 85.1L119.86 85.03L119.63 84.96L119.39 84.89L119.15 84.83L118.91 84.77L118.67 84.71L118.42 84.66L118.18 84.61L117.94 84.56L117.7 84.51L117.45 84.47L117.21 84.43L116.96 84.39L116.72 84.35L116.47 84.32L116.22 84.29L115.98 84.26L115.73 84.23L115.48 84.21L115.23 84.19L114.98 84.17L114.73 84.15L114.48 84.14L114.23 84.13L113.98 84.12L113.72 84.12L113.47 84.11L113.22 84.11L112.83 84.11L112.45 84.12L112.07 84.14L111.68 84.16L111.3 84.18L110.91 84.21L110.53 84.25L110.14 84.29L109.76 84.34L109.37 84.39L108.98 84.45L108.6 84.52L108.21 84.59L107.83 84.67L107.44 84.75L107.06 84.84L106.67 84.93L106.29 85.03L105.91 85.13L105.53 85.24L105.15 85.35L104.77 85.48L104.39 85.6L104.01 85.73L103.63 85.87L103.25 86.01L102.88 86.16L102.51 86.31L102.13 86.47L101.76 86.63L101.39 86.8L101.03 86.98L100.66 87.16L100.3 87.34L99.93 87.53L99.57 87.73L99.21 87.93L98.86 88.13L98.5 88.34L98.15 88.56L97.8 88.78L97.45 89.01L97.1 89.24L96.75 89.48L96.41 89.72L96.07 89.97L95.73 90.22L95.4 90.48L95.06 90.74L94.74 91.01L94.41 91.28L94.09 91.56L93.77 91.84L93.45 92.13L93.14 92.42L92.83 92.72L92.52 93.02L92.22 93.33L91.92 93.64L91.62 93.96L91.33 94.28L91.04 94.6L90.75 94.93L90.47 95.27L90.19 95.61L89.92 95.95L89.65 96.3L89.38 96.66L89.12 97.02L88.86 97.38L88.61 97.75L88.36 98.12L88.11 98.5L87.87 98.88L87.63 99.27L87.4 99.66L87.17 100.05L86.95 100.45L86.73 100.85L86.51 101.26L86.37 101.54L86.23 101.82L86.1 102.09L85.96 102.38L85.83 102.66L85.7 102.94L85.57 103.23L85.45 103.52L85.33 103.81L85.21 104.11L85.09 104.4L84.97 104.7L84.86 105L84.75 105.3L84.64 105.6L84.54 105.9L84.43 106.21L84.33 106.52L84.23 106.83L84.14 107.14L84.05 107.46L83.96 107.78L83.87 108.09L83.78 108.41L83.7 108.74L83.62 109.06L83.55 109.39L83.47 109.72L83.4 110.05L83.33 110.38L83.27 110.72L83.21 111.05L83.15 111.39L83.09 111.73L83.03 112.08L82.98 112.42L82.93 112.77L82.89 113.12L82.85 113.47L82.81 113.82L82.3 118.51L77.61 119.02L77.28 119.06L76.95 119.1L76.62 119.14L76.3 119.19L75.97 119.24L75.64 119.29L75.31 119.34L74.99 119.4L74.66 119.45L74.33 119.51L74.01 119.58L73.68 119.64L73.36 119.71L73.04 119.78L72.72 119.85L72.39 119.93L72.07 120L71.75 120.08L71.44 120.17L71.12 120.25L70.8 120.34L70.49 120.43L70.17 120.52L69.86 120.62L69.54 120.71L69.23 120.81L68.92 120.92L68.61 121.02L68.31 121.13L68 121.24L67.69 121.35L67.39 121.47L67.09 121.59L66.78 121.71L66.48 121.83L66.19 121.96L65.89 122.09L65.59 122.22L65.3 122.36L65.01 122.49L64.71 122.63L64.42 122.78L64.14 122.92L63.85 123.07L63.57 123.22L63.28 123.37L63 123.52L62.73 123.68L62.45 123.84L62.17 124L61.9 124.16L61.63 124.33L61.36 124.5L61.09 124.67L60.83 124.84L60.57 125.02L60.31 125.2L60.05 125.38L59.79 125.56L59.54 125.75L59.28 125.94L59.03 126.13L58.78 126.33L58.54 126.52L58.29 126.72L58.05 126.92L57.81 127.13L57.57 127.34L57.34 127.55L57.1 127.76L56.87 127.98L56.64 128.2L56.42 128.42L56.19 128.64L55.97 128.87L55.75 129.1L55.54 129.33L55.32 129.57L55.11 129.81L54.9 130.05L54.76 130.21L54.62 130.38L54.49 130.54L54.35 130.71L54.22 130.88L54.09 131.05L53.96 131.22L53.83 131.39L53.7 131.56L53.57 131.74L53.44 131.91L53.32 132.09L53.19 132.27L53.07 132.45L52.95 132.63L52.83 132.81L52.71 132.99L52.59 133.18L52.48 133.36L52.36 133.55L52.25 133.74L52.13 133.93L52.02 134.12L51.91 134.31L51.8 134.51L51.69 134.7L51.59 134.9L51.48 135.1L51.38 135.3L51.27 135.5L51.17 135.7L51.07 135.91L50.97 136.11L50.87 136.32L50.78 136.53L50.68 136.74L50.59 136.96L50.49 137.17L50.4 137.39L50.31 137.61L50.19 137.9L50.08 138.2L49.97 138.49L49.86 138.8L49.75 139.1L49.64 139.41L49.54 139.72L49.44 140.03L49.34 140.35L49.25 140.67L49.15 140.99L49.06 141.32L48.98 141.65L48.89 141.98L48.81 142.31L48.73 142.65L48.66 142.99L48.58 143.34L48.51 143.69L48.44 144.04L48.38 144.39L48.32 144.75L48.26 145.11L48.2 145.48L48.15 145.84L48.1 146.22L48.06 146.59L48.01 146.97L47.97 147.35L47.94 147.74L47.9 148.13L47.87 148.52L47.85 148.91L47.82 149.31L47.81 149.72L47.79 150.12L47.78 150.54L47.77 150.95L47.76 151.37L47.76 151.79L47.76 152.15L47.77 152.52L47.77 152.87L47.78 153.23L47.79 153.58L47.8 153.94L47.82 154.28L47.84 154.63L47.86 154.97L47.88 155.31L47.9 155.65L47.93 155.99L47.96 156.32L47.99 156.65L48.02 156.98L48.06 157.31L48.1 157.63L48.14 157.96L48.18 158.28L48.22 158.59L48.27 158.91L48.32 159.22L48.37 159.53L48.42 159.84L48.48 160.15L48.53 160.45L48.59 160.75L48.65 161.05L48.71 161.35L48.78 161.65L48.84 161.94L48.91 162.23L48.98 162.52L49.05 162.81L49.13 163.1L49.2 163.38L49.28 163.66L49.36 163.94L49.44 164.22L49.52 164.49L50.58 165.27L51.66 166.04L52.76 166.83L53.87 167.61L55 168.4L56.15 169.18L57.31 169.96L58.49 170.74L59.68 171.51L60.89 172.27L62.12 173.02L63.35 173.75L64.61 174.48L65.88 175.18L67.16 175.87L68.46 176.54L69.77 177.18L71.1 177.8L72.44 178.4L73.79 178.96L75.16 179.5L76.53 180L77.93 180.48L79.33 180.91L80.75 181.31L82.18 181.67L83.62 181.99L85.07 182.26L86.53 182.49L88.01 182.67L89.5 182.81L90.99 182.89L92.5 182.92L94.02 182.9L95.55 182.82L97.09 182.68L98.64 182.48L100.2 182.22L101.76 181.9L103.34 181.51L102.06 180.55L100.82 179.56L99.63 178.54L98.48 177.49L97.37 176.41L96.31 175.31L95.28 174.19L94.3 173.03L93.36 171.85L92.46 170.65L91.59 169.42L90.77 168.17L89.98 166.9L89.23 165.61L88.51 164.29L87.83 162.96L87.18 161.6L86.56 160.22L85.98 158.83L85.43 157.42L84.9 155.99L84.41 154.54L83.95 153.08L83.51 151.6L83.11 150.11L82.72 148.6L82.37 147.08L82.04 145.54L81.73 144L81.45 142.44L81.19 140.87L80.95 139.29L80.74 137.7L80.54 136.1L80.36 134.49L80.21 132.87L80.07 131.25L79.94 129.62L79.84 127.98L79.75 126.34L79.78 126.4L79.88 126.58L80.05 126.88L80.29 127.28L80.59 127.78L80.96 128.39L81.41 129.08L81.92 129.86L82.5 130.73L83.15 131.67L83.87 132.68L84.66 133.76L85.52 134.9L86.45 136.09L87.45 137.34L88.53 138.63L89.67 139.96L90.89 141.32L92.18 142.71L93.54 144.13L94.98 145.57L96.49 147.02L98.07 148.47L99.72 149.93L101.45 151.39L103.25 152.84L105.13 154.28L107.08 155.69L109.11 157.09L111.21 158.45L113.39 159.78L115.65 161.08L117.98 162.32L120.38 163.52L122.86 164.66L125.42 165.75L128.06 166.76L130.78 167.71L133.57 168.57L136.44 169.36L139.31 168.57L142.1 167.71L144.82 166.76L147.46 165.75L150.02 164.66L152.5 163.52L154.91 162.32L157.24 161.08L159.49 159.78L161.67 158.45L163.77 157.09L165.8 155.69L167.75 154.28L169.63 152.84L171.43 151.39L173.16 149.93L174.81 148.47L176.4 147.02L177.9 145.57L179.34 144.13L180.7 142.71L181.99 141.32L183.21 139.96L184.35 138.63L185.43 137.34L186.43 136.09L187.36 134.9L188.22 133.76L189.01 132.68L189.73 131.67L190.38 130.73L190.96 129.86L191.48 129.08L191.92 128.39L192.29 127.78L192.6 127.28L192.83 126.88L193 126.58L193.1 126.4L193.14 126.34L193.04 127.98L192.94 129.62L192.82 131.25L192.67 132.87L192.52 134.49L192.34 136.1L192.14 137.7L191.93 139.29L191.69 140.87L191.43 142.44L191.15 144L190.84 145.54L190.51 147.08L190.16 148.6L189.78 150.11L189.37 151.6L188.93 153.08L188.47 154.54L187.98 155.99L187.46 157.42L186.9 158.83L186.32 160.22L185.7 161.6L185.05 162.96L184.37 164.29L183.65 165.61L182.9 166.9L182.11 168.17L181.29 169.42L180.42 170.65L179.52 171.85L178.58 173.03L177.6 174.19L176.58 175.31L175.51 176.41L174.41 177.49L173.26 178.54L172.06 179.56L170.82 180.55L169.54 181.51L171.05 181.88L172.55 182.19L174.04 182.45L175.52 182.64L176.99 182.79L178.45 182.88L179.91 182.91L181.35 182.9L182.79 182.84L184.21 182.74L185.62 182.58L187.03 182.39L188.42 182.15L189.8 181.87L191.17 181.55L192.53 181.2L193.88 180.81L195.22 180.39L196.54 179.93L197.86 179.45L199.16 178.93L200.45 178.39L201.73 177.83L202.99 177.24L204.25 176.62L205.49 175.99L206.71 175.34L207.93 174.67L209.13 173.98L210.32 173.29L211.49 172.57L212.65 171.85L213.8 171.12L214.93 170.38L216.04 169.64L217.15 168.89L218.24 168.14L219.31 167.38L220.37 166.63L221.41 165.88L221.52 165.58L221.62 165.27L221.73 164.97L221.83 164.66L221.92 164.34L222.02 164.03L222.11 163.71L222.2 163.39L222.29 163.07L222.37 162.74L222.46 162.41L222.54 162.08L222.62 161.75L222.69 161.42L222.76 161.08L222.83 160.74L222.9 160.4L222.97 160.05L223.03 159.7L223.09 159.35L223.14 159L223.2 158.64L223.25 158.28L223.3 157.92L223.34 157.56L223.39 157.19L223.43 156.82L223.47 156.45L223.5 156.07L223.53 155.69L223.56 155.31L223.59 154.93L223.61 154.54L223.63 154.15L223.65 153.76L223.66 153.36L223.67 152.96L223.68 152.56L223.68 152.15L223.68 151.74L223.68 151.27L223.68 150.8L223.66 150.34L223.65 149.88L223.63 149.42L223.6 148.97L223.57 148.52L223.54 148.08L223.5 147.64L223.46 147.21L223.41 146.78L223.36 146.36L223.31 145.94L223.25 145.52L223.19 145.11L223.12 144.7L223.05 144.3L222.97 143.9L222.9 143.51L222.82 143.12L222.73 142.73L222.64 142.35L222.55 141.97L222.45 141.59L222.35 141.22L222.25 140.86L222.14 140.5L222.04 140.14L221.92 139.78L221.81 139.43L221.69 139.08L221.57 138.74L221.44 138.4L221.31 138.06L221.18 137.73L221.05 137.4L220.91 137.08L220.77 136.76L220.63 136.44L220.49 136.12L220.34 135.81L220.19 135.5L220.03 135.2L219.88 134.9L219.72 134.6L219.56 134.31L219.39 134.02L219.22 133.73L219.05 133.44L218.88 133.16L218.7 132.89L218.53 132.61L218.34 132.34L218.16 132.07L217.97 131.81L217.78 131.54L217.59 131.28L217.4 131.03L217.2 130.77L217 130.52L216.79 130.28L216.59 130.03L216.38 129.79L216.17 129.55L215.96 129.32L215.74 129.09L215.52 128.86L215.3 128.63L215.08 128.4L214.85 128.18L214.63 127.96L214.39 127.75L214.16 127.53L213.93 127.32L213.69 127.11L213.45 126.91L213.21 126.7L212.96 126.5L212.72 126.31L212.47 126.11L212.3 125.98L212.14 125.85L211.97 125.73L211.8 125.6L211.63 125.48L211.46 125.36L211.29 125.23L211.12 125.11L210.95 124.99L210.77 124.88L210.6 124.76L210.42 124.64L210.25 124.53L210.07 124.41L209.89 124.3L209.71 124.19L209.53 124.08L209.34 123.97L209.16 123.86L208.98 123.75L208.79 123.64L208.61 123.54L208.42 123.44L208.23 123.33L208.05 123.23L207.86 123.13L207.67 123.03L207.48 122.93L207.29 122.84L207.09 122.74L206.9 122.64L206.71 122.55L206.52 122.46L206.32 122.37L206.13 122.28L205.93 122.19L205.73 122.1L205.54 122.01L205.34 121.93L205.14 121.84L204.88 121.73L204.61 121.63L204.34 121.52L204.07 121.41L203.8 121.31L203.53 121.21L203.26 121.11L202.99 121.02L202.71 120.92L202.44 120.83L202.16 120.74L201.88 120.65L201.6 120.56L201.32 120.48L201.04 120.39L200.76 120.31L200.48 120.23L200.19 120.16L199.91 120.08L199.63 120.01L199.34 119.94L199.05 119.87L198.77 119.8L198.48 119.74L198.19 119.67L197.9 119.61L197.61 119.55L197.33 119.49L197.04 119.44L196.75 119.39L196.45 119.34L196.16 119.29L195.87 119.24L195.58 119.2L195.29 119.15L195 119.11L194.71 119.07L194.41 119.04L194.12 119L193.83 118.97L189.15 118.46L188.64 113.78L188.6 113.42L188.56 113.07L188.51 112.72L188.46 112.38L188.41 112.03L188.35 111.69L188.3 111.35L188.24 111.01L188.17 110.67L188.1 110.34L188.04 110L187.96 109.67L187.89 109.34L187.81 109.02L187.73 108.69L187.65 108.37L187.56 108.05L187.47 107.73L187.38 107.41L187.29 107.1L187.19 106.78L187.09 106.47L186.99 106.16L186.89 105.86L186.78 105.55L186.68 105.25L186.57 104.95L186.45 104.65L186.34 104.35L186.22 104.06L186.1 103.77L185.98 103.47L185.86 103.19L185.73 102.9L185.6 102.61L185.47 102.33L185.34 102.05L185.2 101.77L185.07 101.49L184.93 101.22L184.79 100.94L184.65 100.67L184.5 100.4L184.36 100.13L184.21 99.87L184.06 99.61L183.9 99.34L183.75 99.09L183.59 98.83L183.43 98.57L183.27 98.32L183.1 98.07L182.94 97.82L182.77 97.57L182.6 97.33L182.43 97.09L182.26 96.85L182.08 96.61L181.9 96.37L181.73 96.14L181.54 95.91L181.36 95.68L181.18 95.45L180.99 95.22L180.8 95L180.61 94.78L180.42 94.56L180.23 94.34L180.04 94.13L179.84 93.91L179.64 93.7L179.44 93.49L179.24 93.29L179.04 93.08L178.83 92.88L178.63 92.68L178.42 92.48L178.21 92.28L178 92.09L177.79 91.9L177.36 91.52L176.93 91.15L176.5 90.79L176.05 90.44L175.61 90.1L175.16 89.76L174.7 89.44L174.24 89.13L173.78 88.82L173.31 88.52L172.84 88.24L172.36 87.96L171.88 87.69L171.4 87.43L170.92 87.18L170.43 86.94L169.94 86.71L169.44 86.48L168.95 86.27L168.45 86.07L167.95 85.88L167.45 85.69L166.94 85.52L166.44 85.35L165.93 85.2L165.43 85.05L164.92 84.92L164.41 84.79L163.9 84.68L163.38 84.57L162.87 84.47L162.36 84.39L161.85 84.31L161.34 84.25L160.82 84.19L160.31 84.15L159.8 84.11L159.29 84.08L158.78 84.07L158.28 84.06L158.02 84.07L157.77 84.07Z" id="bfxXyd0JT"></path><path d="M330.8 105.58L331.27 105.59L331.74 105.6L332.21 105.61L332.67 105.63L333.13 105.65L333.59 105.67L334.05 105.7L334.5 105.73L334.95 105.76L335.4 105.8L335.84 105.84L336.29 105.88L336.73 105.93L337.16 105.97L337.6 106.03L338.03 106.08L338.46 106.14L338.88 106.2L339.3 106.26L339.72 106.33L340.14 106.4L340.56 106.47L340.97 106.55L341.38 106.63L341.78 106.71L342.19 106.8L342.59 106.89L342.98 106.98L343.38 107.08L343.77 107.18L344.16 107.28L344.55 107.38L344.93 107.49L345.31 107.6L345.69 107.72L346.07 107.83L346.44 107.95L346.81 108.08L347.18 108.2L347.54 108.33L347.9 108.46L348.26 108.59L348.62 108.73L348.97 108.87L349.32 109L349.67 109.14L350.01 109.29L350.35 109.43L350.69 109.58L351.03 109.73L351.36 109.88L351.69 110.03L352.02 110.19L352.35 110.34L352.67 110.5L352.99 110.66L353.3 110.83L353.62 110.99L353.93 111.16L354.24 111.33L354.54 111.5L354.84 111.67L355.14 111.85L355.44 112.02L355.73 112.2L356.02 112.38L356.31 112.57L356.59 112.75L356.87 112.94L357.15 113.13L357.43 113.32L357.7 113.51L357.97 113.7L358.24 113.9L358.5 114.1L358.76 114.3L359.02 114.5L359.28 114.71L359.53 114.92L359.78 115.13L360.03 115.34L360.27 115.55L360.51 115.77L360.74 115.99L360.98 116.2L361.21 116.43L361.44 116.65L361.66 116.87L361.88 117.1L362.1 117.32L362.31 117.55L362.52 117.78L362.73 118.02L362.94 118.25L363.14 118.49L363.34 118.72L363.54 118.96L363.73 119.2L363.92 119.44L364.1 119.69L364.29 119.94L364.47 120.18L364.65 120.43L364.82 120.68L364.99 120.94L365.16 121.19L365.32 121.45L365.48 121.71L365.64 121.97L365.8 122.23L365.95 122.49L366.1 122.76L366.24 123.03L366.39 123.3L366.53 123.57L366.66 123.84L366.8 124.12L366.93 124.39L367.05 124.67L367.18 124.95L367.3 125.23L367.42 125.51L367.53 125.8L367.64 126.08L367.75 126.36L367.86 126.65L367.96 126.93L368.06 127.22L368.15 127.51L368.24 127.79L368.33 128.08L368.42 128.37L368.5 128.66L368.58 128.96L368.66 129.25L368.73 129.54L368.8 129.84L368.87 130.13L368.93 130.43L368.99 130.72L369.05 131.02L369.1 131.32L369.15 131.62L369.2 131.92L369.25 132.22L369.29 132.52L369.32 132.83L369.36 133.13L369.39 133.43L369.42 133.74L369.44 134.05L369.46 134.35L369.48 134.66L369.5 134.97L369.51 135.28L369.52 135.59L369.52 135.9L369.52 136.22L369.52 136.54L369.52 136.86L369.51 137.18L369.5 137.5L369.49 137.81L369.47 138.13L369.45 138.44L369.43 138.75L369.4 139.06L369.37 139.37L369.34 139.68L369.31 139.98L369.27 140.29L369.23 140.59L369.19 140.89L369.14 141.19L369.09 141.49L369.04 141.79L368.98 142.08L368.93 142.37L368.86 142.67L368.8 142.96L368.73 143.25L368.66 143.53L368.59 143.82L368.51 144.11L368.43 144.39L368.35 144.67L368.26 144.95L368.17 145.23L368.08 145.51L367.99 145.78L367.89 146.06L367.79 146.33L367.68 146.6L367.57 146.88L367.46 147.14L367.35 147.41L367.23 147.68L367.11 147.94L366.99 148.21L366.86 148.47L366.73 148.73L366.59 148.99L366.45 149.24L366.3 149.49L366.15 149.75L365.99 150L365.83 150.24L365.67 150.49L365.5 150.73L365.33 150.98L365.15 151.22L364.97 151.46L364.78 151.69L364.59 151.93L364.39 152.16L364.19 152.39L363.98 152.62L363.77 152.85L363.56 153.07L363.34 153.29L363.12 153.52L362.89 153.73L362.66 153.95L362.42 154.17L362.18 154.38L361.93 154.59L361.68 154.8L361.43 155.01L361.17 155.22L360.9 155.42L360.64 155.62L360.36 155.82L360.09 156.02L359.8 156.22L359.52 156.41L359.23 156.6L358.93 156.79L358.63 156.98L358.32 157.17L358.01 157.35L357.69 157.54L357.36 157.72L357.03 157.9L356.7 158.07L356.36 158.25L356.01 158.42L355.66 158.59L355.31 158.76L354.95 158.93L354.58 159.1L354.21 159.26L353.83 159.42L353.45 159.58L353.07 159.74L352.67 159.89L352.28 160.04L351.87 160.2L351.47 160.34L351.05 160.49L350.64 160.64L350.21 160.78L349.78 160.92L349.35 161.06L348.91 161.19L348.47 161.33L348.02 161.46L347.56 161.59L347.1 161.72L346.64 161.84L346.17 161.96L345.69 162.09L345.21 162.2L344.73 162.32L344.24 162.44L343.74 162.55L343.24 162.66L342.73 162.76L342.22 162.87L341.7 162.98L341.17 163.08L340.63 163.18L340.09 163.28L339.54 163.37L338.99 163.47L338.43 163.56L337.86 163.64L337.28 163.73L336.7 163.81L336.11 163.89L335.51 163.96L334.91 164.04L334.3 164.11L333.68 164.18L333.06 164.24L332.43 164.3L331.79 164.36L331.15 164.42L330.5 164.48L329.84 164.53L329.17 164.58L328.5 164.62L327.82 164.67L327.14 164.71L326.45 164.75L325.75 164.78L325.04 164.81L324.33 164.84L323.61 164.87L322.88 164.9L322.15 164.92L321.41 164.94L320.66 164.96L319.9 164.97L319.14 164.98L318.37 164.99L317.6 165L316.82 165L316.03 165L315.84 165L315.66 165L315.48 165L315.29 165L315.11 165L314.93 165L314.75 165L314.57 165L314.39 165L314.21 164.99L314.03 164.99L313.85 164.99L313.68 164.99L313.5 164.99L313.32 164.99L313.15 164.98L312.97 164.98L312.8 164.98L312.63 164.98L312.45 164.97L312.28 164.97L312.11 164.97L311.94 164.97L311.77 164.96L311.59 164.96L311.43 164.96L311.26 164.95L311.09 164.95L310.92 164.95L310.75 164.94L310.59 164.94L310.42 164.94L310.26 164.93L310.09 164.93L309.93 164.93L309.77 164.92L309.6 164.92L309.44 164.92L309.28 164.91L309.12 164.91L308.96 164.91L308.8 164.9L308.64 164.9L308.47 164.89L308.31 164.89L308.15 164.89L307.98 164.88L307.82 164.88L307.65 164.87L307.49 164.87L307.32 164.86L307.15 164.86L306.98 164.85L306.81 164.84L306.65 164.84L306.48 164.83L306.3 164.83L306.13 164.82L305.96 164.81L305.79 164.81L305.62 164.8L305.44 164.79L305.27 164.78L305.09 164.78L304.92 164.77L304.74 164.76L304.56 164.75L304.39 164.74L304.21 164.74L304.03 164.73L303.85 164.72L303.67 164.71L303.49 164.7L303.31 164.69L303.13 164.68L302.95 164.67L302.76 164.66L302.58 164.65L302.4 164.64L302.21 164.63L302.29 165.1L302.37 165.56L302.47 166.02L302.57 166.47L302.68 166.92L302.79 167.37L302.92 167.81L303.05 168.25L303.19 168.68L303.33 169.11L303.49 169.53L303.65 169.95L303.82 170.36L304 170.78L304.19 171.18L304.38 171.58L304.58 171.98L304.79 172.37L305.01 172.76L305.23 173.14L305.46 173.52L305.7 173.9L305.95 174.27L306.21 174.64L306.47 175L306.74 175.35L307.02 175.71L307.31 176.05L307.6 176.4L307.9 176.74L308.21 177.07L308.53 177.4L308.86 177.73L309.19 178.05L309.53 178.37L309.88 178.68L310.23 178.99L310.6 179.29L310.97 179.59L311.35 179.88L311.73 180.17L312.13 180.45L312.53 180.73L312.94 180.99L313.36 181.25L313.79 181.5L314.22 181.75L314.67 181.98L315.12 182.21L315.58 182.43L316.05 182.65L316.52 182.85L317.01 183.05L317.5 183.24L318 183.43L318.51 183.61L319.03 183.78L319.56 183.94L320.09 184.09L320.63 184.24L321.18 184.38L321.74 184.51L322.31 184.64L322.89 184.76L323.47 184.87L324.06 184.98L324.66 185.07L325.27 185.16L325.89 185.24L326.51 185.32L327.15 185.39L327.79 185.45L328.44 185.5L329.1 185.55L329.77 185.59L330.44 185.62L331.13 185.65L331.82 185.66L332.52 185.67L333.23 185.68L333.47 185.68L333.7 185.68L333.94 185.67L334.18 185.67L334.41 185.67L334.65 185.66L334.88 185.66L335.12 185.65L335.35 185.64L335.58 185.63L335.81 185.62L336.04 185.61L336.27 185.6L336.5 185.59L336.72 185.58L336.95 185.56L337.17 185.55L337.4 185.53L337.62 185.52L337.84 185.5L338.07 185.48L338.29 185.46L338.5 185.44L338.72 185.42L338.94 185.4L339.16 185.37L339.37 185.35L339.59 185.32L339.8 185.29L340.01 185.27L340.22 185.24L340.43 185.21L340.64 185.18L340.85 185.15L341.06 185.11L341.26 185.08L341.47 185.05L341.67 185.01L341.88 184.97L342.08 184.94L342.28 184.9L342.48 184.86L342.68 184.82L342.88 184.78L343.08 184.74L343.27 184.7L343.47 184.66L343.66 184.62L343.86 184.58L344.05 184.54L344.24 184.49L344.43 184.45L344.62 184.41L344.81 184.36L345 184.32L345.19 184.28L345.38 184.23L345.56 184.19L345.74 184.14L345.93 184.1L346.11 184.05L346.29 184L346.47 183.96L346.65 183.91L346.83 183.86L347 183.81L347.18 183.76L347.35 183.71L347.53 183.66L347.7 183.61L347.87 183.56L348.04 183.51L348.21 183.46L348.38 183.41L348.54 183.35L348.71 183.3L348.87 183.25L349.04 183.19L349.2 183.14L349.36 183.08L349.52 183.03L349.68 182.97L349.83 182.92L349.99 182.86L350.14 182.8L350.3 182.75L350.45 182.69L350.6 182.64L350.75 182.58L350.9 182.53L351.05 182.47L351.2 182.41L351.35 182.36L351.49 182.3L351.64 182.25L351.78 182.19L351.92 182.14L352.06 182.08L352.2 182.03L352.34 181.97L352.48 181.91L352.62 181.86L352.75 181.8L352.89 181.75L353.02 181.69L353.15 181.64L353.28 181.58L353.41 181.52L353.54 181.47L353.67 181.41L353.79 181.36L353.92 181.3L354.04 181.25L354.16 181.19L354.29 181.13L354.41 181.08L354.52 181.02L354.64 180.97L354.76 180.91L354.87 180.86L354.99 180.8L355.1 180.75L355.21 180.69L355.32 180.64L355.43 180.59L355.54 180.54L355.64 180.48L355.75 180.43L355.95 180.34L356.15 180.24L356.34 180.15L356.53 180.06L356.62 180.01L356.71 179.97L356.8 179.93L356.89 179.88L356.97 179.84L357.05 179.8L357.14 179.76L357.22 179.72L357.3 179.68L357.37 179.65L357.45 179.61L357.53 179.57L357.6 179.54L357.67 179.5L357.74 179.47L357.81 179.43L357.88 179.4L357.94 179.37L358.01 179.34L358.07 179.3L358.13 179.27L358.19 179.25L358.25 179.22L358.3 179.19L366.05 193.98L365.92 194.05L365.8 194.12L365.67 194.2L365.55 194.27L365.43 194.34L365.3 194.41L365.18 194.48L365.06 194.55L364.94 194.62L364.82 194.69L364.7 194.76L364.58 194.83L364.46 194.9L364.34 194.97L364.22 195.04L364.1 195.1L363.99 195.17L363.87 195.24L363.75 195.3L363.64 195.37L363.52 195.43L363.4 195.5L363.29 195.56L363.18 195.62L363.06 195.69L362.95 195.75L362.84 195.81L362.72 195.87L362.61 195.93L362.5 195.99L362.39 196.05L362.28 196.11L362.17 196.17L362.06 196.23L361.95 196.29L361.84 196.35L361.73 196.4L361.62 196.46L361.52 196.52L361.41 196.57L361.25 196.66L361.09 196.74L360.93 196.82L360.77 196.9L360.6 196.98L360.43 197.07L360.26 197.15L360.09 197.23L359.92 197.31L359.74 197.39L359.57 197.47L359.39 197.55L359.2 197.63L359.02 197.71L358.83 197.79L358.65 197.87L358.46 197.95L358.27 198.03L358.07 198.1L357.88 198.18L357.68 198.26L357.48 198.34L357.28 198.42L357.08 198.49L356.87 198.57L356.66 198.65L356.45 198.73L356.24 198.8L356.03 198.88L355.82 198.96L355.6 199.03L355.38 199.11L355.16 199.19L354.94 199.26L354.72 199.34L354.49 199.42L354.27 199.49L354.04 199.57L353.81 199.65L353.58 199.72L353.34 199.8L353.1 199.87L352.86 199.94L352.62 200.01L352.37 200.08L352.13 200.16L351.88 200.23L351.63 200.3L351.38 200.37L351.12 200.44L350.87 200.51L350.61 200.57L350.35 200.64L350.09 200.71L349.83 200.78L349.57 200.84L349.3 200.91L349.03 200.98L348.77 201.04L348.49 201.11L348.22 201.17L347.95 201.24L347.67 201.3L347.39 201.37L347.11 201.43L346.83 201.49L346.55 201.55L346.26 201.62L345.97 201.68L345.68 201.74L345.39 201.8L345.1 201.86L344.8 201.92L344.5 201.98L344.21 202.04L343.9 202.09L343.6 202.15L343.3 202.21L342.99 202.26L342.68 202.32L342.37 202.37L342.06 202.43L341.75 202.48L341.43 202.53L341.12 202.58L340.8 202.63L340.48 202.68L340.16 202.72L339.83 202.76L339.51 202.81L339.19 202.85L338.86 202.89L338.53 202.93L338.2 202.96L337.87 203L337.53 203.03L337.2 203.06L336.86 203.1L336.53 203.13L336.19 203.15L335.85 203.18L335.5 203.21L335.16 203.23L334.82 203.25L334.47 203.28L334.12 203.3L333.77 203.32L333.42 203.33L333.07 203.35L332.72 203.36L332.36 203.38L332 203.39L331.65 203.4L331.29 203.41L330.93 203.42L330.56 203.42L330.2 203.43L329.83 203.43L329.47 203.43L329.1 203.43L328.58 203.43L328.07 203.42L327.55 203.41L327.04 203.4L326.53 203.38L326.03 203.36L325.52 203.33L325.02 203.31L324.51 203.27L324.01 203.23L323.52 203.19L323.02 203.15L322.52 203.1L322.03 203.04L321.54 202.99L321.05 202.92L320.56 202.86L320.08 202.79L319.59 202.72L319.11 202.64L318.63 202.56L318.15 202.47L317.67 202.38L317.2 202.29L316.72 202.19L316.25 202.09L315.78 201.99L315.31 201.88L314.85 201.77L314.38 201.65L313.92 201.53L313.45 201.41L312.99 201.28L312.54 201.15L312.08 201.01L311.62 200.88L311.17 200.73L310.72 200.59L310.26 200.43L309.82 200.28L309.37 200.12L308.92 199.96L308.48 199.79L308.04 199.62L307.61 199.45L307.17 199.27L306.74 199.09L306.32 198.91L305.89 198.72L305.47 198.52L305.05 198.33L304.64 198.13L304.22 197.92L303.81 197.72L303.4 197.5L303 197.29L302.6 197.07L302.2 196.84L301.8 196.62L301.41 196.39L301.02 196.15L300.63 195.91L300.24 195.67L299.86 195.42L299.48 195.17L299.11 194.92L298.73 194.66L298.36 194.4L298 194.14L297.63 193.87L297.27 193.59L296.91 193.32L296.56 193.03L296.2 192.75L295.85 192.46L295.51 192.17L295.16 191.87L294.82 191.57L294.48 191.27L294.15 190.96L293.81 190.65L293.48 190.34L293.15 190.02L292.83 189.7L292.51 189.37L292.19 189.04L291.88 188.71L291.57 188.38L291.26 188.04L290.96 187.69L290.66 187.35L290.36 187L290.07 186.65L289.78 186.29L289.5 185.93L289.22 185.57L288.94 185.2L288.66 184.83L288.39 184.46L288.13 184.08L287.86 183.7L287.6 183.31L287.35 182.93L287.09 182.53L286.85 182.14L286.6 181.74L286.36 181.34L286.12 180.94L285.88 180.53L285.65 180.12L285.42 179.7L285.2 179.28L284.98 178.86L284.76 178.43L284.55 178L284.34 177.57L284.13 177.13L283.93 176.69L283.73 176.25L283.53 175.8L283.34 175.35L283.15 174.9L282.97 174.44L282.79 173.98L282.62 173.52L282.45 173.05L282.29 172.58L282.13 172.11L281.98 171.63L281.83 171.15L281.68 170.67L281.55 170.18L281.41 169.69L281.28 169.2L281.16 168.7L281.04 168.21L280.92 167.7L280.82 167.2L280.71 166.69L280.61 166.17L280.52 165.66L280.43 165.14L280.34 164.61L280.26 164.09L280.18 163.56L280.11 163.03L280.05 162.49L279.99 161.95L279.93 161.41L279.88 160.86L279.83 160.31L279.79 159.76L279.76 159.2L279.72 158.65L279.7 158.08L279.68 157.52L279.66 156.95L279.65 156.38L279.64 155.8L279.64 155.22L279.64 154.67L279.65 154.12L279.66 153.57L279.67 153.03L279.7 152.49L279.72 151.95L279.75 151.41L279.79 150.87L279.83 150.34L279.87 149.81L279.92 149.28L279.98 148.75L280.04 148.23L280.1 147.71L280.17 147.19L280.24 146.67L280.32 146.16L280.4 145.65L280.49 145.14L280.58 144.63L280.68 144.12L280.78 143.62L280.89 143.12L281 142.63L281.12 142.13L281.24 141.64L281.36 141.15L281.49 140.66L281.63 140.18L281.77 139.69L281.91 139.21L282.06 138.74L282.22 138.26L282.38 137.79L282.54 137.32L282.71 136.85L282.89 136.39L283.07 135.93L283.25 135.47L283.44 135.01L283.63 134.56L283.82 134.11L284.02 133.66L284.22 133.21L284.42 132.77L284.63 132.33L284.85 131.9L285.06 131.47L285.28 131.04L285.51 130.61L285.73 130.19L285.97 129.77L286.2 129.36L286.44 128.94L286.68 128.53L286.93 128.13L287.18 127.72L287.43 127.32L287.69 126.93L287.95 126.53L288.22 126.14L288.49 125.75L288.76 125.37L289.04 124.99L289.32 124.61L289.6 124.24L289.89 123.87L290.18 123.5L290.47 123.14L290.77 122.77L291.07 122.42L291.38 122.06L291.69 121.71L292 121.36L292.32 121.02L292.64 120.67L292.97 120.34L293.29 120L293.63 119.67L293.96 119.34L294.3 119.02L294.64 118.7L294.99 118.38L295.33 118.06L295.68 117.75L296.04 117.45L296.39 117.14L296.75 116.84L297.12 116.55L297.48 116.26L297.85 115.97L298.22 115.68L298.6 115.4L298.97 115.12L299.35 114.85L299.74 114.58L300.12 114.31L300.51 114.05L300.9 113.79L301.3 113.54L301.7 113.28L302.1 113.03L302.5 112.79L302.91 112.55L303.32 112.31L303.73 112.08L304.14 111.85L304.56 111.62L304.98 111.4L305.41 111.18L305.84 110.96L306.27 110.75L306.7 110.54L307.14 110.34L307.58 110.14L308.02 109.94L308.46 109.75L308.91 109.56L309.36 109.37L309.82 109.19L310.27 109.01L310.73 108.84L311.19 108.67L311.66 108.5L312.12 108.34L312.59 108.19L313.06 108.03L313.53 107.89L314.01 107.75L314.48 107.61L314.96 107.47L315.44 107.35L315.93 107.22L316.41 107.1L316.9 106.99L317.39 106.88L317.88 106.77L318.38 106.67L318.88 106.57L319.38 106.48L319.88 106.39L320.38 106.31L320.89 106.23L321.4 106.15L321.91 106.08L322.42 106.02L322.94 105.96L323.45 105.9L323.97 105.85L324.5 105.8L325.02 105.76L325.55 105.72L326.08 105.68L326.61 105.65L327.14 105.63L327.68 105.61L328.21 105.59L328.75 105.58L329.3 105.58L329.84 105.57L330.32 105.57L330.8 105.58ZM328.39 121.81L327.86 121.83L327.33 121.86L326.81 121.89L326.29 121.94L325.78 121.98L325.27 122.04L324.77 122.11L324.27 122.18L323.78 122.26L323.29 122.35L322.81 122.44L322.33 122.55L321.86 122.66L321.4 122.78L320.94 122.91L320.49 123.04L320.04 123.18L319.59 123.34L319.16 123.49L318.73 123.66L318.3 123.84L317.88 124.02L317.46 124.21L317.06 124.41L316.65 124.61L316.25 124.81L315.86 125.02L315.47 125.24L315.08 125.46L314.7 125.68L314.33 125.91L313.96 126.15L313.6 126.38L313.24 126.63L312.89 126.88L312.54 127.13L312.2 127.39L311.86 127.65L311.53 127.92L311.2 128.19L310.88 128.47L310.57 128.75L310.26 129.04L309.95 129.33L309.66 129.63L309.36 129.94L309.08 130.25L308.8 130.56L308.52 130.88L308.25 131.2L307.98 131.53L307.72 131.86L307.46 132.19L307.21 132.53L306.96 132.88L306.72 133.22L306.48 133.57L306.25 133.93L306.02 134.29L305.79 134.65L305.58 135.01L305.36 135.38L305.15 135.76L304.95 136.13L304.75 136.51L304.56 136.9L304.38 137.29L304.19 137.68L304.02 138.07L303.85 138.47L303.68 138.88L303.53 139.28L303.37 139.69L303.22 140.11L303.07 140.53L302.93 140.95L302.79 141.36L302.66 141.78L302.53 142.2L302.41 142.62L302.3 143.04L302.19 143.46L302.09 143.89L301.99 144.31L301.9 144.73L301.81 145.15L301.73 145.58L301.66 146L301.59 146.42L301.52 146.85L301.47 147.27L301.42 147.7L301.37 148.13L301.33 148.55L301.3 148.98L301.27 149.41L301.25 149.83L301.24 150.26L301.58 150.28L301.92 150.29L302.25 150.31L302.59 150.32L302.92 150.33L303.25 150.35L303.58 150.36L303.91 150.37L304.24 150.38L304.57 150.39L304.9 150.4L305.22 150.4L305.54 150.41L305.87 150.42L306.19 150.42L306.51 150.43L306.83 150.43L307.15 150.43L307.47 150.44L307.78 150.44L308.1 150.44L308.41 150.44L308.73 150.45L309.04 150.45L309.35 150.45L317.09 150.45L317.9 150.44L318.69 150.44L319.47 150.43L320.24 150.41L321 150.4L321.74 150.37L322.47 150.35L323.19 150.32L323.9 150.28L324.59 150.24L325.27 150.2L325.94 150.15L326.6 150.1L327.24 150.05L327.87 149.99L328.49 149.92L329.1 149.85L329.69 149.78L330.28 149.7L330.84 149.62L331.4 149.54L331.95 149.45L332.48 149.35L333 149.25L333.5 149.15L334 149.04L334.49 148.93L334.97 148.82L335.44 148.71L335.9 148.6L336.35 148.48L336.8 148.36L337.24 148.24L337.66 148.12L338.08 147.99L338.49 147.87L338.89 147.74L339.28 147.6L339.67 147.47L340.04 147.33L340.41 147.19L340.76 147.05L341.11 146.91L341.45 146.76L341.78 146.61L342.1 146.45L342.41 146.3L342.71 146.14L343 145.98L343.29 145.81L343.56 145.65L343.83 145.48L344.09 145.32L344.34 145.15L344.59 144.98L344.82 144.81L345.06 144.64L345.28 144.46L345.5 144.28L345.7 144.11L345.91 143.92L346.1 143.74L346.29 143.56L346.47 143.37L346.64 143.18L346.8 142.99L346.96 142.8L347.1 142.6L347.24 142.4L347.38 142.2L347.5 142L347.62 141.8L347.73 141.59L347.83 141.39L347.92 141.18L348.01 140.97L348.09 140.76L348.17 140.55L348.25 140.35L348.32 140.14L348.39 139.93L348.46 139.71L348.52 139.5L348.58 139.29L348.63 139.08L348.68 138.87L348.73 138.65L348.78 138.44L348.82 138.22L348.86 138.01L348.89 137.79L348.92 137.58L348.95 137.36L348.97 137.14L348.99 136.93L349 136.71L349.02 136.5L349.03 136.28L349.03 136.06L349.03 135.84L349.02 135.29L349 134.74L348.95 134.21L348.89 133.69L348.81 133.17L348.71 132.67L348.59 132.19L348.45 131.71L348.3 131.24L348.13 130.79L347.94 130.34L347.73 129.91L347.5 129.49L347.26 129.08L347 128.68L346.72 128.29L346.43 127.92L346.11 127.55L345.78 127.2L345.43 126.86L345.07 126.53L344.68 126.21L344.28 125.9L343.86 125.61L343.42 125.32L342.97 125.05L342.51 124.79L342.03 124.54L341.55 124.29L341.07 124.06L340.57 123.85L340.06 123.64L339.55 123.44L339.02 123.25L338.49 123.08L337.95 122.92L337.4 122.76L336.85 122.62L336.28 122.49L335.7 122.37L335.12 122.26L334.53 122.17L333.93 122.08L333.32 122.01L332.7 121.94L332.07 121.89L331.43 121.85L330.79 121.82L330.13 121.8L329.47 121.8L328.93 121.8L328.39 121.81Z" id="b14UZwcmsK"></path><path d="M478.74 197.22C476.61 198.29 474.1 199.26 471.37 200.19C468.59 201.11 465.48 201.86 461.96 202.51C458.44 203.11 454.5 203.43 450.04 203.43C443.14 203.43 436.69 202.37 430.67 200.28C424.64 198.19 419.36 195.09 414.81 190.96C410.27 186.84 406.65 181.78 404.01 175.71C401.37 169.68 400.03 162.73 400.03 154.85C400.03 146.97 401.32 139.97 403.92 133.8C406.52 127.64 410.09 122.49 414.63 118.28C419.17 114.1 424.55 110.9 430.76 108.77C436.97 106.64 443.65 105.53 450.79 105.53C456.81 105.53 461.96 106.04 466.22 107.01C470.49 107.98 473.92 109.24 476.56 110.72C479.2 112.2 481.1 113.87 482.26 115.73C483.42 117.58 484.02 119.43 484.02 121.24C484.02 123.7 483.19 125.97 481.52 128.06C479.85 130.14 478.28 131.76 476.79 132.88C474.57 130.79 471.37 128.8 467.2 126.9C463.02 125 457.83 124.02 451.67 124.02C447.5 124.02 443.55 124.63 439.94 125.88C436.32 127.13 433.17 128.98 430.53 131.49C427.89 133.99 425.8 137.14 424.27 140.9C422.74 144.65 421.95 149.1 421.95 154.29C421.95 159.72 422.74 164.31 424.36 168.16C425.94 171.96 428.16 175.11 430.99 177.57C433.82 180.02 437.07 181.83 440.77 182.99C444.48 184.15 448.47 184.75 452.78 184.75C458.95 184.75 463.91 183.92 467.66 182.25C471.42 180.58 473.97 179.33 475.31 178.45C475.9 179.49 478.85 184.73 484.16 194.16C481.97 195.49 480.16 196.51 478.74 197.22Z" id="bhqiyuTBt"></path><path d="M522.87 169.87C528.34 164.86 533.9 159.81 539.56 154.62C545.22 149.47 550.64 144.42 555.78 139.55C560.98 134.69 565.2 130.61 568.53 127.27C563.64 127.27 524.52 127.27 519.63 127.27C515.55 127.27 512.72 126.48 511.05 124.86C509.38 123.28 508.55 120.92 508.55 117.86C508.55 115.77 508.87 113.78 509.47 111.97C510.08 110.12 510.59 108.82 510.96 108.08C518.47 108.08 578.59 108.08 586.1 108.08C589.67 108.08 592.5 108.91 594.59 110.58C596.67 112.25 597.74 114.8 597.74 118.23C597.74 120.55 597.18 122.77 596.07 124.77C594.96 126.8 592.87 129.35 589.81 132.41C587.82 134.36 585.41 136.77 582.53 139.51C579.66 142.29 576.55 145.21 573.22 148.27C569.88 151.33 566.45 154.53 562.88 157.77C559.31 161.02 555.88 164.17 552.54 167.18C549.2 170.19 546.1 172.98 543.13 175.57C540.16 178.17 537.66 180.39 535.57 182.2C539.73 182.2 560.53 182.2 597.97 182.2L597.97 200.65L508.64 200.65L508.64 182.53C514.45 177.43 519.19 173.21 522.87 169.87Z" id="a30QtEdYN9"></path><path d="M674.86 105.58L675.33 105.59L675.8 105.6L676.27 105.61L676.73 105.63L677.19 105.65L677.65 105.67L678.11 105.7L678.56 105.73L679.01 105.76L679.46 105.8L679.9 105.84L680.35 105.88L680.79 105.93L681.22 105.97L681.66 106.03L682.09 106.08L682.52 106.14L682.94 106.2L683.36 106.26L683.78 106.33L684.2 106.4L684.62 106.47L685.03 106.55L685.44 106.63L685.84 106.71L686.25 106.8L686.65 106.89L687.04 106.98L687.44 107.08L687.83 107.18L688.22 107.28L688.61 107.38L688.99 107.49L689.37 107.6L689.75 107.72L690.13 107.83L690.5 107.95L690.87 108.08L691.24 108.2L691.6 108.33L691.96 108.46L692.32 108.59L692.68 108.73L693.03 108.87L693.38 109L693.73 109.14L694.07 109.29L694.41 109.43L694.75 109.58L695.09 109.73L695.42 109.88L695.75 110.03L696.08 110.19L696.41 110.34L696.73 110.5L697.05 110.66L697.36 110.83L697.68 110.99L697.99 111.16L698.3 111.33L698.6 111.5L698.9 111.67L699.2 111.85L699.5 112.02L699.79 112.2L700.08 112.38L700.37 112.57L700.65 112.75L700.94 112.94L701.21 113.13L701.49 113.32L701.76 113.51L702.03 113.7L702.3 113.9L702.56 114.1L702.83 114.3L703.08 114.5L703.34 114.71L703.59 114.92L703.84 115.13L704.09 115.34L704.33 115.55L704.57 115.77L704.81 115.99L705.04 116.2L705.27 116.43L705.5 116.65L705.72 116.87L705.94 117.1L706.16 117.32L706.37 117.55L706.59 117.78L706.79 118.02L707 118.25L707.2 118.49L707.4 118.72L707.6 118.96L707.79 119.2L707.98 119.44L708.17 119.69L708.35 119.94L708.53 120.18L708.71 120.43L708.88 120.68L709.05 120.94L709.22 121.19L709.38 121.45L709.54 121.71L709.7 121.97L709.86 122.23L710.01 122.49L710.16 122.76L710.31 123.03L710.45 123.3L710.59 123.57L710.72 123.84L710.86 124.12L710.99 124.39L711.11 124.67L711.24 124.95L711.36 125.23L711.48 125.51L711.59 125.8L711.7 126.08L711.81 126.36L711.92 126.65L712.02 126.93L712.12 127.22L712.21 127.51L712.3 127.79L712.39 128.08L712.48 128.37L712.56 128.66L712.64 128.96L712.72 129.25L712.79 129.54L712.86 129.84L712.93 130.13L712.99 130.43L713.05 130.72L713.11 131.02L713.16 131.32L713.21 131.62L713.26 131.92L713.31 132.22L713.35 132.52L713.38 132.83L713.42 133.13L713.45 133.43L713.48 133.74L713.5 134.05L713.52 134.35L713.54 134.66L713.56 134.97L713.57 135.28L713.58 135.59L713.58 135.9L713.58 136.22L713.58 136.54L713.58 136.86L713.57 137.18L713.56 137.5L713.55 137.81L713.53 138.13L713.51 138.44L713.49 138.75L713.46 139.06L713.44 139.37L713.4 139.68L713.37 139.98L713.33 140.29L713.29 140.59L713.25 140.89L713.2 141.19L713.15 141.49L713.1 141.79L713.05 142.08L712.99 142.37L712.93 142.67L712.86 142.96L712.79 143.25L712.72 143.53L712.65 143.82L712.57 144.11L712.49 144.39L712.41 144.67L712.32 144.95L712.23 145.23L712.14 145.51L712.05 145.78L711.95 146.06L711.85 146.33L711.74 146.6L711.63 146.88L711.52 147.14L711.41 147.41L711.29 147.68L711.17 147.94L711.05 148.21L710.92 148.47L710.79 148.73L710.65 148.99L710.51 149.24L710.36 149.49L710.21 149.75L710.05 150L709.89 150.24L709.73 150.49L709.56 150.73L709.39 150.98L709.21 151.22L709.03 151.46L708.84 151.69L708.65 151.93L708.45 152.16L708.25 152.39L708.05 152.62L707.84 152.85L707.62 153.07L707.4 153.29L707.18 153.52L706.95 153.73L706.72 153.95L706.48 154.17L706.24 154.38L705.99 154.59L705.74 154.8L705.49 155.01L705.23 155.22L704.96 155.42L704.7 155.62L704.42 155.82L704.15 156.02L703.86 156.22L703.58 156.41L703.29 156.6L702.99 156.79L702.69 156.98L702.38 157.17L702.07 157.35L701.75 157.54L701.42 157.72L701.09 157.9L700.76 158.07L700.42 158.25L700.08 158.42L699.72 158.59L699.37 158.76L699.01 158.93L698.64 159.1L698.27 159.26L697.9 159.42L697.51 159.58L697.13 159.74L696.73 159.89L696.34 160.04L695.94 160.2L695.53 160.34L695.11 160.49L694.7 160.64L694.27 160.78L693.84 160.92L693.41 161.06L692.97 161.19L692.53 161.33L692.08 161.46L691.62 161.59L691.16 161.72L690.7 161.84L690.23 161.96L689.75 162.09L689.27 162.2L688.79 162.32L688.3 162.44L687.8 162.55L687.3 162.66L686.79 162.76L686.28 162.87L685.76 162.98L685.23 163.08L684.69 163.18L684.15 163.28L683.6 163.37L683.05 163.47L682.49 163.56L681.92 163.64L681.34 163.73L680.76 163.81L680.17 163.89L679.57 163.96L678.97 164.04L678.36 164.11L677.74 164.18L677.12 164.24L676.49 164.3L675.85 164.36L675.21 164.42L674.56 164.48L673.9 164.53L673.23 164.58L672.56 164.62L671.88 164.67L671.2 164.71L670.51 164.75L669.81 164.78L669.1 164.81L668.39 164.84L667.67 164.87L666.94 164.9L666.21 164.92L665.47 164.94L664.72 164.96L663.96 164.97L663.2 164.98L662.43 164.99L661.66 165L660.88 165L660.09 165L659.9 165L659.72 165L659.54 165L659.35 165L659.17 165L658.99 165L658.81 165L658.63 165L658.45 165L658.27 164.99L658.09 164.99L657.92 164.99L657.74 164.99L657.56 164.99L657.38 164.99L657.21 164.98L657.03 164.98L656.86 164.98L656.69 164.98L656.51 164.97L656.34 164.97L656.17 164.97L656 164.97L655.83 164.96L655.66 164.96L655.49 164.96L655.32 164.95L655.15 164.95L654.98 164.95L654.81 164.94L654.65 164.94L654.48 164.94L654.32 164.93L654.15 164.93L653.99 164.93L653.83 164.92L653.66 164.92L653.5 164.92L653.34 164.91L653.18 164.91L653.02 164.91L652.86 164.9L652.7 164.9L652.54 164.89L652.37 164.89L652.21 164.89L652.04 164.88L651.88 164.88L651.71 164.87L651.55 164.87L651.38 164.86L651.21 164.86L651.04 164.85L650.88 164.84L650.71 164.84L650.54 164.83L650.36 164.83L650.19 164.82L650.02 164.81L649.85 164.81L649.68 164.8L649.5 164.79L649.33 164.78L649.15 164.78L648.98 164.77L648.8 164.76L648.62 164.75L648.45 164.74L648.27 164.74L648.09 164.73L647.91 164.72L647.73 164.71L647.55 164.7L647.37 164.69L647.19 164.68L647.01 164.67L646.82 164.66L646.64 164.65L646.46 164.64L646.27 164.63L646.35 165.1L646.44 165.56L646.53 166.02L646.63 166.47L646.74 166.92L646.85 167.37L646.98 167.81L647.11 168.25L647.25 168.68L647.39 169.11L647.55 169.53L647.71 169.95L647.88 170.36L648.06 170.78L648.25 171.18L648.44 171.58L648.64 171.98L648.85 172.37L649.07 172.76L649.29 173.14L649.52 173.52L649.77 173.9L650.01 174.27L650.27 174.64L650.53 175L650.8 175.35L651.08 175.71L651.37 176.05L651.66 176.4L651.96 176.74L652.27 177.07L652.59 177.4L652.92 177.73L653.25 178.05L653.59 178.37L653.94 178.68L654.29 178.99L654.66 179.29L655.03 179.59L655.41 179.88L655.79 180.17L656.19 180.45L656.59 180.73L657 180.99L657.42 181.25L657.85 181.5L658.28 181.75L658.73 181.98L659.18 182.21L659.64 182.43L660.11 182.65L660.58 182.85L661.07 183.05L661.56 183.24L662.06 183.43L662.57 183.61L663.09 183.78L663.62 183.94L664.15 184.09L664.69 184.24L665.25 184.38L665.8 184.51L666.37 184.64L666.95 184.76L667.53 184.87L668.12 184.98L668.72 185.07L669.33 185.16L669.95 185.24L670.58 185.32L671.21 185.39L671.85 185.45L672.5 185.5L673.16 185.55L673.83 185.59L674.5 185.62L675.19 185.65L675.88 185.66L676.58 185.67L677.29 185.68L677.53 185.68L677.76 185.68L678 185.67L678.24 185.67L678.47 185.67L678.71 185.66L678.94 185.66L679.18 185.65L679.41 185.64L679.64 185.63L679.87 185.62L680.1 185.61L680.33 185.6L680.56 185.59L680.78 185.58L681.01 185.56L681.24 185.55L681.46 185.53L681.68 185.52L681.9 185.5L682.13 185.48L682.35 185.46L682.57 185.44L682.78 185.42L683 185.4L683.22 185.37L683.43 185.35L683.65 185.32L683.86 185.29L684.07 185.27L684.28 185.24L684.49 185.21L684.7 185.18L684.91 185.15L685.12 185.11L685.33 185.08L685.53 185.05L685.73 185.01L685.94 184.97L686.14 184.94L686.34 184.9L686.54 184.86L686.74 184.82L686.94 184.78L687.14 184.74L687.33 184.7L687.53 184.66L687.72 184.62L687.92 184.58L688.11 184.54L688.3 184.49L688.5 184.45L688.69 184.41L688.87 184.36L689.06 184.32L689.25 184.28L689.44 184.23L689.62 184.19L689.8 184.14L689.99 184.1L690.17 184.05L690.35 184L690.53 183.96L690.71 183.91L690.89 183.86L691.06 183.81L691.24 183.76L691.41 183.71L691.59 183.66L691.76 183.61L691.93 183.56L692.1 183.51L692.27 183.46L692.44 183.41L692.6 183.35L692.77 183.3L692.93 183.25L693.1 183.19L693.26 183.14L693.42 183.08L693.58 183.03L693.74 182.97L693.89 182.92L694.05 182.86L694.2 182.8L694.36 182.75L694.51 182.69L694.66 182.64L694.81 182.58L694.96 182.53L695.11 182.47L695.26 182.41L695.41 182.36L695.55 182.3L695.7 182.25L695.84 182.19L695.98 182.14L696.12 182.08L696.26 182.03L696.4 181.97L696.54 181.91L696.68 181.86L696.81 181.8L696.95 181.75L697.08 181.69L697.21 181.64L697.34 181.58L697.47 181.52L697.6 181.47L697.73 181.41L697.85 181.36L697.98 181.3L698.1 181.25L698.22 181.19L698.35 181.13L698.47 181.08L698.59 181.02L698.7 180.97L698.82 180.91L698.93 180.86L699.05 180.8L699.16 180.75L699.27 180.69L699.38 180.64L699.49 180.59L699.6 180.54L699.7 180.48L699.81 180.43L700.01 180.34L700.21 180.24L700.4 180.15L700.59 180.06L700.68 180.01L700.77 179.97L700.86 179.93L700.95 179.88L701.03 179.84L701.11 179.8L701.2 179.76L701.28 179.72L701.36 179.68L701.44 179.65L701.51 179.61L701.59 179.57L701.66 179.54L701.73 179.5L701.8 179.47L701.87 179.43L701.94 179.4L702 179.37L702.07 179.34L702.13 179.3L702.19 179.27L702.25 179.25L702.31 179.22L702.37 179.19L710.11 193.98L709.98 194.05L709.86 194.12L709.73 194.2L709.61 194.27L709.49 194.34L709.36 194.41L709.24 194.48L709.12 194.55L709 194.62L708.88 194.69L708.76 194.76L708.64 194.83L708.52 194.9L708.4 194.97L708.28 195.04L708.16 195.1L708.05 195.17L707.93 195.24L707.81 195.3L707.7 195.37L707.58 195.43L707.47 195.5L707.35 195.56L707.24 195.62L707.12 195.69L707.01 195.75L706.9 195.81L706.78 195.87L706.67 195.93L706.56 195.99L706.45 196.05L706.34 196.11L706.23 196.17L706.12 196.23L706.01 196.29L705.9 196.35L705.79 196.4L705.69 196.46L705.58 196.52L705.47 196.57L705.31 196.66L705.15 196.74L704.99 196.82L704.83 196.9L704.66 196.98L704.5 197.07L704.33 197.15L704.15 197.23L703.98 197.31L703.8 197.39L703.63 197.47L703.45 197.55L703.26 197.63L703.08 197.71L702.89 197.79L702.71 197.87L702.52 197.95L702.33 198.03L702.13 198.1L701.94 198.18L701.74 198.26L701.54 198.34L701.34 198.42L701.14 198.49L700.93 198.57L700.72 198.65L700.51 198.73L700.3 198.8L700.09 198.88L699.88 198.96L699.66 199.03L699.44 199.11L699.22 199.19L699 199.26L698.78 199.34L698.55 199.42L698.33 199.49L698.1 199.57L697.87 199.65L697.64 199.72L697.4 199.8L697.16 199.87L696.92 199.94L696.68 200.01L696.43 200.08L696.19 200.16L695.94 200.23L695.69 200.3L695.44 200.37L695.18 200.44L694.93 200.51L694.67 200.57L694.41 200.64L694.15 200.71L693.89 200.78L693.63 200.84L693.36 200.91L693.1 200.98L692.83 201.04L692.55 201.11L692.28 201.17L692.01 201.24L691.73 201.3L691.45 201.37L691.17 201.43L690.89 201.49L690.61 201.55L690.32 201.62L690.03 201.68L689.74 201.74L689.45 201.8L689.16 201.86L688.86 201.92L688.57 201.98L688.27 202.04L687.97 202.09L687.66 202.15L687.36 202.21L687.05 202.26L686.74 202.32L686.43 202.37L686.12 202.43L685.81 202.48L685.49 202.53L685.18 202.58L684.86 202.63L684.54 202.68L684.22 202.72L683.9 202.76L683.57 202.81L683.25 202.85L682.92 202.89L682.59 202.93L682.26 202.96L681.93 203L681.59 203.03L681.26 203.06L680.92 203.1L680.59 203.13L680.25 203.15L679.91 203.18L679.56 203.21L679.22 203.23L678.88 203.25L678.53 203.28L678.18 203.3L677.83 203.32L677.48 203.33L677.13 203.35L676.78 203.36L676.42 203.38L676.06 203.39L675.71 203.4L675.35 203.41L674.99 203.42L674.62 203.42L674.26 203.43L673.89 203.43L673.53 203.43L673.16 203.43L672.64 203.43L672.13 203.42L671.61 203.41L671.1 203.4L670.59 203.38L670.09 203.36L669.58 203.33L669.08 203.31L668.57 203.27L668.07 203.23L667.58 203.19L667.08 203.15L666.58 203.1L666.09 203.04L665.6 202.99L665.11 202.92L664.62 202.86L664.14 202.79L663.65 202.72L663.17 202.64L662.69 202.56L662.21 202.47L661.73 202.38L661.26 202.29L660.78 202.19L660.31 202.09L659.84 201.99L659.37 201.88L658.91 201.77L658.44 201.65L657.98 201.53L657.51 201.41L657.05 201.28L656.6 201.15L656.14 201.01L655.68 200.88L655.23 200.73L654.78 200.59L654.33 200.43L653.88 200.28L653.43 200.12L652.98 199.96L652.54 199.79L652.1 199.62L651.67 199.45L651.24 199.27L650.8 199.09L650.38 198.91L649.95 198.72L649.53 198.52L649.11 198.33L648.7 198.13L648.28 197.92L647.87 197.72L647.46 197.5L647.06 197.29L646.66 197.07L646.26 196.84L645.86 196.62L645.47 196.39L645.08 196.15L644.69 195.91L644.3 195.67L643.92 195.42L643.54 195.17L643.17 194.92L642.79 194.66L642.42 194.4L642.06 194.14L641.69 193.87L641.33 193.59L640.97 193.32L640.62 193.03L640.26 192.75L639.91 192.46L639.57 192.17L639.22 191.87L638.88 191.57L638.54 191.27L638.21 190.96L637.87 190.65L637.54 190.34L637.21 190.02L636.89 189.7L636.57 189.37L636.25 189.04L635.94 188.71L635.63 188.38L635.32 188.04L635.02 187.69L634.72 187.35L634.42 187L634.13 186.65L633.84 186.29L633.56 185.93L633.28 185.57L633 185.2L632.72 184.83L632.45 184.46L632.19 184.08L631.92 183.7L631.66 183.31L631.41 182.93L631.15 182.53L630.91 182.14L630.66 181.74L630.42 181.34L630.18 180.94L629.94 180.53L629.71 180.12L629.49 179.7L629.26 179.28L629.04 178.86L628.82 178.43L628.61 178L628.4 177.57L628.19 177.13L627.99 176.69L627.79 176.25L627.59 175.8L627.4 175.35L627.21 174.9L627.03 174.44L626.85 173.98L626.68 173.52L626.51 173.05L626.35 172.58L626.19 172.11L626.04 171.63L625.89 171.15L625.74 170.67L625.61 170.18L625.47 169.69L625.34 169.2L625.22 168.7L625.1 168.21L624.99 167.7L624.88 167.2L624.77 166.69L624.67 166.17L624.58 165.66L624.49 165.14L624.4 164.61L624.32 164.09L624.25 163.56L624.17 163.03L624.11 162.49L624.05 161.95L623.99 161.41L623.94 160.86L623.89 160.31L623.85 159.76L623.82 159.2L623.79 158.65L623.76 158.08L623.74 157.52L623.72 156.95L623.71 156.38L623.7 155.8L623.7 155.22L623.7 154.67L623.71 154.12L623.72 153.57L623.74 153.03L623.76 152.49L623.78 151.95L623.81 151.41L623.85 150.87L623.89 150.34L623.93 149.81L623.98 149.28L624.04 148.75L624.1 148.23L624.16 147.71L624.23 147.19L624.3 146.67L624.38 146.16L624.46 145.65L624.55 145.14L624.64 144.63L624.74 144.12L624.84 143.62L624.95 143.12L625.06 142.63L625.18 142.13L625.3 141.64L625.42 141.15L625.55 140.66L625.69 140.18L625.83 139.69L625.97 139.21L626.12 138.74L626.28 138.26L626.44 137.79L626.6 137.32L626.77 136.85L626.95 136.39L627.13 135.93L627.31 135.47L627.5 135.01L627.69 134.56L627.88 134.11L628.08 133.66L628.28 133.21L628.49 132.77L628.69 132.33L628.91 131.9L629.12 131.47L629.34 131.04L629.57 130.61L629.79 130.19L630.03 129.77L630.26 129.36L630.5 128.94L630.74 128.53L630.99 128.13L631.24 127.72L631.49 127.32L631.75 126.93L632.01 126.53L632.28 126.14L632.55 125.75L632.82 125.37L633.1 124.99L633.38 124.61L633.66 124.24L633.95 123.87L634.24 123.5L634.53 123.14L634.83 122.77L635.14 122.42L635.44 122.06L635.75 121.71L636.06 121.36L636.38 121.02L636.7 120.67L637.03 120.34L637.35 120L637.69 119.67L638.02 119.34L638.36 119.02L638.7 118.7L639.05 118.38L639.39 118.06L639.75 117.75L640.1 117.45L640.45 117.14L640.81 116.84L641.18 116.55L641.54 116.26L641.91 115.97L642.28 115.68L642.66 115.4L643.03 115.12L643.41 114.85L643.8 114.58L644.18 114.31L644.57 114.05L644.96 113.79L645.36 113.54L645.76 113.28L646.16 113.03L646.56 112.79L646.97 112.55L647.38 112.31L647.79 112.08L648.2 111.85L648.62 111.62L649.04 111.4L649.47 111.18L649.9 110.96L650.33 110.75L650.76 110.54L651.2 110.34L651.64 110.14L652.08 109.94L652.52 109.75L652.97 109.56L653.42 109.37L653.88 109.19L654.33 109.01L654.79 108.84L655.25 108.67L655.72 108.5L656.18 108.34L656.65 108.19L657.12 108.03L657.59 107.89L658.07 107.75L658.54 107.61L659.02 107.47L659.5 107.35L659.99 107.22L660.47 107.1L660.96 106.99L661.45 106.88L661.95 106.77L662.44 106.67L662.94 106.57L663.44 106.48L663.94 106.39L664.44 106.31L664.95 106.23L665.46 106.15L665.97 106.08L666.48 106.02L667 105.96L667.51 105.9L668.03 105.85L668.56 105.8L669.08 105.76L669.61 105.72L670.14 105.68L670.67 105.65L671.2 105.63L671.74 105.61L672.27 105.59L672.81 105.58L673.36 105.58L673.9 105.57L674.38 105.57L674.86 105.58ZM672.5 121.81L671.96 121.83L671.44 121.86L670.91 121.89L670.4 121.94L669.88 121.98L669.38 122.04L668.87 122.11L668.38 122.18L667.88 122.26L667.4 122.35L666.92 122.44L666.44 122.55L665.97 122.66L665.51 122.78L665.05 122.91L664.59 123.04L664.14 123.18L663.7 123.34L663.26 123.49L662.83 123.66L662.41 123.84L661.99 124.02L661.57 124.21L661.16 124.41L660.76 124.61L660.36 124.81L659.96 125.02L659.57 125.24L659.19 125.46L658.81 125.68L658.44 125.91L658.07 126.15L657.71 126.38L657.35 126.63L656.99 126.88L656.65 127.13L656.3 127.39L655.97 127.65L655.64 127.92L655.31 128.19L654.99 128.47L654.67 128.75L654.36 129.04L654.06 129.33L653.76 129.63L653.47 129.94L653.18 130.25L652.9 130.56L652.63 130.88L652.36 131.2L652.09 131.53L651.83 131.86L651.57 132.19L651.32 132.53L651.07 132.88L650.82 133.22L650.59 133.57L650.35 133.93L650.12 134.29L649.9 134.65L649.68 135.01L649.47 135.38L649.26 135.76L649.06 136.13L648.86 136.51L648.67 136.9L648.48 137.29L648.3 137.68L648.13 138.07L647.96 138.47L647.79 138.88L647.63 139.28L647.48 139.69L647.32 140.11L647.17 140.53L647.02 140.95L646.88 141.36L646.75 141.78L646.62 142.2L646.5 142.62L646.39 143.04L646.28 143.46L646.17 143.89L646.08 144.31L645.99 144.73L645.9 145.15L645.82 145.58L645.75 146L645.68 146.42L645.62 146.85L645.57 147.27L645.52 147.7L645.47 148.13L645.44 148.55L645.41 148.98L645.38 149.41L645.36 149.83L645.35 150.26L645.68 150.28L646.02 150.29L646.36 150.31L646.69 150.32L647.03 150.33L647.36 150.35L647.69 150.36L648.02 150.37L648.35 150.38L648.68 150.39L649 150.4L649.33 150.4L649.65 150.41L649.97 150.42L650.3 150.42L650.62 150.43L650.94 150.43L651.26 150.43L651.57 150.44L651.89 150.44L652.21 150.44L652.52 150.44L652.83 150.45L653.15 150.45L653.46 150.45L661.2 150.45L662.01 150.44L662.8 150.44L663.58 150.43L664.35 150.41L665.11 150.4L665.85 150.37L666.58 150.35L667.3 150.32L668.01 150.28L668.7 150.24L669.38 150.2L670.05 150.15L670.71 150.1L671.35 150.05L671.98 149.99L672.6 149.92L673.21 149.85L673.8 149.78L674.38 149.7L674.95 149.62L675.51 149.54L676.05 149.45L676.58 149.35L677.1 149.25L677.61 149.15L678.11 149.04L678.59 148.93L679.07 148.82L679.55 148.71L680.01 148.6L680.46 148.48L680.91 148.36L681.34 148.24L681.77 148.12L682.19 147.99L682.6 147.87L683 147.74L683.39 147.6L683.77 147.47L684.15 147.33L684.51 147.19L684.87 147.05L685.22 146.91L685.56 146.76L685.89 146.61L686.2 146.45L686.52 146.3L686.82 146.14L687.11 145.98L687.39 145.81L687.67 145.65L687.93 145.48L688.19 145.32L688.45 145.15L688.69 144.98L688.93 144.81L689.16 144.64L689.39 144.46L689.6 144.28L689.81 144.11L690.01 143.92L690.21 143.74L690.39 143.56L690.57 143.37L690.74 143.18L690.91 142.99L691.06 142.8L691.21 142.6L691.35 142.4L691.48 142.2L691.61 142L691.72 141.8L691.83 141.59L691.93 141.39L692.03 141.18L692.11 140.97L692.2 140.76L692.28 140.55L692.36 140.35L692.43 140.14L692.5 139.93L692.56 139.71L692.63 139.5L692.68 139.29L692.74 139.08L692.79 138.87L692.84 138.65L692.88 138.44L692.92 138.22L692.96 138.01L693 137.79L693.03 137.58L693.05 137.36L693.08 137.14L693.1 136.93L693.11 136.71L693.12 136.5L693.13 136.28L693.14 136.06L693.14 135.84L693.13 135.29L693.1 134.74L693.06 134.21L692.99 133.69L692.91 133.17L692.81 132.67L692.7 132.19L692.56 131.71L692.41 131.24L692.23 130.79L692.04 130.34L691.84 129.91L691.61 129.49L691.37 129.08L691.11 128.68L690.83 128.29L690.53 127.92L690.22 127.55L689.89 127.2L689.54 126.86L689.17 126.53L688.79 126.21L688.39 125.9L687.97 125.61L687.53 125.32L687.08 125.05L686.61 124.79L686.14 124.54L685.66 124.29L685.17 124.06L684.67 123.85L684.17 123.64L683.65 123.44L683.13 123.25L682.6 123.08L682.06 122.92L681.51 122.76L680.95 122.62L680.39 122.49L679.81 122.37L679.23 122.26L678.63 122.17L678.03 122.08L677.42 122.01L676.8 121.94L676.18 121.89L675.54 121.85L674.89 121.82L674.24 121.8L673.58 121.8L673.03 121.8L672.5 121.81Z" id="a9BJMnMPw"></path></defs><g><g><g><use xlink:href="#bfxXyd0JT" opacity="1" fill="#4ecfb2" fill-opacity="1"></use><g><use xlink:href="#bfxXyd0JT" opacity="1" fill-opacity="0" stroke="#000000" stroke-width="1" stroke-opacity="0"></use></g></g><g><use xlink:href="#b14UZwcmsK" opacity="1" fill="#4ecfb2" fill-opacity="1"></use><g><use xlink:href="#b14UZwcmsK" opacity="1" fill-opacity="0" stroke="#000000" stroke-width="1" stroke-opacity="0"></use></g></g><g><use xlink:href="#bhqiyuTBt" opacity="1" fill="#4ecfb2" fill-opacity="1"></use><g><use xlink:href="#bhqiyuTBt" opacity="1" fill-opacity="0" stroke="#000000" stroke-width="1" stroke-opacity="0"></use></g></g><g><use xlink:href="#a30QtEdYN9" opacity="1" fill="#4ecfb2" fill-opacity="1"></use><g><use xlink:href="#a30QtEdYN9" opacity="1" fill-opacity="0" stroke="#000000" stroke-width="1" stroke-opacity="0"></use></g></g><g><use xlink:href="#a9BJMnMPw" opacity="1" fill="#4ecfb2" fill-opacity="1"></use><g><use xlink:href="#a9BJMnMPw" opacity="1" fill-opacity="0" stroke="#000000" stroke-width="1" stroke-opacity="0"></use></g></g></g></g></svg>