<svg id="Layer_1" data-name="Layer 1" xmlns="http://www.w3.org/2000/svg" viewBox="0 0 94 94"><defs><style>.cls-1{fill:#ffc78e;}.cls-2{fill:#181818;}.cls-3{fill:#48abcc;}.cls-4{fill:#9d7c6b;}.cls-5{fill:#f28020;}.cls-6{fill:#ff8f69;}.cls-7{fill:#ffbe00;}.cls-8{fill:#b9dc4a;}.cls-9{fill:#fff;}.cls-10{fill:#264341;}.cls-11{fill:#efecf3;}</style></defs><title>Artboard 1 copy</title><path class="cls-1" d="M48.71,44.73c0,2.42-2.41,4.39-5.39,4.39s-5.38-2-5.38-4.39,2.15-11.84,5.13-11.84S48.71,42.3,48.71,44.73Z"/><path class="cls-2" d="M43.32,49.52c-3.18,0-5.78-2.15-5.78-4.79,0-2.45,2.14-12.24,5.53-12.24s6,9.76,6,12.24C49.11,47.37,46.51,49.52,43.32,49.52Zm-.25-16.23c-2.49,0-4.73,8.8-4.73,11.44,0,2.2,2.24,4,5,4s5-1.79,5-4C48.3,42.31,45.64,33.29,43.07,33.29Z"/><path class="cls-1" d="M19.23,55c0,2-2,3.56-4.37,3.56S10.49,57,10.49,55s1.75-9.6,4.16-9.6S19.23,53,19.23,55Z"/><path class="cls-2" d="M14.86,59c-2.63,0-4.77-1.78-4.77-4,0-1.57,1.65-10,4.56-10s5,8,5,10S17.49,59,14.86,59ZM14.65,45.8c-1.93,0-3.76,7.14-3.76,9.2,0,1.74,1.78,3.16,4,3.16s4-1.42,4-3.16C18.83,52.82,16.56,45.8,14.65,45.8Z"/><path class="cls-3" d="M22,46.47c.76-.44,1-1.77,1-1.77.57-2.5-.92-2.58-.92-2.58,1-3.77-.19-5.64-.19-5.64s-2-3.83-7.63-3.83c-5.47,0-6.85,3.83-6.85,3.83s-1.2,1.87-.19,5.64c0,0-1.48.08-.91,2.58,0,0,.21,1.33,1,1.77,0,0,.51,4.41-3.11,5.89,0,0,4.43,2.07,7-.51,0,0,2.41,1.56,3.52,1.35,1.12.21,3.52-1.35,3.52-1.35,2.55,2.58,7,.51,7,.51C21.53,50.88,22,46.47,22,46.47Z"/><path class="cls-2" d="M14.44,53.62a8.12,8.12,0,0,1-3.26-1.26c-2.73,2.4-7,.45-7.19.36l-.83-.38L4,52c2.9-1.19,2.92-4.5,2.88-5.3a3.39,3.39,0,0,1-1-1.93,2.9,2.9,0,0,1,.25-2.45,1.58,1.58,0,0,1,.57-.47c-.87-3.64.29-5.5.34-5.58s1.49-4,7.18-4,7.9,3.88,8,4,1.19,1.91.32,5.55a1.58,1.58,0,0,1,.57.47,3,3,0,0,1,.25,2.48,3.4,3.4,0,0,1-1,1.9c-.05.81-.06,4.1,2.88,5.3l.85.35-.83.38c-.19.09-4.47,2-7.2-.36-.68.41-2.41,1.38-3.47,1.24Zm.21-.83.08,0c.69.12,2.35-.73,3.23-1.29l.27-.18.23.23c1.69,1.72,4.37,1.17,5.71.74-3-1.87-2.54-5.84-2.53-5.88l0-.2.17-.1a2.43,2.43,0,0,0,.77-1.5c.25-1.09.08-1.6-.1-1.84a.65.65,0,0,0-.44-.27l-.49,0L21.7,42c.95-3.51-.13-5.3-.15-5.32-.09-.18-2-3.64-7.29-3.64-5.1,0-6.42,3.42-6.47,3.56S6.66,38.5,7.61,42l.13.48-.5,0a.67.67,0,0,0-.45.28,2.29,2.29,0,0,0-.09,1.81,2.48,2.48,0,0,0,.77,1.52l.18.1,0,.2s.42,4-2.53,5.87c1.34.43,4,1,5.71-.73l.22-.23.28.18c.88.56,2.53,1.41,3.23,1.29Z"/><path class="cls-1" d="M9.48,36.85s-4,9.16,1.65,15c0,0,3.67,3.83,7,0a13.68,13.68,0,0,0,2.74-12.8S14,41.11,9.48,36.85Z"/><path class="cls-2" d="M14.85,54a6.18,6.18,0,0,1-4-1.83c-5.72-6-1.76-15.35-1.72-15.44l.22-.53.42.4c4.27,4,11,2.13,11,2.11l.39-.12.11.4a14.21,14.21,0,0,1-2.84,13.18A4.77,4.77,0,0,1,14.94,54ZM9.65,37.53c-.71,2-2.83,9.25,1.77,14a5.22,5.22,0,0,0,3.5,1.57,4,4,0,0,0,3-1.56,13.38,13.38,0,0,0,2.76-12.05C19.11,39.9,13.65,40.89,9.65,37.53Z"/><path class="cls-3" d="M2,75.2V66.55c0-5.17,4.09-9.95,8.5-12,0,0,.06,4.21,4.28,4.07,3.78-.13,4.57-4.07,4.57-4.07a12.8,12.8,0,0,1,8.26,12V75.2"/><path class="cls-2" d="M28,75.2h-.8V66.55a12.49,12.49,0,0,0-7.59-11.44,5.36,5.36,0,0,1-4.83,3.94A4.37,4.37,0,0,1,11.51,58a5,5,0,0,1-1.36-2.76c-3.94,2-7.76,6.44-7.76,11.36V75.2h-.8V66.55c0-5.47,4.39-10.35,8.74-12.34l.55-.25v.61a4.51,4.51,0,0,0,1.17,2.8,3.58,3.58,0,0,0,2.69.88c3.43-.12,4.2-3.72,4.2-3.75l.1-.46.44.16A13.29,13.29,0,0,1,28,66.55Z"/><path class="cls-1" d="M85.45,53.24c0,2.42-2.4,4.39-5.38,4.39s-5.38-2-5.38-4.39,2.15-11.83,5.13-11.83S85.45,50.82,85.45,53.24Z"/><path class="cls-2" d="M80.07,58c-3.19,0-5.78-2.15-5.78-4.79,0-2.45,2.14-12.23,5.53-12.23s6,9.75,6,12.23C85.86,55.88,83.26,58,80.07,58Zm-.25-16.22c-2.49,0-4.73,8.79-4.73,11.43,0,2.2,2.24,4,5,4s5-1.79,5-4C85.05,50.82,82.39,41.81,79.82,41.81Z"/><path class="cls-4" d="M86.7,45.06c.84-.49,1.07-2,1.07-2,.65-2.79-1-2.88-1-2.88,1.14-4.21-.21-6.31-.21-6.31S84.3,29.59,78,29.59c-6.12,0-7.66,4.29-7.66,4.29S69,36,70.13,40.19c0,0-1.67.09-1,2.88,0,0,.23,1.5,1.07,2,0,0,.57,4.93-3.48,6.59,0,0,5,2.31,7.8-.57,0,0,2.69,1.73,3.94,1.5,1.25.23,3.94-1.5,3.94-1.5,2.85,2.88,7.8.57,7.8.57C86.13,50,86.7,45.06,86.7,45.06Z"/><path class="cls-2" d="M78.68,53h-.24c-1.18.15-3.15-1-3.89-1.41-3,2.71-7.81.53-8,.43l-.83-.39.85-.34c3.34-1.37,3.31-5.12,3.25-6a3.74,3.74,0,0,1-1.09-2.15,3.26,3.26,0,0,1,.27-2.7,1.65,1.65,0,0,1,.66-.52c-1-4.08.31-6.16.36-6.25s1.67-4.47,8-4.47,8.8,4.32,8.89,4.5,1.33,2.14.35,6.22a1.65,1.65,0,0,1,.66.52,3.28,3.28,0,0,1,.26,2.73,3.67,3.67,0,0,1-1.08,2.12c-.06.88-.09,4.63,3.25,6l.85.34-.83.39c-.21.1-5,2.28-8-.43A9.06,9.06,0,0,1,78.68,53Zm-4.24-2.43.28.17c1,.64,2.85,1.6,3.65,1.45h.14c.79.15,2.66-.81,3.65-1.45l.27-.17.23.23c2,2,5.06,1.28,6.53.8-3.36-2.05-2.9-6.54-2.89-6.59l0-.2.17-.1a2.73,2.73,0,0,0,.89-1.7,2.6,2.6,0,0,0-.11-2.09.82.82,0,0,0-.55-.33l-.47-.05.12-.46c1.06-3.95-.16-6-.17-6C86.1,33.9,84,30,78,30c-5.74,0-7.22,3.86-7.28,4s-1.27,2.12-.21,6.07l.13.48-.49,0a.82.82,0,0,0-.54.33A2.54,2.54,0,0,0,69.5,43a2.74,2.74,0,0,0,.88,1.73l.18.1,0,.2c0,.05.47,4.54-2.89,6.59,1.47.48,4.58,1.17,6.53-.8Z"/><path class="cls-1" d="M72.66,34.29S68.23,44.54,74.5,51.08c0,0,4.1,4.28,7.88,0a15.31,15.31,0,0,0,3.06-14.32S77.67,39.06,72.66,34.29Z"/><path class="cls-2" d="M78.66,53.38a6.85,6.85,0,0,1-4.45-2c-6.38-6.65-2-17.11-1.92-17.22l.23-.52.41.39c4.79,4.55,12.32,2.4,12.4,2.38l.39-.12.11.39a15.89,15.89,0,0,1-3.16,14.71,5.34,5.34,0,0,1-3.92,2ZM72.82,35c-.77,2.15-3.25,10.38,2,15.82a6.33,6.33,0,0,0,3.95,1.78,4.58,4.58,0,0,0,3.34-1.77,15,15,0,0,0,3.08-13.56C83.52,37.65,77.33,38.81,72.82,35Z"/><path class="cls-5" d="M64.11,75.2l.16-10.93A15.19,15.19,0,0,1,73,50.88s.85,4.72,5.57,4.55c4.22-.15,5.12-4.55,5.12-4.55a14.31,14.31,0,0,1,9.23,13.39L92.77,75.2"/><path class="cls-2" d="M93.17,75.2h-.8l.15-10.92A14,14,0,0,0,84,51.41a5.93,5.93,0,0,1-5.37,4.42,5.77,5.77,0,0,1-5.84-4.38,14.82,14.82,0,0,0-8.07,12.82L64.51,75.2h-.8l.16-10.92a15.67,15.67,0,0,1,9-13.76l.47-.21.09.51c0,.17.83,4.23,4.94,4.23h.22c3.86-.13,4.71-4.06,4.75-4.23l.09-.46.44.16a14.82,14.82,0,0,1,9.5,13.77Z"/><path class="cls-1" d="M51.87,33.43l-1.55-8.78-7.43-.76v0h-.12v0l-7.43.76-1.56,8.78c-3,2.22.65,5.21.65,5.21a12.23,12.23,0,0,0,5.47,5.92,6.34,6.34,0,0,0,6.23-.05,12.07,12.07,0,0,0,5.1-5.87S54.86,35.65,51.87,33.43Z"/><path class="cls-2" d="M43,45.75a6.84,6.84,0,0,1-3.26-.83,12.76,12.76,0,0,1-5.61-6c-.38-.33-1.94-1.8-1.9-3.48a2.87,2.87,0,0,1,1.22-2.19L35,24.29l7.37-.77v-.08l.44,0,.44-.05v.09l7.4.77,1.58,8.92a2.86,2.86,0,0,1,1.21,2.19c0,1.68-1.52,3.15-1.89,3.48a12.6,12.6,0,0,1-5.23,6A6.76,6.76,0,0,1,43,45.75ZM35.68,25l-1.53,8.64-.13.1a2.14,2.14,0,0,0-1,1.66c0,1.48,1.67,2.9,1.68,2.91l.12.15a11.87,11.87,0,0,0,5.3,5.73,6,6,0,0,0,5.83-.05,11.56,11.56,0,0,0,4.93-5.68l.11-.15s1.72-1.44,1.68-2.91a2.12,2.12,0,0,0-1-1.66l-.12-.1L50,25l-7.14-.74h0Z"/><path class="cls-6" d="M52.26,26.21a7.5,7.5,0,0,0-7.5-7.36H40.89a7.49,7.49,0,0,0-7.49,7.36l-.16,8.25.78.93c0-.59.25-5.37.25-5.37s1.9-1.56,1.85-5.66a14.66,14.66,0,0,0,6.71.64,14.69,14.69,0,0,0,6.71-.64c0,4.1,1.85,5.66,1.85,5.66s.2,4.78.24,5.37l.78-.93Z"/><path class="cls-2" d="M51.32,36.39l-.08-1c-.05-.53-.21-4.36-.24-5.22a7.63,7.63,0,0,1-1.86-5.28,16.24,16.24,0,0,1-6.35.47,16.16,16.16,0,0,1-6.28-.47,7.65,7.65,0,0,1-1.85,5.28c0,.86-.19,4.69-.24,5.22l-.08,1-1.5-1.79L33,26.2a7.94,7.94,0,0,1,7.89-7.75h3.87a7.94,7.94,0,0,1,7.9,7.75l.16,8.4ZM33.64,34.32l0,0c.07-1.56.18-4.32.19-4.36v-.17l.14-.12s1.76-1.52,1.71-5.34v-.62l.57.24a14.51,14.51,0,0,0,6.51.61A14.75,14.75,0,0,0,49.38,24l.56-.24v.62c0,3.82,1.69,5.33,1.71,5.34l.13.12V30s.11,2.79.19,4.36l0,0-.15-8.11a7.13,7.13,0,0,0-7.1-7H40.89a7.12,7.12,0,0,0-7.09,7Z"/><path class="cls-7" d="M28.64,74V52.85A7.21,7.21,0,0,1,36,45.64h0l1.38,1.11a9.37,9.37,0,0,0,11.88-.14l1.49-1.26H51a7.21,7.21,0,0,1,7.07,7.21V74"/><path class="cls-2" d="M58.49,74h-.8V52.57A6.84,6.84,0,0,0,51,45.76h-.13L49.5,46.91a9.78,9.78,0,0,1-12.38.15l-1.27-1h0A6.81,6.81,0,0,0,29,52.85V74h-.8V52.85A7.62,7.62,0,0,1,36,45.24h.14l1.48,1.18A9,9,0,0,0,49,46.3L50.59,45H51a7.65,7.65,0,0,1,7.46,7.61Z"/><ellipse class="cls-1" cx="31.02" cy="63.26" rx="6.12" ry="4.39"/><path class="cls-2" d="M31,68.05c-3.6,0-6.53-2.14-6.53-4.79s2.93-4.78,6.53-4.78,6.52,2.14,6.52,4.78S34.61,68.05,31,68.05Zm0-8.78c-3.16,0-5.73,1.79-5.73,4s2.57,4,5.73,4,5.72-1.79,5.72-4S34.17,59.27,31,59.27Z"/><path class="cls-1" d="M52.46,54.82l-1.21,5s0,4.43,3.78,6.19c4.42,2.06,12.66,1.19,11.24-3.57-1.54-5.16.75-10.65.75-10.65Z"/><path class="cls-2" d="M60.25,67.51a13.23,13.23,0,0,1-5.39-1.09c-4-1.84-4-6.36-4-6.55l1.28-5.39L67.68,51.3l-.29.7s-2.22,5.42-.74,10.38a3.2,3.2,0,0,1-1,3.57A8.53,8.53,0,0,1,60.25,67.51ZM51.64,60s.07,4.12,3.56,5.74c3.2,1.48,8,1.31,10-.36a2.44,2.44,0,0,0,.72-2.74,17.77,17.77,0,0,1,.5-10.22l-13.6,2.78L51.64,60Z"/><path class="cls-1" d="M40.46,52.73c0-.5-.2-.82-.52-.84-.87-.06-1-5.84-1-5.84H22.82s.08,6.45-.79,6.5c-.32,0-.61,0-.76.52-.37,1.16.43,2.6,1.3,2.7,0,0,3,8.18,8.56,7.8,4.95.44,8.59-8.39,8.59-8.39A5.77,5.77,0,0,0,40.46,52.73Z"/><path class="cls-2" d="M31.5,64h-.41c-5.26.37-8.29-6.54-8.82-7.86a2,2,0,0,1-1-.85A2.82,2.82,0,0,1,20.88,53a1,1,0,0,1,1-.79c.35-.52.53-3.53.5-6.11v-.4H39.34V46c0,2.33.33,5,.68,5.45a.9.9,0,0,1,.56.31,1.28,1.28,0,0,1,.26,1A5.53,5.53,0,0,1,40.24,55a2.3,2.3,0,0,0-.15.32C39.94,55.7,36.46,64,31.5,64Zm-.4-.81c4.65.4,8.21-8.06,8.25-8.14a4,4,0,0,1,.17-.36,4.76,4.76,0,0,0,.54-2h0a.52.52,0,0,0-.08-.38c-.36,0-1.26-.11-1.42-5.87H23.22c.05,6.43-.83,6.48-1.16,6.5s-.34,0-.41.24a2,2,0,0,0,.27,1.63,1.09,1.09,0,0,0,.69.55l.25,0,.08.23C23,55.71,25.93,63.52,31.1,63.17Z"/><path class="cls-4" d="M23.84,46.76c.17-.16,4.85,4.57,13,.91,0,0,2.86.81,2,6.09l.62.62S39.25,52,39.92,52c0,0,1.57-7.76-5.76-10.76,0,0-5.14-1.61-8,1.72a3.08,3.08,0,0,0-3.05,1.76s-2.33,4.42-.9,8.85l.52.38S22.27,48.29,23.84,46.76Z"/><path class="cls-2" d="M39.93,55.43,38.4,53.9l0-.21c.69-4.25-1.09-5.36-1.59-5.59-4.67,2.06-9,1.79-12.85-.8l-.06,0c-1,1.38-.91,5.21-.79,6.64l.07.88-1.33-1,0-.12c-1.47-4.53.83-9,.93-9.16a3.39,3.39,0,0,1,3.23-2c3-3.3,8.06-1.76,8.28-1.69,7.58,3.1,6,11.14,6,11.22l-.07.32h-.32a6.82,6.82,0,0,0-.08,1.94Zm-14-12.08a2.6,2.6,0,0,0-2.45,1.53A13.12,13.12,0,0,0,22.27,52c0-1.87.2-4.49,1.29-5.54h0c.25-.25.51-.08.87.16,3.66,2.45,7.77,2.67,12.23.66l.13-.06.14,0c.12,0,2.44.74,2.45,4.58l0,0a.53.53,0,0,1,.14-.12c.2-1.27.79-7.49-5.55-10.09,0,0-4.89-1.48-7.54,1.61l-.14.16-.21,0Z"/><path class="cls-8" d="M42.66,75.2V66.4a4.6,4.6,0,0,0-4.6-4.61H37c.08.23-2.67,4.13-6.12,4.13s-6.21-3.9-6.12-4.13h0c-2.54,0-5.6,2.06-5.6,4.61v8.8"/><path class="cls-2" d="M43.06,75.2h-.8V66.4a4.21,4.21,0,0,0-4.2-4.21h-.84a2.9,2.9,0,0,1-.21.34c-1,1.41-3.37,3.79-6.18,3.79s-5.21-2.38-6.18-3.79a2.87,2.87,0,0,1-.21-.33c-2.28.14-4.93,2-4.93,4.2v8.8h-.8V66.4c0-2.77,3.28-5,6-5h.58l-.16.42c.36.67,2.79,3.71,5.7,3.71s5.34-3,5.69-3.71l-.15-.42h1.69a5,5,0,0,1,5,5Z"/><path class="cls-1" d="M69.64,49.67c0-.58-.22-1-.59-1-1-.06-1.15-6.73-1.15-6.73S62,36.8,59.5,36.85C54.93,37,49.31,42,49.31,42s.09,7.44-.91,7.5c-.37,0-.71,0-.88.6-.43,1.34,1,2.18,2,2.3,0,0,3,10.25,9.38,9.81,5.71.51,9.9-9.68,9.9-9.68A6.53,6.53,0,0,0,69.64,49.67Z"/><path class="cls-2" d="M59.31,62.58a3.62,3.62,0,0,1-.46,0c-6.12.43-9.13-8.23-9.64-9.85a3,3,0,0,1-1.87-1.19,1.83,1.83,0,0,1-.21-1.58,1.18,1.18,0,0,1,1.24-.88c.35-.37.58-4,.54-7.09v-.18l.13-.12c.24-.21,5.78-5.11,10.45-5.22h0c2.56,0,8,4.68,8.63,5.21l.13.12V42c.06,2.79.41,6,.84,6.36a.77.77,0,0,1,.61.31A1.44,1.44,0,0,1,70,49.7h0a6.06,6.06,0,0,1-.71,2.58c-.06.13-.12.25-.17.37C69,53.06,65,62.58,59.31,62.58Zm-.45-.81c5.39.47,9.52-9.33,9.56-9.43l.2-.41a5.7,5.7,0,0,0,.63-2.3h0a.61.61,0,0,0-.11-.47.19.19,0,0,0-.12-.07c-.89-.05-1.4-2.39-1.51-6.94-1.72-1.47-6.11-4.9-8-4.9h0c-4,.09-8.92,4.15-9.8,4.9.08,7.63-1,7.69-1.29,7.71s-.43,0-.52.32a1,1,0,0,0,.11.91,2.29,2.29,0,0,0,1.55.87l.26,0,.08.25C49.93,52.34,52.84,62.18,58.86,61.77Z"/><path class="cls-9" d="M51.41,44c.1-.09-.82-3.75,2.62-4.78,3.84-1.14,13.56-2.41,12.79,5.6,0,0,1.93-.1.94,6l.71.72s-.21-2.75.55-2.75c0,0,1.81-8.94-6.64-12.4,0,0-5.92-1.86-9.21,2a6.77,6.77,0,0,0-3.71,3.17,20.74,20.74,0,0,0-.85,9.06l.61.44S49.6,45.79,51.41,44Z"/><path class="cls-2" d="M69,52.62,67.33,51l0-.2c.58-3.62.11-4.87-.23-5.3-.17-.22-.32-.23-.33-.23l-.46,0,.07-.46a5,5,0,0,0-1.53-4.59c-2.66-2.19-8-1.4-10.74-.58s-2.42,3.29-2.34,4.11c0,.26,0,.42-.12.57C50,46,49.62,51.05,49.62,51.1l-.06.72-1.31-1,0-.16a20.83,20.83,0,0,1,.87-9.26,7,7,0,0,1,3.85-3.38c3.43-3.89,9.31-2.1,9.56-2,8.69,3.55,6.93,12.77,6.92,12.86l-.07.32H69a6.18,6.18,0,0,0-.15,2.31ZM59.11,36.38a7.21,7.21,0,0,0-5.64,2.28l-.07.08-.11,0a6.39,6.39,0,0,0-3.46,3,20.81,20.81,0,0,0-.9,8.26c.21-1.62.77-4.7,2.08-6.12v-.05c-.23-2.64.75-4.31,2.91-4.95,2.89-.86,8.56-1.67,11.48.74a5.55,5.55,0,0,1,1.84,4.94,1.47,1.47,0,0,1,.46.35c.6.67.84,2,.71,3.85a.73.73,0,0,1,.08-.09.63.63,0,0,1,.18-.15c.22-1.41,1-8.7-6.44-11.73A12.16,12.16,0,0,0,59.11,36.38Z"/><path class="cls-10" d="M74.54,75.2V66.32a6.54,6.54,0,0,0-6.14-6.47l-2.63-.31c.11.28-2.24,5-6.77,5s-8.15-5-8-5.25h0c-3.33,0-7.64,4.18-7.64,7.42l.29,8.47"/><path class="cls-2" d="M43.21,75.21l-.29-8.47c0-3.44,4.51-7.83,8-7.83h.59l-.17.42c.4.8,3.68,4.83,7.62,4.83s6.16-4,6.36-4.57l-.21-.53,3.29.39a6.93,6.93,0,0,1,6.5,6.87V75.2h-.8V66.32a6.13,6.13,0,0,0-5.78-6.07L66.06,60a6.86,6.86,0,0,1-.71,1.29A8,8,0,0,1,59,65c-3.76,0-6.93-3.19-8.09-4.88-.09-.14-.17-.26-.22-.36-3.08.23-7,4.08-7,7L44,75.18Z"/><path class="cls-2" d="M56.13,56.26a4,4,0,0,0,4.64.87l1.35-.83S58.13,57.39,56.13,56.26Z"/><path class="cls-11" d="M59.1,55.24a1.28,1.28,0,0,0-.22.18,1.89,1.89,0,0,0-.22-.18c-1.56-.72-5.77,1.39-5.77,1.39l.82,0c1.43-.26,2.86.31,4,.23a2.33,2.33,0,0,0,.41-.07,2.45,2.45,0,0,1,1.42,0,2.18,2.18,0,0,0,.41.07c1.18.08,2.61-.49,4-.23l.82,0S60.65,54.52,59.1,55.24Z"/></svg>