<?xml version="1.0" encoding="utf-8"?>
<!-- Generator: Adobe Illustrator 19.0.1, SVG Export Plug-In . SVG Version: 6.00 Build 0)  -->
<svg version="1.1" id="Layer_1" xmlns="http://www.w3.org/2000/svg" xmlns:xlink="http://www.w3.org/1999/xlink" x="0px" y="0px"
	 viewBox="0 0 128 128" style="enable-background:new 0 0 128 128;" xml:space="preserve">
<style type="text/css">
	.st0{fill:#303C42;}
	.st1{fill:none;stroke:#303C42;stroke-width:4;stroke-linecap:round;stroke-linejoin:round;stroke-miterlimit:10;}
	.st2{fill:none;stroke:#303C42;stroke-width:2;stroke-linecap:round;stroke-linejoin:round;stroke-miterlimit:10;}
</style>
<g>
	<g>
		<path class="st0" d="M63.3,105.8c-23,0-41.8-18.7-41.8-41.8c0-23,18.7-41.8,41.8-41.8S105.1,41,105.1,64
			C105.1,87,86.3,105.8,63.3,105.8z M63.3,26.2c-20.8,0-37.8,16.9-37.8,37.8c0,20.8,16.9,37.8,37.8,37.8c20.8,0,37.8-16.9,37.8-37.8
			C101.1,43.2,84.1,26.2,63.3,26.2z"/>
	</g>
	<g>
		<path class="st0" d="M63.3,88.1C50,88.1,39.2,77.3,39.2,64S50,39.9,63.3,39.9c13.3,0,24.1,10.8,24.1,24.1S76.6,88.1,63.3,88.1z
			 M63.3,41.9c-12.2,0-22.1,9.9-22.1,22.1c0,12.2,9.9,22.1,22.1,22.1c12.2,0,22.1-9.9,22.1-22.1C85.4,51.8,75.5,41.9,63.3,41.9z"/>
	</g>
	<g>
		<path class="st0" d="M115,102.2c-1.7,0-3.4-0.7-4.6-2c-1.2-1.3-1.8-3-1.7-4.7l1.7-40.6c0-1.1,0.9-1.9,2-1.9h5.3c1.1,0,2,0.8,2,1.9
			l1.7,40.6c0.1,1.7-0.5,3.4-1.7,4.7C118.4,101.5,116.7,102.2,115,102.2z M114.2,57l-1.6,38.7c0,0.7,0.2,1.3,0.6,1.8
			c0.9,0.9,2.5,0.9,3.4,0c0.4-0.5,0.7-1.1,0.6-1.7L115.7,57H114.2z"/>
	</g>
	<g>
		<path class="st0" d="M115,57c-6.9,0-12.5-5.6-12.5-12.5V27.8c0-1.1,0.9-2,2-2s2,0.9,2,2v16.7c0,4.7,3.8,8.5,8.5,8.5
			c4.7,0,8.5-3.8,8.5-8.5V27.8c0-1.1,0.9-2,2-2s2,0.9,2,2v16.7C127.5,51.4,121.9,57,115,57z"/>
	</g>
	<g>
		<path class="st0" d="M115,57c-1.1,0-2-0.9-2-2V27.8c0-1.1,0.9-2,2-2c1.1,0,2,0.9,2,2V55C117,56.1,116.1,57,115,57z"/>
	</g>
	<g>
		<path class="st0" d="M14.5,80.5h-12c-1.1,0-2-0.9-2-2l0-0.9C0.4,50.6,3.3,34,9,28.2c1.6-1.6,3.5-2.4,5.5-2.4c1.1,0,2,0.9,2,2v50.7
			C16.5,79.6,15.6,80.5,14.5,80.5z M4.5,76.5h8v-46c-0.2,0.2-0.4,0.4-0.7,0.6C9.1,33.8,4.5,43.4,4.5,76.5z"/>
	</g>
	<g>
		<path class="st0" d="M10.8,102.2c-1.7,0-3.4-0.7-4.6-2c-1.2-1.3-1.8-3-1.7-4.7l0.7-17.1c0-1.1,0.9-1.9,2-1.9h7.3
			c1.1,0,2,0.8,2,1.9l0.7,17.1c0.1,1.7-0.5,3.4-1.7,4.7C14.3,101.5,12.6,102.2,10.8,102.2z M9.1,80.5L8.5,95.7
			c0,0.7,0.2,1.3,0.6,1.8c0.9,0.9,2.5,0.9,3.4,0c0.4-0.5,0.7-1.1,0.6-1.7c0,0,0,0,0,0l-0.6-15.2H9.1z"/>
	</g>
</g>
</svg>
