<svg id="Layer_1" data-name="Layer 1" xmlns="http://www.w3.org/2000/svg" viewBox="0 0 94 94"><defs><style>.cls-1{fill:#ff8f69;}.cls-2{fill:#fff;}.cls-3{fill:#181818;}.cls-4{fill:#ffbe00;}.cls-5{fill:#48abcc;}</style></defs><title>Artboard 1 copy 3</title><circle class="cls-1" cx="49.37" cy="54.51" r="34.09"/><path class="cls-2" d="M19.78,62.86s28.17,19.46,55.63-1c.22-.75,6.06-18.64,6.06-18.64L16.37,53Z"/><path class="cls-3" d="M48,71.55a55.49,55.49,0,0,1-28.46-8.36l-.1-.07L15.83,52.7l.48-.07L82.05,42.7l-.2.62c-.06.17-5.84,17.89-6.06,18.62l0,.13-.11.08A45.35,45.35,0,0,1,48,71.55ZM20.11,62.6c1.92,1.26,28.93,18.31,55-1,.49-1.59,4.81-14.82,5.82-17.91l-64,9.66Z"/><path class="cls-4" d="M48,4.51A44.17,44.17,0,1,0,92.12,48.68,44.18,44.18,0,0,0,48,4.51ZM46.61,83.88A29.59,29.59,0,0,1,18.74,58c0-.07,0-.14,0-.21-.16-1.37,11.31,7.81,29.15,8.33,20.28.59,29.32-12.52,29.32-11.52A29.33,29.33,0,0,1,46.61,83.88Z"/><path class="cls-3" d="M48,93.25A44.57,44.57,0,1,1,92.52,48.68,44.62,44.62,0,0,1,48,93.25ZM48,4.91A43.77,43.77,0,1,0,91.72,48.68,43.83,43.83,0,0,0,48,4.91ZM47.88,84.3q-.65,0-1.29,0A30.1,30.1,0,0,1,18.35,58l0-.22a.51.51,0,0,1,.21-.49c.38-.26.9,0,2.84,1,4.11,2.1,13.74,7,26.51,7.39C64.27,66.16,73.1,57.74,76,55c.82-.78,1-1,1.34-.83l.24.1,0,.32A29.74,29.74,0,0,1,47.88,84.3ZM19.17,58.12A29.31,29.31,0,0,0,46.63,83.48h0A28.93,28.93,0,0,0,76.78,55.33l-.24.22A38.43,38.43,0,0,1,47.85,66.49C34.91,66.11,25.16,61.14,21,59,20.27,58.64,19.58,58.29,19.17,58.12Z"/><polygon class="cls-5" points="84.27 48.31 72.28 44.72 62.53 52.56 62.24 40.05 51.78 33.2 63.58 29.06 66.87 16.99 74.45 26.94 86.95 26.33 79.83 36.62 84.27 48.31"/><path class="cls-3" d="M62.53,53a.47.47,0,0,1-.17,0,.38.38,0,0,1-.23-.35l-.28-12.3L51.56,33.53a.39.39,0,0,1-.18-.38.41.41,0,0,1,.26-.33l11.61-4.07,3.23-11.87a.4.4,0,0,1,.31-.29.44.44,0,0,1,.4.15l7.45,9.79,12.29-.6a.39.39,0,0,1,.37.21.42.42,0,0,1,0,.42l-7,10.11,4.36,11.5a.43.43,0,0,1-.08.42.42.42,0,0,1-.41.11L72.37,45.17l-9.59,7.7A.38.38,0,0,1,62.53,53ZM52.67,33.3l9.79,6.42a.38.38,0,0,1,.18.32l.27,11.7L72,44.41a.41.41,0,0,1,.37-.07L83.6,47.7,79.45,36.76a.41.41,0,0,1,0-.37l6.66-9.62-11.69.57a.43.43,0,0,1-.34-.16L67,17.87,64,29.16a.44.44,0,0,1-.25.28Z"/><polygon class="cls-5" points="11.64 48.31 23.63 44.72 33.38 52.56 33.66 40.05 44.13 33.2 32.32 29.06 29.04 16.99 21.46 26.94 8.96 26.33 16.08 36.62 11.64 48.31"/><path class="cls-3" d="M33.38,53a.38.38,0,0,1-.25-.09l-9.59-7.7L11.76,48.7a.4.4,0,0,1-.49-.53l4.36-11.5-7-10.11a.4.4,0,0,1,0-.42A.39.39,0,0,1,9,25.93l12.29.6,7.45-9.79a.43.43,0,0,1,.4-.15.37.37,0,0,1,.3.29l3.23,11.87,11.61,4.07a.4.4,0,0,1,.27.33.39.39,0,0,1-.18.38L34.06,40.27l-.28,12.3a.42.42,0,0,1-.23.35A.53.53,0,0,1,33.38,53Zm-9.75-8.64a.43.43,0,0,1,.25.09L33,51.74,33.27,40a.38.38,0,0,1,.18-.32l9.78-6.42-11-3.86a.41.41,0,0,1-.25-.28L28.87,17.87l-7.1,9.31a.41.41,0,0,1-.33.16L9.75,26.77l6.66,9.62a.41.41,0,0,1,0,.37L12.3,47.7l11.21-3.36Z"/><path class="cls-2" d="M63.28,12.67a.45.45,0,0,1-.16,0,40.64,40.64,0,0,0-24.47-2.35.41.41,0,0,1-.48-.31.4.4,0,0,1,.31-.47,41.47,41.47,0,0,1,25,2.39.4.4,0,0,1-.15.77Z"/><path class="cls-2" d="M32.76,12.18a.4.4,0,0,1-.35-.21.39.39,0,0,1,.15-.54,12.42,12.42,0,0,1,3.59-1.25.4.4,0,1,1,.12.79A11.69,11.69,0,0,0,33,12.13.45.45,0,0,1,32.76,12.18Z"/></svg>