<?xml version="1.0" encoding="utf-8"?>
<!-- Generator: Adobe Illustrator 18.1.1, SVG Export Plug-In . SVG Version: 6.00 Build 0)  -->
<svg version="1.1" id="Layer_1" xmlns="http://www.w3.org/2000/svg" xmlns:xlink="http://www.w3.org/1999/xlink" x="0px" y="0px"
	 viewBox="0 0 128 128" enable-background="new 0 0 128 128" xml:space="preserve">
<g>
	<g>
		<path fill="#303C42" d="M56,25.3c-6.8,0-12.4-5.6-12.4-12.4S49.1,0.5,56,0.5s12.4,5.6,12.4,12.4S62.8,25.3,56,25.3z M56,4.5
			c-4.6,0-8.4,3.8-8.4,8.4s3.8,8.4,8.4,8.4s8.4-3.8,8.4-8.4S60.6,4.5,56,4.5z"/>
	</g>
	<g>
		<path fill="#303C42" d="M111.9,127.5c-18.8,0-34.6-9.5-45.5-27.5c-5.7-9.4-8.6-18.6-9.9-23.3H42.9c-0.1,0-0.3,0-0.4,0h-9.8v42.3
			c0,4.3-3.5,7.8-7.8,7.8c-4.3,0-7.8-3.5-7.8-7.8V68.8c0-4.3,3.5-7.8,7.8-7.8h16V42.4c0-8.3,6.8-15.1,15.1-15.1S71,34.1,71,42.4
			v28.1c0,0,0,0.1,0,0.1c0,0.1,2.3,11,8.7,21.5c8.1,13.1,18.9,19.8,32.1,19.8c4.3,0,7.8,3.5,7.8,7.8S116.2,127.5,111.9,127.5z
			 M43.3,72.6h14.8c0.9,0,1.7,0.6,1.9,1.5c0.9,3.8,3.7,13.7,9.8,23.7c10.2,16.7,24.8,25.6,42.1,25.6c2.1,0,3.8-1.7,3.8-3.8
			s-1.7-3.8-3.8-3.8c-14.7,0-26.6-7.3-35.5-21.7c-6.9-11.2-9.2-22.7-9.3-22.8c0,0,0-0.2,0-0.2c0-0.2-0.1-0.3-0.1-0.5V42.4
			c0-6.1-5-11.1-11.1-11.1s-11.1,5-11.1,11.1V63c0,1.1-0.9,2-2,2h-18c-2.1,0-3.8,1.7-3.8,3.8v50.1c0,2.1,1.7,3.8,3.8,3.8
			s3.8-1.7,3.8-3.8V74.6c0-1.1,0.9-2,2-2h12.2C43,72.6,43.2,72.6,43.3,72.6z"/>
	</g>
	<g>
		<path fill="#303C42" d="M43.1,42H15.3c-3.8,0-7-3.1-7-7c0-3.8,3.1-7,7-7h36.5c1,0,1.8,0.7,2,1.7c0.2,1-0.4,1.9-1.3,2.2
			c-3.8,1.3-6.6,4.5-7.3,8.4C44.9,41.3,44.1,42,43.1,42z M15.3,32c-1.6,0-3,1.3-3,3c0,1.6,1.3,3,3,3h26.3c0.7-2.2,1.9-4.3,3.5-5.9
			H15.3z"/>
	</g>
	<g>
		<path fill="#303C42" d="M96.7,42H68.8c-1,0-1.8-0.7-2-1.6c-0.7-3.9-3.5-7.1-7.3-8.4c-0.9-0.3-1.5-1.3-1.3-2.2c0.2-1,1-1.7,2-1.7
			h36.5c3.8,0,7,3.1,7,7C103.6,38.8,100.5,42,96.7,42z M70.4,38h26.3c1.6,0,3-1.3,3-3c0-1.6-1.3-3-3-3H66.9
			C68.5,33.7,69.7,35.7,70.4,38z"/>
	</g>
</g>
</svg>
