<svg id="Layer_1" data-name="Layer 1" xmlns="http://www.w3.org/2000/svg" viewBox="0 0 94 94"><defs><style>.cls-1{fill:#ccc;}.cls-2{fill:#181818;}.cls-3{fill:#ffc78e;}.cls-4{fill:#48abcc;}.cls-5{fill:#ff8f69;}</style></defs><title>Artboard 1</title><path class="cls-1" d="M55.54,5.6l-.15-.46a4,4,0,0,0-7.55,2.57l.68,2"/><path class="cls-2" d="M48.14,9.84l-.68-2a4.33,4.33,0,0,1,.22-3.35A4.3,4.3,0,0,1,50.2,2.28,4.38,4.38,0,0,1,55.77,5l.15.45-.75.26L55,5.27a3.59,3.59,0,1,0-6.79,2.31l.68,2Z"/><path class="cls-3" d="M54.6,22.53a7,7,0,0,0,7-7V12.79a7,7,0,1,0-14,0v2.76A7,7,0,0,0,54.6,22.53Z"/><path class="cls-2" d="M54.6,22.93a7.39,7.39,0,0,1-7.38-7.38V12.79a7.38,7.38,0,1,1,14.76,0v2.76A7.39,7.39,0,0,1,54.6,22.93Zm0-16.72A6.59,6.59,0,0,0,48,12.79v2.76a6.58,6.58,0,1,0,13.16,0V12.79A6.59,6.59,0,0,0,54.6,6.21Z"/><path class="cls-4" d="M54.18,23.13l-3.5-1.74-22-19.84H20.2l20,20.31A3.43,3.43,0,0,1,40.69,26L36.77,32.5a8.68,8.68,0,0,1-13.89,1.31L17.1,27.38l5.61-14.52A10.45,10.45,0,0,0,20.2,1.55L9.36,25.05a6.1,6.1,0,0,0,.49,6L21.27,47.8l3.54,41.52A5.12,5.12,0,0,0,29.91,94h6.17l-4.21-7.53V57.57A9,9,0,0,1,38.17,49,27.92,27.92,0,0,0,55,34.44l1.77-3.66A5.78,5.78,0,0,0,54.18,23.13Z"/><path class="cls-2" d="M36.08,94.4H29.91a5.48,5.48,0,0,1-5.49-5.05L20.88,47.94,9.52,31.23A6.53,6.53,0,0,1,9,24.89L19.84,1.38A.4.4,0,0,1,20,1.22h0l0,0h0a.42.42,0,0,1,.16,0h8.48a.39.39,0,0,1,.27.1l22,19.8,3.46,1.72h0A6.15,6.15,0,0,1,57.12,31l-1.77,3.66A28.41,28.41,0,0,1,38.29,49.38a8.54,8.54,0,0,0-6,8.19v28.8l4.16,7.43a.41.41,0,0,1,0,.4A.42.42,0,0,1,36.08,94.4ZM20.32,2.24l-10.59,23a5.67,5.67,0,0,0,.46,5.56L21.6,47.57a.44.44,0,0,1,.07.19l3.54,41.52a4.69,4.69,0,0,0,4.7,4.32H35.4l-3.88-6.93a.46.46,0,0,1-.05-.2V57.57a9.35,9.35,0,0,1,6.58-9A27.65,27.65,0,0,0,54.63,34.27L56.4,30.6A5.41,5.41,0,0,0,54,23.48l-3.5-1.73-.09-.07L28.51,2H21.16L40.49,21.58A3.82,3.82,0,0,1,41,26.25l-3.92,6.46a9.08,9.08,0,0,1-14.53,1.36L16.8,27.65a.41.41,0,0,1-.08-.41l5.61-14.53A10,10,0,0,0,20.32,2.24ZM17.56,27.3l5.61,6.24a8.29,8.29,0,0,0,13.26-1.25l3.92-6.46a3,3,0,0,0-.43-3.69L23,5a10.79,10.79,0,0,1,.08,8Z"/><path class="cls-5" d="M33.27,35.75c.87-.51,1.53-1,3.5-3.25L40.69,26a3.43,3.43,0,0,0-.49-4.18L20.2,1.55h8.46l22,19.84,3.5,1.74a5.78,5.78,0,0,1,2.58,7.65L55,34.44A27.92,27.92,0,0,1,38.17,49Z"/><path class="cls-2" d="M37.92,49.49,32.78,35.57l.29-.17c.8-.47,1.43-.92,3.4-3.16l3.88-6.41a3,3,0,0,0-.43-3.69l-20.67-21h9.56L50.9,21.05l3.46,1.72A6.22,6.22,0,0,1,57.12,31l-1.77,3.66A28.46,28.46,0,0,1,38.29,49.38ZM33.76,35.92,38.41,48.5A27.64,27.64,0,0,0,54.63,34.27L56.4,30.6A5.41,5.41,0,0,0,54,23.48l-3.59-1.8L28.51,2H21.16L40.49,21.58A3.82,3.82,0,0,1,41,26.25l-3.92,6.46A15.14,15.14,0,0,1,33.76,35.92Z"/><path class="cls-5" d="M56.36,31.59l14-5.18a5.13,5.13,0,0,0,3.29-4.07L75.39,10A7.56,7.56,0,0,0,69.5,1.55L66.93,19.71,55.21,24.57"/><path class="cls-2" d="M56.5,32l-.28-.75,14-5.18a4.76,4.76,0,0,0,3-3.76L75,10A7.2,7.2,0,0,0,69.83,2L67.3,20l-11.93,5-.31-.74,11.51-4.77L69.16,1.07l.42.09a8,8,0,0,1,6.21,8.92L74,22.39a5.54,5.54,0,0,1-3.55,4.4Z"/><line class="cls-1" x1="26.18" y1="65.79" x2="26.78" y2="79.55"/><path class="cls-2" d="M26.78,80a.4.4,0,0,1-.4-.38l-.6-13.76a.4.4,0,0,1,.39-.42.38.38,0,0,1,.41.38l.6,13.76a.41.41,0,0,1-.39.42Z"/><line class="cls-1" x1="25.82" y1="57.37" x2="26.01" y2="61.87"/><path class="cls-2" d="M26,62.27a.41.41,0,0,1-.4-.39l-.19-4.5a.4.4,0,0,1,.8,0l.19,4.5a.4.4,0,0,1-.38.42Z"/></svg>