<svg id="Layer_1" data-name="Layer 1" xmlns="http://www.w3.org/2000/svg" viewBox="0 0 94 94"><defs><style>.cls-1{fill:#ffc78e;}.cls-2{fill:#181818;}.cls-3{fill:#48abcc;}.cls-4{fill:#ff8f69;}</style></defs><title>Artboard 1 copy 4</title><path class="cls-1" d="M45.62,74.76c10.86,2.2,26.11,2.6,33.29-2.27,3-2,.94-25.95.94-25.95s2.05-11.27-8.47-12.29c-9-.89-9.38-8-9.29-10.23a8.09,8.09,0,0,1-5.76,2.49,7.87,7.87,0,0,1-4.43-1.38,9,9,0,0,1-1-.83c0,2.58-.59,9.1-9.29,10-10.53,1-8.48,12.29-8.48,12.29S32.19,67.25,26.41,71l-9,10.08a6.09,6.09,0,0,0-1,1.44c-.66,1.23-4.92,0-5.87.51-.76.45-.65,1.58,1.36,1.85.89.12-5.08,2.09-4.5,3.69,1.05,2.92,10.51,1.27,12.16-2.38.18-.39.86-.27,1.35-.46.33-.13,1.08-.68,1.55-.93,3.78-2.08,13.44-10.46,13.9-11a6.69,6.69,0,0,0,.86-1.44m1.14-3.15A73.16,73.16,0,0,0,40.79,52s3.5-3.69,3-10.88l.9,1a17.18,17.18,0,0,0,24.78,1.42c-.51,7.18,1.07,22.19,1.07,22.19C62,68.85,46.2,68.81,38.38,69.18Z"/><path class="cls-2" d="M11,90.44h-.41c-1.91-.08-3.17-.7-3.55-1.76-.5-1.36,1.9-2.57,3.66-3.45l.31-.16c-1-.33-1.21-.9-1.27-1.17a1.16,1.16,0,0,1,.61-1.23A5.08,5.08,0,0,1,13,82.55c1.13.09,2.84.24,3.1-.25a6.43,6.43,0,0,1,1.1-1.55l8.94-10,.08-.07c5.54-3.56,6.49-23.9,6.5-24.11s-1-5.4,1.88-9.16a9.44,9.44,0,0,1,7-3.51c7.88-.77,9-6.31,8.93-9.54a.4.4,0,0,1,.23-.38.42.42,0,0,1,.44.08,9.79,9.79,0,0,0,1,.79,7.48,7.48,0,0,0,4.21,1.31,7.71,7.71,0,0,0,5.47-2.37.42.42,0,0,1,.45-.09.4.4,0,0,1,.23.39c-.1,2.67.55,9,8.93,9.81a9.42,9.42,0,0,1,7,3.51c2.72,3.6,2,8.59,1.89,9.2.23,2.7,1.93,24.18-1.12,26.26-7.11,4.83-22.4,4.6-33.59,2.33a.41.41,0,0,1-.31-.47.39.39,0,0,1,.47-.31c11,2.23,26.06,2.49,33-2.21,2-1.38,1.54-16.43.77-25.59a.34.34,0,0,1,0-.1s.89-5.16-1.73-8.63a8.64,8.64,0,0,0-6.38-3.19c-8.2-.81-9.56-6.5-9.66-9.72a8.39,8.39,0,0,1-5.35,2,8.27,8.27,0,0,1-4.66-1.45l-.43-.31c-.16,3.13-1.59,8.71-9.64,9.5a8.66,8.66,0,0,0-6.39,3.19c-2.62,3.47-1.74,8.58-1.73,8.63,0,.94-1,20.94-6.81,24.8l-8.94,10a5.91,5.91,0,0,0-.95,1.37c-.51.95-2.23.8-3.88.66a6.44,6.44,0,0,0-2.14,0c-.18.11-.26.25-.23.39s.46.59,1.44.72a.46.46,0,0,1,.43.38c.07.39-.23.54-1.34,1.1S7.54,87.7,7.79,88.4s1.29,1.17,2.83,1.23c3.21.12,7.58-1.4,8.59-3.64a1.21,1.21,0,0,1,1.08-.56,3,3,0,0,0,.49-.1,8.19,8.19,0,0,0,.74-.45c.27-.17.55-.35.77-.46C26,82.36,35.62,74,36.07,73.51a6.37,6.37,0,0,0,.8-1.35.4.4,0,0,1,.73.34A7.22,7.22,0,0,1,36.68,74c-.46.54-10.2,9-14,11.09-.21.11-.46.27-.71.43a5.9,5.9,0,0,1-.89.52,2.8,2.8,0,0,1-.67.15,1.34,1.34,0,0,0-.46.11C18.81,88.81,14.43,90.44,11,90.44ZM38.37,69.58a.42.42,0,0,1-.31-.15.4.4,0,0,1-.07-.36A71.29,71.29,0,0,0,40.39,52a.43.43,0,0,1,.1-.27S43.87,48,43.38,41.12a.38.38,0,0,1,.24-.4.4.4,0,0,1,.46.11l.9,1.05a16.78,16.78,0,0,0,24.2,1.39.4.4,0,0,1,.45-.07.38.38,0,0,1,.22.39c-.5,7.06,1.06,22,1.07,22.12a.41.41,0,0,1-.26.42c-7.2,2.6-19.59,3-27.79,3.28-1.66.06-3.18.11-4.48.17Zm2.81-17.45a73.47,73.47,0,0,1-2.27,16.62l3.94-.14c8-.26,20.12-.66,27.25-3.13-.22-2.1-1.39-14.18-1.1-21A17.57,17.57,0,0,1,44.37,42.4l-.15-.17C44.31,48.16,41.75,51.47,41.18,52.13Z"/><path class="cls-3" d="M40.85,34.33l.94,2.41a14,14,0,0,1,0,10.34A46,46,0,0,0,40,51.75c0,.62,1.16,9.86,1.93,14.1s-8.17,22-8.17,22,13.73,1.36,21,1.49c6.77.12,20-1.53,20-1.53S67.35,73.94,67.74,68A14.37,14.37,0,0,1,68.26,65c1.3-4.65,4.49-8.43,4.49-10.35,0-2.31-1.51-9-1.72-11.51,0-.58.83-8.87.83-8.87l-1.23-.15s-1.35,9.16-3.08,10.13-16,6.55-22.15-2.51l-3.23-7.6Z"/><path class="cls-2" d="M55.52,89.79h-.73c-7.24-.13-20.93-1.48-21.07-1.5a.39.39,0,0,1-.31-.2.4.4,0,0,1,0-.37c.09-.18,8.87-17.73,8.14-21.79C40.77,61.7,39.6,52.4,39.6,51.75c0-.15,0-.44,1.78-4.82a13.51,13.51,0,0,0,0-10l-.94-2.41a.39.39,0,0,1,0-.35.37.37,0,0,1,.29-.19l1.32-.16a.38.38,0,0,1,.42.24l3.23,7.6c5.76,8.45,19.33,3.56,21.58,2.31,1.14-.63,2.38-6.37,2.89-9.83a.39.39,0,0,1,.44-.34l1.23.14a.41.41,0,0,1,.35.44c-.34,3.18-.86,8.37-.83,8.8.09,1.09.42,3,.78,5a51.63,51.63,0,0,1,.94,6.59c0,1-.75,2.39-1.69,4.13a31,31,0,0,0-2.82,6.33,14.33,14.33,0,0,0-.5,2.86c-.37,5.78,7,19.52,7,19.66a.41.41,0,0,1-.3.59C74.73,88.26,62.42,89.79,55.52,89.79ZM34.38,87.54c2.68.26,14.07,1.33,20.42,1.44,5.86.13,16.76-1.15,19.38-1.46C72.82,84.91,67,73.37,67.34,67.94a14.64,14.64,0,0,1,.53-3,31.86,31.86,0,0,1,2.88-6.49c.86-1.57,1.6-2.93,1.6-3.75a50.76,50.76,0,0,0-.93-6.45c-.36-2-.7-3.89-.79-5,0-.54.58-6.56.79-8.55l-.45,0c-.34,2.17-1.53,9.09-3.23,10C65.39,45.94,51.2,51,45.07,42l-3.15-7.39-.51.06.75,1.92a14.29,14.29,0,0,1,0,10.64,43.66,43.66,0,0,0-1.72,4.54c0,.51,1.12,9.59,1.92,14C43,69.73,35.88,84.51,34.38,87.54Z"/><path class="cls-1" d="M65.86,17a8.84,8.84,0,0,0-.8-1.66v.13a10.65,10.65,0,0,1-3,7.52,8.09,8.09,0,0,1-5.76,2.49,7.87,7.87,0,0,1-4.43-1.38,9,9,0,0,1-1-.83,10.31,10.31,0,0,1-3.08-5.87l-1.57,5,.45-7.85c.66-5.36,3.06-7.91,5.71-9a4.18,4.18,0,0,1,8.15-.33,4.27,4.27,0,0,1,.45.13C68.54,8.43,65.86,17,65.86,17Z"/><path class="cls-2" d="M56.33,25.91a8.27,8.27,0,0,1-4.66-1.45,9.44,9.44,0,0,1-1.09-.87,10.51,10.51,0,0,1-2.86-4.65l-1.13,3.62a.4.4,0,0,1-.46.27.38.38,0,0,1-.32-.41l.45-7.85c.57-4.7,2.5-7.82,5.73-9.3a4.61,4.61,0,0,1,8.87-.38l.25.07c7.83,3.2,5.16,12.1,5.13,12.19a.41.41,0,0,1-.37.28.4.4,0,0,1-.39-.26,2.33,2.33,0,0,0-.11-.28,10.92,10.92,0,0,1-3,6.41A8.53,8.53,0,0,1,56.33,25.91ZM47.77,17h0a.39.39,0,0,1,.37.33,9.92,9.92,0,0,0,3,5.64,8.59,8.59,0,0,0,1,.8,7.48,7.48,0,0,0,4.21,1.31,7.71,7.71,0,0,0,5.47-2.37,10.31,10.31,0,0,0,2.85-7.24v-.13a.41.41,0,0,1,.29-.39.42.42,0,0,1,.45.18c.12.19.24.39.35.6.42-2.37.68-7.76-4.93-10h0s-.14,0-.39-.11a.41.41,0,0,1-.3-.33,3.79,3.79,0,0,0-7.36.3.39.39,0,0,1-.24.34c-3.08,1.32-4.92,4.26-5.47,8.73l-.26,4.6.6-1.93A.41.41,0,0,1,47.77,17Z"/><circle class="cls-4" cx="30.23" cy="74.2" r="0.69"/><circle class="cls-4" cx="32.18" cy="72.82" r="0.69"/><circle class="cls-4" cx="36.78" cy="63.83" r="0.69"/><circle class="cls-4" cx="34.93" cy="72.5" r="0.69"/><circle class="cls-4" cx="36.91" cy="57.51" r="0.69"/><circle class="cls-4" cx="31.26" cy="67.01" r="0.69"/><circle class="cls-4" cx="30.23" cy="71.12" r="0.96"/><circle class="cls-4" cx="33.76" cy="63.66" r="1.01"/><circle class="cls-4" cx="32.76" cy="68.28" r="1.01"/><circle class="cls-4" cx="36.38" cy="54.11" r="1.01"/><circle class="cls-4" cx="36.38" cy="60.34" r="1.01"/><circle class="cls-4" cx="33.92" cy="58.42" r="1.01"/><circle class="cls-4" cx="35.27" cy="67.28" r="0.34"/><circle class="cls-4" cx="33.79" cy="61.12" r="0.34"/><path class="cls-2" d="M62.4,13a.38.38,0,0,1-.25-.08,11.17,11.17,0,0,0-3.26-1.63.4.4,0,1,1,.25-.76,12,12,0,0,1,3.5,1.76.39.39,0,0,1,.07.56A.4.4,0,0,1,62.4,13Z"/><path class="cls-2" d="M48.74,16.53h-.1a.41.41,0,0,1-.29-.49c.87-3.62,3.29-5.6,7.19-5.87a.39.39,0,0,1,.43.37.42.42,0,0,1-.38.43c-3.51.24-5.68,2-6.47,5.26A.39.39,0,0,1,48.74,16.53Z"/><path class="cls-1" d="M69.22,66.18a236.74,236.74,0,0,1-28.39,2.15c-.13,0-4-2.56-4.74-2.7a4.5,4.5,0,0,0-5.52,4.6c0,.33,1.31.63,1.6.46a3.74,3.74,0,0,1,1-.41c4.31-1,3.76,1.35,5.76,2,.22.07.34.31.56.38a83.25,83.25,0,0,0,31.05,2.94"/><path class="cls-2" d="M62.82,76.35A83.87,83.87,0,0,1,39.35,73a1.18,1.18,0,0,1-.43-.27s-.1-.1-.13-.1a3.69,3.69,0,0,1-1.63-1.15c-.7-.76-1.31-1.41-3.92-.81a3.44,3.44,0,0,0-.87.37,2.39,2.39,0,0,1-1.79-.22.69.69,0,0,1-.41-.59,5,5,0,0,1,1.74-4,5.17,5.17,0,0,1,4.25-1A21.76,21.76,0,0,1,40,67.34l1,.59H41a236.24,236.24,0,0,0,28.13-2.15l.11.8A240,240,0,0,1,41,68.73h-.21c-.15,0-.16,0-1.29-.71A27.81,27.81,0,0,0,36,66a4.35,4.35,0,0,0-3.6.86A4.18,4.18,0,0,0,31,70.12a2.19,2.19,0,0,0,1,.22,4.13,4.13,0,0,1,1.07-.45c3.06-.7,3.93.23,4.69,1a2.79,2.79,0,0,0,1.27.93,1.14,1.14,0,0,1,.44.27.4.4,0,0,0,.13.11,82.8,82.8,0,0,0,30.89,2.92l.08.8A76.7,76.7,0,0,1,62.82,76.35Z"/><path class="cls-2" d="M69.37,73.9a.41.41,0,0,1-.41-.32.37.37,0,0,1,.29-.46,12.34,12.34,0,0,0,2.2-.64.4.4,0,0,1,.26.76,12.57,12.57,0,0,1-2.26.65Z"/><path class="cls-2" d="M73.6,72.57a.4.4,0,0,1-.14-.77A14.69,14.69,0,0,0,77,70.23c.76-1.14,1-7.27.71-8.35a.39.39,0,0,1,.28-.49.39.39,0,0,1,.49.28c.36,1.32.12,7.61-.82,9-.11.16-.39.58-4,1.86A.3.3,0,0,1,73.6,72.57Z"/></svg>