<?xml version="1.0" encoding="utf-8"?>
<!-- Generator: Adobe Illustrator 19.1.0, SVG Export Plug-In . SVG Version: 6.00 Build 0)  -->
<svg version="1.1" id="Layer_1" xmlns="http://www.w3.org/2000/svg" xmlns:xlink="http://www.w3.org/1999/xlink" x="0px" y="0px"
	 viewBox="0 0 128 128" style="enable-background:new 0 0 128 128;" xml:space="preserve">
<style type="text/css">
	.st0{fill:#313C42;}
	.st1{fill:none;stroke:#313C42;stroke-width:4;stroke-linecap:round;stroke-linejoin:round;stroke-miterlimit:10;}
</style>
<g>
	<g>
		<path class="st0" d="M14.7,99.6H2.5c-1.1,0-2-0.9-2-2V36.5c0-4.5,3.6-8.1,8.1-8.1s8.1,3.6,8.1,8.1v61.1
			C16.7,98.7,15.8,99.6,14.7,99.6z M4.5,95.6h8.2V36.5c0-2.3-1.8-4.1-4.1-4.1s-4.1,1.8-4.1,4.1V95.6z"/>
	</g>
	<g>
		<path class="st0" d="M125.5,99.6h-12.2c-1.1,0-2-0.9-2-2V55.2c0-4.5,3.6-8.1,8.1-8.1c4.5,0,8.1,3.6,8.1,8.1v42.4
			C127.5,98.7,126.6,99.6,125.5,99.6z M115.3,95.6h8.2V55.2c0-2.3-1.8-4.1-4.1-4.1s-4.1,1.8-4.1,4.1V95.6z"/>
	</g>
	<g>
		<path class="st0" d="M37,66c-0.2,0-0.5,0-0.7,0l-12.9-1.4c-1.7-0.2-3.2-1-4.3-2.3c-1.1-1.3-1.5-3-1.4-4.7c0.2-1.7,1-3.2,2.3-4.3
			c1.3-1.1,3-1.5,4.7-1.4l12.9,1.4c3.5,0.4,6,3.5,5.6,7C43,63.6,40.2,66,37,66z M24.1,55.8c-0.5,0-1.1,0.2-1.5,0.5
			c-0.5,0.4-0.8,1-0.9,1.6c-0.1,0.6,0.1,1.3,0.5,1.7c0.4,0.5,1,0.8,1.6,0.9L36.7,62l0,0c1.3,0.1,2.5-0.8,2.6-2.1
			c0.1-1.3-0.8-2.5-2.1-2.6l-12.9-1.4C24.3,55.8,24.2,55.8,24.1,55.8z"/>
	</g>
	<g>
		<path class="st0" d="M47.8,87.1H14.7c-1.1,0-2-0.9-2-2V71.3c0-1.1,0.9-2,2-2h33c1.1,0,2,0.9,2,2s-0.9,2-2,2h-31v9.9h31.1
			c1.1,0,2,0.9,2,2S48.9,87.1,47.8,87.1z"/>
	</g>
	<g>
		<path class="st0" d="M113.3,87.1h-10.8c-1.1,0-2-0.9-2-2s0.9-2,2-2h8.8v-9.9h-8.6c-1.1,0-2-0.9-2-2s0.9-2,2-2h10.6
			c1.1,0,2,0.9,2,2v13.9C115.3,86.3,114.4,87.1,113.3,87.1z"/>
	</g>
	<g>
		<path class="st0" d="M102.5,95.1H47.8c-1.1,0-2-0.9-2-2V57.4c0-1.1,0.9-2,2-2h54.7c1.1,0,2,0.9,2,2v35.7
			C104.5,94.2,103.6,95.1,102.5,95.1z M49.8,91.1h50.7V59.4H49.8V91.1z"/>
	</g>
</g>
</svg>
