<?xml version="1.0" encoding="utf-8"?>
<!-- Generator: Adobe Illustrator 18.1.1, SVG Export Plug-In . SVG Version: 6.00 Build 0)  -->
<svg version="1.1" id="Layer_1" xmlns="http://www.w3.org/2000/svg" xmlns:xlink="http://www.w3.org/1999/xlink" x="0px" y="0px"
	 viewBox="0 0 128 128" enable-background="new 0 0 128 128" xml:space="preserve">
<g>
	<g>
		<path fill="#303C42" d="M65.6,32.4c-8.8,0-15.9-7.1-15.9-15.9S56.9,0.5,65.6,0.5s15.9,7.1,15.9,15.9S74.4,32.4,65.6,32.4z
			 M65.6,4.5c-6.6,0-11.9,5.4-11.9,11.9s5.4,11.9,11.9,11.9S77.6,23,77.6,16.4S72.2,4.5,65.6,4.5z"/>
	</g>
	<g>
		<path fill="#303C42" d="M70.7,127.5c-1.8,0-3.5-0.6-4.9-1.6c-8-5.7-22.9-7.8-34.2-7.8c-0.9,0-1.8,0-2.6,0l-0.3,0
			c-4.5,0-8.4-2.9-9.7-7.1c-1.4-4.4,0.3-9.1,4.2-11.6c0.2-0.1,0.5-0.3,0.7-0.4l22.3-11.5V55.9c0-10.7,8.7-19.4,19.4-19.4h0.3
			c10.7,0,19.4,8.7,19.4,19.4v34.2l17.3,8.9c0.2,0.1,0.5,0.3,0.7,0.4c3.9,2.5,5.6,7.2,4.2,11.6c-1.3,4.3-5.2,7.1-9.7,7.1
			c0,0,0,0,0,0l-0.3,0c-0.8,0-1.7,0-2.6,0c-3,0-8.9,0.2-15.6,1.2c-0.1,1.6-0.6,3.2-1.6,4.6C76,126.2,73.5,127.5,70.7,127.5z
			 M31.5,114.1c5.8,0,25.6,0.6,36.6,8.5c0.8,0.6,1.7,0.8,2.6,0.8c1.4,0,2.8-0.7,3.6-1.9c0.7-1,1-2.2,0.8-3.3s-0.8-2.2-1.8-2.9
			c-6.4-4.6-15.5-7.7-27.1-9.2c-0.9-0.1-1.6-0.8-1.7-1.6s0.3-1.7,1.1-2.1l8.1-4.2c0.2-0.1,0.4-0.2,0.6-0.4c0.3-0.3,0.8-0.4,1.2-0.4
			h15.2c0.4,0,0.8,0.1,1.2,0.4c0.2,0.2,0.4,0.3,0.6,0.4l8.1,4.2c0.8,0.4,1.2,1.3,1.1,2.1s-0.8,1.5-1.7,1.6
			c-3.8,0.5-7.3,1.2-10.7,2.1c2.5,1.2,4.8,2.5,6.8,3.9c1.2,0.8,2.1,2,2.7,3.3c6.8-1.1,12.8-1.3,16-1.3c1,0,1.9,0,2.7,0l0.2,0
			c2.8,0,5.1-1.7,5.9-4.3c0.8-2.7-0.2-5.5-2.6-7c-0.1-0.1-0.2-0.1-0.4-0.2l-18.3-9.5c-0.7-0.3-1.1-1-1.1-1.8V55.9
			c0-8.5-6.9-15.4-15.4-15.4h-0.3c-8.5,0-15.4,6.9-15.4,15.4v32.8c0,0.7-0.4,1.4-1.1,1.8l-23.4,12.1c-0.1,0.1-0.2,0.1-0.4,0.2
			c-2.4,1.5-3.4,4.3-2.5,7c0.8,2.6,3.2,4.3,5.9,4.3l0.2,0C29.6,114.2,30.6,114.1,31.5,114.1z M52.9,103.2c3.7,0.7,7.2,1.6,10.3,2.7
			c3.2-1.1,6.6-2,10.2-2.7l-2.8-1.4c-0.2-0.1-0.4-0.2-0.6-0.3h-14c-0.2,0.1-0.4,0.2-0.6,0.3L52.9,103.2z"/>
	</g>
	<g>
		<path fill="#303C42" d="M107.6,103.3c-1.7,0-3.3-0.5-4.7-1.4c-7.6-5.2-14.8-12.4-21.3-21.4c-0.2-0.3-0.4-0.7-0.4-1.2V55.9
			c0-0.9-0.1-1.8-0.3-2.8c-0.2-1,0.4-2,1.4-2.3c1-0.3,2,0.2,2.4,1.1c4.3,9.3,13.5,26.4,27.6,35.9c3.9,2.6,4.9,7.9,2.3,11.8
			C113.1,101.9,110.4,103.3,107.6,103.3z M85.2,78.6c6.1,8.4,12.8,15.1,19.9,19.9c0.7,0.5,1.6,0.8,2.5,0.8c1.5,0,2.9-0.7,3.7-2
			c1.4-2,0.8-4.8-1.2-6.2c-11.3-7.6-19.6-19.7-24.9-29.3V78.6z"/>
	</g>
	<g>
		<path fill="#303C42" d="M20.4,102.7c-3,0-5.8-1.6-7.3-4.2c-2.4-4-1-9.2,3-11.6c16-9.4,26.8-28.2,30.6-35.8c0.5-0.9,1.5-1.3,2.5-1
			c0.9,0.3,1.5,1.3,1.3,2.3c-0.3,1.2-0.4,2.3-0.4,3.5v21.2c0,0.4-0.1,0.9-0.4,1.2c-7.7,10.1-16.1,17.9-25,23.2
			C23.4,102.3,21.9,102.7,20.4,102.7z M46.1,60.5c-5.6,9.3-15.2,22.3-27.9,29.8c-2.1,1.3-2.8,4-1.6,6.1c0.8,1.4,2.3,2.2,3.9,2.2
			c0.8,0,1.6-0.2,2.3-0.6C31,93.2,38.8,86,46.1,76.5V60.5z"/>
	</g>
</g>
</svg>
